<mxfile host="app.diagrams.net" agent="Mozilla/5.0 (Windows NT 10.0; Win64; x64) AppleWebKit/537.36 (KHTML, like Gecko) Chrome/128.0.0.0 Safari/537.36" version="24.7.8" pages="5">
  <diagram name="PÃ¡gina-1" id="INM2_lctJYVctfOefbn5">
    <mxGraphModel dx="2049" dy="1114" grid="1" gridSize="10" guides="1" tooltips="1" connect="1" arrows="1" fold="1" page="1" pageScale="1" pageWidth="827" pageHeight="1169" math="0" shadow="0">
      <root>
        <mxCell id="0" />
        <mxCell id="1" parent="0" />
        <UserObject label="" plantUmlData="{&quot;data&quot;:&quot;@startuml\ntitle Infrastructure Diagram\n\npackage \&quot;Resource Group\&quot; {\n  entity \&quot;azurerm_resource_group.main\&quot; {\n    + Name: var.resource_group_name\n    + Location: var.location\n  }\n\n  package \&quot;Mobile App Module\&quot; {\n    entity \&quot;module.mobile_app\&quot; {\n      + Storage Account: var.flutter_app_storage_account_name\n    }\n  }\n\n  package \&quot;Web App Module\&quot; {\n    entity \&quot;module.web_app\&quot; {\n      + Storage Account: var.react_app_storage_account_name\n    }\n  }\n\n  package \&quot;Backend API Module\&quot; {\n    entity \&quot;module.backend_api\&quot; {\n      + ACR Name: var.acr_name\n      + AKS Cluster Name: var.aks_cluster_name\n      + Subnet ID: var.subnet_id\n      + Node Count: var.backend_node_count\n    }\n  }\n}\n\n&#39; Connecting the modules to the resource group\n\&quot;azurerm_resource_group.main\&quot; --&gt; \&quot;module.mobile_app\&quot;\n\&quot;azurerm_resource_group.main\&quot; --&gt; \&quot;module.web_app\&quot;\n\&quot;azurerm_resource_group.main\&quot; --&gt; \&quot;module.backend_api\&quot;\n\n@enduml\n&quot;,&quot;format&quot;:&quot;svg&quot;}" id="ot8tfUputYAvazXerGEI-1">
          <mxCell style="shape=image;noLabel=1;verticalAlign=top;aspect=fixed;imageAspect=0;image=data:image/svg+xml,PD94bWwgdmVyc2lvbj0iMS4wIiBlbmNvZGluZz0idXMtYXNjaWkiIHN0YW5kYWxvbmU9Im5vIj8+PHN2ZyB4bWxucz0iaHR0cDovL3d3dy53My5vcmcvMjAwMC9zdmciIHhtbG5zOnhsaW5rPSJodHRwOi8vd3d3LnczLm9yZy8xOTk5L3hsaW5rIiBjb250ZW50U3R5bGVUeXBlPSJ0ZXh0L2NzcyIgaGVpZ2h0PSI0NTZweCIgcHJlc2VydmVBc3BlY3RSYXRpbz0ibm9uZSIgc3R5bGU9IndpZHRoOjIwMTZweDtoZWlnaHQ6NDU2cHg7YmFja2dyb3VuZDojRkZGRkZGOyIgdmVyc2lvbj0iMS4xIiB2aWV3Qm94PSIwIDAgMjAxNiA0NTYiIHdpZHRoPSIyMDE2cHgiIHpvb21BbmRQYW49Im1hZ25pZnkiPjxkZWZzLz48Zz48dGV4dCBmaWxsPSIjMDAwMDAwIiBmb250LWZhbWlseT0ic2Fucy1zZXJpZiIgZm9udC1zaXplPSIxNCIgZm9udC13ZWlnaHQ9ImJvbGQiIGxlbmd0aEFkanVzdD0ic3BhY2luZyIgdGV4dExlbmd0aD0iMTU1IiB4PSI5MjMuNSIgeT0iMjMuMjM0NCI+SW5mcmFzdHJ1Y3R1cmUgRGlhZ3JhbTwvdGV4dD48IS0tY2x1c3RlciBSZXNvdXJjZSBHcm91cC0tPjxnIGlkPSJjbHVzdGVyX1Jlc291cmNlIEdyb3VwIj48cGF0aCBkPSJNOC41LDQxLjk4NDQgTDEwNy41LDQxLjk4NDQgQTMuNzUsMy43NSAwIDAgMSAxMTAsNDQuNDg0NCBMMTE3LDYyLjk2ODggTDE3MDEuNSw2Mi45Njg4IEEyLjUsMi41IDAgMCAxIDE3MDQsNjUuNDY4OCBMMTcwNCwzMjYuNDg0NCBBMi41LDIuNSAwIDAgMSAxNzAxLjUsMzI4Ljk4NDQgTDguNSwzMjguOTg0NCBBMi41LDIuNSAwIDAgMSA2LDMyNi40ODQ0IEw2LDQ0LjQ4NDQgQTIuNSwyLjUgMCAwIDEgOC41LDQxLjk4NDQgIiBmaWxsPSJub25lIiBzdHlsZT0ic3Ryb2tlOiMwMDAwMDA7c3Ryb2tlLXdpZHRoOjEuNTsiLz48bGluZSBzdHlsZT0ic3Ryb2tlOiMwMDAwMDA7c3Ryb2tlLXdpZHRoOjEuNTsiIHgxPSI2IiB4Mj0iMTE3IiB5MT0iNjIuOTY4OCIgeTI9IjYyLjk2ODgiLz48dGV4dCBmaWxsPSIjMDAwMDAwIiBmb250LWZhbWlseT0ic2Fucy1zZXJpZiIgZm9udC1zaXplPSIxNCIgZm9udC13ZWlnaHQ9ImJvbGQiIGxlbmd0aEFkanVzdD0ic3BhY2luZyIgdGV4dExlbmd0aD0iOTgiIHg9IjEwIiB5PSI1Ny4yMTg4Ij5SZXNvdXJjZSBHcm91cDwvdGV4dD48L2c+PCEtLWNsdXN0ZXIgYXp1cmVybV9yZXNvdXJjZV9ncm91cC0tPjxnIGlkPSJjbHVzdGVyX2F6dXJlcm1fcmVzb3VyY2VfZ3JvdXAiPjxwYXRoIGQ9Ik0xNDIwLjUsMTM4Ljk4NDQgTDE1NzYuNSwxMzguOTg0NCBBMy43NSwzLjc1IDAgMCAxIDE1NzksMTQxLjQ4NDQgTDE1ODYsMTU5Ljk2ODggTDE2NzcuNSwxNTkuOTY4OCBBMi41LDIuNSAwIDAgMSAxNjgwLDE2Mi40Njg4IEwxNjgwLDI2My40ODQ0IEEyLjUsMi41IDAgMCAxIDE2NzcuNSwyNjUuOTg0NCBMMTQyMC41LDI2NS45ODQ0IEEyLjUsMi41IDAgMCAxIDE0MTgsMjYzLjQ4NDQgTDE0MTgsMTQxLjQ4NDQgQTIuNSwyLjUgMCAwIDEgMTQyMC41LDEzOC45ODQ0ICIgZmlsbD0ibm9uZSIgc3R5bGU9InN0cm9rZTojMDAwMDAwO3N0cm9rZS13aWR0aDoxLjU7Ii8+PGxpbmUgc3R5bGU9InN0cm9rZTojMDAwMDAwO3N0cm9rZS13aWR0aDoxLjU7IiB4MT0iMTQxOCIgeDI9IjE1ODYiIHkxPSIxNTkuOTY4OCIgeTI9IjE1OS45Njg4Ii8+PHRleHQgZmlsbD0iIzAwMDAwMCIgZm9udC1mYW1pbHk9InNhbnMtc2VyaWYiIGZvbnQtc2l6ZT0iMTQiIGZvbnQtd2VpZ2h0PSJib2xkIiBsZW5ndGhBZGp1c3Q9InNwYWNpbmciIHRleHRMZW5ndGg9IjE1NSIgeD0iMTQyMiIgeT0iMTU0LjIxODgiPmF6dXJlcm1fcmVzb3VyY2VfZ3JvdXA8L3RleHQ+PC9nPjwhLS1jbHVzdGVyIE1vYmlsZSBBcHAgTW9kdWxlLS0+PGcgaWQ9ImNsdXN0ZXJfTW9iaWxlIEFwcCBNb2R1bGUiPjxwYXRoIGQ9Ik05MTguNSwxMDUuNDg0NCBMMTAzOC41LDEwNS40ODQ0IEEzLjc1LDMuNzUgMCAwIDEgMTA0MSwxMDcuOTg0NCBMMTA0OCwxMjYuNDY4OCBMMTM5MS41LDEyNi40Njg4IEEyLjUsMi41IDAgMCAxIDEzOTQsMTI4Ljk2ODggTDEzOTQsMjc5Ljk4NDQgQTIuNSwyLjUgMCAwIDEgMTM5MS41LDI4Mi40ODQ0IEw5MTguNSwyODIuNDg0NCBBMi41LDIuNSAwIDAgMSA5MTYsMjc5Ljk4NDQgTDkxNiwxMDcuOTg0NCBBMi41LDIuNSAwIDAgMSA5MTguNSwxMDUuNDg0NCAiIGZpbGw9Im5vbmUiIHN0eWxlPSJzdHJva2U6IzAwMDAwMDtzdHJva2Utd2lkdGg6MS41OyIvPjxsaW5lIHN0eWxlPSJzdHJva2U6IzAwMDAwMDtzdHJva2Utd2lkdGg6MS41OyIgeDE9IjkxNiIgeDI9IjEwNDgiIHkxPSIxMjYuNDY4OCIgeTI9IjEyNi40Njg4Ii8+PHRleHQgZmlsbD0iIzAwMDAwMCIgZm9udC1mYW1pbHk9InNhbnMtc2VyaWYiIGZvbnQtc2l6ZT0iMTQiIGZvbnQtd2VpZ2h0PSJib2xkIiBsZW5ndGhBZGp1c3Q9InNwYWNpbmciIHRleHRMZW5ndGg9IjExOSIgeD0iOTIwIiB5PSIxMjAuNzE4OCI+TW9iaWxlIEFwcCBNb2R1bGU8L3RleHQ+PC9nPjwhLS1jbHVzdGVyIG1vZHVsZS0tPjxnIGlkPSJjbHVzdGVyX21vZHVsZSI+PHBhdGggZD0iTTk0Mi41LDE0Ni40ODQ0IEw5ODYuNSwxNDYuNDg0NCBBMy43NSwzLjc1IDAgMCAxIDk4OSwxNDguOTg0NCBMOTk2LDE2Ny40Njg4IEwxMzY3LjUsMTY3LjQ2ODggQTIuNSwyLjUgMCAwIDEgMTM3MCwxNjkuOTY4OCBMMTM3MCwyNTUuOTg0NCBBMi41LDIuNSAwIDAgMSAxMzY3LjUsMjU4LjQ4NDQgTDk0Mi41LDI1OC40ODQ0IEEyLjUsMi41IDAgMCAxIDk0MCwyNTUuOTg0NCBMOTQwLDE0OC45ODQ0IEEyLjUsMi41IDAgMCAxIDk0Mi41LDE0Ni40ODQ0ICIgZmlsbD0ibm9uZSIgc3R5bGU9InN0cm9rZTojMDAwMDAwO3N0cm9rZS13aWR0aDoxLjU7Ii8+PGxpbmUgc3R5bGU9InN0cm9rZTojMDAwMDAwO3N0cm9rZS13aWR0aDoxLjU7IiB4MT0iOTQwIiB4Mj0iOTk2IiB5MT0iMTY3LjQ2ODgiIHkyPSIxNjcuNDY4OCIvPjx0ZXh0IGZpbGw9IiMwMDAwMDAiIGZvbnQtZmFtaWx5PSJzYW5zLXNlcmlmIiBmb250LXNpemU9IjE0IiBmb250LXdlaWdodD0iYm9sZCIgbGVuZ3RoQWRqdXN0PSJzcGFjaW5nIiB0ZXh0TGVuZ3RoPSI0MyIgeD0iOTQ0IiB5PSIxNjEuNzE4OCI+bW9kdWxlPC90ZXh0PjwvZz48IS0tY2x1c3RlciBXZWIgQXBwIE1vZHVsZS0tPjxnIGlkPSJjbHVzdGVyX1dlYiBBcHAgTW9kdWxlIj48cGF0aCBkPSJNNDMwLjUsMTA1LjQ4NDQgTDUyOS41LDEwNS40ODQ0IEEzLjc1LDMuNzUgMCAwIDEgNTMyLDEwNy45ODQ0IEw1MzksMTI2LjQ2ODggTDg4OS41LDEyNi40Njg4IEEyLjUsMi41IDAgMCAxIDg5MiwxMjguOTY4OCBMODkyLDI3OS45ODQ0IEEyLjUsMi41IDAgMCAxIDg4OS41LDI4Mi40ODQ0IEw0MzAuNSwyODIuNDg0NCBBMi41LDIuNSAwIDAgMSA0MjgsMjc5Ljk4NDQgTDQyOCwxMDcuOTg0NCBBMi41LDIuNSAwIDAgMSA0MzAuNSwxMDUuNDg0NCAiIGZpbGw9Im5vbmUiIHN0eWxlPSJzdHJva2U6IzAwMDAwMDtzdHJva2Utd2lkdGg6MS41OyIvPjxsaW5lIHN0eWxlPSJzdHJva2U6IzAwMDAwMDtzdHJva2Utd2lkdGg6MS41OyIgeDE9IjQyOCIgeDI9IjUzOSIgeTE9IjEyNi40Njg4IiB5Mj0iMTI2LjQ2ODgiLz48dGV4dCBmaWxsPSIjMDAwMDAwIiBmb250LWZhbWlseT0ic2Fucy1zZXJpZiIgZm9udC1zaXplPSIxNCIgZm9udC13ZWlnaHQ9ImJvbGQiIGxlbmd0aEFkanVzdD0ic3BhY2luZyIgdGV4dExlbmd0aD0iOTgiIHg9IjQzMiIgeT0iMTIwLjcxODgiPldlYiBBcHAgTW9kdWxlPC90ZXh0PjwvZz48IS0tY2x1c3RlciBtb2R1bGUtLT48ZyBpZD0iY2x1c3Rlcl9tb2R1bGUiPjxwYXRoIGQ9Ik00NTQuNSwxNDYuNDg0NCBMNDk4LjUsMTQ2LjQ4NDQgQTMuNzUsMy43NSAwIDAgMSA1MDEsMTQ4Ljk4NDQgTDUwOCwxNjcuNDY4OCBMODY1LjUsMTY3LjQ2ODggQTIuNSwyLjUgMCAwIDEgODY4LDE2OS45Njg4IEw4NjgsMjU1Ljk4NDQgQTIuNSwyLjUgMCAwIDEgODY1LjUsMjU4LjQ4NDQgTDQ1NC41LDI1OC40ODQ0IEEyLjUsMi41IDAgMCAxIDQ1MiwyNTUuOTg0NCBMNDUyLDE0OC45ODQ0IEEyLjUsMi41IDAgMCAxIDQ1NC41LDE0Ni40ODQ0ICIgZmlsbD0ibm9uZSIgc3R5bGU9InN0cm9rZTojMDAwMDAwO3N0cm9rZS13aWR0aDoxLjU7Ii8+PGxpbmUgc3R5bGU9InN0cm9rZTojMDAwMDAwO3N0cm9rZS13aWR0aDoxLjU7IiB4MT0iNDUyIiB4Mj0iNTA4IiB5MT0iMTY3LjQ2ODgiIHkyPSIxNjcuNDY4OCIvPjx0ZXh0IGZpbGw9IiMwMDAwMDAiIGZvbnQtZmFtaWx5PSJzYW5zLXNlcmlmIiBmb250LXNpemU9IjE0IiBmb250LXdlaWdodD0iYm9sZCIgbGVuZ3RoQWRqdXN0PSJzcGFjaW5nIiB0ZXh0TGVuZ3RoPSI0MyIgeD0iNDU2IiB5PSIxNjEuNzE4OCI+bW9kdWxlPC90ZXh0PjwvZz48IS0tY2x1c3RlciBCYWNrZW5kIEFQSSBNb2R1bGUtLT48ZyBpZD0iY2x1c3Rlcl9CYWNrZW5kIEFQSSBNb2R1bGUiPjxwYXRoIGQ9Ik0zMi41LDgyLjk4NDQgTDE1OS41LDgyLjk4NDQgQTMuNzUsMy43NSAwIDAgMSAxNjIsODUuNDg0NCBMMTY5LDEwMy45Njg4IEw0MDEuNSwxMDMuOTY4OCBBMi41LDIuNSAwIDAgMSA0MDQsMTA2LjQ2ODggTDQwNCwzMDIuNDg0NCBBMi41LDIuNSAwIDAgMSA0MDEuNSwzMDQuOTg0NCBMMzIuNSwzMDQuOTg0NCBBMi41LDIuNSAwIDAgMSAzMCwzMDIuNDg0NCBMMzAsODUuNDg0NCBBMi41LDIuNSAwIDAgMSAzMi41LDgyLjk4NDQgIiBmaWxsPSJub25lIiBzdHlsZT0ic3Ryb2tlOiMwMDAwMDA7c3Ryb2tlLXdpZHRoOjEuNTsiLz48bGluZSBzdHlsZT0ic3Ryb2tlOiMwMDAwMDA7c3Ryb2tlLXdpZHRoOjEuNTsiIHgxPSIzMCIgeDI9IjE2OSIgeTE9IjEwMy45Njg4IiB5Mj0iMTAzLjk2ODgiLz48dGV4dCBmaWxsPSIjMDAwMDAwIiBmb250LWZhbWlseT0ic2Fucy1zZXJpZiIgZm9udC1zaXplPSIxNCIgZm9udC13ZWlnaHQ9ImJvbGQiIGxlbmd0aEFkanVzdD0ic3BhY2luZyIgdGV4dExlbmd0aD0iMTI2IiB4PSIzNCIgeT0iOTguMjE4OCI+QmFja2VuZCBBUEkgTW9kdWxlPC90ZXh0PjwvZz48IS0tY2x1c3RlciBtb2R1bGUtLT48ZyBpZD0iY2x1c3Rlcl9tb2R1bGUiPjxwYXRoIGQ9Ik01Ni41LDEyMy45ODQ0IEwxMDAuNSwxMjMuOTg0NCBBMy43NSwzLjc1IDAgMCAxIDEwMywxMjYuNDg0NCBMMTEwLDE0NC45Njg4IEwzNzcuNSwxNDQuOTY4OCBBMi41LDIuNSAwIDAgMSAzODAsMTQ3LjQ2ODggTDM4MCwyNzguNDg0NCBBMi41LDIuNSAwIDAgMSAzNzcuNSwyODAuOTg0NCBMNTYuNSwyODAuOTg0NCBBMi41LDIuNSAwIDAgMSA1NCwyNzguNDg0NCBMNTQsMTI2LjQ4NDQgQTIuNSwyLjUgMCAwIDEgNTYuNSwxMjMuOTg0NCAiIGZpbGw9Im5vbmUiIHN0eWxlPSJzdHJva2U6IzAwMDAwMDtzdHJva2Utd2lkdGg6MS41OyIvPjxsaW5lIHN0eWxlPSJzdHJva2U6IzAwMDAwMDtzdHJva2Utd2lkdGg6MS41OyIgeDE9IjU0IiB4Mj0iMTEwIiB5MT0iMTQ0Ljk2ODgiIHkyPSIxNDQuOTY4OCIvPjx0ZXh0IGZpbGw9IiMwMDAwMDAiIGZvbnQtZmFtaWx5PSJzYW5zLXNlcmlmIiBmb250LXNpemU9IjE0IiBmb250LXdlaWdodD0iYm9sZCIgbGVuZ3RoQWRqdXN0PSJzcGFjaW5nIiB0ZXh0TGVuZ3RoPSI0MyIgeD0iNTgiIHk9IjEzOS4yMTg4Ij5tb2R1bGU8L3RleHQ+PC9nPjwhLS1jbHVzdGVyIGF6dXJlcm1fcmVzb3VyY2VfZ3JvdXAtLT48ZyBpZD0iY2x1c3Rlcl9henVyZXJtX3Jlc291cmNlX2dyb3VwIj48cGF0aCBkPSJNMTczMC41LDE1My45ODQ0IEwxODg2LjUsMTUzLjk4NDQgQTMuNzUsMy43NSAwIDAgMSAxODg5LDE1Ni40ODQ0IEwxODk2LDE3NC45Njg4IEwxODk2LjUsMTc0Ljk2ODggQTIuNSwyLjUgMCAwIDEgMTg5OSwxNzcuNDY4OCBMMTg5OSwyNDguNDg0NCBBMi41LDIuNSAwIDAgMSAxODk2LjUsMjUwLjk4NDQgTDE3MzAuNSwyNTAuOTg0NCBBMi41LDIuNSAwIDAgMSAxNzI4LDI0OC40ODQ0IEwxNzI4LDE1Ni40ODQ0IEEyLjUsMi41IDAgMCAxIDE3MzAuNSwxNTMuOTg0NCAiIGZpbGw9Im5vbmUiIHN0eWxlPSJzdHJva2U6IzAwMDAwMDtzdHJva2Utd2lkdGg6MS41OyIvPjxsaW5lIHN0eWxlPSJzdHJva2U6IzAwMDAwMDtzdHJva2Utd2lkdGg6MS41OyIgeDE9IjE3MjgiIHgyPSIxODk2IiB5MT0iMTc0Ljk2ODgiIHkyPSIxNzQuOTY4OCIvPjx0ZXh0IGZpbGw9IiMwMDAwMDAiIGZvbnQtZmFtaWx5PSJzYW5zLXNlcmlmIiBmb250LXNpemU9IjE0IiBmb250LXdlaWdodD0iYm9sZCIgbGVuZ3RoQWRqdXN0PSJzcGFjaW5nIiB0ZXh0TGVuZ3RoPSIxNTUiIHg9IjE3MzIiIHk9IjE2OS4yMTg4Ij5henVyZXJtX3Jlc291cmNlX2dyb3VwPC90ZXh0PjwvZz48IS0tY2x1c3RlciBtb2R1bGUtLT48ZyBpZD0iY2x1c3Rlcl9tb2R1bGUiPjxwYXRoIGQ9Ik0xNjEzLjUsMzUyLjk4NDQgTDE2NTcuNSwzNTIuOTg0NCBBMy43NSwzLjc1IDAgMCAxIDE2NjAsMzU1LjQ4NDQgTDE2NjcsMzczLjk2ODggTDIwMDYuNSwzNzMuOTY4OCBBMi41LDIuNSAwIDAgMSAyMDA5LDM3Ni40Njg4IEwyMDA5LDQ0Ny40ODQ0IEEyLjUsMi41IDAgMCAxIDIwMDYuNSw0NDkuOTg0NCBMMTYxMy41LDQ0OS45ODQ0IEEyLjUsMi41IDAgMCAxIDE2MTEsNDQ3LjQ4NDQgTDE2MTEsMzU1LjQ4NDQgQTIuNSwyLjUgMCAwIDEgMTYxMy41LDM1Mi45ODQ0ICIgZmlsbD0ibm9uZSIgc3R5bGU9InN0cm9rZTojMDAwMDAwO3N0cm9rZS13aWR0aDoxLjU7Ii8+PGxpbmUgc3R5bGU9InN0cm9rZTojMDAwMDAwO3N0cm9rZS13aWR0aDoxLjU7IiB4MT0iMTYxMSIgeDI9IjE2NjciIHkxPSIzNzMuOTY4OCIgeTI9IjM3My45Njg4Ii8+PHRleHQgZmlsbD0iIzAwMDAwMCIgZm9udC1mYW1pbHk9InNhbnMtc2VyaWYiIGZvbnQtc2l6ZT0iMTQiIGZvbnQtd2VpZ2h0PSJib2xkIiBsZW5ndGhBZGp1c3Q9InNwYWNpbmciIHRleHRMZW5ndGg9IjQzIiB4PSIxNjE1IiB5PSIzNjguMjE4OCI+bW9kdWxlPC90ZXh0PjwvZz48IS0tY2xhc3MgbWFpbi0tPjxnIGlkPSJlbGVtX21haW4iPjxyZWN0IGNvZGVMaW5lPSI0IiBmaWxsPSIjRjFGMUYxIiBoZWlnaHQ9Ijc3Ljk2ODgiIGlkPSJtYWluIiByeD0iMi41IiByeT0iMi41IiBzdHlsZT0ic3Ryb2tlOiMxODE4MTg7c3Ryb2tlLXdpZHRoOjAuNTsiIHdpZHRoPSIyMzEiIHg9IjE0MzMuNSIgeT0iMTcxLjk4NDQiLz48ZWxsaXBzZSBjeD0iMTUzMC4yNSIgY3k9IjE4Ny45ODQ0IiBmaWxsPSIjQUREMUIyIiByeD0iMTEiIHJ5PSIxMSIgc3R5bGU9InN0cm9rZTojMTgxODE4O3N0cm9rZS13aWR0aDoxLjA7Ii8+PHBhdGggZD0iTTE1MzMuODc1LDE5My45ODQ0IEwxNTMzLjg3NSwxOTIuMjM0NCBMMTUyOC41NjI1LDE5Mi4yMzQ0IFExNTI4LjU2MjUsMTkyLjIzNDQgMTUyOC41NjI1LDE4OC42NzE5IEwxNTMyLjgxMjUsMTg4LjY3MTkgTDE1MzIuODEyNSwxODYuOTIxOSBMMTUyOC41NjI1LDE4Ni45MjE5IEwxNTI4LjU2MjUsMTg0LjQyMTkgTDE1MzMuODc1LDE4NC40MjE5IEwxNTMzLjg3NSwxODIuNjcxOSBMMTUyNi44MTI1LDE4Mi42NzE5IFExNTI2LjgxMjUsMTgyLjY3MTkgMTUyNi44MTI1LDE5My45ODQ0IEwxNTMzLjg3NSwxOTMuOTg0NCBaICIgZmlsbD0iIzAwMDAwMCIvPjx0ZXh0IGZpbGw9IiMwMDAwMDAiIGZvbnQtZmFtaWx5PSJzYW5zLXNlcmlmIiBmb250LXNpemU9IjE0IiBsZW5ndGhBZGp1c3Q9InNwYWNpbmciIHRleHRMZW5ndGg9IjI5IiB4PSIxNTUwLjc1IiB5PSIxOTMuNzI2NiI+bWFpbjwvdGV4dD48bGluZSBzdHlsZT0ic3Ryb2tlOiMxODE4MTg7c3Ryb2tlLXdpZHRoOjAuNTsiIHgxPSIxNDM0LjUiIHgyPSIxNjYzLjUiIHkxPSIyMDMuOTg0NCIgeTI9IjIwMy45ODQ0Ii8+PGVsbGlwc2UgY3g9IjE0NDQuNSIgY3k9IjIxNi45NzY2IiBmaWxsPSJub25lIiByeD0iMyIgcnk9IjMiIHN0eWxlPSJzdHJva2U6IzAzODA0ODtzdHJva2Utd2lkdGg6MS4wOyIvPjx0ZXh0IGZpbGw9IiMwMDAwMDAiIGZvbnQtZmFtaWx5PSJzYW5zLXNlcmlmIiBmb250LXNpemU9IjE0IiBsZW5ndGhBZGp1c3Q9InNwYWNpbmciIHRleHRMZW5ndGg9IjIwNSIgeD0iMTQ1My41IiB5PSIyMjEuMjE4OCI+TmFtZTogdmFyLnJlc291cmNlX2dyb3VwX25hbWU8L3RleHQ+PGVsbGlwc2UgY3g9IjE0NDQuNSIgY3k9IjIzMS45NjA5IiBmaWxsPSJub25lIiByeD0iMyIgcnk9IjMiIHN0eWxlPSJzdHJva2U6IzAzODA0ODtzdHJva2Utd2lkdGg6MS4wOyIvPjx0ZXh0IGZpbGw9IiMwMDAwMDAiIGZvbnQtZmFtaWx5PSJzYW5zLXNlcmlmIiBmb250LXNpemU9IjE0IiBsZW5ndGhBZGp1c3Q9InNwYWNpbmciIHRleHRMZW5ndGg9IjE1NCIgeD0iMTQ1My41IiB5PSIyMzYuMjAzMSI+TG9jYXRpb246IHZhci5sb2NhdGlvbjwvdGV4dD48bGluZSBzdHlsZT0ic3Ryb2tlOiMxODE4MTg7c3Ryb2tlLXdpZHRoOjAuNTsiIHgxPSIxNDM0LjUiIHgyPSIxNjYzLjUiIHkxPSIyNDEuOTUzMSIgeTI9IjI0MS45NTMxIi8+PC9nPjwhLS1jbGFzcyBtb2JpbGVfYXBwLS0+PGcgaWQ9ImVsZW1fbW9iaWxlX2FwcCI+PHJlY3QgY29kZUxpbmU9IjEwIiBmaWxsPSIjRjFGMUYxIiBoZWlnaHQ9IjYyLjk4NDQiIGlkPSJtb2JpbGVfYXBwIiByeD0iMi41IiByeT0iMi41IiBzdHlsZT0ic3Ryb2tlOiMxODE4MTg7c3Ryb2tlLXdpZHRoOjAuNTsiIHdpZHRoPSIzOTgiIHg9Ijk1NiIgeT0iMTc5LjQ4NDQiLz48ZWxsaXBzZSBjeD0iMTExNS4yNSIgY3k9IjE5NS40ODQ0IiBmaWxsPSIjQUREMUIyIiByeD0iMTEiIHJ5PSIxMSIgc3R5bGU9InN0cm9rZTojMTgxODE4O3N0cm9rZS13aWR0aDoxLjA7Ii8+PHBhdGggZD0iTTExMTguODc1LDIwMS40ODQ0IEwxMTE4Ljg3NSwxOTkuNzM0NCBMMTExMy41NjI1LDE5OS43MzQ0IFExMTEzLjU2MjUsMTk5LjczNDQgMTExMy41NjI1LDE5Ni4xNzE5IEwxMTE3LjgxMjUsMTk2LjE3MTkgTDExMTcuODEyNSwxOTQuNDIxOSBMMTExMy41NjI1LDE5NC40MjE5IEwxMTEzLjU2MjUsMTkxLjkyMTkgTDExMTguODc1LDE5MS45MjE5IEwxMTE4Ljg3NSwxOTAuMTcxOSBMMTExMS44MTI1LDE5MC4xNzE5IFExMTExLjgxMjUsMTkwLjE3MTkgMTExMS44MTI1LDIwMS40ODQ0IEwxMTE4Ljg3NSwyMDEuNDg0NCBaICIgZmlsbD0iIzAwMDAwMCIvPjx0ZXh0IGZpbGw9IiMwMDAwMDAiIGZvbnQtZmFtaWx5PSJzYW5zLXNlcmlmIiBmb250LXNpemU9IjE0IiBsZW5ndGhBZGp1c3Q9InNwYWNpbmciIHRleHRMZW5ndGg9IjcxIiB4PSIxMTM1Ljc1IiB5PSIyMDEuMjI2NiI+bW9iaWxlX2FwcDwvdGV4dD48bGluZSBzdHlsZT0ic3Ryb2tlOiMxODE4MTg7c3Ryb2tlLXdpZHRoOjAuNTsiIHgxPSI5NTciIHgyPSIxMzUzIiB5MT0iMjExLjQ4NDQiIHkyPSIyMTEuNDg0NCIvPjxlbGxpcHNlIGN4PSI5NjciIGN5PSIyMjQuNDc2NiIgZmlsbD0ibm9uZSIgcng9IjMiIHJ5PSIzIiBzdHlsZT0ic3Ryb2tlOiMwMzgwNDg7c3Ryb2tlLXdpZHRoOjEuMDsiLz48dGV4dCBmaWxsPSIjMDAwMDAwIiBmb250LWZhbWlseT0ic2Fucy1zZXJpZiIgZm9udC1zaXplPSIxNCIgbGVuZ3RoQWRqdXN0PSJzcGFjaW5nIiB0ZXh0TGVuZ3RoPSIzNzIiIHg9Ijk3NiIgeT0iMjI4LjcxODgiPlN0b3JhZ2UgQWNjb3VudDogdmFyLmZsdXR0ZXJfYXBwX3N0b3JhZ2VfYWNjb3VudF9uYW1lPC90ZXh0PjxsaW5lIHN0eWxlPSJzdHJva2U6IzE4MTgxODtzdHJva2Utd2lkdGg6MC41OyIgeDE9Ijk1NyIgeDI9IjEzNTMiIHkxPSIyMzQuNDY4OCIgeTI9IjIzNC40Njg4Ii8+PC9nPjwhLS1jbGFzcyB3ZWJfYXBwLS0+PGcgaWQ9ImVsZW1fd2ViX2FwcCI+PHJlY3QgY29kZUxpbmU9IjE2IiBmaWxsPSIjRjFGMUYxIiBoZWlnaHQ9IjYyLjk4NDQiIGlkPSJ3ZWJfYXBwIiByeD0iMi41IiByeT0iMi41IiBzdHlsZT0ic3Ryb2tlOiMxODE4MTg7c3Ryb2tlLXdpZHRoOjAuNTsiIHdpZHRoPSIzODQiIHg9IjQ2OCIgeT0iMTc5LjQ4NDQiLz48ZWxsaXBzZSBjeD0iNjMwLjc1IiBjeT0iMTk1LjQ4NDQiIGZpbGw9IiNBREQxQjIiIHJ4PSIxMSIgcnk9IjExIiBzdHlsZT0ic3Ryb2tlOiMxODE4MTg7c3Ryb2tlLXdpZHRoOjEuMDsiLz48cGF0aCBkPSJNNjM0LjM3NSwyMDEuNDg0NCBMNjM0LjM3NSwxOTkuNzM0NCBMNjI5LjA2MjUsMTk5LjczNDQgUTYyOS4wNjI1LDE5OS43MzQ0IDYyOS4wNjI1LDE5Ni4xNzE5IEw2MzMuMzEyNSwxOTYuMTcxOSBMNjMzLjMxMjUsMTk0LjQyMTkgTDYyOS4wNjI1LDE5NC40MjE5IEw2MjkuMDYyNSwxOTEuOTIxOSBMNjM0LjM3NSwxOTEuOTIxOSBMNjM0LjM3NSwxOTAuMTcxOSBMNjI3LjMxMjUsMTkwLjE3MTkgUTYyNy4zMTI1LDE5MC4xNzE5IDYyNy4zMTI1LDIwMS40ODQ0IEw2MzQuMzc1LDIwMS40ODQ0IFogIiBmaWxsPSIjMDAwMDAwIi8+PHRleHQgZmlsbD0iIzAwMDAwMCIgZm9udC1mYW1pbHk9InNhbnMtc2VyaWYiIGZvbnQtc2l6ZT0iMTQiIGxlbmd0aEFkanVzdD0ic3BhY2luZyIgdGV4dExlbmd0aD0iNTAiIHg9IjY1MS4yNSIgeT0iMjAxLjIyNjYiPndlYl9hcHA8L3RleHQ+PGxpbmUgc3R5bGU9InN0cm9rZTojMTgxODE4O3N0cm9rZS13aWR0aDowLjU7IiB4MT0iNDY5IiB4Mj0iODUxIiB5MT0iMjExLjQ4NDQiIHkyPSIyMTEuNDg0NCIvPjxlbGxpcHNlIGN4PSI0NzkiIGN5PSIyMjQuNDc2NiIgZmlsbD0ibm9uZSIgcng9IjMiIHJ5PSIzIiBzdHlsZT0ic3Ryb2tlOiMwMzgwNDg7c3Ryb2tlLXdpZHRoOjEuMDsiLz48dGV4dCBmaWxsPSIjMDAwMDAwIiBmb250LWZhbWlseT0ic2Fucy1zZXJpZiIgZm9udC1zaXplPSIxNCIgbGVuZ3RoQWRqdXN0PSJzcGFjaW5nIiB0ZXh0TGVuZ3RoPSIzNTgiIHg9IjQ4OCIgeT0iMjI4LjcxODgiPlN0b3JhZ2UgQWNjb3VudDogdmFyLnJlYWN0X2FwcF9zdG9yYWdlX2FjY291bnRfbmFtZTwvdGV4dD48bGluZSBzdHlsZT0ic3Ryb2tlOiMxODE4MTg7c3Ryb2tlLXdpZHRoOjAuNTsiIHgxPSI0NjkiIHgyPSI4NTEiIHkxPSIyMzQuNDY4OCIgeTI9IjIzNC40Njg4Ii8+PC9nPjwhLS1jbGFzcyBiYWNrZW5kX2FwaS0tPjxnIGlkPSJlbGVtX2JhY2tlbmRfYXBpIj48cmVjdCBjb2RlTGluZT0iMjIiIGZpbGw9IiNGMUYxRjEiIGhlaWdodD0iMTA3LjkzNzUiIGlkPSJiYWNrZW5kX2FwaSIgcng9IjIuNSIgcnk9IjIuNSIgc3R5bGU9InN0cm9rZTojMTgxODE4O3N0cm9rZS13aWR0aDowLjU7IiB3aWR0aD0iMjk0IiB4PSI3MCIgeT0iMTU2Ljk4NDQiLz48ZWxsaXBzZSBjeD0iMTc0LjI1IiBjeT0iMTcyLjk4NDQiIGZpbGw9IiNBREQxQjIiIHJ4PSIxMSIgcnk9IjExIiBzdHlsZT0ic3Ryb2tlOiMxODE4MTg7c3Ryb2tlLXdpZHRoOjEuMDsiLz48cGF0aCBkPSJNMTc3Ljg3NSwxNzguOTg0NCBMMTc3Ljg3NSwxNzcuMjM0NCBMMTcyLjU2MjUsMTc3LjIzNDQgUTE3Mi41NjI1LDE3Ny4yMzQ0IDE3Mi41NjI1LDE3My42NzE5IEwxNzYuODEyNSwxNzMuNjcxOSBMMTc2LjgxMjUsMTcxLjkyMTkgTDE3Mi41NjI1LDE3MS45MjE5IEwxNzIuNTYyNSwxNjkuNDIxOSBMMTc3Ljg3NSwxNjkuNDIxOSBMMTc3Ljg3NSwxNjcuNjcxOSBMMTcwLjgxMjUsMTY3LjY3MTkgUTE3MC44MTI1LDE2Ny42NzE5IDE3MC44MTI1LDE3OC45ODQ0IEwxNzcuODc1LDE3OC45ODQ0IFogIiBmaWxsPSIjMDAwMDAwIi8+PHRleHQgZmlsbD0iIzAwMDAwMCIgZm9udC1mYW1pbHk9InNhbnMtc2VyaWYiIGZvbnQtc2l6ZT0iMTQiIGxlbmd0aEFkanVzdD0ic3BhY2luZyIgdGV4dExlbmd0aD0iNzciIHg9IjE5NC43NSIgeT0iMTc4LjcyNjYiPmJhY2tlbmRfYXBpPC90ZXh0PjxsaW5lIHN0eWxlPSJzdHJva2U6IzE4MTgxODtzdHJva2Utd2lkdGg6MC41OyIgeDE9IjcxIiB4Mj0iMzYzIiB5MT0iMTg4Ljk4NDQiIHkyPSIxODguOTg0NCIvPjxlbGxpcHNlIGN4PSI4MSIgY3k9IjIwMS45NzY2IiBmaWxsPSJub25lIiByeD0iMyIgcnk9IjMiIHN0eWxlPSJzdHJva2U6IzAzODA0ODtzdHJva2Utd2lkdGg6MS4wOyIvPjx0ZXh0IGZpbGw9IiMwMDAwMDAiIGZvbnQtZmFtaWx5PSJzYW5zLXNlcmlmIiBmb250LXNpemU9IjE0IiBsZW5ndGhBZGp1c3Q9InNwYWNpbmciIHRleHRMZW5ndGg9IjE1NiIgeD0iOTAiIHk9IjIwNi4yMTg4Ij5BQ1IgTmFtZTogdmFyLmFjcl9uYW1lPC90ZXh0PjxlbGxpcHNlIGN4PSI4MSIgY3k9IjIxNi45NjA5IiBmaWxsPSJub25lIiByeD0iMyIgcnk9IjMiIHN0eWxlPSJzdHJva2U6IzAzODA0ODtzdHJva2Utd2lkdGg6MS4wOyIvPjx0ZXh0IGZpbGw9IiMwMDAwMDAiIGZvbnQtZmFtaWx5PSJzYW5zLXNlcmlmIiBmb250LXNpemU9IjE0IiBsZW5ndGhBZGp1c3Q9InNwYWNpbmciIHRleHRMZW5ndGg9IjI2OCIgeD0iOTAiIHk9IjIyMS4yMDMxIj5BS1MgQ2x1c3RlciBOYW1lOiB2YXIuYWtzX2NsdXN0ZXJfbmFtZTwvdGV4dD48ZWxsaXBzZSBjeD0iODEiIGN5PSIyMzEuOTQ1MyIgZmlsbD0ibm9uZSIgcng9IjMiIHJ5PSIzIiBzdHlsZT0ic3Ryb2tlOiMwMzgwNDg7c3Ryb2tlLXdpZHRoOjEuMDsiLz48dGV4dCBmaWxsPSIjMDAwMDAwIiBmb250LWZhbWlseT0ic2Fucy1zZXJpZiIgZm9udC1zaXplPSIxNCIgbGVuZ3RoQWRqdXN0PSJzcGFjaW5nIiB0ZXh0TGVuZ3RoPSIxNjgiIHg9IjkwIiB5PSIyMzYuMTg3NSI+U3VibmV0IElEOiB2YXIuc3VibmV0X2lkPC90ZXh0PjxlbGxpcHNlIGN4PSI4MSIgY3k9IjI0Ni45Mjk3IiBmaWxsPSJub25lIiByeD0iMyIgcnk9IjMiIHN0eWxlPSJzdHJva2U6IzAzODA0ODtzdHJva2Utd2lkdGg6MS4wOyIvPjx0ZXh0IGZpbGw9IiMwMDAwMDAiIGZvbnQtZmFtaWx5PSJzYW5zLXNlcmlmIiBmb250LXNpemU9IjE0IiBsZW5ndGhBZGp1c3Q9InNwYWNpbmciIHRleHRMZW5ndGg9IjIzOCIgeD0iOTAiIHk9IjI1MS4xNzE5Ij5Ob2RlIENvdW50OiB2YXIuYmFja2VuZF9ub2RlX2NvdW50PC90ZXh0PjxsaW5lIHN0eWxlPSJzdHJva2U6IzE4MTgxODtzdHJva2Utd2lkdGg6MC41OyIgeDE9IjcxIiB4Mj0iMzYzIiB5MT0iMjU2LjkyMTkiIHkyPSIyNTYuOTIxOSIvPjwvZz48IS0tY2xhc3MgbWFpbi0tPjxnIGlkPSJlbGVtX21haW4iPjxyZWN0IGZpbGw9IiNGMUYxRjEiIGhlaWdodD0iNDgiIGlkPSJtYWluIiByeD0iMi41IiByeT0iMi41IiBzdHlsZT0ic3Ryb2tlOiMxODE4MTg7c3Ryb2tlLXdpZHRoOjAuNTsiIHdpZHRoPSI2MSIgeD0iMTc4Mi41IiB5PSIxODYuOTg0NCIvPjxlbGxpcHNlIGN4PSIxNzk3LjUiIGN5PSIyMDIuOTg0NCIgZmlsbD0iI0FERDFCMiIgcng9IjExIiByeT0iMTEiIHN0eWxlPSJzdHJva2U6IzE4MTgxODtzdHJva2Utd2lkdGg6MS4wOyIvPjxwYXRoIGQ9Ik0xNzk1LjEyNSwyMDcuMjM0NCBMMTc5NS4xMjUsMjA4Ljk4NDQgTDE4MDAuMDYyNSwyMDguOTg0NCBMMTgwMC4wNjI1LDIwNy4yMzQ0IEwxNzk1LjEyNSwyMDcuMjM0NCBaIE0xNzk1LjgxMjUsMjA3LjkyMTkgUTE3OTUuODEyNSwyMDcuOTIxOSAxNzk1LjgxMjUsMTk4LjczNDQgTDE3OTQuMDYyNSwxOTguNzM0NCBRMTc5NC4wNjI1LDE5OC43MzQ0IDE3OTQuMDYyNSwyMDcuOTIxOSBMMTc5NS44MTI1LDIwNy45MjE5IFogTTE3OTkuMzc1LDIwNy45MjE5IEwxODAxLjEyNSwyMDcuOTIxOSBRMTgwMS4xMjUsMjA3LjkyMTkgMTgwMS4xMjUsMjA1LjEwOTQgTDE3OTkuMzc1LDIwNS4xMDk0IFExNzk5LjM3NSwyMDUuMTA5NCAxNzk5LjM3NSwyMDcuOTIxOSBaIE0xNzk5LjM3NSwxOTguNzM0NCBRMTc5OS4zNzUsMTk4LjczNDQgMTc5OS4zNzUsMjAxLjU0NjkgTDE4MDEuMTI1LDIwMS41NDY5IFExODAxLjEyNSwyMDEuNTQ2OSAxODAxLjEyNSwxOTguNzM0NCBMMTc5OS4zNzUsMTk4LjczNDQgWiBNMTc5NS4xMjUsMTk5LjQyMTkgTDE4MDAuMDYyNSwxOTkuNDIxOSBMMTgwMC4wNjI1LDE5Ny42NzE5IEwxNzk1LjEyNSwxOTcuNjcxOSBMMTc5NS4xMjUsMTk5LjQyMTkgWiAiIGZpbGw9IiMwMDAwMDAiLz48dGV4dCBmaWxsPSIjMDAwMDAwIiBmb250LWZhbWlseT0ic2Fucy1zZXJpZiIgZm9udC1zaXplPSIxNCIgbGVuZ3RoQWRqdXN0PSJzcGFjaW5nIiB0ZXh0TGVuZ3RoPSIyOSIgeD0iMTgxMS41IiB5PSIyMDguNzI2NiI+bWFpbjwvdGV4dD48bGluZSBzdHlsZT0ic3Ryb2tlOiMxODE4MTg7c3Ryb2tlLXdpZHRoOjAuNTsiIHgxPSIxNzgzLjUiIHgyPSIxODQyLjUiIHkxPSIyMTguOTg0NCIgeTI9IjIxOC45ODQ0Ii8+PGxpbmUgc3R5bGU9InN0cm9rZTojMTgxODE4O3N0cm9rZS13aWR0aDowLjU7IiB4MT0iMTc4My41IiB4Mj0iMTg0Mi41IiB5MT0iMjI2Ljk4NDQiIHkyPSIyMjYuOTg0NCIvPjwvZz48IS0tY2xhc3MgbW9iaWxlX2FwcC0tPjxnIGlkPSJlbGVtX21vYmlsZV9hcHAiPjxyZWN0IGZpbGw9IiNGMUYxRjEiIGhlaWdodD0iNDgiIGlkPSJtb2JpbGVfYXBwIiByeD0iMi41IiByeT0iMi41IiBzdHlsZT0ic3Ryb2tlOiMxODE4MTg7c3Ryb2tlLXdpZHRoOjAuNTsiIHdpZHRoPSIxMDMiIHg9IjE4ODkuNSIgeT0iMzg1Ljk4NDQiLz48ZWxsaXBzZSBjeD0iMTkwNC41IiBjeT0iNDAxLjk4NDQiIGZpbGw9IiNBREQxQjIiIHJ4PSIxMSIgcnk9IjExIiBzdHlsZT0ic3Ryb2tlOiMxODE4MTg7c3Ryb2tlLXdpZHRoOjEuMDsiLz48cGF0aCBkPSJNMTkwMi4xMjUsNDA2LjIzNDQgTDE5MDIuMTI1LDQwNy45ODQ0IEwxOTA3LjA2MjUsNDA3Ljk4NDQgTDE5MDcuMDYyNSw0MDYuMjM0NCBMMTkwMi4xMjUsNDA2LjIzNDQgWiBNMTkwMi44MTI1LDQwNi45MjE5IFExOTAyLjgxMjUsNDA2LjkyMTkgMTkwMi44MTI1LDM5Ny43MzQ0IEwxOTAxLjA2MjUsMzk3LjczNDQgUTE5MDEuMDYyNSwzOTcuNzM0NCAxOTAxLjA2MjUsNDA2LjkyMTkgTDE5MDIuODEyNSw0MDYuOTIxOSBaIE0xOTA2LjM3NSw0MDYuOTIxOSBMMTkwOC4xMjUsNDA2LjkyMTkgUTE5MDguMTI1LDQwNi45MjE5IDE5MDguMTI1LDQwNC4xMDk0IEwxOTA2LjM3NSw0MDQuMTA5NCBRMTkwNi4zNzUsNDA0LjEwOTQgMTkwNi4zNzUsNDA2LjkyMTkgWiBNMTkwNi4zNzUsMzk3LjczNDQgUTE5MDYuMzc1LDM5Ny43MzQ0IDE5MDYuMzc1LDQwMC41NDY5IEwxOTA4LjEyNSw0MDAuNTQ2OSBRMTkwOC4xMjUsNDAwLjU0NjkgMTkwOC4xMjUsMzk3LjczNDQgTDE5MDYuMzc1LDM5Ny43MzQ0IFogTTE5MDIuMTI1LDM5OC40MjE5IEwxOTA3LjA2MjUsMzk4LjQyMTkgTDE5MDcuMDYyNSwzOTYuNjcxOSBMMTkwMi4xMjUsMzk2LjY3MTkgTDE5MDIuMTI1LDM5OC40MjE5IFogIiBmaWxsPSIjMDAwMDAwIi8+PHRleHQgZmlsbD0iIzAwMDAwMCIgZm9udC1mYW1pbHk9InNhbnMtc2VyaWYiIGZvbnQtc2l6ZT0iMTQiIGxlbmd0aEFkanVzdD0ic3BhY2luZyIgdGV4dExlbmd0aD0iNzEiIHg9IjE5MTguNSIgeT0iNDA3LjcyNjYiPm1vYmlsZV9hcHA8L3RleHQ+PGxpbmUgc3R5bGU9InN0cm9rZTojMTgxODE4O3N0cm9rZS13aWR0aDowLjU7IiB4MT0iMTg5MC41IiB4Mj0iMTk5MS41IiB5MT0iNDE3Ljk4NDQiIHkyPSI0MTcuOTg0NCIvPjxsaW5lIHN0eWxlPSJzdHJva2U6IzE4MTgxODtzdHJva2Utd2lkdGg6MC41OyIgeDE9IjE4OTAuNSIgeDI9IjE5OTEuNSIgeTE9IjQyNS45ODQ0IiB5Mj0iNDI1Ljk4NDQiLz48L2c+PCEtLWNsYXNzIHdlYl9hcHAtLT48ZyBpZD0iZWxlbV93ZWJfYXBwIj48cmVjdCBmaWxsPSIjRjFGMUYxIiBoZWlnaHQ9IjQ4IiBpZD0id2ViX2FwcCIgcng9IjIuNSIgcnk9IjIuNSIgc3R5bGU9InN0cm9rZTojMTgxODE4O3N0cm9rZS13aWR0aDowLjU7IiB3aWR0aD0iODIiIHg9IjE3NzIiIHk9IjM4NS45ODQ0Ii8+PGVsbGlwc2UgY3g9IjE3ODciIGN5PSI0MDEuOTg0NCIgZmlsbD0iI0FERDFCMiIgcng9IjExIiByeT0iMTEiIHN0eWxlPSJzdHJva2U6IzE4MTgxODtzdHJva2Utd2lkdGg6MS4wOyIvPjxwYXRoIGQ9Ik0xNzg0LjYyNSw0MDYuMjM0NCBMMTc4NC42MjUsNDA3Ljk4NDQgTDE3ODkuNTYyNSw0MDcuOTg0NCBMMTc4OS41NjI1LDQwNi4yMzQ0IEwxNzg0LjYyNSw0MDYuMjM0NCBaIE0xNzg1LjMxMjUsNDA2LjkyMTkgUTE3ODUuMzEyNSw0MDYuOTIxOSAxNzg1LjMxMjUsMzk3LjczNDQgTDE3ODMuNTYyNSwzOTcuNzM0NCBRMTc4My41NjI1LDM5Ny43MzQ0IDE3ODMuNTYyNSw0MDYuOTIxOSBMMTc4NS4zMTI1LDQwNi45MjE5IFogTTE3ODguODc1LDQwNi45MjE5IEwxNzkwLjYyNSw0MDYuOTIxOSBRMTc5MC42MjUsNDA2LjkyMTkgMTc5MC42MjUsNDA0LjEwOTQgTDE3ODguODc1LDQwNC4xMDk0IFExNzg4Ljg3NSw0MDQuMTA5NCAxNzg4Ljg3NSw0MDYuOTIxOSBaIE0xNzg4Ljg3NSwzOTcuNzM0NCBRMTc4OC44NzUsMzk3LjczNDQgMTc4OC44NzUsNDAwLjU0NjkgTDE3OTAuNjI1LDQwMC41NDY5IFExNzkwLjYyNSw0MDAuNTQ2OSAxNzkwLjYyNSwzOTcuNzM0NCBMMTc4OC44NzUsMzk3LjczNDQgWiBNMTc4NC42MjUsMzk4LjQyMTkgTDE3ODkuNTYyNSwzOTguNDIxOSBMMTc4OS41NjI1LDM5Ni42NzE5IEwxNzg0LjYyNSwzOTYuNjcxOSBMMTc4NC42MjUsMzk4LjQyMTkgWiAiIGZpbGw9IiMwMDAwMDAiLz48dGV4dCBmaWxsPSIjMDAwMDAwIiBmb250LWZhbWlseT0ic2Fucy1zZXJpZiIgZm9udC1zaXplPSIxNCIgbGVuZ3RoQWRqdXN0PSJzcGFjaW5nIiB0ZXh0TGVuZ3RoPSI1MCIgeD0iMTgwMSIgeT0iNDA3LjcyNjYiPndlYl9hcHA8L3RleHQ+PGxpbmUgc3R5bGU9InN0cm9rZTojMTgxODE4O3N0cm9rZS13aWR0aDowLjU7IiB4MT0iMTc3MyIgeDI9IjE4NTMiIHkxPSI0MTcuOTg0NCIgeTI9IjQxNy45ODQ0Ii8+PGxpbmUgc3R5bGU9InN0cm9rZTojMTgxODE4O3N0cm9rZS13aWR0aDowLjU7IiB4MT0iMTc3MyIgeDI9IjE4NTMiIHkxPSI0MjUuOTg0NCIgeTI9IjQyNS45ODQ0Ii8+PC9nPjwhLS1jbGFzcyBiYWNrZW5kX2FwaS0tPjxnIGlkPSJlbGVtX2JhY2tlbmRfYXBpIj48cmVjdCBmaWxsPSIjRjFGMUYxIiBoZWlnaHQ9IjQ4IiBpZD0iYmFja2VuZF9hcGkiIHJ4PSIyLjUiIHJ5PSIyLjUiIHN0eWxlPSJzdHJva2U6IzE4MTgxODtzdHJva2Utd2lkdGg6MC41OyIgd2lkdGg9IjEwOSIgeD0iMTYyNy41IiB5PSIzODUuOTg0NCIvPjxlbGxpcHNlIGN4PSIxNjQyLjUiIGN5PSI0MDEuOTg0NCIgZmlsbD0iI0FERDFCMiIgcng9IjExIiByeT0iMTEiIHN0eWxlPSJzdHJva2U6IzE4MTgxODtzdHJva2Utd2lkdGg6MS4wOyIvPjxwYXRoIGQ9Ik0xNjQwLjEyNSw0MDYuMjM0NCBMMTY0MC4xMjUsNDA3Ljk4NDQgTDE2NDUuMDYyNSw0MDcuOTg0NCBMMTY0NS4wNjI1LDQwNi4yMzQ0IEwxNjQwLjEyNSw0MDYuMjM0NCBaIE0xNjQwLjgxMjUsNDA2LjkyMTkgUTE2NDAuODEyNSw0MDYuOTIxOSAxNjQwLjgxMjUsMzk3LjczNDQgTDE2MzkuMDYyNSwzOTcuNzM0NCBRMTYzOS4wNjI1LDM5Ny43MzQ0IDE2MzkuMDYyNSw0MDYuOTIxOSBMMTY0MC44MTI1LDQwNi45MjE5IFogTTE2NDQuMzc1LDQwNi45MjE5IEwxNjQ2LjEyNSw0MDYuOTIxOSBRMTY0Ni4xMjUsNDA2LjkyMTkgMTY0Ni4xMjUsNDA0LjEwOTQgTDE2NDQuMzc1LDQwNC4xMDk0IFExNjQ0LjM3NSw0MDQuMTA5NCAxNjQ0LjM3NSw0MDYuOTIxOSBaIE0xNjQ0LjM3NSwzOTcuNzM0NCBRMTY0NC4zNzUsMzk3LjczNDQgMTY0NC4zNzUsNDAwLjU0NjkgTDE2NDYuMTI1LDQwMC41NDY5IFExNjQ2LjEyNSw0MDAuNTQ2OSAxNjQ2LjEyNSwzOTcuNzM0NCBMMTY0NC4zNzUsMzk3LjczNDQgWiBNMTY0MC4xMjUsMzk4LjQyMTkgTDE2NDUuMDYyNSwzOTguNDIxOSBMMTY0NS4wNjI1LDM5Ni42NzE5IEwxNjQwLjEyNSwzOTYuNjcxOSBMMTY0MC4xMjUsMzk4LjQyMTkgWiAiIGZpbGw9IiMwMDAwMDAiLz48dGV4dCBmaWxsPSIjMDAwMDAwIiBmb250LWZhbWlseT0ic2Fucy1zZXJpZiIgZm9udC1zaXplPSIxNCIgbGVuZ3RoQWRqdXN0PSJzcGFjaW5nIiB0ZXh0TGVuZ3RoPSI3NyIgeD0iMTY1Ni41IiB5PSI0MDcuNzI2NiI+YmFja2VuZF9hcGk8L3RleHQ+PGxpbmUgc3R5bGU9InN0cm9rZTojMTgxODE4O3N0cm9rZS13aWR0aDowLjU7IiB4MT0iMTYyOC41IiB4Mj0iMTczNS41IiB5MT0iNDE3Ljk4NDQiIHkyPSI0MTcuOTg0NCIvPjxsaW5lIHN0eWxlPSJzdHJva2U6IzE4MTgxODtzdHJva2Utd2lkdGg6MC41OyIgeDE9IjE2MjguNSIgeDI9IjE3MzUuNSIgeTE9IjQyNS45ODQ0IiB5Mj0iNDI1Ljk4NDQiLz48L2c+PCEtLWxpbmsgbWFpbiB0byBtb2JpbGVfYXBwLS0+PGcgaWQ9ImxpbmtfbWFpbl9tb2JpbGVfYXBwIj48cGF0aCBjb2RlTGluZT0iMzIiIGQ9Ik0xODI4LjE5LDIzNS4zNTQ0IEMxODUyLjg5LDI3My4zNzQ0IDE4OTguMjAxLDM0My4xMTMxIDE5MjIuNzYxLDM4MC45MTMxICIgZmlsbD0ibm9uZSIgaWQ9Im1haW4tdG8tbW9iaWxlX2FwcCIgc3R5bGU9InN0cm9rZTojMTgxODE4O3N0cm9rZS13aWR0aDoxLjA7Ii8+PHBvbHlnb24gZmlsbD0iIzE4MTgxOCIgcG9pbnRzPSIxOTI2LjAzLDM4NS45NDQ0LDE5MjQuNDgwNywzNzYuMjE4MSwxOTIzLjMwNTgsMzgxLjc1MTcsMTkxNy43NzIzLDM4MC41NzY4LDE5MjYuMDMsMzg1Ljk0NDQiIHN0eWxlPSJzdHJva2U6IzE4MTgxODtzdHJva2Utd2lkdGg6MS4wOyIvPjwvZz48IS0tbGluayBtYWluIHRvIHdlYl9hcHAtLT48ZyBpZD0ibGlua19tYWluX3dlYl9hcHAiPjxwYXRoIGNvZGVMaW5lPSIzMyIgZD0iTTE4MTMsMjM1LjM1NDQgQzE4MTMsMjczLjM3NDQgMTgxMywzNDIuMTQ0NCAxODEzLDM3OS45NDQ0ICIgZmlsbD0ibm9uZSIgaWQ9Im1haW4tdG8td2ViX2FwcCIgc3R5bGU9InN0cm9rZTojMTgxODE4O3N0cm9rZS13aWR0aDoxLjA7Ii8+PHBvbHlnb24gZmlsbD0iIzE4MTgxOCIgcG9pbnRzPSIxODEzLDM4NS45NDQ0LDE4MTcsMzc2Ljk0NDQsMTgxMywzODAuOTQ0NCwxODA5LDM3Ni45NDQ0LDE4MTMsMzg1Ljk0NDQiIHN0eWxlPSJzdHJva2U6IzE4MTgxODtzdHJva2Utd2lkdGg6MS4wOyIvPjwvZz48IS0tbGluayBtYWluIHRvIGJhY2tlbmRfYXBpLS0+PGcgaWQ9ImxpbmtfbWFpbl9iYWNrZW5kX2FwaSI+PHBhdGggY29kZUxpbmU9IjM0IiBkPSJNMTc5Ny40NiwyMzUuMzU0NCBDMTc3Mi4xOCwyNzMuMzc0NCAxNzI1Ljc3MTgsMzQzLjE0NzggMTcwMC42NDE4LDM4MC45NDc4ICIgZmlsbD0ibm9uZSIgaWQ9Im1haW4tdG8tYmFja2VuZF9hcGkiIHN0eWxlPSJzdHJva2U6IzE4MTgxODtzdHJva2Utd2lkdGg6MS4wOyIvPjxwb2x5Z29uIGZpbGw9IiMxODE4MTgiIHBvaW50cz0iMTY5Ny4zMiwzODUuOTQ0NCwxNzA1LjYzMzcsMzgwLjY2NDEsMTcwMC4wODgyLDM4MS43ODA2LDE2OTguOTcxNiwzNzYuMjM1LDE2OTcuMzIsMzg1Ljk0NDQiIHN0eWxlPSJzdHJva2U6IzE4MTgxODtzdHJva2Utd2lkdGg6MS4wOyIvPjwvZz48IS0tU1JDPVtiUEIxSmlDbTM4UmxWR2ZoNW12ZVVtMEVJNk1KcTBJUnE3Ulc2QmNmcnFMaGFvZm5HODNzeGdKOWtkSzIzTlFmUWxqcF9GLTlNTjVEQ0RTUll1d2piLW1qbUtuWFBSNzlpWFJiM1lrMnFPZ1N5TE9JRjVoWnNuNXlQRzJhTVY0N1pGMHB6RFg2czBDWmdld1BEQVhxMFc1a09PYUR0UzRSc2lhdjlkR2U3OVhkOHY2THFPY2gzcjRleGhGbUVNZlBjNDg1cE5kUm1pQUtsZ1AtSVktZVlUYjk0cGMxUlRpM3RQMHI2emlUYXFqZmxFT3FRckR4UGg4VEFybTIxMlJXOTczX0d5YWg1Tl9CVUFWWU5uZWllVUhoNUpvNDd6OGJ2Ml9wb29nQTE4UnByTDE5RmJxRGRXUWJGR3NCdlFTcko2bGxtanFDaVBxSkNjTkZ5UktsRDM3Q1B1YnBDSElnRjA5QktuOUNKdnZ4TEpoYUhKR3h5MWNTdFdIT1F2QWlUME15OUtYazdCMjlPUnpCNDdTZmt4b0F1Xzd6UnhqbkhMVl9iNVVxM0VfejZtMDBdLS0+PC9nPjwvc3ZnPg==;" vertex="1" parent="1">
            <mxGeometry x="123" y="300" width="2016" height="456" as="geometry" />
          </mxCell>
        </UserObject>
      </root>
    </mxGraphModel>
  </diagram>
  <diagram id="77PYiOg1wbAj2TVaewc0" name="Backen.api">
    <mxGraphModel dx="2876" dy="1114" grid="1" gridSize="10" guides="1" tooltips="1" connect="1" arrows="1" fold="1" page="1" pageScale="1" pageWidth="827" pageHeight="1169" math="0" shadow="0">
      <root>
        <mxCell id="0" />
        <mxCell id="1" parent="0" />
        <UserObject label="" plantUmlData="{&#xa;  &quot;data&quot;: &quot;@startuml\ntitle Backend API Infrastructure\n\npackage \&quot;Resource Group\&quot; {\n  entity \&quot;azurerm_resource_group.main\&quot; {\n    + Name: var.resource_group_name\n    + Location: var.location\n  }\n\n  package \&quot;Backend API Module\&quot; {\n    entity \&quot;azurerm_container_registry.backend\&quot; {\n      + Name: var.acr_name\n      + SKU: Standard\n      + Admin Enabled: true\n    }\n\n    entity \&quot;azurerm_kubernetes_cluster.backend\&quot; {\n      + Name: var.aks_cluster_name\n      + DNS Prefix: var.aks_cluster_name\n      + Node Pool: default\n      + Node Count: var.node_count\n      + VM Size: Standard_DS2_v2\n      + Subnet ID: var.subnet_id\n      + Identity: SystemAssigned\n    }\n\n    entity \&quot;azurerm_role_assignment.aks_acr\&quot; {\n      + Role: AcrPull\n      + Scope: azurerm_container_registry.backend.id\n      + Principal ID: azurerm_kubernetes_cluster.backend.kubelet_identity[0].object_id\n    }\n  }\n}\n\n&#39; Connections between resources\n\&quot;azurerm_resource_group.main\&quot; --&gt; \&quot;azurerm_container_registry.backend\&quot; : Deploys in\n\&quot;azurerm_resource_group.main\&quot; --&gt; \&quot;azurerm_kubernetes_cluster.backend\&quot; : Deploys in\n\&quot;azurerm_kubernetes_cluster.backend\&quot; --&gt; \&quot;azurerm_container_registry.backend\&quot; : Pulls from\n\&quot;azurerm_role_assignment.aks_acr\&quot; --&gt; \&quot;azurerm_container_registry.backend\&quot; : Grants AcrPull role\n\n@enduml\n&quot;,&#xa;  &quot;format&quot;: &quot;svg&quot;&#xa;}" id="kiUe2OJRzUB-XlzwnR_F-1">
          <mxCell style="shape=image;noLabel=1;verticalAlign=top;aspect=fixed;imageAspect=0;image=data:image/svg+xml,PD94bWwgdmVyc2lvbj0iMS4wIiBlbmNvZGluZz0idXMtYXNjaWkiIHN0YW5kYWxvbmU9Im5vIj8+PHN2ZyB4bWxucz0iaHR0cDovL3d3dy53My5vcmcvMjAwMC9zdmciIHhtbG5zOnhsaW5rPSJodHRwOi8vd3d3LnczLm9yZy8xOTk5L3hsaW5rIiBjb250ZW50U3R5bGVUeXBlPSJ0ZXh0L2NzcyIgaGVpZ2h0PSI2NjhweCIgcHJlc2VydmVBc3BlY3RSYXRpbz0ibm9uZSIgc3R5bGU9IndpZHRoOjIwNzhweDtoZWlnaHQ6NjY4cHg7YmFja2dyb3VuZDojRkZGRkZGOyIgdmVyc2lvbj0iMS4xIiB2aWV3Qm94PSIwIDAgMjA3OCA2NjgiIHdpZHRoPSIyMDc4cHgiIHpvb21BbmRQYW49Im1hZ25pZnkiPjxkZWZzLz48Zz48dGV4dCBmaWxsPSIjMDAwMDAwIiBmb250LWZhbWlseT0ic2Fucy1zZXJpZiIgZm9udC1zaXplPSIxNCIgZm9udC13ZWlnaHQ9ImJvbGQiIGxlbmd0aEFkanVzdD0ic3BhY2luZyIgdGV4dExlbmd0aD0iMTgyIiB4PSI5NDEiIHk9IjIzLjIzNDQiPkJhY2tlbmQgQVBJIEluZnJhc3RydWN0dXJlPC90ZXh0PjwhLS1jbHVzdGVyIFJlc291cmNlIEdyb3VwLS0+PGcgaWQ9ImNsdXN0ZXJfUmVzb3VyY2UgR3JvdXAiPjxwYXRoIGQ9Ik04LjUsNDEuOTg0NCBMMTA3LjUsNDEuOTg0NCBBMy43NSwzLjc1IDAgMCAxIDExMCw0NC40ODQ0IEwxMTcsNjIuOTY4OCBMMTUyMi41LDYyLjk2ODggQTIuNSwyLjUgMCAwIDEgMTUyNSw2NS40Njg4IEwxNTI1LDM3MS40ODQ0IEEyLjUsMi41IDAgMCAxIDE1MjIuNSwzNzMuOTg0NCBMOC41LDM3My45ODQ0IEEyLjUsMi41IDAgMCAxIDYsMzcxLjQ4NDQgTDYsNDQuNDg0NCBBMi41LDIuNSAwIDAgMSA4LjUsNDEuOTg0NCAiIGZpbGw9Im5vbmUiIHN0eWxlPSJzdHJva2U6IzAwMDAwMDtzdHJva2Utd2lkdGg6MS41OyIvPjxsaW5lIHN0eWxlPSJzdHJva2U6IzAwMDAwMDtzdHJva2Utd2lkdGg6MS41OyIgeDE9IjYiIHgyPSIxMTciIHkxPSI2Mi45Njg4IiB5Mj0iNjIuOTY4OCIvPjx0ZXh0IGZpbGw9IiMwMDAwMDAiIGZvbnQtZmFtaWx5PSJzYW5zLXNlcmlmIiBmb250LXNpemU9IjE0IiBmb250LXdlaWdodD0iYm9sZCIgbGVuZ3RoQWRqdXN0PSJzcGFjaW5nIiB0ZXh0TGVuZ3RoPSI5OCIgeD0iMTAiIHk9IjU3LjIxODgiPlJlc291cmNlIEdyb3VwPC90ZXh0PjwvZz48IS0tY2x1c3RlciBhenVyZXJtX3Jlc291cmNlX2dyb3VwLS0+PGcgaWQ9ImNsdXN0ZXJfYXp1cmVybV9yZXNvdXJjZV9ncm91cCI+PHBhdGggZD0iTTEyNDEuNSwxNjEuNDg0NCBMMTM5Ny41LDE2MS40ODQ0IEEzLjc1LDMuNzUgMCAwIDEgMTQwMCwxNjMuOTg0NCBMMTQwNywxODIuNDY4OCBMMTQ5OC41LDE4Mi40Njg4IEEyLjUsMi41IDAgMCAxIDE1MDEsMTg0Ljk2ODggTDE1MDEsMjg1Ljk4NDQgQTIuNSwyLjUgMCAwIDEgMTQ5OC41LDI4OC40ODQ0IEwxMjQxLjUsMjg4LjQ4NDQgQTIuNSwyLjUgMCAwIDEgMTIzOSwyODUuOTg0NCBMMTIzOSwxNjMuOTg0NCBBMi41LDIuNSAwIDAgMSAxMjQxLjUsMTYxLjQ4NDQgIiBmaWxsPSJub25lIiBzdHlsZT0ic3Ryb2tlOiMwMDAwMDA7c3Ryb2tlLXdpZHRoOjEuNTsiLz48bGluZSBzdHlsZT0ic3Ryb2tlOiMwMDAwMDA7c3Ryb2tlLXdpZHRoOjEuNTsiIHgxPSIxMjM5IiB4Mj0iMTQwNyIgeTE9IjE4Mi40Njg4IiB5Mj0iMTgyLjQ2ODgiLz48dGV4dCBmaWxsPSIjMDAwMDAwIiBmb250LWZhbWlseT0ic2Fucy1zZXJpZiIgZm9udC1zaXplPSIxNCIgZm9udC13ZWlnaHQ9ImJvbGQiIGxlbmd0aEFkanVzdD0ic3BhY2luZyIgdGV4dExlbmd0aD0iMTU1IiB4PSIxMjQzIiB5PSIxNzYuNzE4OCI+YXp1cmVybV9yZXNvdXJjZV9ncm91cDwvdGV4dD48L2c+PCEtLWNsdXN0ZXIgQmFja2VuZCBBUEkgTW9kdWxlLS0+PGcgaWQ9ImNsdXN0ZXJfQmFja2VuZCBBUEkgTW9kdWxlIj48cGF0aCBkPSJNMzIuNSw4Mi45ODQ0IEwxNTkuNSw4Mi45ODQ0IEEzLjc1LDMuNzUgMCAwIDEgMTYyLDg1LjQ4NDQgTDE2OSwxMDMuOTY4OCBMMTIxMi41LDEwMy45Njg4IEEyLjUsMi41IDAgMCAxIDEyMTUsMTA2LjQ2ODggTDEyMTUsMzQ3LjQ4NDQgQTIuNSwyLjUgMCAwIDEgMTIxMi41LDM0OS45ODQ0IEwzMi41LDM0OS45ODQ0IEEyLjUsMi41IDAgMCAxIDMwLDM0Ny40ODQ0IEwzMCw4NS40ODQ0IEEyLjUsMi41IDAgMCAxIDMyLjUsODIuOTg0NCAiIGZpbGw9Im5vbmUiIHN0eWxlPSJzdHJva2U6IzAwMDAwMDtzdHJva2Utd2lkdGg6MS41OyIvPjxsaW5lIHN0eWxlPSJzdHJva2U6IzAwMDAwMDtzdHJva2Utd2lkdGg6MS41OyIgeDE9IjMwIiB4Mj0iMTY5IiB5MT0iMTAzLjk2ODgiIHkyPSIxMDMuOTY4OCIvPjx0ZXh0IGZpbGw9IiMwMDAwMDAiIGZvbnQtZmFtaWx5PSJzYW5zLXNlcmlmIiBmb250LXNpemU9IjE0IiBmb250LXdlaWdodD0iYm9sZCIgbGVuZ3RoQWRqdXN0PSJzcGFjaW5nIiB0ZXh0TGVuZ3RoPSIxMjYiIHg9IjM0IiB5PSI5OC4yMTg4Ij5CYWNrZW5kIEFQSSBNb2R1bGU8L3RleHQ+PC9nPjwhLS1jbHVzdGVyIGF6dXJlcm1fY29udGFpbmVyX3JlZ2lzdHJ5LS0+PGcgaWQ9ImNsdXN0ZXJfYXp1cmVybV9jb250YWluZXJfcmVnaXN0cnkiPjxwYXRoIGQ9Ik05OTQuNSwxNTMuOTg0NCBMMTE3OC41LDE1My45ODQ0IEEzLjc1LDMuNzUgMCAwIDEgMTE4MSwxNTYuNDg0NCBMMTE4OCwxNzQuOTY4OCBMMTE4OC41LDE3NC45Njg4IEEyLjUsMi41IDAgMCAxIDExOTEsMTc3LjQ2ODggTDExOTEsMjkzLjQ4NDQgQTIuNSwyLjUgMCAwIDEgMTE4OC41LDI5NS45ODQ0IEw5OTQuNSwyOTUuOTg0NCBBMi41LDIuNSAwIDAgMSA5OTIsMjkzLjQ4NDQgTDk5MiwxNTYuNDg0NCBBMi41LDIuNSAwIDAgMSA5OTQuNSwxNTMuOTg0NCAiIGZpbGw9Im5vbmUiIHN0eWxlPSJzdHJva2U6IzAwMDAwMDtzdHJva2Utd2lkdGg6MS41OyIvPjxsaW5lIHN0eWxlPSJzdHJva2U6IzAwMDAwMDtzdHJva2Utd2lkdGg6MS41OyIgeDE9Ijk5MiIgeDI9IjExODgiIHkxPSIxNzQuOTY4OCIgeTI9IjE3NC45Njg4Ii8+PHRleHQgZmlsbD0iIzAwMDAwMCIgZm9udC1mYW1pbHk9InNhbnMtc2VyaWYiIGZvbnQtc2l6ZT0iMTQiIGZvbnQtd2VpZ2h0PSJib2xkIiBsZW5ndGhBZGp1c3Q9InNwYWNpbmciIHRleHRMZW5ndGg9IjE4MyIgeD0iOTk2IiB5PSIxNjkuMjE4OCI+YXp1cmVybV9jb250YWluZXJfcmVnaXN0cnk8L3RleHQ+PC9nPjwhLS1jbHVzdGVyIGF6dXJlcm1fa3ViZXJuZXRlc19jbHVzdGVyLS0+PGcgaWQ9ImNsdXN0ZXJfYXp1cmVybV9rdWJlcm5ldGVzX2NsdXN0ZXIiPjxwYXRoIGQ9Ik02ODYuNSwxMjMuOTg0NCBMODcwLjUsMTIzLjk4NDQgQTMuNzUsMy43NSAwIDAgMSA4NzMsMTI2LjQ4NDQgTDg4MCwxNDQuOTY4OCBMOTY1LjUsMTQ0Ljk2ODggQTIuNSwyLjUgMCAwIDEgOTY4LDE0Ny40Njg4IEw5NjgsMzIzLjQ4NDQgQTIuNSwyLjUgMCAwIDEgOTY1LjUsMzI1Ljk4NDQgTDY4Ni41LDMyNS45ODQ0IEEyLjUsMi41IDAgMCAxIDY4NCwzMjMuNDg0NCBMNjg0LDEyNi40ODQ0IEEyLjUsMi41IDAgMCAxIDY4Ni41LDEyMy45ODQ0ICIgZmlsbD0ibm9uZSIgc3R5bGU9InN0cm9rZTojMDAwMDAwO3N0cm9rZS13aWR0aDoxLjU7Ii8+PGxpbmUgc3R5bGU9InN0cm9rZTojMDAwMDAwO3N0cm9rZS13aWR0aDoxLjU7IiB4MT0iNjg0IiB4Mj0iODgwIiB5MT0iMTQ0Ljk2ODgiIHkyPSIxNDQuOTY4OCIvPjx0ZXh0IGZpbGw9IiMwMDAwMDAiIGZvbnQtZmFtaWx5PSJzYW5zLXNlcmlmIiBmb250LXNpemU9IjE0IiBmb250LXdlaWdodD0iYm9sZCIgbGVuZ3RoQWRqdXN0PSJzcGFjaW5nIiB0ZXh0TGVuZ3RoPSIxODMiIHg9IjY4OCIgeT0iMTM5LjIxODgiPmF6dXJlcm1fa3ViZXJuZXRlc19jbHVzdGVyPC90ZXh0PjwvZz48IS0tY2x1c3RlciBhenVyZXJtX3JvbGVfYXNzaWdubWVudC0tPjxnIGlkPSJjbHVzdGVyX2F6dXJlcm1fcm9sZV9hc3NpZ25tZW50Ij48cGF0aCBkPSJNNTYuNSwxNTMuOTg0NCBMMjIwLjUsMTUzLjk4NDQgQTMuNzUsMy43NSAwIDAgMSAyMjMsMTU2LjQ4NDQgTDIzMCwxNzQuOTY4OCBMNjU3LjUsMTc0Ljk2ODggQTIuNSwyLjUgMCAwIDEgNjYwLDE3Ny40Njg4IEw2NjAsMjkzLjQ4NDQgQTIuNSwyLjUgMCAwIDEgNjU3LjUsMjk1Ljk4NDQgTDU2LjUsMjk1Ljk4NDQgQTIuNSwyLjUgMCAwIDEgNTQsMjkzLjQ4NDQgTDU0LDE1Ni40ODQ0IEEyLjUsMi41IDAgMCAxIDU2LjUsMTUzLjk4NDQgIiBmaWxsPSJub25lIiBzdHlsZT0ic3Ryb2tlOiMwMDAwMDA7c3Ryb2tlLXdpZHRoOjEuNTsiLz48bGluZSBzdHlsZT0ic3Ryb2tlOiMwMDAwMDA7c3Ryb2tlLXdpZHRoOjEuNTsiIHgxPSI1NCIgeDI9IjIzMCIgeTE9IjE3NC45Njg4IiB5Mj0iMTc0Ljk2ODgiLz48dGV4dCBmaWxsPSIjMDAwMDAwIiBmb250LWZhbWlseT0ic2Fucy1zZXJpZiIgZm9udC1zaXplPSIxNCIgZm9udC13ZWlnaHQ9ImJvbGQiIGxlbmd0aEFkanVzdD0ic3BhY2luZyIgdGV4dExlbmd0aD0iMTYzIiB4PSI1OCIgeT0iMTY5LjIxODgiPmF6dXJlcm1fcm9sZV9hc3NpZ25tZW50PC90ZXh0PjwvZz48IS0tY2x1c3RlciBhenVyZXJtX3Jlc291cmNlX2dyb3VwLS0+PGcgaWQ9ImNsdXN0ZXJfYXp1cmVybV9yZXNvdXJjZV9ncm91cCI+PHBhdGggZD0iTTE1NTEuNSwxNzYuNDg0NCBMMTcwNy41LDE3Ni40ODQ0IEEzLjc1LDMuNzUgMCAwIDEgMTcxMCwxNzguOTg0NCBMMTcxNywxOTcuNDY4OCBMMTcxNy41LDE5Ny40Njg4IEEyLjUsMi41IDAgMCAxIDE3MjAsMTk5Ljk2ODggTDE3MjAsMjcwLjk4NDQgQTIuNSwyLjUgMCAwIDEgMTcxNy41LDI3My40ODQ0IEwxNTUxLjUsMjczLjQ4NDQgQTIuNSwyLjUgMCAwIDEgMTU0OSwyNzAuOTg0NCBMMTU0OSwxNzguOTg0NCBBMi41LDIuNSAwIDAgMSAxNTUxLjUsMTc2LjQ4NDQgIiBmaWxsPSJub25lIiBzdHlsZT0ic3Ryb2tlOiMwMDAwMDA7c3Ryb2tlLXdpZHRoOjEuNTsiLz48bGluZSBzdHlsZT0ic3Ryb2tlOiMwMDAwMDA7c3Ryb2tlLXdpZHRoOjEuNTsiIHgxPSIxNTQ5IiB4Mj0iMTcxNyIgeTE9IjE5Ny40Njg4IiB5Mj0iMTk3LjQ2ODgiLz48dGV4dCBmaWxsPSIjMDAwMDAwIiBmb250LWZhbWlseT0ic2Fucy1zZXJpZiIgZm9udC1zaXplPSIxNCIgZm9udC13ZWlnaHQ9ImJvbGQiIGxlbmd0aEFkanVzdD0ic3BhY2luZyIgdGV4dExlbmd0aD0iMTU1IiB4PSIxNTUzIiB5PSIxOTEuNzE4OCI+YXp1cmVybV9yZXNvdXJjZV9ncm91cDwvdGV4dD48L2c+PCEtLWNsdXN0ZXIgYXp1cmVybV9jb250YWluZXJfcmVnaXN0cnktLT48ZyBpZD0iY2x1c3Rlcl9henVyZXJtX2NvbnRhaW5lcl9yZWdpc3RyeSI+PHBhdGggZD0iTTE2MzIuNSw1NjQuOTg0NCBMMTgxNi41LDU2NC45ODQ0IEEzLjc1LDMuNzUgMCAwIDEgMTgxOSw1NjcuNDg0NCBMMTgyNiw1ODUuOTY4OCBMMTgyNi41LDU4NS45Njg4IEEyLjUsMi41IDAgMCAxIDE4MjksNTg4LjQ2ODggTDE4MjksNjU5LjQ4NDQgQTIuNSwyLjUgMCAwIDEgMTgyNi41LDY2MS45ODQ0IEwxNjMyLjUsNjYxLjk4NDQgQTIuNSwyLjUgMCAwIDEgMTYzMCw2NTkuNDg0NCBMMTYzMCw1NjcuNDg0NCBBMi41LDIuNSAwIDAgMSAxNjMyLjUsNTY0Ljk4NDQgIiBmaWxsPSJub25lIiBzdHlsZT0ic3Ryb2tlOiMwMDAwMDA7c3Ryb2tlLXdpZHRoOjEuNTsiLz48bGluZSBzdHlsZT0ic3Ryb2tlOiMwMDAwMDA7c3Ryb2tlLXdpZHRoOjEuNTsiIHgxPSIxNjMwIiB4Mj0iMTgyNiIgeTE9IjU4NS45Njg4IiB5Mj0iNTg1Ljk2ODgiLz48dGV4dCBmaWxsPSIjMDAwMDAwIiBmb250LWZhbWlseT0ic2Fucy1zZXJpZiIgZm9udC1zaXplPSIxNCIgZm9udC13ZWlnaHQ9ImJvbGQiIGxlbmd0aEFkanVzdD0ic3BhY2luZyIgdGV4dExlbmd0aD0iMTgzIiB4PSIxNjM0IiB5PSI1ODAuMjE4OCI+YXp1cmVybV9jb250YWluZXJfcmVnaXN0cnk8L3RleHQ+PC9nPjwhLS1jbHVzdGVyIGF6dXJlcm1fa3ViZXJuZXRlc19jbHVzdGVyLS0+PGcgaWQ9ImNsdXN0ZXJfYXp1cmVybV9rdWJlcm5ldGVzX2NsdXN0ZXIiPjxwYXRoIGQ9Ik0xNjcxLjUsNDIwLjk4NDQgTDE4NTUuNSw0MjAuOTg0NCBBMy43NSwzLjc1IDAgMCAxIDE4NTgsNDIzLjQ4NDQgTDE4NjUsNDQxLjk2ODggTDE4NjUuNSw0NDEuOTY4OCBBMi41LDIuNSAwIDAgMSAxODY4LDQ0NC40Njg4IEwxODY4LDUxNS40ODQ0IEEyLjUsMi41IDAgMCAxIDE4NjUuNSw1MTcuOTg0NCBMMTY3MS41LDUxNy45ODQ0IEEyLjUsMi41IDAgMCAxIDE2NjksNTE1LjQ4NDQgTDE2NjksNDIzLjQ4NDQgQTIuNSwyLjUgMCAwIDEgMTY3MS41LDQyMC45ODQ0ICIgZmlsbD0ibm9uZSIgc3R5bGU9InN0cm9rZTojMDAwMDAwO3N0cm9rZS13aWR0aDoxLjU7Ii8+PGxpbmUgc3R5bGU9InN0cm9rZTojMDAwMDAwO3N0cm9rZS13aWR0aDoxLjU7IiB4MT0iMTY2OSIgeDI9IjE4NjUiIHkxPSI0NDEuOTY4OCIgeTI9IjQ0MS45Njg4Ii8+PHRleHQgZmlsbD0iIzAwMDAwMCIgZm9udC1mYW1pbHk9InNhbnMtc2VyaWYiIGZvbnQtc2l6ZT0iMTQiIGZvbnQtd2VpZ2h0PSJib2xkIiBsZW5ndGhBZGp1c3Q9InNwYWNpbmciIHRleHRMZW5ndGg9IjE4MyIgeD0iMTY3MyIgeT0iNDM2LjIxODgiPmF6dXJlcm1fa3ViZXJuZXRlc19jbHVzdGVyPC90ZXh0PjwvZz48IS0tY2x1c3RlciBhenVyZXJtX3JvbGVfYXNzaWdubWVudC0tPjxnIGlkPSJjbHVzdGVyX2F6dXJlcm1fcm9sZV9hc3NpZ25tZW50Ij48cGF0aCBkPSJNMTg5NC41LDQyMC45ODQ0IEwyMDU4LjUsNDIwLjk4NDQgQTMuNzUsMy43NSAwIDAgMSAyMDYxLDQyMy40ODQ0IEwyMDY4LDQ0MS45Njg4IEwyMDY4LjUsNDQxLjk2ODggQTIuNSwyLjUgMCAwIDEgMjA3MSw0NDQuNDY4OCBMMjA3MSw1MTUuNDg0NCBBMi41LDIuNSAwIDAgMSAyMDY4LjUsNTE3Ljk4NDQgTDE4OTQuNSw1MTcuOTg0NCBBMi41LDIuNSAwIDAgMSAxODkyLDUxNS40ODQ0IEwxODkyLDQyMy40ODQ0IEEyLjUsMi41IDAgMCAxIDE4OTQuNSw0MjAuOTg0NCAiIGZpbGw9Im5vbmUiIHN0eWxlPSJzdHJva2U6IzAwMDAwMDtzdHJva2Utd2lkdGg6MS41OyIvPjxsaW5lIHN0eWxlPSJzdHJva2U6IzAwMDAwMDtzdHJva2Utd2lkdGg6MS41OyIgeDE9IjE4OTIiIHgyPSIyMDY4IiB5MT0iNDQxLjk2ODgiIHkyPSI0NDEuOTY4OCIvPjx0ZXh0IGZpbGw9IiMwMDAwMDAiIGZvbnQtZmFtaWx5PSJzYW5zLXNlcmlmIiBmb250LXNpemU9IjE0IiBmb250LXdlaWdodD0iYm9sZCIgbGVuZ3RoQWRqdXN0PSJzcGFjaW5nIiB0ZXh0TGVuZ3RoPSIxNjMiIHg9IjE4OTYiIHk9IjQzNi4yMTg4Ij5henVyZXJtX3JvbGVfYXNzaWdubWVudDwvdGV4dD48L2c+PCEtLWNsYXNzIG1haW4tLT48ZyBpZD0iZWxlbV9tYWluIj48cmVjdCBjb2RlTGluZT0iNCIgZmlsbD0iI0YxRjFGMSIgaGVpZ2h0PSI3Ny45Njg4IiBpZD0ibWFpbiIgcng9IjIuNSIgcnk9IjIuNSIgc3R5bGU9InN0cm9rZTojMTgxODE4O3N0cm9rZS13aWR0aDowLjU7IiB3aWR0aD0iMjMxIiB4PSIxMjU0LjUiIHk9IjE5NC40ODQ0Ii8+PGVsbGlwc2UgY3g9IjEzNTEuMjUiIGN5PSIyMTAuNDg0NCIgZmlsbD0iI0FERDFCMiIgcng9IjExIiByeT0iMTEiIHN0eWxlPSJzdHJva2U6IzE4MTgxODtzdHJva2Utd2lkdGg6MS4wOyIvPjxwYXRoIGQ9Ik0xMzU0Ljg3NSwyMTYuNDg0NCBMMTM1NC44NzUsMjE0LjczNDQgTDEzNDkuNTYyNSwyMTQuNzM0NCBRMTM0OS41NjI1LDIxNC43MzQ0IDEzNDkuNTYyNSwyMTEuMTcxOSBMMTM1My44MTI1LDIxMS4xNzE5IEwxMzUzLjgxMjUsMjA5LjQyMTkgTDEzNDkuNTYyNSwyMDkuNDIxOSBMMTM0OS41NjI1LDIwNi45MjE5IEwxMzU0Ljg3NSwyMDYuOTIxOSBMMTM1NC44NzUsMjA1LjE3MTkgTDEzNDcuODEyNSwyMDUuMTcxOSBRMTM0Ny44MTI1LDIwNS4xNzE5IDEzNDcuODEyNSwyMTYuNDg0NCBMMTM1NC44NzUsMjE2LjQ4NDQgWiAiIGZpbGw9IiMwMDAwMDAiLz48dGV4dCBmaWxsPSIjMDAwMDAwIiBmb250LWZhbWlseT0ic2Fucy1zZXJpZiIgZm9udC1zaXplPSIxNCIgbGVuZ3RoQWRqdXN0PSJzcGFjaW5nIiB0ZXh0TGVuZ3RoPSIyOSIgeD0iMTM3MS43NSIgeT0iMjE2LjIyNjYiPm1haW48L3RleHQ+PGxpbmUgc3R5bGU9InN0cm9rZTojMTgxODE4O3N0cm9rZS13aWR0aDowLjU7IiB4MT0iMTI1NS41IiB4Mj0iMTQ4NC41IiB5MT0iMjI2LjQ4NDQiIHkyPSIyMjYuNDg0NCIvPjxlbGxpcHNlIGN4PSIxMjY1LjUiIGN5PSIyMzkuNDc2NiIgZmlsbD0ibm9uZSIgcng9IjMiIHJ5PSIzIiBzdHlsZT0ic3Ryb2tlOiMwMzgwNDg7c3Ryb2tlLXdpZHRoOjEuMDsiLz48dGV4dCBmaWxsPSIjMDAwMDAwIiBmb250LWZhbWlseT0ic2Fucy1zZXJpZiIgZm9udC1zaXplPSIxNCIgbGVuZ3RoQWRqdXN0PSJzcGFjaW5nIiB0ZXh0TGVuZ3RoPSIyMDUiIHg9IjEyNzQuNSIgeT0iMjQzLjcxODgiPk5hbWU6IHZhci5yZXNvdXJjZV9ncm91cF9uYW1lPC90ZXh0PjxlbGxpcHNlIGN4PSIxMjY1LjUiIGN5PSIyNTQuNDYwOSIgZmlsbD0ibm9uZSIgcng9IjMiIHJ5PSIzIiBzdHlsZT0ic3Ryb2tlOiMwMzgwNDg7c3Ryb2tlLXdpZHRoOjEuMDsiLz48dGV4dCBmaWxsPSIjMDAwMDAwIiBmb250LWZhbWlseT0ic2Fucy1zZXJpZiIgZm9udC1zaXplPSIxNCIgbGVuZ3RoQWRqdXN0PSJzcGFjaW5nIiB0ZXh0TGVuZ3RoPSIxNTQiIHg9IjEyNzQuNSIgeT0iMjU4LjcwMzEiPkxvY2F0aW9uOiB2YXIubG9jYXRpb248L3RleHQ+PGxpbmUgc3R5bGU9InN0cm9rZTojMTgxODE4O3N0cm9rZS13aWR0aDowLjU7IiB4MT0iMTI1NS41IiB4Mj0iMTQ4NC41IiB5MT0iMjY0LjQ1MzEiIHkyPSIyNjQuNDUzMSIvPjwvZz48IS0tY2xhc3MgYmFja2VuZC0tPjxnIGlkPSJlbGVtX2JhY2tlbmQiPjxyZWN0IGNvZGVMaW5lPSIxMCIgZmlsbD0iI0YxRjFGMSIgaGVpZ2h0PSI5Mi45NTMxIiBpZD0iYmFja2VuZCIgcng9IjIuNSIgcnk9IjIuNSIgc3R5bGU9InN0cm9rZTojMTgxODE4O3N0cm9rZS13aWR0aDowLjU7IiB3aWR0aD0iMTYwIiB4PSIxMDExIiB5PSIxODYuOTg0NCIvPjxlbGxpcHNlIGN4PSIxMDYyLjI1IiBjeT0iMjAyLjk4NDQiIGZpbGw9IiNBREQxQjIiIHJ4PSIxMSIgcnk9IjExIiBzdHlsZT0ic3Ryb2tlOiMxODE4MTg7c3Ryb2tlLXdpZHRoOjEuMDsiLz48cGF0aCBkPSJNMTA2NS44NzUsMjA4Ljk4NDQgTDEwNjUuODc1LDIwNy4yMzQ0IEwxMDYwLjU2MjUsMjA3LjIzNDQgUTEwNjAuNTYyNSwyMDcuMjM0NCAxMDYwLjU2MjUsMjAzLjY3MTkgTDEwNjQuODEyNSwyMDMuNjcxOSBMMTA2NC44MTI1LDIwMS45MjE5IEwxMDYwLjU2MjUsMjAxLjkyMTkgTDEwNjAuNTYyNSwxOTkuNDIxOSBMMTA2NS44NzUsMTk5LjQyMTkgTDEwNjUuODc1LDE5Ny42NzE5IEwxMDU4LjgxMjUsMTk3LjY3MTkgUTEwNTguODEyNSwxOTcuNjcxOSAxMDU4LjgxMjUsMjA4Ljk4NDQgTDEwNjUuODc1LDIwOC45ODQ0IFogIiBmaWxsPSIjMDAwMDAwIi8+PHRleHQgZmlsbD0iIzAwMDAwMCIgZm9udC1mYW1pbHk9InNhbnMtc2VyaWYiIGZvbnQtc2l6ZT0iMTQiIGxlbmd0aEFkanVzdD0ic3BhY2luZyIgdGV4dExlbmd0aD0iNDkiIHg9IjEwODIuNzUiIHk9IjIwOC43MjY2Ij5iYWNrZW5kPC90ZXh0PjxsaW5lIHN0eWxlPSJzdHJva2U6IzE4MTgxODtzdHJva2Utd2lkdGg6MC41OyIgeDE9IjEwMTIiIHgyPSIxMTcwIiB5MT0iMjE4Ljk4NDQiIHkyPSIyMTguOTg0NCIvPjxlbGxpcHNlIGN4PSIxMDIyIiBjeT0iMjMxLjk3NjYiIGZpbGw9Im5vbmUiIHJ4PSIzIiByeT0iMyIgc3R5bGU9InN0cm9rZTojMDM4MDQ4O3N0cm9rZS13aWR0aDoxLjA7Ii8+PHRleHQgZmlsbD0iIzAwMDAwMCIgZm9udC1mYW1pbHk9InNhbnMtc2VyaWYiIGZvbnQtc2l6ZT0iMTQiIGxlbmd0aEFkanVzdD0ic3BhY2luZyIgdGV4dExlbmd0aD0iMTI4IiB4PSIxMDMxIiB5PSIyMzYuMjE4OCI+TmFtZTogdmFyLmFjcl9uYW1lPC90ZXh0PjxlbGxpcHNlIGN4PSIxMDIyIiBjeT0iMjQ2Ljk2MDkiIGZpbGw9Im5vbmUiIHJ4PSIzIiByeT0iMyIgc3R5bGU9InN0cm9rZTojMDM4MDQ4O3N0cm9rZS13aWR0aDoxLjA7Ii8+PHRleHQgZmlsbD0iIzAwMDAwMCIgZm9udC1mYW1pbHk9InNhbnMtc2VyaWYiIGZvbnQtc2l6ZT0iMTQiIGxlbmd0aEFkanVzdD0ic3BhY2luZyIgdGV4dExlbmd0aD0iOTEiIHg9IjEwMzEiIHk9IjI1MS4yMDMxIj5TS1U6IFN0YW5kYXJkPC90ZXh0PjxlbGxpcHNlIGN4PSIxMDIyIiBjeT0iMjYxLjk0NTMiIGZpbGw9Im5vbmUiIHJ4PSIzIiByeT0iMyIgc3R5bGU9InN0cm9rZTojMDM4MDQ4O3N0cm9rZS13aWR0aDoxLjA7Ii8+PHRleHQgZmlsbD0iIzAwMDAwMCIgZm9udC1mYW1pbHk9InNhbnMtc2VyaWYiIGZvbnQtc2l6ZT0iMTQiIGxlbmd0aEFkanVzdD0ic3BhY2luZyIgdGV4dExlbmd0aD0iMTM0IiB4PSIxMDMxIiB5PSIyNjYuMTg3NSI+QWRtaW4gRW5hYmxlZDogdHJ1ZTwvdGV4dD48bGluZSBzdHlsZT0ic3Ryb2tlOiMxODE4MTg7c3Ryb2tlLXdpZHRoOjAuNTsiIHgxPSIxMDEyIiB4Mj0iMTE3MCIgeTE9IjI3MS45Mzc1IiB5Mj0iMjcxLjkzNzUiLz48L2c+PCEtLWNsYXNzIGJhY2tlbmQtLT48ZyBpZD0iZWxlbV9iYWNrZW5kIj48cmVjdCBjb2RlTGluZT0iMTYiIGZpbGw9IiNGMUYxRjEiIGhlaWdodD0iMTUyLjg5MDYiIGlkPSJiYWNrZW5kIiByeD0iMi41IiByeT0iMi41IiBzdHlsZT0ic3Ryb2tlOiMxODE4MTg7c3Ryb2tlLXdpZHRoOjAuNTsiIHdpZHRoPSIyNTEiIHg9IjcwMC41IiB5PSIxNTYuOTg0NCIvPjxlbGxpcHNlIGN4PSI3OTcuMjUiIGN5PSIxNzIuOTg0NCIgZmlsbD0iI0FERDFCMiIgcng9IjExIiByeT0iMTEiIHN0eWxlPSJzdHJva2U6IzE4MTgxODtzdHJva2Utd2lkdGg6MS4wOyIvPjxwYXRoIGQ9Ik04MDAuODc1LDE3OC45ODQ0IEw4MDAuODc1LDE3Ny4yMzQ0IEw3OTUuNTYyNSwxNzcuMjM0NCBRNzk1LjU2MjUsMTc3LjIzNDQgNzk1LjU2MjUsMTczLjY3MTkgTDc5OS44MTI1LDE3My42NzE5IEw3OTkuODEyNSwxNzEuOTIxOSBMNzk1LjU2MjUsMTcxLjkyMTkgTDc5NS41NjI1LDE2OS40MjE5IEw4MDAuODc1LDE2OS40MjE5IEw4MDAuODc1LDE2Ny42NzE5IEw3OTMuODEyNSwxNjcuNjcxOSBRNzkzLjgxMjUsMTY3LjY3MTkgNzkzLjgxMjUsMTc4Ljk4NDQgTDgwMC44NzUsMTc4Ljk4NDQgWiAiIGZpbGw9IiMwMDAwMDAiLz48dGV4dCBmaWxsPSIjMDAwMDAwIiBmb250LWZhbWlseT0ic2Fucy1zZXJpZiIgZm9udC1zaXplPSIxNCIgbGVuZ3RoQWRqdXN0PSJzcGFjaW5nIiB0ZXh0TGVuZ3RoPSI0OSIgeD0iODE3Ljc1IiB5PSIxNzguNzI2NiI+YmFja2VuZDwvdGV4dD48bGluZSBzdHlsZT0ic3Ryb2tlOiMxODE4MTg7c3Ryb2tlLXdpZHRoOjAuNTsiIHgxPSI3MDEuNSIgeDI9Ijk1MC41IiB5MT0iMTg4Ljk4NDQiIHkyPSIxODguOTg0NCIvPjxlbGxpcHNlIGN4PSI3MTEuNSIgY3k9IjIwMS45NzY2IiBmaWxsPSJub25lIiByeD0iMyIgcnk9IjMiIHN0eWxlPSJzdHJva2U6IzAzODA0ODtzdHJva2Utd2lkdGg6MS4wOyIvPjx0ZXh0IGZpbGw9IiMwMDAwMDAiIGZvbnQtZmFtaWx5PSJzYW5zLXNlcmlmIiBmb250LXNpemU9IjE0IiBsZW5ndGhBZGp1c3Q9InNwYWNpbmciIHRleHRMZW5ndGg9IjE4NCIgeD0iNzIwLjUiIHk9IjIwNi4yMTg4Ij5OYW1lOiB2YXIuYWtzX2NsdXN0ZXJfbmFtZTwvdGV4dD48ZWxsaXBzZSBjeD0iNzExLjUiIGN5PSIyMTYuOTYwOSIgZmlsbD0ibm9uZSIgcng9IjMiIHJ5PSIzIiBzdHlsZT0ic3Ryb2tlOiMwMzgwNDg7c3Ryb2tlLXdpZHRoOjEuMDsiLz48dGV4dCBmaWxsPSIjMDAwMDAwIiBmb250LWZhbWlseT0ic2Fucy1zZXJpZiIgZm9udC1zaXplPSIxNCIgbGVuZ3RoQWRqdXN0PSJzcGFjaW5nIiB0ZXh0TGVuZ3RoPSIyMjUiIHg9IjcyMC41IiB5PSIyMjEuMjAzMSI+RE5TIFByZWZpeDogdmFyLmFrc19jbHVzdGVyX25hbWU8L3RleHQ+PGVsbGlwc2UgY3g9IjcxMS41IiBjeT0iMjMxLjk0NTMiIGZpbGw9Im5vbmUiIHJ4PSIzIiByeT0iMyIgc3R5bGU9InN0cm9rZTojMDM4MDQ4O3N0cm9rZS13aWR0aDoxLjA7Ii8+PHRleHQgZmlsbD0iIzAwMDAwMCIgZm9udC1mYW1pbHk9InNhbnMtc2VyaWYiIGZvbnQtc2l6ZT0iMTQiIGxlbmd0aEFkanVzdD0ic3BhY2luZyIgdGV4dExlbmd0aD0iMTI2IiB4PSI3MjAuNSIgeT0iMjM2LjE4NzUiPk5vZGUgUG9vbDogZGVmYXVsdDwvdGV4dD48ZWxsaXBzZSBjeD0iNzExLjUiIGN5PSIyNDYuOTI5NyIgZmlsbD0ibm9uZSIgcng9IjMiIHJ5PSIzIiBzdHlsZT0ic3Ryb2tlOiMwMzgwNDg7c3Ryb2tlLXdpZHRoOjEuMDsiLz48dGV4dCBmaWxsPSIjMDAwMDAwIiBmb250LWZhbWlseT0ic2Fucy1zZXJpZiIgZm9udC1zaXplPSIxNCIgbGVuZ3RoQWRqdXN0PSJzcGFjaW5nIiB0ZXh0TGVuZ3RoPSIxODIiIHg9IjcyMC41IiB5PSIyNTEuMTcxOSI+Tm9kZSBDb3VudDogdmFyLm5vZGVfY291bnQ8L3RleHQ+PGVsbGlwc2UgY3g9IjcxMS41IiBjeT0iMjYxLjkxNDEiIGZpbGw9Im5vbmUiIHJ4PSIzIiByeT0iMyIgc3R5bGU9InN0cm9rZTojMDM4MDQ4O3N0cm9rZS13aWR0aDoxLjA7Ii8+PHRleHQgZmlsbD0iIzAwMDAwMCIgZm9udC1mYW1pbHk9InNhbnMtc2VyaWYiIGZvbnQtc2l6ZT0iMTQiIGxlbmd0aEFkanVzdD0ic3BhY2luZyIgdGV4dExlbmd0aD0iMTY4IiB4PSI3MjAuNSIgeT0iMjY2LjE1NjMiPlZNIFNpemU6IFN0YW5kYXJkX0RTMl92MjwvdGV4dD48ZWxsaXBzZSBjeD0iNzExLjUiIGN5PSIyNzYuODk4NCIgZmlsbD0ibm9uZSIgcng9IjMiIHJ5PSIzIiBzdHlsZT0ic3Ryb2tlOiMwMzgwNDg7c3Ryb2tlLXdpZHRoOjEuMDsiLz48dGV4dCBmaWxsPSIjMDAwMDAwIiBmb250LWZhbWlseT0ic2Fucy1zZXJpZiIgZm9udC1zaXplPSIxNCIgbGVuZ3RoQWRqdXN0PSJzcGFjaW5nIiB0ZXh0TGVuZ3RoPSIxNjgiIHg9IjcyMC41IiB5PSIyODEuMTQwNiI+U3VibmV0IElEOiB2YXIuc3VibmV0X2lkPC90ZXh0PjxlbGxpcHNlIGN4PSI3MTEuNSIgY3k9IjI5MS44ODI4IiBmaWxsPSJub25lIiByeD0iMyIgcnk9IjMiIHN0eWxlPSJzdHJva2U6IzAzODA0ODtzdHJva2Utd2lkdGg6MS4wOyIvPjx0ZXh0IGZpbGw9IiMwMDAwMDAiIGZvbnQtZmFtaWx5PSJzYW5zLXNlcmlmIiBmb250LXNpemU9IjE0IiBsZW5ndGhBZGp1c3Q9InNwYWNpbmciIHRleHRMZW5ndGg9IjE2OSIgeD0iNzIwLjUiIHk9IjI5Ni4xMjUiPklkZW50aXR5OiBTeXN0ZW1Bc3NpZ25lZDwvdGV4dD48bGluZSBzdHlsZT0ic3Ryb2tlOiMxODE4MTg7c3Ryb2tlLXdpZHRoOjAuNTsiIHgxPSI3MDEuNSIgeDI9Ijk1MC41IiB5MT0iMzAxLjg3NSIgeTI9IjMwMS44NzUiLz48L2c+PCEtLWNsYXNzIGFrc19hY3ItLT48ZyBpZD0iZWxlbV9ha3NfYWNyIj48cmVjdCBjb2RlTGluZT0iMjYiIGZpbGw9IiNGMUYxRjEiIGhlaWdodD0iOTIuOTUzMSIgaWQ9ImFrc19hY3IiIHJ4PSIyLjUiIHJ5PSIyLjUiIHN0eWxlPSJzdHJva2U6IzE4MTgxODtzdHJva2Utd2lkdGg6MC41OyIgd2lkdGg9IjU3MyIgeD0iNzAuNSIgeT0iMTg2Ljk4NDQiLz48ZWxsaXBzZSBjeD0iMzI4LjI1IiBjeT0iMjAyLjk4NDQiIGZpbGw9IiNBREQxQjIiIHJ4PSIxMSIgcnk9IjExIiBzdHlsZT0ic3Ryb2tlOiMxODE4MTg7c3Ryb2tlLXdpZHRoOjEuMDsiLz48cGF0aCBkPSJNMzMxLjg3NSwyMDguOTg0NCBMMzMxLjg3NSwyMDcuMjM0NCBMMzI2LjU2MjUsMjA3LjIzNDQgUTMyNi41NjI1LDIwNy4yMzQ0IDMyNi41NjI1LDIwMy42NzE5IEwzMzAuODEyNSwyMDMuNjcxOSBMMzMwLjgxMjUsMjAxLjkyMTkgTDMyNi41NjI1LDIwMS45MjE5IEwzMjYuNTYyNSwxOTkuNDIxOSBMMzMxLjg3NSwxOTkuNDIxOSBMMzMxLjg3NSwxOTcuNjcxOSBMMzI0LjgxMjUsMTk3LjY3MTkgUTMyNC44MTI1LDE5Ny42NzE5IDMyNC44MTI1LDIwOC45ODQ0IEwzMzEuODc1LDIwOC45ODQ0IFogIiBmaWxsPSIjMDAwMDAwIi8+PHRleHQgZmlsbD0iIzAwMDAwMCIgZm9udC1mYW1pbHk9InNhbnMtc2VyaWYiIGZvbnQtc2l6ZT0iMTQiIGxlbmd0aEFkanVzdD0ic3BhY2luZyIgdGV4dExlbmd0aD0iNDkiIHg9IjM0OC43NSIgeT0iMjA4LjcyNjYiPmFrc19hY3I8L3RleHQ+PGxpbmUgc3R5bGU9InN0cm9rZTojMTgxODE4O3N0cm9rZS13aWR0aDowLjU7IiB4MT0iNzEuNSIgeDI9IjY0Mi41IiB5MT0iMjE4Ljk4NDQiIHkyPSIyMTguOTg0NCIvPjxlbGxpcHNlIGN4PSI4MS41IiBjeT0iMjMxLjk3NjYiIGZpbGw9Im5vbmUiIHJ4PSIzIiByeT0iMyIgc3R5bGU9InN0cm9rZTojMDM4MDQ4O3N0cm9rZS13aWR0aDoxLjA7Ii8+PHRleHQgZmlsbD0iIzAwMDAwMCIgZm9udC1mYW1pbHk9InNhbnMtc2VyaWYiIGZvbnQtc2l6ZT0iMTQiIGxlbmd0aEFkanVzdD0ic3BhY2luZyIgdGV4dExlbmd0aD0iOTEiIHg9IjkwLjUiIHk9IjIzNi4yMTg4Ij5Sb2xlOiBBY3JQdWxsPC90ZXh0PjxlbGxpcHNlIGN4PSI4MS41IiBjeT0iMjQ2Ljk2MDkiIGZpbGw9Im5vbmUiIHJ4PSIzIiByeT0iMyIgc3R5bGU9InN0cm9rZTojMDM4MDQ4O3N0cm9rZS13aWR0aDoxLjA7Ii8+PHRleHQgZmlsbD0iIzAwMDAwMCIgZm9udC1mYW1pbHk9InNhbnMtc2VyaWYiIGZvbnQtc2l6ZT0iMTQiIGxlbmd0aEFkanVzdD0ic3BhY2luZyIgdGV4dExlbmd0aD0iMzA5IiB4PSI5MC41IiB5PSIyNTEuMjAzMSI+U2NvcGU6IGF6dXJlcm1fY29udGFpbmVyX3JlZ2lzdHJ5LmJhY2tlbmQuaWQ8L3RleHQ+PGVsbGlwc2UgY3g9IjgxLjUiIGN5PSIyNjEuOTQ1MyIgZmlsbD0ibm9uZSIgcng9IjMiIHJ5PSIzIiBzdHlsZT0ic3Ryb2tlOiMwMzgwNDg7c3Ryb2tlLXdpZHRoOjEuMDsiLz48dGV4dCBmaWxsPSIjMDAwMDAwIiBmb250LWZhbWlseT0ic2Fucy1zZXJpZiIgZm9udC1zaXplPSIxNCIgbGVuZ3RoQWRqdXN0PSJzcGFjaW5nIiB0ZXh0TGVuZ3RoPSI1NDciIHg9IjkwLjUiIHk9IjI2Ni4xODc1Ij5QcmluY2lwYWwgSUQ6IGF6dXJlcm1fa3ViZXJuZXRlc19jbHVzdGVyLmJhY2tlbmQua3ViZWxldF9pZGVudGl0eVswXS5vYmplY3RfaWQ8L3RleHQ+PGxpbmUgc3R5bGU9InN0cm9rZTojMTgxODE4O3N0cm9rZS13aWR0aDowLjU7IiB4MT0iNzEuNSIgeDI9IjY0Mi41IiB5MT0iMjcxLjkzNzUiIHkyPSIyNzEuOTM3NSIvPjwvZz48IS0tY2xhc3MgbWFpbi0tPjxnIGlkPSJlbGVtX21haW4iPjxyZWN0IGZpbGw9IiNGMUYxRjEiIGhlaWdodD0iNDgiIGlkPSJtYWluIiByeD0iMi41IiByeT0iMi41IiBzdHlsZT0ic3Ryb2tlOiMxODE4MTg7c3Ryb2tlLXdpZHRoOjAuNTsiIHdpZHRoPSI2MSIgeD0iMTYwMy41IiB5PSIyMDkuNDg0NCIvPjxlbGxpcHNlIGN4PSIxNjE4LjUiIGN5PSIyMjUuNDg0NCIgZmlsbD0iI0FERDFCMiIgcng9IjExIiByeT0iMTEiIHN0eWxlPSJzdHJva2U6IzE4MTgxODtzdHJva2Utd2lkdGg6MS4wOyIvPjxwYXRoIGQ9Ik0xNjE2LjEyNSwyMjkuNzM0NCBMMTYxNi4xMjUsMjMxLjQ4NDQgTDE2MjEuMDYyNSwyMzEuNDg0NCBMMTYyMS4wNjI1LDIyOS43MzQ0IEwxNjE2LjEyNSwyMjkuNzM0NCBaIE0xNjE2LjgxMjUsMjMwLjQyMTkgUTE2MTYuODEyNSwyMzAuNDIxOSAxNjE2LjgxMjUsMjIxLjIzNDQgTDE2MTUuMDYyNSwyMjEuMjM0NCBRMTYxNS4wNjI1LDIyMS4yMzQ0IDE2MTUuMDYyNSwyMzAuNDIxOSBMMTYxNi44MTI1LDIzMC40MjE5IFogTTE2MjAuMzc1LDIzMC40MjE5IEwxNjIyLjEyNSwyMzAuNDIxOSBRMTYyMi4xMjUsMjMwLjQyMTkgMTYyMi4xMjUsMjI3LjYwOTQgTDE2MjAuMzc1LDIyNy42MDk0IFExNjIwLjM3NSwyMjcuNjA5NCAxNjIwLjM3NSwyMzAuNDIxOSBaIE0xNjIwLjM3NSwyMjEuMjM0NCBRMTYyMC4zNzUsMjIxLjIzNDQgMTYyMC4zNzUsMjI0LjA0NjkgTDE2MjIuMTI1LDIyNC4wNDY5IFExNjIyLjEyNSwyMjQuMDQ2OSAxNjIyLjEyNSwyMjEuMjM0NCBMMTYyMC4zNzUsMjIxLjIzNDQgWiBNMTYxNi4xMjUsMjIxLjkyMTkgTDE2MjEuMDYyNSwyMjEuOTIxOSBMMTYyMS4wNjI1LDIyMC4xNzE5IEwxNjE2LjEyNSwyMjAuMTcxOSBMMTYxNi4xMjUsMjIxLjkyMTkgWiAiIGZpbGw9IiMwMDAwMDAiLz48dGV4dCBmaWxsPSIjMDAwMDAwIiBmb250LWZhbWlseT0ic2Fucy1zZXJpZiIgZm9udC1zaXplPSIxNCIgbGVuZ3RoQWRqdXN0PSJzcGFjaW5nIiB0ZXh0TGVuZ3RoPSIyOSIgeD0iMTYzMi41IiB5PSIyMzEuMjI2NiI+bWFpbjwvdGV4dD48bGluZSBzdHlsZT0ic3Ryb2tlOiMxODE4MTg7c3Ryb2tlLXdpZHRoOjAuNTsiIHgxPSIxNjA0LjUiIHgyPSIxNjYzLjUiIHkxPSIyNDEuNDg0NCIgeTI9IjI0MS40ODQ0Ii8+PGxpbmUgc3R5bGU9InN0cm9rZTojMTgxODE4O3N0cm9rZS13aWR0aDowLjU7IiB4MT0iMTYwNC41IiB4Mj0iMTY2My41IiB5MT0iMjQ5LjQ4NDQiIHkyPSIyNDkuNDg0NCIvPjwvZz48IS0tY2xhc3MgYmFja2VuZC0tPjxnIGlkPSJlbGVtX2JhY2tlbmQiPjxyZWN0IGZpbGw9IiNGMUYxRjEiIGhlaWdodD0iNDgiIGlkPSJiYWNrZW5kIiByeD0iMi41IiByeT0iMi41IiBzdHlsZT0ic3Ryb2tlOiMxODE4MTg7c3Ryb2tlLXdpZHRoOjAuNTsiIHdpZHRoPSI4MSIgeD0iMTY4OC41IiB5PSI1OTcuOTg0NCIvPjxlbGxpcHNlIGN4PSIxNzAzLjUiIGN5PSI2MTMuOTg0NCIgZmlsbD0iI0FERDFCMiIgcng9IjExIiByeT0iMTEiIHN0eWxlPSJzdHJva2U6IzE4MTgxODtzdHJva2Utd2lkdGg6MS4wOyIvPjxwYXRoIGQ9Ik0xNzAxLjEyNSw2MTguMjM0NCBMMTcwMS4xMjUsNjE5Ljk4NDQgTDE3MDYuMDYyNSw2MTkuOTg0NCBMMTcwNi4wNjI1LDYxOC4yMzQ0IEwxNzAxLjEyNSw2MTguMjM0NCBaIE0xNzAxLjgxMjUsNjE4LjkyMTkgUTE3MDEuODEyNSw2MTguOTIxOSAxNzAxLjgxMjUsNjA5LjczNDQgTDE3MDAuMDYyNSw2MDkuNzM0NCBRMTcwMC4wNjI1LDYwOS43MzQ0IDE3MDAuMDYyNSw2MTguOTIxOSBMMTcwMS44MTI1LDYxOC45MjE5IFogTTE3MDUuMzc1LDYxOC45MjE5IEwxNzA3LjEyNSw2MTguOTIxOSBRMTcwNy4xMjUsNjE4LjkyMTkgMTcwNy4xMjUsNjE2LjEwOTQgTDE3MDUuMzc1LDYxNi4xMDk0IFExNzA1LjM3NSw2MTYuMTA5NCAxNzA1LjM3NSw2MTguOTIxOSBaIE0xNzA1LjM3NSw2MDkuNzM0NCBRMTcwNS4zNzUsNjA5LjczNDQgMTcwNS4zNzUsNjEyLjU0NjkgTDE3MDcuMTI1LDYxMi41NDY5IFExNzA3LjEyNSw2MTIuNTQ2OSAxNzA3LjEyNSw2MDkuNzM0NCBMMTcwNS4zNzUsNjA5LjczNDQgWiBNMTcwMS4xMjUsNjEwLjQyMTkgTDE3MDYuMDYyNSw2MTAuNDIxOSBMMTcwNi4wNjI1LDYwOC42NzE5IEwxNzAxLjEyNSw2MDguNjcxOSBMMTcwMS4xMjUsNjEwLjQyMTkgWiAiIGZpbGw9IiMwMDAwMDAiLz48dGV4dCBmaWxsPSIjMDAwMDAwIiBmb250LWZhbWlseT0ic2Fucy1zZXJpZiIgZm9udC1zaXplPSIxNCIgbGVuZ3RoQWRqdXN0PSJzcGFjaW5nIiB0ZXh0TGVuZ3RoPSI0OSIgeD0iMTcxNy41IiB5PSI2MTkuNzI2NiI+YmFja2VuZDwvdGV4dD48bGluZSBzdHlsZT0ic3Ryb2tlOiMxODE4MTg7c3Ryb2tlLXdpZHRoOjAuNTsiIHgxPSIxNjg5LjUiIHgyPSIxNzY4LjUiIHkxPSI2MjkuOTg0NCIgeTI9IjYyOS45ODQ0Ii8+PGxpbmUgc3R5bGU9InN0cm9rZTojMTgxODE4O3N0cm9rZS13aWR0aDowLjU7IiB4MT0iMTY4OS41IiB4Mj0iMTc2OC41IiB5MT0iNjM3Ljk4NDQiIHkyPSI2MzcuOTg0NCIvPjwvZz48IS0tY2xhc3MgYmFja2VuZC0tPjxnIGlkPSJlbGVtX2JhY2tlbmQiPjxyZWN0IGZpbGw9IiNGMUYxRjEiIGhlaWdodD0iNDgiIGlkPSJiYWNrZW5kIiByeD0iMi41IiByeT0iMi41IiBzdHlsZT0ic3Ryb2tlOiMxODE4MTg7c3Ryb2tlLXdpZHRoOjAuNTsiIHdpZHRoPSI4MSIgeD0iMTY4OC41IiB5PSI0NTMuOTg0NCIvPjxlbGxpcHNlIGN4PSIxNzAzLjUiIGN5PSI0NjkuOTg0NCIgZmlsbD0iI0FERDFCMiIgcng9IjExIiByeT0iMTEiIHN0eWxlPSJzdHJva2U6IzE4MTgxODtzdHJva2Utd2lkdGg6MS4wOyIvPjxwYXRoIGQ9Ik0xNzAxLjEyNSw0NzQuMjM0NCBMMTcwMS4xMjUsNDc1Ljk4NDQgTDE3MDYuMDYyNSw0NzUuOTg0NCBMMTcwNi4wNjI1LDQ3NC4yMzQ0IEwxNzAxLjEyNSw0NzQuMjM0NCBaIE0xNzAxLjgxMjUsNDc0LjkyMTkgUTE3MDEuODEyNSw0NzQuOTIxOSAxNzAxLjgxMjUsNDY1LjczNDQgTDE3MDAuMDYyNSw0NjUuNzM0NCBRMTcwMC4wNjI1LDQ2NS43MzQ0IDE3MDAuMDYyNSw0NzQuOTIxOSBMMTcwMS44MTI1LDQ3NC45MjE5IFogTTE3MDUuMzc1LDQ3NC45MjE5IEwxNzA3LjEyNSw0NzQuOTIxOSBRMTcwNy4xMjUsNDc0LjkyMTkgMTcwNy4xMjUsNDcyLjEwOTQgTDE3MDUuMzc1LDQ3Mi4xMDk0IFExNzA1LjM3NSw0NzIuMTA5NCAxNzA1LjM3NSw0NzQuOTIxOSBaIE0xNzA1LjM3NSw0NjUuNzM0NCBRMTcwNS4zNzUsNDY1LjczNDQgMTcwNS4zNzUsNDY4LjU0NjkgTDE3MDcuMTI1LDQ2OC41NDY5IFExNzA3LjEyNSw0NjguNTQ2OSAxNzA3LjEyNSw0NjUuNzM0NCBMMTcwNS4zNzUsNDY1LjczNDQgWiBNMTcwMS4xMjUsNDY2LjQyMTkgTDE3MDYuMDYyNSw0NjYuNDIxOSBMMTcwNi4wNjI1LDQ2NC42NzE5IEwxNzAxLjEyNSw0NjQuNjcxOSBMMTcwMS4xMjUsNDY2LjQyMTkgWiAiIGZpbGw9IiMwMDAwMDAiLz48dGV4dCBmaWxsPSIjMDAwMDAwIiBmb250LWZhbWlseT0ic2Fucy1zZXJpZiIgZm9udC1zaXplPSIxNCIgbGVuZ3RoQWRqdXN0PSJzcGFjaW5nIiB0ZXh0TGVuZ3RoPSI0OSIgeD0iMTcxNy41IiB5PSI0NzUuNzI2NiI+YmFja2VuZDwvdGV4dD48bGluZSBzdHlsZT0ic3Ryb2tlOiMxODE4MTg7c3Ryb2tlLXdpZHRoOjAuNTsiIHgxPSIxNjg5LjUiIHgyPSIxNzY4LjUiIHkxPSI0ODUuOTg0NCIgeTI9IjQ4NS45ODQ0Ii8+PGxpbmUgc3R5bGU9InN0cm9rZTojMTgxODE4O3N0cm9rZS13aWR0aDowLjU7IiB4MT0iMTY4OS41IiB4Mj0iMTc2OC41IiB5MT0iNDkzLjk4NDQiIHkyPSI0OTMuOTg0NCIvPjwvZz48IS0tY2xhc3MgYWtzX2Fjci0tPjxnIGlkPSJlbGVtX2Frc19hY3IiPjxyZWN0IGZpbGw9IiNGMUYxRjEiIGhlaWdodD0iNDgiIGlkPSJha3NfYWNyIiByeD0iMi41IiByeT0iMi41IiBzdHlsZT0ic3Ryb2tlOiMxODE4MTg7c3Ryb2tlLXdpZHRoOjAuNTsiIHdpZHRoPSI4MSIgeD0iMTkwOC41IiB5PSI0NTMuOTg0NCIvPjxlbGxpcHNlIGN4PSIxOTIzLjUiIGN5PSI0NjkuOTg0NCIgZmlsbD0iI0FERDFCMiIgcng9IjExIiByeT0iMTEiIHN0eWxlPSJzdHJva2U6IzE4MTgxODtzdHJva2Utd2lkdGg6MS4wOyIvPjxwYXRoIGQ9Ik0xOTIxLjEyNSw0NzQuMjM0NCBMMTkyMS4xMjUsNDc1Ljk4NDQgTDE5MjYuMDYyNSw0NzUuOTg0NCBMMTkyNi4wNjI1LDQ3NC4yMzQ0IEwxOTIxLjEyNSw0NzQuMjM0NCBaIE0xOTIxLjgxMjUsNDc0LjkyMTkgUTE5MjEuODEyNSw0NzQuOTIxOSAxOTIxLjgxMjUsNDY1LjczNDQgTDE5MjAuMDYyNSw0NjUuNzM0NCBRMTkyMC4wNjI1LDQ2NS43MzQ0IDE5MjAuMDYyNSw0NzQuOTIxOSBMMTkyMS44MTI1LDQ3NC45MjE5IFogTTE5MjUuMzc1LDQ3NC45MjE5IEwxOTI3LjEyNSw0NzQuOTIxOSBRMTkyNy4xMjUsNDc0LjkyMTkgMTkyNy4xMjUsNDcyLjEwOTQgTDE5MjUuMzc1LDQ3Mi4xMDk0IFExOTI1LjM3NSw0NzIuMTA5NCAxOTI1LjM3NSw0NzQuOTIxOSBaIE0xOTI1LjM3NSw0NjUuNzM0NCBRMTkyNS4zNzUsNDY1LjczNDQgMTkyNS4zNzUsNDY4LjU0NjkgTDE5MjcuMTI1LDQ2OC41NDY5IFExOTI3LjEyNSw0NjguNTQ2OSAxOTI3LjEyNSw0NjUuNzM0NCBMMTkyNS4zNzUsNDY1LjczNDQgWiBNMTkyMS4xMjUsNDY2LjQyMTkgTDE5MjYuMDYyNSw0NjYuNDIxOSBMMTkyNi4wNjI1LDQ2NC42NzE5IEwxOTIxLjEyNSw0NjQuNjcxOSBMMTkyMS4xMjUsNDY2LjQyMTkgWiAiIGZpbGw9IiMwMDAwMDAiLz48dGV4dCBmaWxsPSIjMDAwMDAwIiBmb250LWZhbWlseT0ic2Fucy1zZXJpZiIgZm9udC1zaXplPSIxNCIgbGVuZ3RoQWRqdXN0PSJzcGFjaW5nIiB0ZXh0TGVuZ3RoPSI0OSIgeD0iMTkzNy41IiB5PSI0NzUuNzI2NiI+YWtzX2FjcjwvdGV4dD48bGluZSBzdHlsZT0ic3Ryb2tlOiMxODE4MTg7c3Ryb2tlLXdpZHRoOjAuNTsiIHgxPSIxOTA5LjUiIHgyPSIxOTg4LjUiIHkxPSI0ODUuOTg0NCIgeTI9IjQ4NS45ODQ0Ii8+PGxpbmUgc3R5bGU9InN0cm9rZTojMTgxODE4O3N0cm9rZS13aWR0aDowLjU7IiB4MT0iMTkwOS41IiB4Mj0iMTk4OC41IiB5MT0iNDkzLjk4NDQiIHkyPSI0OTMuOTg0NCIvPjwvZz48IS0tbGluayBtYWluIHRvIGJhY2tlbmQtLT48ZyBpZD0ibGlua19tYWluX2JhY2tlbmQiPjxwYXRoIGNvZGVMaW5lPSIzNSIgZD0iTTE2MjMuMzcsMjU3LjU0NDQgQzE2MDEuMzYsMzA4Ljg2NDQgMTU1Ni41Miw0MzUuMTY0NCAxNjAyLDUyNS45ODQ0IEMxNjE5Ljk0LDU2MS44MDQ0IDE2NTMuMTg3NSw1ODQuODI0NyAxNjgzLjE0NzUsNjAwLjQxNDcgIiBmaWxsPSJub25lIiBpZD0ibWFpbi10by1iYWNrZW5kIiBzdHlsZT0ic3Ryb2tlOiMxODE4MTg7c3Ryb2tlLXdpZHRoOjEuMDsiLz48cG9seWdvbiBmaWxsPSIjMTgxODE4IiBwb2ludHM9IjE2ODguNDcsNjAzLjE4NDQsMTY4Mi4zMzI2LDU5NS40ODE2LDE2ODQuMDM0Niw2MDAuODc2NCwxNjc4LjYzOTgsNjAyLjU3ODMsMTY4OC40Nyw2MDMuMTg0NCIgc3R5bGU9InN0cm9rZTojMTgxODE4O3N0cm9rZS13aWR0aDoxLjA7Ii8+PHRleHQgZmlsbD0iIzAwMDAwMCIgZm9udC1mYW1pbHk9InNhbnMtc2VyaWYiIGZvbnQtc2l6ZT0iMTMiIGxlbmd0aEFkanVzdD0ic3BhY2luZyIgdGV4dExlbmd0aD0iNjgiIHg9IjE2MDMiIHk9IjQ4My43NzM0Ij5EZXBsb3lzIGluPC90ZXh0PjwvZz48IS0tbGluayBtYWluIHRvIGJhY2tlbmQtLT48ZyBpZD0ibGlua19tYWluX2JhY2tlbmQiPjxwYXRoIGNvZGVMaW5lPSIzNiIgZD0iTTE2NDMuMTEsMjU3LjczNDQgQzE2NjEuMjcsMzA0LjA4NDQgMTY5OS41OTEyLDQwMS45MTc4IDE3MTcuNzMxMiw0NDguMjE3OCAiIGZpbGw9Im5vbmUiIGlkPSJtYWluLXRvLWJhY2tlbmQtMSIgc3R5bGU9InN0cm9rZTojMTgxODE4O3N0cm9rZS13aWR0aDoxLjA7Ii8+PHBvbHlnb24gZmlsbD0iIzE4MTgxOCIgcG9pbnRzPSIxNzE5LjkyLDQ1My44MDQ0LDE3MjAuMzYxMiw0NDMuOTY1NCwxNzE4LjA5Niw0NDkuMTQ4OSwxNzEyLjkxMjUsNDQ2Ljg4MzgsMTcxOS45Miw0NTMuODA0NCIgc3R5bGU9InN0cm9rZTojMTgxODE4O3N0cm9rZS13aWR0aDoxLjA7Ii8+PHRleHQgZmlsbD0iIzAwMDAwMCIgZm9udC1mYW1pbHk9InNhbnMtc2VyaWYiIGZvbnQtc2l6ZT0iMTMiIGxlbmd0aEFkanVzdD0ic3BhY2luZyIgdGV4dExlbmd0aD0iNjgiIHg9IjE2OTkiIHk9IjQwMy4yNzM0Ij5EZXBsb3lzIGluPC90ZXh0PjwvZz48IS0tbGluayBiYWNrZW5kIHRvIGJhY2tlbmQtLT48ZyBpZD0ibGlua19iYWNrZW5kX2JhY2tlbmQiPjxwYXRoIGNvZGVMaW5lPSIzNyIgZD0iTTE3MjksNTAyLjExNDQgQzE3MjksNTI4LjUyNDQgMTcyOSw1NjUuNDY0NCAxNzI5LDU5MS44NjQ0ICIgZmlsbD0ibm9uZSIgaWQ9ImJhY2tlbmQtdG8tYmFja2VuZCIgc3R5bGU9InN0cm9rZTojMTgxODE4O3N0cm9rZS13aWR0aDoxLjA7Ii8+PHBvbHlnb24gZmlsbD0iIzE4MTgxOCIgcG9pbnRzPSIxNzI5LDU5Ny44NjQ0LDE3MzMsNTg4Ljg2NDQsMTcyOSw1OTIuODY0NCwxNzI1LDU4OC44NjQ0LDE3MjksNTk3Ljg2NDQiIHN0eWxlPSJzdHJva2U6IzE4MTgxODtzdHJva2Utd2lkdGg6MS4wOyIvPjx0ZXh0IGZpbGw9IiMwMDAwMDAiIGZvbnQtZmFtaWx5PSJzYW5zLXNlcmlmIiBmb250LXNpemU9IjEzIiBsZW5ndGhBZGp1c3Q9InNwYWNpbmciIHRleHRMZW5ndGg9IjY2IiB4PSIxNzMwIiB5PSI1NDcuMjczNCI+UHVsbHMgZnJvbTwvdGV4dD48L2c+PCEtLWxpbmsgYWtzX2FjciB0byBiYWNrZW5kLS0+PGcgaWQ9ImxpbmtfYWtzX2Fjcl9iYWNrZW5kIj48cGF0aCBjb2RlTGluZT0iMzgiIGQ9Ik0xOTEzLjE2LDUwMi4xMTQ0IEMxODcyLjI1LDUyOC41MjQ0IDE4MTAuNzcxNCw1NjguMjExMSAxNzY5Ljg2MTQsNTk0LjYxMTEgIiBmaWxsPSJub25lIiBpZD0iYWtzX2Fjci10by1iYWNrZW5kIiBzdHlsZT0ic3Ryb2tlOiMxODE4MTg7c3Ryb2tlLXdpZHRoOjEuMDsiLz48cG9seWdvbiBmaWxsPSIjMTgxODE4IiBwb2ludHM9IjE3NjQuODIsNTk3Ljg2NDQsMTc3NC41NTEsNTk2LjM0NTMsMTc2OS4wMjEyLDU5NS4xNTMzLDE3NzAuMjEzMiw1ODkuNjIzNCwxNzY0LjgyLDU5Ny44NjQ0IiBzdHlsZT0ic3Ryb2tlOiMxODE4MTg7c3Ryb2tlLXdpZHRoOjEuMDsiLz48dGV4dCBmaWxsPSIjMDAwMDAwIiBmb250LWZhbWlseT0ic2Fucy1zZXJpZiIgZm9udC1zaXplPSIxMyIgbGVuZ3RoQWRqdXN0PSJzcGFjaW5nIiB0ZXh0TGVuZ3RoPSIxMjkiIHg9IjE4NTkiIHk9IjU0Ny4yNzM0Ij5HcmFudHMgQWNyUHVsbCByb2xlPC90ZXh0PjwvZz48IS0tU1JDPVtiTEREUXpqMDRCdGhMbW8tejEwWUdldXcxRG93MURGNlk4WnNLZWZPeE94RG5nalBpSHpmZFBCX3RmNWFJdE9SaEZXWTZCcXRlX1ZVWjg4RTFrNlphNWlhMVZEeTJLalFFLTYzWXA5NFhxZElDMk9zMkJEN3ozT3dZTjNsUjZuY3kyUzFHMGV3eDYwY05mWmh3akJqRVVNY3ZRSXJxREdKMFF2VzlNaEN1NWN1ejlITTRXRHhwYlNoSFQyTVVmeFBMbW8tOWxtT2oxbUJWaDBnNlpueXZiejVxYjlXNVVYT3NxUXBocnJRelNzN1piRGZHaGZISm1pTE54dmJLMEgxSVpXcmw5c2hNWER5OWI0UEwxYm1ON3I3OV9EXzVUak9lSUNDdzRqZmVXX2U5YkhpMS1BZmNpTWdXRHBYTWwtVThBd2lHaVlqREhhZU44amVtWWRxb0tPQV9HcFljZEZZVWcxeVZ1MTJsLTFlbDVtS2otTnB4UFhBaERXRUIxVnoyRC1MZkh1M01nZS0wbnduT3ROcnQ3a3o4TEpkS2RCTU8yYXdPaXJPUHV4dFNIcEg4ckNvYzRrTkhzRDZEVDhzXzdmd3YtY0htam5mYWhlSGZkQ25sUWNxWEtwZGlYVi11LVBkUWdpZGI4Rm5yLXZHc1RxN3BmVTg0SnZVM25NNk51VzRYeEZ0b1ZhVnZsaHd4ZHE3ZEM0MjZzRHQ3WkhUQ2xGU0VSdXp5cnA3MU5CUmhOYk9FcmlkcXJrX09Fd3o0bkp5dUl3VzdWYU5dLS0+PC9nPjwvc3ZnPg==;" vertex="1" parent="1">
            <mxGeometry x="-810" y="160" width="2078" height="668" as="geometry" />
          </mxCell>
        </UserObject>
      </root>
    </mxGraphModel>
  </diagram>
  <diagram id="VzmMG-VQfWQURq9ltEGW" name="mobile_app">
    <mxGraphModel dx="2876" dy="1114" grid="1" gridSize="10" guides="1" tooltips="1" connect="1" arrows="1" fold="1" page="1" pageScale="1" pageWidth="827" pageHeight="1169" math="0" shadow="0">
      <root>
        <mxCell id="0" />
        <mxCell id="1" parent="0" />
        <UserObject label="" plantUmlData="{&#xa;  &quot;data&quot;: &quot;@startuml\ntitle Mobile App Infrastructure\n\npackage \&quot;Resource Group\&quot; {\n  entity \&quot;azurerm_resource_group.main\&quot; {\n    + Name: var.resource_group_name\n    + Location: var.location\n  }\n\n  package \&quot;Mobile App Module\&quot; {\n    entity \&quot;azurerm_storage_account.flutter_app\&quot; {\n      + Name: var.app_bucket_name\n      + Account Tier: Standard\n      + Replication: LRS\n      + HTTPS Only: true\n      + Static Website: index.html\n    }\n\n    entity \&quot;azurerm_cdn_profile.flutter_app\&quot; {\n      + Name: ${var.app_bucket_name}-cdnprofile\n      + SKU: Standard_Microsoft\n    }\n\n    entity \&quot;azurerm_cdn_endpoint.flutter_app\&quot; {\n      + Name: ${var.app_bucket_name}-cdnendpoint\n      + Origin: flutter-app-origin\n      + Host Name: azurerm_storage_account.flutter_app.primary_web_host\n    }\n  }\n}\n\n&#39; Connections between resources\n\&quot;azurerm_resource_group.main\&quot; --&gt; \&quot;azurerm_storage_account.flutter_app\&quot; : Deploys in\n\&quot;azurerm_resource_group.main\&quot; --&gt; \&quot;azurerm_cdn_profile.flutter_app\&quot; : Deploys in\n\&quot;azurerm_storage_account.flutter_app\&quot; --&gt; \&quot;azurerm_cdn_endpoint.flutter_app\&quot; : Serves content to\n\n@enduml\n&quot;,&#xa;  &quot;format&quot;: &quot;svg&quot;&#xa;}" id="Ap-TIvCrl3Eo0d8KOGi_-2">
          <mxCell style="shape=image;noLabel=1;verticalAlign=top;aspect=fixed;imageAspect=0;image=data:image/svg+xml,PD94bWwgdmVyc2lvbj0iMS4wIiBlbmNvZGluZz0idXMtYXNjaWkiIHN0YW5kYWxvbmU9Im5vIj8+PHN2ZyB4bWxucz0iaHR0cDovL3d3dy53My5vcmcvMjAwMC9zdmciIHhtbG5zOnhsaW5rPSJodHRwOi8vd3d3LnczLm9yZy8xOTk5L3hsaW5rIiBjb250ZW50U3R5bGVUeXBlPSJ0ZXh0L2NzcyIgaGVpZ2h0PSI2MzhweCIgcHJlc2VydmVBc3BlY3RSYXRpbz0ibm9uZSIgc3R5bGU9IndpZHRoOjE3OTJweDtoZWlnaHQ6NjM4cHg7YmFja2dyb3VuZDojRkZGRkZGOyIgdmVyc2lvbj0iMS4xIiB2aWV3Qm94PSIwIDAgMTc5MiA2MzgiIHdpZHRoPSIxNzkycHgiIHpvb21BbmRQYW49Im1hZ25pZnkiPjxkZWZzLz48Zz48dGV4dCBmaWxsPSIjMDAwMDAwIiBmb250LWZhbWlseT0ic2Fucy1zZXJpZiIgZm9udC1zaXplPSIxNCIgZm9udC13ZWlnaHQ9ImJvbGQiIGxlbmd0aEFkanVzdD0ic3BhY2luZyIgdGV4dExlbmd0aD0iMTc1IiB4PSI4MDEuNSIgeT0iMjMuMjM0NCI+TW9iaWxlIEFwcCBJbmZyYXN0cnVjdHVyZTwvdGV4dD48IS0tY2x1c3RlciBSZXNvdXJjZSBHcm91cC0tPjxnIGlkPSJjbHVzdGVyX1Jlc291cmNlIEdyb3VwIj48cGF0aCBkPSJNOC41LDQxLjk4NDQgTDEwNy41LDQxLjk4NDQgQTMuNzUsMy43NSAwIDAgMSAxMTAsNDQuNDg0NCBMMTE3LDYyLjk2ODggTDE1MTMuNSw2Mi45Njg4IEEyLjUsMi41IDAgMCAxIDE1MTYsNjUuNDY4OCBMMTUxNiwzNDEuNDg0NCBBMi41LDIuNSAwIDAgMSAxNTEzLjUsMzQzLjk4NDQgTDguNSwzNDMuOTg0NCBBMi41LDIuNSAwIDAgMSA2LDM0MS40ODQ0IEw2LDQ0LjQ4NDQgQTIuNSwyLjUgMCAwIDEgOC41LDQxLjk4NDQgIiBmaWxsPSJub25lIiBzdHlsZT0ic3Ryb2tlOiMwMDAwMDA7c3Ryb2tlLXdpZHRoOjEuNTsiLz48bGluZSBzdHlsZT0ic3Ryb2tlOiMwMDAwMDA7c3Ryb2tlLXdpZHRoOjEuNTsiIHgxPSI2IiB4Mj0iMTE3IiB5MT0iNjIuOTY4OCIgeTI9IjYyLjk2ODgiLz48dGV4dCBmaWxsPSIjMDAwMDAwIiBmb250LWZhbWlseT0ic2Fucy1zZXJpZiIgZm9udC1zaXplPSIxNCIgZm9udC13ZWlnaHQ9ImJvbGQiIGxlbmd0aEFkanVzdD0ic3BhY2luZyIgdGV4dExlbmd0aD0iOTgiIHg9IjEwIiB5PSI1Ny4yMTg4Ij5SZXNvdXJjZSBHcm91cDwvdGV4dD48L2c+PCEtLWNsdXN0ZXIgYXp1cmVybV9yZXNvdXJjZV9ncm91cC0tPjxnIGlkPSJjbHVzdGVyX2F6dXJlcm1fcmVzb3VyY2VfZ3JvdXAiPjxwYXRoIGQ9Ik0xMjMyLjUsMTQ2LjQ4NDQgTDEzODguNSwxNDYuNDg0NCBBMy43NSwzLjc1IDAgMCAxIDEzOTEsMTQ4Ljk4NDQgTDEzOTgsMTY3LjQ2ODggTDE0ODkuNSwxNjcuNDY4OCBBMi41LDIuNSAwIDAgMSAxNDkyLDE2OS45Njg4IEwxNDkyLDI3MC45ODQ0IEEyLjUsMi41IDAgMCAxIDE0ODkuNSwyNzMuNDg0NCBMMTIzMi41LDI3My40ODQ0IEEyLjUsMi41IDAgMCAxIDEyMzAsMjcwLjk4NDQgTDEyMzAsMTQ4Ljk4NDQgQTIuNSwyLjUgMCAwIDEgMTIzMi41LDE0Ni40ODQ0ICIgZmlsbD0ibm9uZSIgc3R5bGU9InN0cm9rZTojMDAwMDAwO3N0cm9rZS13aWR0aDoxLjU7Ii8+PGxpbmUgc3R5bGU9InN0cm9rZTojMDAwMDAwO3N0cm9rZS13aWR0aDoxLjU7IiB4MT0iMTIzMCIgeDI9IjEzOTgiIHkxPSIxNjcuNDY4OCIgeTI9IjE2Ny40Njg4Ii8+PHRleHQgZmlsbD0iIzAwMDAwMCIgZm9udC1mYW1pbHk9InNhbnMtc2VyaWYiIGZvbnQtc2l6ZT0iMTQiIGZvbnQtd2VpZ2h0PSJib2xkIiBsZW5ndGhBZGp1c3Q9InNwYWNpbmciIHRleHRMZW5ndGg9IjE1NSIgeD0iMTIzNCIgeT0iMTYxLjcxODgiPmF6dXJlcm1fcmVzb3VyY2VfZ3JvdXA8L3RleHQ+PC9nPjwhLS1jbHVzdGVyIE1vYmlsZSBBcHAgTW9kdWxlLS0+PGcgaWQ9ImNsdXN0ZXJfTW9iaWxlIEFwcCBNb2R1bGUiPjxwYXRoIGQ9Ik0zMi41LDgyLjk4NDQgTDE1Mi41LDgyLjk4NDQgQTMuNzUsMy43NSAwIDAgMSAxNTUsODUuNDg0NCBMMTYyLDEwMy45Njg4IEwxMjAzLjUsMTAzLjk2ODggQTIuNSwyLjUgMCAwIDEgMTIwNiwxMDYuNDY4OCBMMTIwNiwzMTcuNDg0NCBBMi41LDIuNSAwIDAgMSAxMjAzLjUsMzE5Ljk4NDQgTDMyLjUsMzE5Ljk4NDQgQTIuNSwyLjUgMCAwIDEgMzAsMzE3LjQ4NDQgTDMwLDg1LjQ4NDQgQTIuNSwyLjUgMCAwIDEgMzIuNSw4Mi45ODQ0ICIgZmlsbD0ibm9uZSIgc3R5bGU9InN0cm9rZTojMDAwMDAwO3N0cm9rZS13aWR0aDoxLjU7Ii8+PGxpbmUgc3R5bGU9InN0cm9rZTojMDAwMDAwO3N0cm9rZS13aWR0aDoxLjU7IiB4MT0iMzAiIHgyPSIxNjIiIHkxPSIxMDMuOTY4OCIgeTI9IjEwMy45Njg4Ii8+PHRleHQgZmlsbD0iIzAwMDAwMCIgZm9udC1mYW1pbHk9InNhbnMtc2VyaWYiIGZvbnQtc2l6ZT0iMTQiIGZvbnQtd2VpZ2h0PSJib2xkIiBsZW5ndGhBZGp1c3Q9InNwYWNpbmciIHRleHRMZW5ndGg9IjExOSIgeD0iMzQiIHk9Ijk4LjIxODgiPk1vYmlsZSBBcHAgTW9kdWxlPC90ZXh0PjwvZz48IS0tY2x1c3RlciBhenVyZXJtX3N0b3JhZ2VfYWNjb3VudC0tPjxnIGlkPSJjbHVzdGVyX2F6dXJlcm1fc3RvcmFnZV9hY2NvdW50Ij48cGF0aCBkPSJNOTQyLjUsMTIzLjk4NDQgTDExMDUuNSwxMjMuOTg0NCBBMy43NSwzLjc1IDAgMCAxIDExMDgsMTI2LjQ4NDQgTDExMTUsMTQ0Ljk2ODggTDExNzkuNSwxNDQuOTY4OCBBMi41LDIuNSAwIDAgMSAxMTgyLDE0Ny40Njg4IEwxMTgyLDI5My40ODQ0IEEyLjUsMi41IDAgMCAxIDExNzkuNSwyOTUuOTg0NCBMOTQyLjUsMjk1Ljk4NDQgQTIuNSwyLjUgMCAwIDEgOTQwLDI5My40ODQ0IEw5NDAsMTI2LjQ4NDQgQTIuNSwyLjUgMCAwIDEgOTQyLjUsMTIzLjk4NDQgIiBmaWxsPSJub25lIiBzdHlsZT0ic3Ryb2tlOiMwMDAwMDA7c3Ryb2tlLXdpZHRoOjEuNTsiLz48bGluZSBzdHlsZT0ic3Ryb2tlOiMwMDAwMDA7c3Ryb2tlLXdpZHRoOjEuNTsiIHgxPSI5NDAiIHgyPSIxMTE1IiB5MT0iMTQ0Ljk2ODgiIHkyPSIxNDQuOTY4OCIvPjx0ZXh0IGZpbGw9IiMwMDAwMDAiIGZvbnQtZmFtaWx5PSJzYW5zLXNlcmlmIiBmb250LXNpemU9IjE0IiBmb250LXdlaWdodD0iYm9sZCIgbGVuZ3RoQWRqdXN0PSJzcGFjaW5nIiB0ZXh0TGVuZ3RoPSIxNjIiIHg9Ijk0NCIgeT0iMTM5LjIxODgiPmF6dXJlcm1fc3RvcmFnZV9hY2NvdW50PC90ZXh0PjwvZz48IS0tY2x1c3RlciBhenVyZXJtX2Nkbl9wcm9maWxlLS0+PGcgaWQ9ImNsdXN0ZXJfYXp1cmVybV9jZG5fcHJvZmlsZSI+PHBhdGggZD0iTTU4Mi41LDE0Ni40ODQ0IEw3MTcuNSwxNDYuNDg0NCBBMy43NSwzLjc1IDAgMCAxIDcyMCwxNDguOTg0NCBMNzI3LDE2Ny40Njg4IEw5MTMuNSwxNjcuNDY4OCBBMi41LDIuNSAwIDAgMSA5MTYsMTY5Ljk2ODggTDkxNiwyNzAuOTg0NCBBMi41LDIuNSAwIDAgMSA5MTMuNSwyNzMuNDg0NCBMNTgyLjUsMjczLjQ4NDQgQTIuNSwyLjUgMCAwIDEgNTgwLDI3MC45ODQ0IEw1ODAsMTQ4Ljk4NDQgQTIuNSwyLjUgMCAwIDEgNTgyLjUsMTQ2LjQ4NDQgIiBmaWxsPSJub25lIiBzdHlsZT0ic3Ryb2tlOiMwMDAwMDA7c3Ryb2tlLXdpZHRoOjEuNTsiLz48bGluZSBzdHlsZT0ic3Ryb2tlOiMwMDAwMDA7c3Ryb2tlLXdpZHRoOjEuNTsiIHgxPSI1ODAiIHgyPSI3MjciIHkxPSIxNjcuNDY4OCIgeTI9IjE2Ny40Njg4Ii8+PHRleHQgZmlsbD0iIzAwMDAwMCIgZm9udC1mYW1pbHk9InNhbnMtc2VyaWYiIGZvbnQtc2l6ZT0iMTQiIGZvbnQtd2VpZ2h0PSJib2xkIiBsZW5ndGhBZGp1c3Q9InNwYWNpbmciIHRleHRMZW5ndGg9IjEzNCIgeD0iNTg0IiB5PSIxNjEuNzE4OCI+YXp1cmVybV9jZG5fcHJvZmlsZTwvdGV4dD48L2c+PCEtLWNsdXN0ZXIgYXp1cmVybV9jZG5fZW5kcG9pbnQtLT48ZyBpZD0iY2x1c3Rlcl9henVyZXJtX2Nkbl9lbmRwb2ludCI+PHBhdGggZD0iTTU2LjUsMTM4Ljk4NDQgTDE5OC41LDEzOC45ODQ0IEEzLjc1LDMuNzUgMCAwIDEgMjAxLDE0MS40ODQ0IEwyMDgsMTU5Ljk2ODggTDU1My41LDE1OS45Njg4IEEyLjUsMi41IDAgMCAxIDU1NiwxNjIuNDY4OCBMNTU2LDI3OC40ODQ0IEEyLjUsMi41IDAgMCAxIDU1My41LDI4MC45ODQ0IEw1Ni41LDI4MC45ODQ0IEEyLjUsMi41IDAgMCAxIDU0LDI3OC40ODQ0IEw1NCwxNDEuNDg0NCBBMi41LDIuNSAwIDAgMSA1Ni41LDEzOC45ODQ0ICIgZmlsbD0ibm9uZSIgc3R5bGU9InN0cm9rZTojMDAwMDAwO3N0cm9rZS13aWR0aDoxLjU7Ii8+PGxpbmUgc3R5bGU9InN0cm9rZTojMDAwMDAwO3N0cm9rZS13aWR0aDoxLjU7IiB4MT0iNTQiIHgyPSIyMDgiIHkxPSIxNTkuOTY4OCIgeTI9IjE1OS45Njg4Ii8+PHRleHQgZmlsbD0iIzAwMDAwMCIgZm9udC1mYW1pbHk9InNhbnMtc2VyaWYiIGZvbnQtc2l6ZT0iMTQiIGZvbnQtd2VpZ2h0PSJib2xkIiBsZW5ndGhBZGp1c3Q9InNwYWNpbmciIHRleHRMZW5ndGg9IjE0MSIgeD0iNTgiIHk9IjE1NC4yMTg4Ij5henVyZXJtX2Nkbl9lbmRwb2ludDwvdGV4dD48L2c+PCEtLWNsdXN0ZXIgYXp1cmVybV9yZXNvdXJjZV9ncm91cC0tPjxnIGlkPSJjbHVzdGVyX2F6dXJlcm1fcmVzb3VyY2VfZ3JvdXAiPjxwYXRoIGQ9Ik0xNTQyLjUsMTYxLjQ4NDQgTDE2OTguNSwxNjEuNDg0NCBBMy43NSwzLjc1IDAgMCAxIDE3MDEsMTYzLjk4NDQgTDE3MDgsMTgyLjQ2ODggTDE3MDguNSwxODIuNDY4OCBBMi41LDIuNSAwIDAgMSAxNzExLDE4NC45Njg4IEwxNzExLDI1NS45ODQ0IEEyLjUsMi41IDAgMCAxIDE3MDguNSwyNTguNDg0NCBMMTU0Mi41LDI1OC40ODQ0IEEyLjUsMi41IDAgMCAxIDE1NDAsMjU1Ljk4NDQgTDE1NDAsMTYzLjk4NDQgQTIuNSwyLjUgMCAwIDEgMTU0Mi41LDE2MS40ODQ0ICIgZmlsbD0ibm9uZSIgc3R5bGU9InN0cm9rZTojMDAwMDAwO3N0cm9rZS13aWR0aDoxLjU7Ii8+PGxpbmUgc3R5bGU9InN0cm9rZTojMDAwMDAwO3N0cm9rZS13aWR0aDoxLjU7IiB4MT0iMTU0MCIgeDI9IjE3MDgiIHkxPSIxODIuNDY4OCIgeTI9IjE4Mi40Njg4Ii8+PHRleHQgZmlsbD0iIzAwMDAwMCIgZm9udC1mYW1pbHk9InNhbnMtc2VyaWYiIGZvbnQtc2l6ZT0iMTQiIGZvbnQtd2VpZ2h0PSJib2xkIiBsZW5ndGhBZGp1c3Q9InNwYWNpbmciIHRleHRMZW5ndGg9IjE1NSIgeD0iMTU0NCIgeT0iMTc2LjcxODgiPmF6dXJlcm1fcmVzb3VyY2VfZ3JvdXA8L3RleHQ+PC9nPjwhLS1jbHVzdGVyIGF6dXJlcm1fc3RvcmFnZV9hY2NvdW50LS0+PGcgaWQ9ImNsdXN0ZXJfYXp1cmVybV9zdG9yYWdlX2FjY291bnQiPjxwYXRoIGQ9Ik0xNDM1LjUsMzkwLjk4NDQgTDE1OTguNSwzOTAuOTg0NCBBMy43NSwzLjc1IDAgMCAxIDE2MDEsMzkzLjQ4NDQgTDE2MDgsNDExLjk2ODggTDE2MDguNSw0MTEuOTY4OCBBMi41LDIuNSAwIDAgMSAxNjExLDQxNC40Njg4IEwxNjExLDQ4NS40ODQ0IEEyLjUsMi41IDAgMCAxIDE2MDguNSw0ODcuOTg0NCBMMTQzNS41LDQ4Ny45ODQ0IEEyLjUsMi41IDAgMCAxIDE0MzMsNDg1LjQ4NDQgTDE0MzMsMzkzLjQ4NDQgQTIuNSwyLjUgMCAwIDEgMTQzNS41LDM5MC45ODQ0ICIgZmlsbD0ibm9uZSIgc3R5bGU9InN0cm9rZTojMDAwMDAwO3N0cm9rZS13aWR0aDoxLjU7Ii8+PGxpbmUgc3R5bGU9InN0cm9rZTojMDAwMDAwO3N0cm9rZS13aWR0aDoxLjU7IiB4MT0iMTQzMyIgeDI9IjE2MDgiIHkxPSI0MTEuOTY4OCIgeTI9IjQxMS45Njg4Ii8+PHRleHQgZmlsbD0iIzAwMDAwMCIgZm9udC1mYW1pbHk9InNhbnMtc2VyaWYiIGZvbnQtc2l6ZT0iMTQiIGZvbnQtd2VpZ2h0PSJib2xkIiBsZW5ndGhBZGp1c3Q9InNwYWNpbmciIHRleHRMZW5ndGg9IjE2MiIgeD0iMTQzNyIgeT0iNDA2LjIxODgiPmF6dXJlcm1fc3RvcmFnZV9hY2NvdW50PC90ZXh0PjwvZz48IS0tY2x1c3RlciBhenVyZXJtX2Nkbl9wcm9maWxlLS0+PGcgaWQ9ImNsdXN0ZXJfYXp1cmVybV9jZG5fcHJvZmlsZSI+PHBhdGggZD0iTTE2MzcuNSwzOTAuOTg0NCBMMTc3Mi41LDM5MC45ODQ0IEEzLjc1LDMuNzUgMCAwIDEgMTc3NSwzOTMuNDg0NCBMMTc4Miw0MTEuOTY4OCBMMTc4Mi41LDQxMS45Njg4IEEyLjUsMi41IDAgMCAxIDE3ODUsNDE0LjQ2ODggTDE3ODUsNDg1LjQ4NDQgQTIuNSwyLjUgMCAwIDEgMTc4Mi41LDQ4Ny45ODQ0IEwxNjM3LjUsNDg3Ljk4NDQgQTIuNSwyLjUgMCAwIDEgMTYzNSw0ODUuNDg0NCBMMTYzNSwzOTMuNDg0NCBBMi41LDIuNSAwIDAgMSAxNjM3LjUsMzkwLjk4NDQgIiBmaWxsPSJub25lIiBzdHlsZT0ic3Ryb2tlOiMwMDAwMDA7c3Ryb2tlLXdpZHRoOjEuNTsiLz48bGluZSBzdHlsZT0ic3Ryb2tlOiMwMDAwMDA7c3Ryb2tlLXdpZHRoOjEuNTsiIHgxPSIxNjM1IiB4Mj0iMTc4MiIgeTE9IjQxMS45Njg4IiB5Mj0iNDExLjk2ODgiLz48dGV4dCBmaWxsPSIjMDAwMDAwIiBmb250LWZhbWlseT0ic2Fucy1zZXJpZiIgZm9udC1zaXplPSIxNCIgZm9udC13ZWlnaHQ9ImJvbGQiIGxlbmd0aEFkanVzdD0ic3BhY2luZyIgdGV4dExlbmd0aD0iMTM0IiB4PSIxNjM5IiB5PSI0MDYuMjE4OCI+YXp1cmVybV9jZG5fcHJvZmlsZTwvdGV4dD48L2c+PCEtLWNsdXN0ZXIgYXp1cmVybV9jZG5fZW5kcG9pbnQtLT48ZyBpZD0iY2x1c3Rlcl9henVyZXJtX2Nkbl9lbmRwb2ludCI+PHBhdGggZD0iTTE0NjQuNSw1MzQuOTg0NCBMMTYwNi41LDUzNC45ODQ0IEEzLjc1LDMuNzUgMCAwIDEgMTYwOSw1MzcuNDg0NCBMMTYxNiw1NTUuOTY4OCBMMTYxNi41LDU1NS45Njg4IEEyLjUsMi41IDAgMCAxIDE2MTksNTU4LjQ2ODggTDE2MTksNjI5LjQ4NDQgQTIuNSwyLjUgMCAwIDEgMTYxNi41LDYzMS45ODQ0IEwxNDY0LjUsNjMxLjk4NDQgQTIuNSwyLjUgMCAwIDEgMTQ2Miw2MjkuNDg0NCBMMTQ2Miw1MzcuNDg0NCBBMi41LDIuNSAwIDAgMSAxNDY0LjUsNTM0Ljk4NDQgIiBmaWxsPSJub25lIiBzdHlsZT0ic3Ryb2tlOiMwMDAwMDA7c3Ryb2tlLXdpZHRoOjEuNTsiLz48bGluZSBzdHlsZT0ic3Ryb2tlOiMwMDAwMDA7c3Ryb2tlLXdpZHRoOjEuNTsiIHgxPSIxNDYyIiB4Mj0iMTYxNiIgeTE9IjU1NS45Njg4IiB5Mj0iNTU1Ljk2ODgiLz48dGV4dCBmaWxsPSIjMDAwMDAwIiBmb250LWZhbWlseT0ic2Fucy1zZXJpZiIgZm9udC1zaXplPSIxNCIgZm9udC13ZWlnaHQ9ImJvbGQiIGxlbmd0aEFkanVzdD0ic3BhY2luZyIgdGV4dExlbmd0aD0iMTQxIiB4PSIxNDY2IiB5PSI1NTAuMjE4OCI+YXp1cmVybV9jZG5fZW5kcG9pbnQ8L3RleHQ+PC9nPjwhLS1jbGFzcyBtYWluLS0+PGcgaWQ9ImVsZW1fbWFpbiI+PHJlY3QgY29kZUxpbmU9IjQiIGZpbGw9IiNGMUYxRjEiIGhlaWdodD0iNzcuOTY4OCIgaWQ9Im1haW4iIHJ4PSIyLjUiIHJ5PSIyLjUiIHN0eWxlPSJzdHJva2U6IzE4MTgxODtzdHJva2Utd2lkdGg6MC41OyIgd2lkdGg9IjIzMSIgeD0iMTI0NS41IiB5PSIxNzkuNDg0NCIvPjxlbGxpcHNlIGN4PSIxMzQyLjI1IiBjeT0iMTk1LjQ4NDQiIGZpbGw9IiNBREQxQjIiIHJ4PSIxMSIgcnk9IjExIiBzdHlsZT0ic3Ryb2tlOiMxODE4MTg7c3Ryb2tlLXdpZHRoOjEuMDsiLz48cGF0aCBkPSJNMTM0NS44NzUsMjAxLjQ4NDQgTDEzNDUuODc1LDE5OS43MzQ0IEwxMzQwLjU2MjUsMTk5LjczNDQgUTEzNDAuNTYyNSwxOTkuNzM0NCAxMzQwLjU2MjUsMTk2LjE3MTkgTDEzNDQuODEyNSwxOTYuMTcxOSBMMTM0NC44MTI1LDE5NC40MjE5IEwxMzQwLjU2MjUsMTk0LjQyMTkgTDEzNDAuNTYyNSwxOTEuOTIxOSBMMTM0NS44NzUsMTkxLjkyMTkgTDEzNDUuODc1LDE5MC4xNzE5IEwxMzM4LjgxMjUsMTkwLjE3MTkgUTEzMzguODEyNSwxOTAuMTcxOSAxMzM4LjgxMjUsMjAxLjQ4NDQgTDEzNDUuODc1LDIwMS40ODQ0IFogIiBmaWxsPSIjMDAwMDAwIi8+PHRleHQgZmlsbD0iIzAwMDAwMCIgZm9udC1mYW1pbHk9InNhbnMtc2VyaWYiIGZvbnQtc2l6ZT0iMTQiIGxlbmd0aEFkanVzdD0ic3BhY2luZyIgdGV4dExlbmd0aD0iMjkiIHg9IjEzNjIuNzUiIHk9IjIwMS4yMjY2Ij5tYWluPC90ZXh0PjxsaW5lIHN0eWxlPSJzdHJva2U6IzE4MTgxODtzdHJva2Utd2lkdGg6MC41OyIgeDE9IjEyNDYuNSIgeDI9IjE0NzUuNSIgeTE9IjIxMS40ODQ0IiB5Mj0iMjExLjQ4NDQiLz48ZWxsaXBzZSBjeD0iMTI1Ni41IiBjeT0iMjI0LjQ3NjYiIGZpbGw9Im5vbmUiIHJ4PSIzIiByeT0iMyIgc3R5bGU9InN0cm9rZTojMDM4MDQ4O3N0cm9rZS13aWR0aDoxLjA7Ii8+PHRleHQgZmlsbD0iIzAwMDAwMCIgZm9udC1mYW1pbHk9InNhbnMtc2VyaWYiIGZvbnQtc2l6ZT0iMTQiIGxlbmd0aEFkanVzdD0ic3BhY2luZyIgdGV4dExlbmd0aD0iMjA1IiB4PSIxMjY1LjUiIHk9IjIyOC43MTg4Ij5OYW1lOiB2YXIucmVzb3VyY2VfZ3JvdXBfbmFtZTwvdGV4dD48ZWxsaXBzZSBjeD0iMTI1Ni41IiBjeT0iMjM5LjQ2MDkiIGZpbGw9Im5vbmUiIHJ4PSIzIiByeT0iMyIgc3R5bGU9InN0cm9rZTojMDM4MDQ4O3N0cm9rZS13aWR0aDoxLjA7Ii8+PHRleHQgZmlsbD0iIzAwMDAwMCIgZm9udC1mYW1pbHk9InNhbnMtc2VyaWYiIGZvbnQtc2l6ZT0iMTQiIGxlbmd0aEFkanVzdD0ic3BhY2luZyIgdGV4dExlbmd0aD0iMTU0IiB4PSIxMjY1LjUiIHk9IjI0My43MDMxIj5Mb2NhdGlvbjogdmFyLmxvY2F0aW9uPC90ZXh0PjxsaW5lIHN0eWxlPSJzdHJva2U6IzE4MTgxODtzdHJva2Utd2lkdGg6MC41OyIgeDE9IjEyNDYuNSIgeDI9IjE0NzUuNSIgeTE9IjI0OS40NTMxIiB5Mj0iMjQ5LjQ1MzEiLz48L2c+PCEtLWNsYXNzIGZsdXR0ZXJfYXBwLS0+PGcgaWQ9ImVsZW1fZmx1dHRlcl9hcHAiPjxyZWN0IGNvZGVMaW5lPSIxMCIgZmlsbD0iI0YxRjFGMSIgaGVpZ2h0PSIxMjIuOTIxOSIgaWQ9ImZsdXR0ZXJfYXBwIiByeD0iMi41IiByeT0iMi41IiBzdHlsZT0ic3Ryb2tlOiMxODE4MTg7c3Ryb2tlLXdpZHRoOjAuNTsiIHdpZHRoPSIyMDkiIHg9Ijk1Ni41IiB5PSIxNTYuOTg0NCIvPjxlbGxpcHNlIGN4PSIxMDE4LjI1IiBjeT0iMTcyLjk4NDQiIGZpbGw9IiNBREQxQjIiIHJ4PSIxMSIgcnk9IjExIiBzdHlsZT0ic3Ryb2tlOiMxODE4MTg7c3Ryb2tlLXdpZHRoOjEuMDsiLz48cGF0aCBkPSJNMTAyMS44NzUsMTc4Ljk4NDQgTDEwMjEuODc1LDE3Ny4yMzQ0IEwxMDE2LjU2MjUsMTc3LjIzNDQgUTEwMTYuNTYyNSwxNzcuMjM0NCAxMDE2LjU2MjUsMTczLjY3MTkgTDEwMjAuODEyNSwxNzMuNjcxOSBMMTAyMC44MTI1LDE3MS45MjE5IEwxMDE2LjU2MjUsMTcxLjkyMTkgTDEwMTYuNTYyNSwxNjkuNDIxOSBMMTAyMS44NzUsMTY5LjQyMTkgTDEwMjEuODc1LDE2Ny42NzE5IEwxMDE0LjgxMjUsMTY3LjY3MTkgUTEwMTQuODEyNSwxNjcuNjcxOSAxMDE0LjgxMjUsMTc4Ljk4NDQgTDEwMjEuODc1LDE3OC45ODQ0IFogIiBmaWxsPSIjMDAwMDAwIi8+PHRleHQgZmlsbD0iIzAwMDAwMCIgZm9udC1mYW1pbHk9InNhbnMtc2VyaWYiIGZvbnQtc2l6ZT0iMTQiIGxlbmd0aEFkanVzdD0ic3BhY2luZyIgdGV4dExlbmd0aD0iNzciIHg9IjEwMzguNzUiIHk9IjE3OC43MjY2Ij5mbHV0dGVyX2FwcDwvdGV4dD48bGluZSBzdHlsZT0ic3Ryb2tlOiMxODE4MTg7c3Ryb2tlLXdpZHRoOjAuNTsiIHgxPSI5NTcuNSIgeDI9IjExNjQuNSIgeTE9IjE4OC45ODQ0IiB5Mj0iMTg4Ljk4NDQiLz48ZWxsaXBzZSBjeD0iOTY3LjUiIGN5PSIyMDEuOTc2NiIgZmlsbD0ibm9uZSIgcng9IjMiIHJ5PSIzIiBzdHlsZT0ic3Ryb2tlOiMwMzgwNDg7c3Ryb2tlLXdpZHRoOjEuMDsiLz48dGV4dCBmaWxsPSIjMDAwMDAwIiBmb250LWZhbWlseT0ic2Fucy1zZXJpZiIgZm9udC1zaXplPSIxNCIgbGVuZ3RoQWRqdXN0PSJzcGFjaW5nIiB0ZXh0TGVuZ3RoPSIxNzciIHg9Ijk3Ni41IiB5PSIyMDYuMjE4OCI+TmFtZTogdmFyLmFwcF9idWNrZXRfbmFtZTwvdGV4dD48ZWxsaXBzZSBjeD0iOTY3LjUiIGN5PSIyMTYuOTYwOSIgZmlsbD0ibm9uZSIgcng9IjMiIHJ5PSIzIiBzdHlsZT0ic3Ryb2tlOiMwMzgwNDg7c3Ryb2tlLXdpZHRoOjEuMDsiLz48dGV4dCBmaWxsPSIjMDAwMDAwIiBmb250LWZhbWlseT0ic2Fucy1zZXJpZiIgZm9udC1zaXplPSIxNCIgbGVuZ3RoQWRqdXN0PSJzcGFjaW5nIiB0ZXh0TGVuZ3RoPSIxNTQiIHg9Ijk3Ni41IiB5PSIyMjEuMjAzMSI+QWNjb3VudCBUaWVyOiBTdGFuZGFyZDwvdGV4dD48ZWxsaXBzZSBjeD0iOTY3LjUiIGN5PSIyMzEuOTQ1MyIgZmlsbD0ibm9uZSIgcng9IjMiIHJ5PSIzIiBzdHlsZT0ic3Ryb2tlOiMwMzgwNDg7c3Ryb2tlLXdpZHRoOjEuMDsiLz48dGV4dCBmaWxsPSIjMDAwMDAwIiBmb250LWZhbWlseT0ic2Fucy1zZXJpZiIgZm9udC1zaXplPSIxNCIgbGVuZ3RoQWRqdXN0PSJzcGFjaW5nIiB0ZXh0TGVuZ3RoPSIxMTIiIHg9Ijk3Ni41IiB5PSIyMzYuMTg3NSI+UmVwbGljYXRpb246IExSUzwvdGV4dD48ZWxsaXBzZSBjeD0iOTY3LjUiIGN5PSIyNDYuOTI5NyIgZmlsbD0ibm9uZSIgcng9IjMiIHJ5PSIzIiBzdHlsZT0ic3Ryb2tlOiMwMzgwNDg7c3Ryb2tlLXdpZHRoOjEuMDsiLz48dGV4dCBmaWxsPSIjMDAwMDAwIiBmb250LWZhbWlseT0ic2Fucy1zZXJpZiIgZm9udC1zaXplPSIxNCIgbGVuZ3RoQWRqdXN0PSJzcGFjaW5nIiB0ZXh0TGVuZ3RoPSIxMTIiIHg9Ijk3Ni41IiB5PSIyNTEuMTcxOSI+SFRUUFMgT25seTogdHJ1ZTwvdGV4dD48ZWxsaXBzZSBjeD0iOTY3LjUiIGN5PSIyNjEuOTE0MSIgZmlsbD0ibm9uZSIgcng9IjMiIHJ5PSIzIiBzdHlsZT0ic3Ryb2tlOiMwMzgwNDg7c3Ryb2tlLXdpZHRoOjEuMDsiLz48dGV4dCBmaWxsPSIjMDAwMDAwIiBmb250LWZhbWlseT0ic2Fucy1zZXJpZiIgZm9udC1zaXplPSIxNCIgbGVuZ3RoQWRqdXN0PSJzcGFjaW5nIiB0ZXh0TGVuZ3RoPSIxODMiIHg9Ijk3Ni41IiB5PSIyNjYuMTU2MyI+U3RhdGljIFdlYnNpdGU6IGluZGV4Lmh0bWw8L3RleHQ+PGxpbmUgc3R5bGU9InN0cm9rZTojMTgxODE4O3N0cm9rZS13aWR0aDowLjU7IiB4MT0iOTU3LjUiIHgyPSIxMTY0LjUiIHkxPSIyNzEuOTA2MyIgeTI9IjI3MS45MDYzIi8+PC9nPjwhLS1jbGFzcyBmbHV0dGVyX2FwcC0tPjxnIGlkPSJlbGVtX2ZsdXR0ZXJfYXBwIj48cmVjdCBjb2RlTGluZT0iMTgiIGZpbGw9IiNGMUYxRjEiIGhlaWdodD0iNzcuOTY4OCIgaWQ9ImZsdXR0ZXJfYXBwIiByeD0iMi41IiByeT0iMi41IiBzdHlsZT0ic3Ryb2tlOiMxODE4MTg7c3Ryb2tlLXdpZHRoOjAuNTsiIHdpZHRoPSIzMDQiIHg9IjU5NiIgeT0iMTc5LjQ4NDQiLz48ZWxsaXBzZSBjeD0iNzA1LjI1IiBjeT0iMTk1LjQ4NDQiIGZpbGw9IiNBREQxQjIiIHJ4PSIxMSIgcnk9IjExIiBzdHlsZT0ic3Ryb2tlOiMxODE4MTg7c3Ryb2tlLXdpZHRoOjEuMDsiLz48cGF0aCBkPSJNNzA4Ljg3NSwyMDEuNDg0NCBMNzA4Ljg3NSwxOTkuNzM0NCBMNzAzLjU2MjUsMTk5LjczNDQgUTcwMy41NjI1LDE5OS43MzQ0IDcwMy41NjI1LDE5Ni4xNzE5IEw3MDcuODEyNSwxOTYuMTcxOSBMNzA3LjgxMjUsMTk0LjQyMTkgTDcwMy41NjI1LDE5NC40MjE5IEw3MDMuNTYyNSwxOTEuOTIxOSBMNzA4Ljg3NSwxOTEuOTIxOSBMNzA4Ljg3NSwxOTAuMTcxOSBMNzAxLjgxMjUsMTkwLjE3MTkgUTcwMS44MTI1LDE5MC4xNzE5IDcwMS44MTI1LDIwMS40ODQ0IEw3MDguODc1LDIwMS40ODQ0IFogIiBmaWxsPSIjMDAwMDAwIi8+PHRleHQgZmlsbD0iIzAwMDAwMCIgZm9udC1mYW1pbHk9InNhbnMtc2VyaWYiIGZvbnQtc2l6ZT0iMTQiIGxlbmd0aEFkanVzdD0ic3BhY2luZyIgdGV4dExlbmd0aD0iNzciIHg9IjcyNS43NSIgeT0iMjAxLjIyNjYiPmZsdXR0ZXJfYXBwPC90ZXh0PjxsaW5lIHN0eWxlPSJzdHJva2U6IzE4MTgxODtzdHJva2Utd2lkdGg6MC41OyIgeDE9IjU5NyIgeDI9Ijg5OSIgeTE9IjIxMS40ODQ0IiB5Mj0iMjExLjQ4NDQiLz48ZWxsaXBzZSBjeD0iNjA3IiBjeT0iMjI0LjQ3NjYiIGZpbGw9Im5vbmUiIHJ4PSIzIiByeT0iMyIgc3R5bGU9InN0cm9rZTojMDM4MDQ4O3N0cm9rZS13aWR0aDoxLjA7Ii8+PHRleHQgZmlsbD0iIzAwMDAwMCIgZm9udC1mYW1pbHk9InNhbnMtc2VyaWYiIGZvbnQtc2l6ZT0iMTQiIGxlbmd0aEFkanVzdD0ic3BhY2luZyIgdGV4dExlbmd0aD0iMjc4IiB4PSI2MTYiIHk9IjIyOC43MTg4Ij5OYW1lOiAke3Zhci5hcHBfYnVja2V0X25hbWV9LWNkbnByb2ZpbGU8L3RleHQ+PGVsbGlwc2UgY3g9IjYwNyIgY3k9IjIzOS40NjA5IiBmaWxsPSJub25lIiByeD0iMyIgcnk9IjMiIHN0eWxlPSJzdHJva2U6IzAzODA0ODtzdHJva2Utd2lkdGg6MS4wOyIvPjx0ZXh0IGZpbGw9IiMwMDAwMDAiIGZvbnQtZmFtaWx5PSJzYW5zLXNlcmlmIiBmb250LXNpemU9IjE0IiBsZW5ndGhBZGp1c3Q9InNwYWNpbmciIHRleHRMZW5ndGg9IjE2MSIgeD0iNjE2IiB5PSIyNDMuNzAzMSI+U0tVOiBTdGFuZGFyZF9NaWNyb3NvZnQ8L3RleHQ+PGxpbmUgc3R5bGU9InN0cm9rZTojMTgxODE4O3N0cm9rZS13aWR0aDowLjU7IiB4MT0iNTk3IiB4Mj0iODk5IiB5MT0iMjQ5LjQ1MzEiIHkyPSIyNDkuNDUzMSIvPjwvZz48IS0tY2xhc3MgZmx1dHRlcl9hcHAtLT48ZyBpZD0iZWxlbV9mbHV0dGVyX2FwcCI+PHJlY3QgY29kZUxpbmU9IjIzIiBmaWxsPSIjRjFGMUYxIiBoZWlnaHQ9IjkyLjk1MzEiIGlkPSJmbHV0dGVyX2FwcCIgcng9IjIuNSIgcnk9IjIuNSIgc3R5bGU9InN0cm9rZTojMTgxODE4O3N0cm9rZS13aWR0aDowLjU7IiB3aWR0aD0iNDcxIiB4PSI2OS41IiB5PSIxNzEuOTg0NCIvPjxlbGxpcHNlIGN4PSIyNjIuMjUiIGN5PSIxODcuOTg0NCIgZmlsbD0iI0FERDFCMiIgcng9IjExIiByeT0iMTEiIHN0eWxlPSJzdHJva2U6IzE4MTgxODtzdHJva2Utd2lkdGg6MS4wOyIvPjxwYXRoIGQ9Ik0yNjUuODc1LDE5My45ODQ0IEwyNjUuODc1LDE5Mi4yMzQ0IEwyNjAuNTYyNSwxOTIuMjM0NCBRMjYwLjU2MjUsMTkyLjIzNDQgMjYwLjU2MjUsMTg4LjY3MTkgTDI2NC44MTI1LDE4OC42NzE5IEwyNjQuODEyNSwxODYuOTIxOSBMMjYwLjU2MjUsMTg2LjkyMTkgTDI2MC41NjI1LDE4NC40MjE5IEwyNjUuODc1LDE4NC40MjE5IEwyNjUuODc1LDE4Mi42NzE5IEwyNTguODEyNSwxODIuNjcxOSBRMjU4LjgxMjUsMTgyLjY3MTkgMjU4LjgxMjUsMTkzLjk4NDQgTDI2NS44NzUsMTkzLjk4NDQgWiAiIGZpbGw9IiMwMDAwMDAiLz48dGV4dCBmaWxsPSIjMDAwMDAwIiBmb250LWZhbWlseT0ic2Fucy1zZXJpZiIgZm9udC1zaXplPSIxNCIgbGVuZ3RoQWRqdXN0PSJzcGFjaW5nIiB0ZXh0TGVuZ3RoPSI3NyIgeD0iMjgyLjc1IiB5PSIxOTMuNzI2NiI+Zmx1dHRlcl9hcHA8L3RleHQ+PGxpbmUgc3R5bGU9InN0cm9rZTojMTgxODE4O3N0cm9rZS13aWR0aDowLjU7IiB4MT0iNzAuNSIgeDI9IjUzOS41IiB5MT0iMjAzLjk4NDQiIHkyPSIyMDMuOTg0NCIvPjxlbGxpcHNlIGN4PSI4MC41IiBjeT0iMjE2Ljk3NjYiIGZpbGw9Im5vbmUiIHJ4PSIzIiByeT0iMyIgc3R5bGU9InN0cm9rZTojMDM4MDQ4O3N0cm9rZS13aWR0aDoxLjA7Ii8+PHRleHQgZmlsbD0iIzAwMDAwMCIgZm9udC1mYW1pbHk9InNhbnMtc2VyaWYiIGZvbnQtc2l6ZT0iMTQiIGxlbmd0aEFkanVzdD0ic3BhY2luZyIgdGV4dExlbmd0aD0iMjg1IiB4PSI4OS41IiB5PSIyMjEuMjE4OCI+TmFtZTogJHt2YXIuYXBwX2J1Y2tldF9uYW1lfS1jZG5lbmRwb2ludDwvdGV4dD48ZWxsaXBzZSBjeD0iODAuNSIgY3k9IjIzMS45NjA5IiBmaWxsPSJub25lIiByeD0iMyIgcnk9IjMiIHN0eWxlPSJzdHJva2U6IzAzODA0ODtzdHJva2Utd2lkdGg6MS4wOyIvPjx0ZXh0IGZpbGw9IiMwMDAwMDAiIGZvbnQtZmFtaWx5PSJzYW5zLXNlcmlmIiBmb250LXNpemU9IjE0IiBsZW5ndGhBZGp1c3Q9InNwYWNpbmciIHRleHRMZW5ndGg9IjE4MiIgeD0iODkuNSIgeT0iMjM2LjIwMzEiPk9yaWdpbjogZmx1dHRlci1hcHAtb3JpZ2luPC90ZXh0PjxlbGxpcHNlIGN4PSI4MC41IiBjeT0iMjQ2Ljk0NTMiIGZpbGw9Im5vbmUiIHJ4PSIzIiByeT0iMyIgc3R5bGU9InN0cm9rZTojMDM4MDQ4O3N0cm9rZS13aWR0aDoxLjA7Ii8+PHRleHQgZmlsbD0iIzAwMDAwMCIgZm9udC1mYW1pbHk9InNhbnMtc2VyaWYiIGZvbnQtc2l6ZT0iMTQiIGxlbmd0aEFkanVzdD0ic3BhY2luZyIgdGV4dExlbmd0aD0iNDQ1IiB4PSI4OS41IiB5PSIyNTEuMTg3NSI+SG9zdCBOYW1lOiBhenVyZXJtX3N0b3JhZ2VfYWNjb3VudC5mbHV0dGVyX2FwcC5wcmltYXJ5X3dlYl9ob3N0PC90ZXh0PjxsaW5lIHN0eWxlPSJzdHJva2U6IzE4MTgxODtzdHJva2Utd2lkdGg6MC41OyIgeDE9IjcwLjUiIHgyPSI1MzkuNSIgeTE9IjI1Ni45Mzc1IiB5Mj0iMjU2LjkzNzUiLz48L2c+PCEtLWNsYXNzIG1haW4tLT48ZyBpZD0iZWxlbV9tYWluIj48cmVjdCBmaWxsPSIjRjFGMUYxIiBoZWlnaHQ9IjQ4IiBpZD0ibWFpbiIgcng9IjIuNSIgcnk9IjIuNSIgc3R5bGU9InN0cm9rZTojMTgxODE4O3N0cm9rZS13aWR0aDowLjU7IiB3aWR0aD0iNjEiIHg9IjE1OTQuNSIgeT0iMTk0LjQ4NDQiLz48ZWxsaXBzZSBjeD0iMTYwOS41IiBjeT0iMjEwLjQ4NDQiIGZpbGw9IiNBREQxQjIiIHJ4PSIxMSIgcnk9IjExIiBzdHlsZT0ic3Ryb2tlOiMxODE4MTg7c3Ryb2tlLXdpZHRoOjEuMDsiLz48cGF0aCBkPSJNMTYwNy4xMjUsMjE0LjczNDQgTDE2MDcuMTI1LDIxNi40ODQ0IEwxNjEyLjA2MjUsMjE2LjQ4NDQgTDE2MTIuMDYyNSwyMTQuNzM0NCBMMTYwNy4xMjUsMjE0LjczNDQgWiBNMTYwNy44MTI1LDIxNS40MjE5IFExNjA3LjgxMjUsMjE1LjQyMTkgMTYwNy44MTI1LDIwNi4yMzQ0IEwxNjA2LjA2MjUsMjA2LjIzNDQgUTE2MDYuMDYyNSwyMDYuMjM0NCAxNjA2LjA2MjUsMjE1LjQyMTkgTDE2MDcuODEyNSwyMTUuNDIxOSBaIE0xNjExLjM3NSwyMTUuNDIxOSBMMTYxMy4xMjUsMjE1LjQyMTkgUTE2MTMuMTI1LDIxNS40MjE5IDE2MTMuMTI1LDIxMi42MDk0IEwxNjExLjM3NSwyMTIuNjA5NCBRMTYxMS4zNzUsMjEyLjYwOTQgMTYxMS4zNzUsMjE1LjQyMTkgWiBNMTYxMS4zNzUsMjA2LjIzNDQgUTE2MTEuMzc1LDIwNi4yMzQ0IDE2MTEuMzc1LDIwOS4wNDY5IEwxNjEzLjEyNSwyMDkuMDQ2OSBRMTYxMy4xMjUsMjA5LjA0NjkgMTYxMy4xMjUsMjA2LjIzNDQgTDE2MTEuMzc1LDIwNi4yMzQ0IFogTTE2MDcuMTI1LDIwNi45MjE5IEwxNjEyLjA2MjUsMjA2LjkyMTkgTDE2MTIuMDYyNSwyMDUuMTcxOSBMMTYwNy4xMjUsMjA1LjE3MTkgTDE2MDcuMTI1LDIwNi45MjE5IFogIiBmaWxsPSIjMDAwMDAwIi8+PHRleHQgZmlsbD0iIzAwMDAwMCIgZm9udC1mYW1pbHk9InNhbnMtc2VyaWYiIGZvbnQtc2l6ZT0iMTQiIGxlbmd0aEFkanVzdD0ic3BhY2luZyIgdGV4dExlbmd0aD0iMjkiIHg9IjE2MjMuNSIgeT0iMjE2LjIyNjYiPm1haW48L3RleHQ+PGxpbmUgc3R5bGU9InN0cm9rZTojMTgxODE4O3N0cm9rZS13aWR0aDowLjU7IiB4MT0iMTU5NS41IiB4Mj0iMTY1NC41IiB5MT0iMjI2LjQ4NDQiIHkyPSIyMjYuNDg0NCIvPjxsaW5lIHN0eWxlPSJzdHJva2U6IzE4MTgxODtzdHJva2Utd2lkdGg6MC41OyIgeDE9IjE1OTUuNSIgeDI9IjE2NTQuNSIgeTE9IjIzNC40ODQ0IiB5Mj0iMjM0LjQ4NDQiLz48L2c+PCEtLWNsYXNzIGZsdXR0ZXJfYXBwLS0+PGcgaWQ9ImVsZW1fZmx1dHRlcl9hcHAiPjxyZWN0IGZpbGw9IiNGMUYxRjEiIGhlaWdodD0iNDgiIGlkPSJmbHV0dGVyX2FwcCIgcng9IjIuNSIgcnk9IjIuNSIgc3R5bGU9InN0cm9rZTojMTgxODE4O3N0cm9rZS13aWR0aDowLjU7IiB3aWR0aD0iMTA5IiB4PSIxNDg1LjUiIHk9IjQyMy45ODQ0Ii8+PGVsbGlwc2UgY3g9IjE1MDAuNSIgY3k9IjQzOS45ODQ0IiBmaWxsPSIjQUREMUIyIiByeD0iMTEiIHJ5PSIxMSIgc3R5bGU9InN0cm9rZTojMTgxODE4O3N0cm9rZS13aWR0aDoxLjA7Ii8+PHBhdGggZD0iTTE0OTguMTI1LDQ0NC4yMzQ0IEwxNDk4LjEyNSw0NDUuOTg0NCBMMTUwMy4wNjI1LDQ0NS45ODQ0IEwxNTAzLjA2MjUsNDQ0LjIzNDQgTDE0OTguMTI1LDQ0NC4yMzQ0IFogTTE0OTguODEyNSw0NDQuOTIxOSBRMTQ5OC44MTI1LDQ0NC45MjE5IDE0OTguODEyNSw0MzUuNzM0NCBMMTQ5Ny4wNjI1LDQzNS43MzQ0IFExNDk3LjA2MjUsNDM1LjczNDQgMTQ5Ny4wNjI1LDQ0NC45MjE5IEwxNDk4LjgxMjUsNDQ0LjkyMTkgWiBNMTUwMi4zNzUsNDQ0LjkyMTkgTDE1MDQuMTI1LDQ0NC45MjE5IFExNTA0LjEyNSw0NDQuOTIxOSAxNTA0LjEyNSw0NDIuMTA5NCBMMTUwMi4zNzUsNDQyLjEwOTQgUTE1MDIuMzc1LDQ0Mi4xMDk0IDE1MDIuMzc1LDQ0NC45MjE5IFogTTE1MDIuMzc1LDQzNS43MzQ0IFExNTAyLjM3NSw0MzUuNzM0NCAxNTAyLjM3NSw0MzguNTQ2OSBMMTUwNC4xMjUsNDM4LjU0NjkgUTE1MDQuMTI1LDQzOC41NDY5IDE1MDQuMTI1LDQzNS43MzQ0IEwxNTAyLjM3NSw0MzUuNzM0NCBaIE0xNDk4LjEyNSw0MzYuNDIxOSBMMTUwMy4wNjI1LDQzNi40MjE5IEwxNTAzLjA2MjUsNDM0LjY3MTkgTDE0OTguMTI1LDQzNC42NzE5IEwxNDk4LjEyNSw0MzYuNDIxOSBaICIgZmlsbD0iIzAwMDAwMCIvPjx0ZXh0IGZpbGw9IiMwMDAwMDAiIGZvbnQtZmFtaWx5PSJzYW5zLXNlcmlmIiBmb250LXNpemU9IjE0IiBsZW5ndGhBZGp1c3Q9InNwYWNpbmciIHRleHRMZW5ndGg9Ijc3IiB4PSIxNTE0LjUiIHk9IjQ0NS43MjY2Ij5mbHV0dGVyX2FwcDwvdGV4dD48bGluZSBzdHlsZT0ic3Ryb2tlOiMxODE4MTg7c3Ryb2tlLXdpZHRoOjAuNTsiIHgxPSIxNDg2LjUiIHgyPSIxNTkzLjUiIHkxPSI0NTUuOTg0NCIgeTI9IjQ1NS45ODQ0Ii8+PGxpbmUgc3R5bGU9InN0cm9rZTojMTgxODE4O3N0cm9rZS13aWR0aDowLjU7IiB4MT0iMTQ4Ni41IiB4Mj0iMTU5My41IiB5MT0iNDYzLjk4NDQiIHkyPSI0NjMuOTg0NCIvPjwvZz48IS0tY2xhc3MgZmx1dHRlcl9hcHAtLT48ZyBpZD0iZWxlbV9mbHV0dGVyX2FwcCI+PHJlY3QgZmlsbD0iI0YxRjFGMSIgaGVpZ2h0PSI0OCIgaWQ9ImZsdXR0ZXJfYXBwIiByeD0iMi41IiByeT0iMi41IiBzdHlsZT0ic3Ryb2tlOiMxODE4MTg7c3Ryb2tlLXdpZHRoOjAuNTsiIHdpZHRoPSIxMDkiIHg9IjE2NTEuNSIgeT0iNDIzLjk4NDQiLz48ZWxsaXBzZSBjeD0iMTY2Ni41IiBjeT0iNDM5Ljk4NDQiIGZpbGw9IiNBREQxQjIiIHJ4PSIxMSIgcnk9IjExIiBzdHlsZT0ic3Ryb2tlOiMxODE4MTg7c3Ryb2tlLXdpZHRoOjEuMDsiLz48cGF0aCBkPSJNMTY2NC4xMjUsNDQ0LjIzNDQgTDE2NjQuMTI1LDQ0NS45ODQ0IEwxNjY5LjA2MjUsNDQ1Ljk4NDQgTDE2NjkuMDYyNSw0NDQuMjM0NCBMMTY2NC4xMjUsNDQ0LjIzNDQgWiBNMTY2NC44MTI1LDQ0NC45MjE5IFExNjY0LjgxMjUsNDQ0LjkyMTkgMTY2NC44MTI1LDQzNS43MzQ0IEwxNjYzLjA2MjUsNDM1LjczNDQgUTE2NjMuMDYyNSw0MzUuNzM0NCAxNjYzLjA2MjUsNDQ0LjkyMTkgTDE2NjQuODEyNSw0NDQuOTIxOSBaIE0xNjY4LjM3NSw0NDQuOTIxOSBMMTY3MC4xMjUsNDQ0LjkyMTkgUTE2NzAuMTI1LDQ0NC45MjE5IDE2NzAuMTI1LDQ0Mi4xMDk0IEwxNjY4LjM3NSw0NDIuMTA5NCBRMTY2OC4zNzUsNDQyLjEwOTQgMTY2OC4zNzUsNDQ0LjkyMTkgWiBNMTY2OC4zNzUsNDM1LjczNDQgUTE2NjguMzc1LDQzNS43MzQ0IDE2NjguMzc1LDQzOC41NDY5IEwxNjcwLjEyNSw0MzguNTQ2OSBRMTY3MC4xMjUsNDM4LjU0NjkgMTY3MC4xMjUsNDM1LjczNDQgTDE2NjguMzc1LDQzNS43MzQ0IFogTTE2NjQuMTI1LDQzNi40MjE5IEwxNjY5LjA2MjUsNDM2LjQyMTkgTDE2NjkuMDYyNSw0MzQuNjcxOSBMMTY2NC4xMjUsNDM0LjY3MTkgTDE2NjQuMTI1LDQzNi40MjE5IFogIiBmaWxsPSIjMDAwMDAwIi8+PHRleHQgZmlsbD0iIzAwMDAwMCIgZm9udC1mYW1pbHk9InNhbnMtc2VyaWYiIGZvbnQtc2l6ZT0iMTQiIGxlbmd0aEFkanVzdD0ic3BhY2luZyIgdGV4dExlbmd0aD0iNzciIHg9IjE2ODAuNSIgeT0iNDQ1LjcyNjYiPmZsdXR0ZXJfYXBwPC90ZXh0PjxsaW5lIHN0eWxlPSJzdHJva2U6IzE4MTgxODtzdHJva2Utd2lkdGg6MC41OyIgeDE9IjE2NTIuNSIgeDI9IjE3NTkuNSIgeTE9IjQ1NS45ODQ0IiB5Mj0iNDU1Ljk4NDQiLz48bGluZSBzdHlsZT0ic3Ryb2tlOiMxODE4MTg7c3Ryb2tlLXdpZHRoOjAuNTsiIHgxPSIxNjUyLjUiIHgyPSIxNzU5LjUiIHkxPSI0NjMuOTg0NCIgeTI9IjQ2My45ODQ0Ii8+PC9nPjwhLS1jbGFzcyBmbHV0dGVyX2FwcC0tPjxnIGlkPSJlbGVtX2ZsdXR0ZXJfYXBwIj48cmVjdCBmaWxsPSIjRjFGMUYxIiBoZWlnaHQ9IjQ4IiBpZD0iZmx1dHRlcl9hcHAiIHJ4PSIyLjUiIHJ5PSIyLjUiIHN0eWxlPSJzdHJva2U6IzE4MTgxODtzdHJva2Utd2lkdGg6MC41OyIgd2lkdGg9IjEwOSIgeD0iMTQ4NS41IiB5PSI1NjcuOTg0NCIvPjxlbGxpcHNlIGN4PSIxNTAwLjUiIGN5PSI1ODMuOTg0NCIgZmlsbD0iI0FERDFCMiIgcng9IjExIiByeT0iMTEiIHN0eWxlPSJzdHJva2U6IzE4MTgxODtzdHJva2Utd2lkdGg6MS4wOyIvPjxwYXRoIGQ9Ik0xNDk4LjEyNSw1ODguMjM0NCBMMTQ5OC4xMjUsNTg5Ljk4NDQgTDE1MDMuMDYyNSw1ODkuOTg0NCBMMTUwMy4wNjI1LDU4OC4yMzQ0IEwxNDk4LjEyNSw1ODguMjM0NCBaIE0xNDk4LjgxMjUsNTg4LjkyMTkgUTE0OTguODEyNSw1ODguOTIxOSAxNDk4LjgxMjUsNTc5LjczNDQgTDE0OTcuMDYyNSw1NzkuNzM0NCBRMTQ5Ny4wNjI1LDU3OS43MzQ0IDE0OTcuMDYyNSw1ODguOTIxOSBMMTQ5OC44MTI1LDU4OC45MjE5IFogTTE1MDIuMzc1LDU4OC45MjE5IEwxNTA0LjEyNSw1ODguOTIxOSBRMTUwNC4xMjUsNTg4LjkyMTkgMTUwNC4xMjUsNTg2LjEwOTQgTDE1MDIuMzc1LDU4Ni4xMDk0IFExNTAyLjM3NSw1ODYuMTA5NCAxNTAyLjM3NSw1ODguOTIxOSBaIE0xNTAyLjM3NSw1NzkuNzM0NCBRMTUwMi4zNzUsNTc5LjczNDQgMTUwMi4zNzUsNTgyLjU0NjkgTDE1MDQuMTI1LDU4Mi41NDY5IFExNTA0LjEyNSw1ODIuNTQ2OSAxNTA0LjEyNSw1NzkuNzM0NCBMMTUwMi4zNzUsNTc5LjczNDQgWiBNMTQ5OC4xMjUsNTgwLjQyMTkgTDE1MDMuMDYyNSw1ODAuNDIxOSBMMTUwMy4wNjI1LDU3OC42NzE5IEwxNDk4LjEyNSw1NzguNjcxOSBMMTQ5OC4xMjUsNTgwLjQyMTkgWiAiIGZpbGw9IiMwMDAwMDAiLz48dGV4dCBmaWxsPSIjMDAwMDAwIiBmb250LWZhbWlseT0ic2Fucy1zZXJpZiIgZm9udC1zaXplPSIxNCIgbGVuZ3RoQWRqdXN0PSJzcGFjaW5nIiB0ZXh0TGVuZ3RoPSI3NyIgeD0iMTUxNC41IiB5PSI1ODkuNzI2NiI+Zmx1dHRlcl9hcHA8L3RleHQ+PGxpbmUgc3R5bGU9InN0cm9rZTojMTgxODE4O3N0cm9rZS13aWR0aDowLjU7IiB4MT0iMTQ4Ni41IiB4Mj0iMTU5My41IiB5MT0iNTk5Ljk4NDQiIHkyPSI1OTkuOTg0NCIvPjxsaW5lIHN0eWxlPSJzdHJva2U6IzE4MTgxODtzdHJva2Utd2lkdGg6MC41OyIgeDE9IjE0ODYuNSIgeDI9IjE1OTMuNSIgeTE9IjYwNy45ODQ0IiB5Mj0iNjA3Ljk4NDQiLz48L2c+PCEtLWxpbmsgbWFpbiB0byBmbHV0dGVyX2FwcC0tPjxnIGlkPSJsaW5rX21haW5fZmx1dHRlcl9hcHAiPjxwYXRoIGNvZGVMaW5lPSIzMiIgZD0iTTE2MTYuMzgsMjQyLjU1NDQgQzE2MDAuMDksMjg2LjE1NDQgMTU2Ny4wNTAxLDM3NC41ODM5IDE1NTAuNzQwMSw0MTguMjMzOSAiIGZpbGw9Im5vbmUiIGlkPSJtYWluLXRvLWZsdXR0ZXJfYXBwIiBzdHlsZT0ic3Ryb2tlOiMxODE4MTg7c3Ryb2tlLXdpZHRoOjEuMDsiLz48cG9seWdvbiBmaWxsPSIjMTgxODE4IiBwb2ludHM9IjE1NDguNjQsNDIzLjg1NDQsMTU1NS41MzcxLDQxNi44MjM4LDE1NTAuMzkwMSw0MTkuMTcwNywxNTQ4LjA0MzIsNDE0LjAyMzYsMTU0OC42NCw0MjMuODU0NCIgc3R5bGU9InN0cm9rZTojMTgxODE4O3N0cm9rZS13aWR0aDoxLjA7Ii8+PHRleHQgZmlsbD0iIzAwMDAwMCIgZm9udC1mYW1pbHk9InNhbnMtc2VyaWYiIGZvbnQtc2l6ZT0iMTMiIGxlbmd0aEFkanVzdD0ic3BhY2luZyIgdGV4dExlbmd0aD0iNjgiIHg9IjE1NzMiIHk9IjM3My4yNzM0Ij5EZXBsb3lzIGluPC90ZXh0PjwvZz48IS0tbGluayBtYWluIHRvIGZsdXR0ZXJfYXBwLS0+PGcgaWQ9ImxpbmtfbWFpbl9mbHV0dGVyX2FwcCI+PHBhdGggY29kZUxpbmU9IjMzIiBkPSJNMTYzMy4yMSwyNDIuNTU0NCBDMTY0OC43NCwyODYuMTU0NCAxNjgwLjIwNjUsMzc0LjU1MjMgMTY5NS43NTY1LDQxOC4yMDIzICIgZmlsbD0ibm9uZSIgaWQ9Im1haW4tdG8tZmx1dHRlcl9hcHAtMSIgc3R5bGU9InN0cm9rZTojMTgxODE4O3N0cm9rZS13aWR0aDoxLjA7Ii8+PHBvbHlnb24gZmlsbD0iIzE4MTgxOCIgcG9pbnRzPSIxNjk3Ljc3LDQyMy44NTQ0LDE2OTguNTE3OCw0MTQuMDMzOSwxNjk2LjA5MjEsNDE5LjE0NDMsMTY5MC45ODE3LDQxNi43MTg2LDE2OTcuNzcsNDIzLjg1NDQiIHN0eWxlPSJzdHJva2U6IzE4MTgxODtzdHJva2Utd2lkdGg6MS4wOyIvPjx0ZXh0IGZpbGw9IiMwMDAwMDAiIGZvbnQtZmFtaWx5PSJzYW5zLXNlcmlmIiBmb250LXNpemU9IjEzIiBsZW5ndGhBZGp1c3Q9InNwYWNpbmciIHRleHRMZW5ndGg9IjY4IiB4PSIxNjgwIiB5PSIzNzMuMjczNCI+RGVwbG95cyBpbjwvdGV4dD48L2c+PCEtLWxpbmsgZmx1dHRlcl9hcHAgdG8gZmx1dHRlcl9hcHAtLT48ZyBpZD0ibGlua19mbHV0dGVyX2FwcF9mbHV0dGVyX2FwcCI+PHBhdGggY29kZUxpbmU9IjM0IiBkPSJNMTU0MCw0NzIuMTE0NCBDMTU0MCw0OTguNTI0NCAxNTQwLDUzNS40NjQ0IDE1NDAsNTYxLjg2NDQgIiBmaWxsPSJub25lIiBpZD0iZmx1dHRlcl9hcHAtdG8tZmx1dHRlcl9hcHAiIHN0eWxlPSJzdHJva2U6IzE4MTgxODtzdHJva2Utd2lkdGg6MS4wOyIvPjxwb2x5Z29uIGZpbGw9IiMxODE4MTgiIHBvaW50cz0iMTU0MCw1NjcuODY0NCwxNTQ0LDU1OC44NjQ0LDE1NDAsNTYyLjg2NDQsMTUzNiw1NTguODY0NCwxNTQwLDU2Ny44NjQ0IiBzdHlsZT0ic3Ryb2tlOiMxODE4MTg7c3Ryb2tlLXdpZHRoOjEuMDsiLz48dGV4dCBmaWxsPSIjMDAwMDAwIiBmb250LWZhbWlseT0ic2Fucy1zZXJpZiIgZm9udC1zaXplPSIxMyIgbGVuZ3RoQWRqdXN0PSJzcGFjaW5nIiB0ZXh0TGVuZ3RoPSIxMTYiIHg9IjE1NDEiIHk9IjUxNy4yNzM0Ij5TZXJ2ZXMgY29udGVudCB0bzwvdGV4dD48L2c+PCEtLVNSQz1bYkxCMUprRDAzQnRkQXdtQVlTQ2ctTzBVYTEwaHhJOGVlQk9oWmdGOW4ycVphbDc4dW0xVG5CX1pqYWNwQkFOMDhPYWNWa19EVXhSNUl1cW1lVEJodnBINkUweUJqYWN1VFQ4b1BiY3F4anVrNEtQSkpESW9HX1o1ckNPSEY2UzA2Q0pCMmFSc2hzQXZDVG5YcDdBREFIaGhtbk84eTBFa1I4RFpVQjFTbDhNUGU4S0VTcWRFWWdVbW5UTlRJT2lsY1J2c05seG5FdzZnaFI2X3ZOejNJT1lMT1FucHIwT2Y1ZEtoV2NuaVozdGJoSktqY0I5cnpvWTNoSk5ZVDJpMFN1eXlYZmRPSzVja1RrS2Zuamh0clktZGlydFh6dG4tQ3VGaEtBXzZlNHFUMTVMMmw4RFJCOUNObFRvNzJmLUFFc2RnM01JSnp0cVVMbUtKY0hRUV9kMk1lLVN6UUx2b3ZOVnFtU1o1ZG82R2NOWjdiNldYZHhkMEs0Tm9keE5xT25pelZxVXVQaF9xc2hyRUJyVElKZmpfR3BDZklJVnlYRzROYU5yWlVNS1VpSkh0SWtxWWhIeURUV25kNTBBd3pTbUliMllGWTA3d3JLcFB1UU5FeXZDbFJqYU9Wa2ZvcTJoZllCeVotazZlem1pVXpGMUVVRl9xVDAtRzdwMjFlbzB3VDExdzFHMDBdLS0+PC9nPjwvc3ZnPg==;" vertex="1" parent="1">
            <mxGeometry x="-780" y="100" width="1792" height="638" as="geometry" />
          </mxCell>
        </UserObject>
      </root>
    </mxGraphModel>
  </diagram>
  <diagram id="7UtX4QZ-NsTXfWA4Ft5x" name="web_app">
    <mxGraphModel dx="2620" dy="975" grid="1" gridSize="10" guides="1" tooltips="1" connect="1" arrows="1" fold="1" page="1" pageScale="1" pageWidth="827" pageHeight="1169" math="0" shadow="0">
      <root>
        <mxCell id="0" />
        <mxCell id="1" parent="0" />
        <UserObject label="" plantUmlData="{&#xa;  &quot;data&quot;: &quot;@startuml\ntitle Web App Infrastructure\n\npackage \&quot;Resource Group\&quot; {\n  entity \&quot;azurerm_resource_group.main\&quot; {\n    + Name: var.resource_group_name\n    + Location: var.location\n  }\n\n  package \&quot;Web App Module\&quot; {\n    entity \&quot;azurerm_storage_account.react_app\&quot; {\n      + Name: var.app_bucket_name\n      + Account Tier: Standard\n      + Replication: LRS\n      + HTTPS Only: true\n      + Static Website: index.html\n    }\n\n    entity \&quot;azurerm_cdn_profile.react_app\&quot; {\n      + Name: ${var.app_bucket_name}-cdnprofile\n      + SKU: Standard_Microsoft\n    }\n\n    entity \&quot;azurerm_cdn_endpoint.react_app\&quot; {\n      + Name: ${var.app_bucket_name}-cdnendpoint\n      + Origin: react-app-origin\n      + Host Name: azurerm_storage_account.react_app.primary_web_host\n    }\n  }\n}\n\n&#39; Connections between resources\n\&quot;azurerm_resource_group.main\&quot; --&gt; \&quot;azurerm_storage_account.react_app\&quot; : Deploys in\n\&quot;azurerm_resource_group.main\&quot; --&gt; \&quot;azurerm_cdn_profile.react_app\&quot; : Deploys in\n\&quot;azurerm_storage_account.react_app\&quot; --&gt; \&quot;azurerm_cdn_endpoint.react_app\&quot; : Serves content to\n\n@enduml\n&quot;,&#xa;  &quot;format&quot;: &quot;svg&quot;&#xa;}" id="RVPCQI42sGUEau5WugFV-1">
          <mxCell style="shape=image;noLabel=1;verticalAlign=top;aspect=fixed;imageAspect=0;image=data:image/svg+xml,PD94bWwgdmVyc2lvbj0iMS4wIiBlbmNvZGluZz0idXMtYXNjaWkiIHN0YW5kYWxvbmU9Im5vIj8+PHN2ZyB4bWxucz0iaHR0cDovL3d3dy53My5vcmcvMjAwMC9zdmciIHhtbG5zOnhsaW5rPSJodHRwOi8vd3d3LnczLm9yZy8xOTk5L3hsaW5rIiBjb250ZW50U3R5bGVUeXBlPSJ0ZXh0L2NzcyIgaGVpZ2h0PSI2MzhweCIgcHJlc2VydmVBc3BlY3RSYXRpbz0ibm9uZSIgc3R5bGU9IndpZHRoOjE3NzVweDtoZWlnaHQ6NjM4cHg7YmFja2dyb3VuZDojRkZGRkZGOyIgdmVyc2lvbj0iMS4xIiB2aWV3Qm94PSIwIDAgMTc3NSA2MzgiIHdpZHRoPSIxNzc1cHgiIHpvb21BbmRQYW49Im1hZ25pZnkiPjxkZWZzLz48Zz48dGV4dCBmaWxsPSIjMDAwMDAwIiBmb250LWZhbWlseT0ic2Fucy1zZXJpZiIgZm9udC1zaXplPSIxNCIgZm9udC13ZWlnaHQ9ImJvbGQiIGxlbmd0aEFkanVzdD0ic3BhY2luZyIgdGV4dExlbmd0aD0iMTU0IiB4PSI4MDMuNSIgeT0iMjMuMjM0NCI+V2ViIEFwcCBJbmZyYXN0cnVjdHVyZTwvdGV4dD48IS0tY2x1c3RlciBSZXNvdXJjZSBHcm91cC0tPjxnIGlkPSJjbHVzdGVyX1Jlc291cmNlIEdyb3VwIj48cGF0aCBkPSJNOC41LDQxLjk4NDQgTDEwNy41LDQxLjk4NDQgQTMuNzUsMy43NSAwIDAgMSAxMTAsNDQuNDg0NCBMMTE3LDYyLjk2ODggTDE0OTkuNSw2Mi45Njg4IEEyLjUsMi41IDAgMCAxIDE1MDIsNjUuNDY4OCBMMTUwMiwzNDEuNDg0NCBBMi41LDIuNSAwIDAgMSAxNDk5LjUsMzQzLjk4NDQgTDguNSwzNDMuOTg0NCBBMi41LDIuNSAwIDAgMSA2LDM0MS40ODQ0IEw2LDQ0LjQ4NDQgQTIuNSwyLjUgMCAwIDEgOC41LDQxLjk4NDQgIiBmaWxsPSJub25lIiBzdHlsZT0ic3Ryb2tlOiMwMDAwMDA7c3Ryb2tlLXdpZHRoOjEuNTsiLz48bGluZSBzdHlsZT0ic3Ryb2tlOiMwMDAwMDA7c3Ryb2tlLXdpZHRoOjEuNTsiIHgxPSI2IiB4Mj0iMTE3IiB5MT0iNjIuOTY4OCIgeTI9IjYyLjk2ODgiLz48dGV4dCBmaWxsPSIjMDAwMDAwIiBmb250LWZhbWlseT0ic2Fucy1zZXJpZiIgZm9udC1zaXplPSIxNCIgZm9udC13ZWlnaHQ9ImJvbGQiIGxlbmd0aEFkanVzdD0ic3BhY2luZyIgdGV4dExlbmd0aD0iOTgiIHg9IjEwIiB5PSI1Ny4yMTg4Ij5SZXNvdXJjZSBHcm91cDwvdGV4dD48L2c+PCEtLWNsdXN0ZXIgYXp1cmVybV9yZXNvdXJjZV9ncm91cC0tPjxnIGlkPSJjbHVzdGVyX2F6dXJlcm1fcmVzb3VyY2VfZ3JvdXAiPjxwYXRoIGQ9Ik0xMjE4LjUsMTQ2LjQ4NDQgTDEzNzQuNSwxNDYuNDg0NCBBMy43NSwzLjc1IDAgMCAxIDEzNzcsMTQ4Ljk4NDQgTDEzODQsMTY3LjQ2ODggTDE0NzUuNSwxNjcuNDY4OCBBMi41LDIuNSAwIDAgMSAxNDc4LDE2OS45Njg4IEwxNDc4LDI3MC45ODQ0IEEyLjUsMi41IDAgMCAxIDE0NzUuNSwyNzMuNDg0NCBMMTIxOC41LDI3My40ODQ0IEEyLjUsMi41IDAgMCAxIDEyMTYsMjcwLjk4NDQgTDEyMTYsMTQ4Ljk4NDQgQTIuNSwyLjUgMCAwIDEgMTIxOC41LDE0Ni40ODQ0ICIgZmlsbD0ibm9uZSIgc3R5bGU9InN0cm9rZTojMDAwMDAwO3N0cm9rZS13aWR0aDoxLjU7Ii8+PGxpbmUgc3R5bGU9InN0cm9rZTojMDAwMDAwO3N0cm9rZS13aWR0aDoxLjU7IiB4MT0iMTIxNiIgeDI9IjEzODQiIHkxPSIxNjcuNDY4OCIgeTI9IjE2Ny40Njg4Ii8+PHRleHQgZmlsbD0iIzAwMDAwMCIgZm9udC1mYW1pbHk9InNhbnMtc2VyaWYiIGZvbnQtc2l6ZT0iMTQiIGZvbnQtd2VpZ2h0PSJib2xkIiBsZW5ndGhBZGp1c3Q9InNwYWNpbmciIHRleHRMZW5ndGg9IjE1NSIgeD0iMTIyMCIgeT0iMTYxLjcxODgiPmF6dXJlcm1fcmVzb3VyY2VfZ3JvdXA8L3RleHQ+PC9nPjwhLS1jbHVzdGVyIFdlYiBBcHAgTW9kdWxlLS0+PGcgaWQ9ImNsdXN0ZXJfV2ViIEFwcCBNb2R1bGUiPjxwYXRoIGQ9Ik0zMi41LDgyLjk4NDQgTDEzMS41LDgyLjk4NDQgQTMuNzUsMy43NSAwIDAgMSAxMzQsODUuNDg0NCBMMTQxLDEwMy45Njg4IEwxMTg5LjUsMTAzLjk2ODggQTIuNSwyLjUgMCAwIDEgMTE5MiwxMDYuNDY4OCBMMTE5MiwzMTcuNDg0NCBBMi41LDIuNSAwIDAgMSAxMTg5LjUsMzE5Ljk4NDQgTDMyLjUsMzE5Ljk4NDQgQTIuNSwyLjUgMCAwIDEgMzAsMzE3LjQ4NDQgTDMwLDg1LjQ4NDQgQTIuNSwyLjUgMCAwIDEgMzIuNSw4Mi45ODQ0ICIgZmlsbD0ibm9uZSIgc3R5bGU9InN0cm9rZTojMDAwMDAwO3N0cm9rZS13aWR0aDoxLjU7Ii8+PGxpbmUgc3R5bGU9InN0cm9rZTojMDAwMDAwO3N0cm9rZS13aWR0aDoxLjU7IiB4MT0iMzAiIHgyPSIxNDEiIHkxPSIxMDMuOTY4OCIgeTI9IjEwMy45Njg4Ii8+PHRleHQgZmlsbD0iIzAwMDAwMCIgZm9udC1mYW1pbHk9InNhbnMtc2VyaWYiIGZvbnQtc2l6ZT0iMTQiIGZvbnQtd2VpZ2h0PSJib2xkIiBsZW5ndGhBZGp1c3Q9InNwYWNpbmciIHRleHRMZW5ndGg9Ijk4IiB4PSIzNCIgeT0iOTguMjE4OCI+V2ViIEFwcCBNb2R1bGU8L3RleHQ+PC9nPjwhLS1jbHVzdGVyIGF6dXJlcm1fc3RvcmFnZV9hY2NvdW50LS0+PGcgaWQ9ImNsdXN0ZXJfYXp1cmVybV9zdG9yYWdlX2FjY291bnQiPjxwYXRoIGQ9Ik05MjguNSwxMjMuOTg0NCBMMTA5MS41LDEyMy45ODQ0IEEzLjc1LDMuNzUgMCAwIDEgMTA5NCwxMjYuNDg0NCBMMTEwMSwxNDQuOTY4OCBMMTE2NS41LDE0NC45Njg4IEEyLjUsMi41IDAgMCAxIDExNjgsMTQ3LjQ2ODggTDExNjgsMjkzLjQ4NDQgQTIuNSwyLjUgMCAwIDEgMTE2NS41LDI5NS45ODQ0IEw5MjguNSwyOTUuOTg0NCBBMi41LDIuNSAwIDAgMSA5MjYsMjkzLjQ4NDQgTDkyNiwxMjYuNDg0NCBBMi41LDIuNSAwIDAgMSA5MjguNSwxMjMuOTg0NCAiIGZpbGw9Im5vbmUiIHN0eWxlPSJzdHJva2U6IzAwMDAwMDtzdHJva2Utd2lkdGg6MS41OyIvPjxsaW5lIHN0eWxlPSJzdHJva2U6IzAwMDAwMDtzdHJva2Utd2lkdGg6MS41OyIgeDE9IjkyNiIgeDI9IjExMDEiIHkxPSIxNDQuOTY4OCIgeTI9IjE0NC45Njg4Ii8+PHRleHQgZmlsbD0iIzAwMDAwMCIgZm9udC1mYW1pbHk9InNhbnMtc2VyaWYiIGZvbnQtc2l6ZT0iMTQiIGZvbnQtd2VpZ2h0PSJib2xkIiBsZW5ndGhBZGp1c3Q9InNwYWNpbmciIHRleHRMZW5ndGg9IjE2MiIgeD0iOTMwIiB5PSIxMzkuMjE4OCI+YXp1cmVybV9zdG9yYWdlX2FjY291bnQ8L3RleHQ+PC9nPjwhLS1jbHVzdGVyIGF6dXJlcm1fY2RuX3Byb2ZpbGUtLT48ZyBpZD0iY2x1c3Rlcl9henVyZXJtX2Nkbl9wcm9maWxlIj48cGF0aCBkPSJNNTY4LjUsMTQ2LjQ4NDQgTDcwMy41LDE0Ni40ODQ0IEEzLjc1LDMuNzUgMCAwIDEgNzA2LDE0OC45ODQ0IEw3MTMsMTY3LjQ2ODggTDg5OS41LDE2Ny40Njg4IEEyLjUsMi41IDAgMCAxIDkwMiwxNjkuOTY4OCBMOTAyLDI3MC45ODQ0IEEyLjUsMi41IDAgMCAxIDg5OS41LDI3My40ODQ0IEw1NjguNSwyNzMuNDg0NCBBMi41LDIuNSAwIDAgMSA1NjYsMjcwLjk4NDQgTDU2NiwxNDguOTg0NCBBMi41LDIuNSAwIDAgMSA1NjguNSwxNDYuNDg0NCAiIGZpbGw9Im5vbmUiIHN0eWxlPSJzdHJva2U6IzAwMDAwMDtzdHJva2Utd2lkdGg6MS41OyIvPjxsaW5lIHN0eWxlPSJzdHJva2U6IzAwMDAwMDtzdHJva2Utd2lkdGg6MS41OyIgeDE9IjU2NiIgeDI9IjcxMyIgeTE9IjE2Ny40Njg4IiB5Mj0iMTY3LjQ2ODgiLz48dGV4dCBmaWxsPSIjMDAwMDAwIiBmb250LWZhbWlseT0ic2Fucy1zZXJpZiIgZm9udC1zaXplPSIxNCIgZm9udC13ZWlnaHQ9ImJvbGQiIGxlbmd0aEFkanVzdD0ic3BhY2luZyIgdGV4dExlbmd0aD0iMTM0IiB4PSI1NzAiIHk9IjE2MS43MTg4Ij5henVyZXJtX2Nkbl9wcm9maWxlPC90ZXh0PjwvZz48IS0tY2x1c3RlciBhenVyZXJtX2Nkbl9lbmRwb2ludC0tPjxnIGlkPSJjbHVzdGVyX2F6dXJlcm1fY2RuX2VuZHBvaW50Ij48cGF0aCBkPSJNNTYuNSwxMzguOTg0NCBMMTk4LjUsMTM4Ljk4NDQgQTMuNzUsMy43NSAwIDAgMSAyMDEsMTQxLjQ4NDQgTDIwOCwxNTkuOTY4OCBMNTM5LjUsMTU5Ljk2ODggQTIuNSwyLjUgMCAwIDEgNTQyLDE2Mi40Njg4IEw1NDIsMjc4LjQ4NDQgQTIuNSwyLjUgMCAwIDEgNTM5LjUsMjgwLjk4NDQgTDU2LjUsMjgwLjk4NDQgQTIuNSwyLjUgMCAwIDEgNTQsMjc4LjQ4NDQgTDU0LDE0MS40ODQ0IEEyLjUsMi41IDAgMCAxIDU2LjUsMTM4Ljk4NDQgIiBmaWxsPSJub25lIiBzdHlsZT0ic3Ryb2tlOiMwMDAwMDA7c3Ryb2tlLXdpZHRoOjEuNTsiLz48bGluZSBzdHlsZT0ic3Ryb2tlOiMwMDAwMDA7c3Ryb2tlLXdpZHRoOjEuNTsiIHgxPSI1NCIgeDI9IjIwOCIgeTE9IjE1OS45Njg4IiB5Mj0iMTU5Ljk2ODgiLz48dGV4dCBmaWxsPSIjMDAwMDAwIiBmb250LWZhbWlseT0ic2Fucy1zZXJpZiIgZm9udC1zaXplPSIxNCIgZm9udC13ZWlnaHQ9ImJvbGQiIGxlbmd0aEFkanVzdD0ic3BhY2luZyIgdGV4dExlbmd0aD0iMTQxIiB4PSI1OCIgeT0iMTU0LjIxODgiPmF6dXJlcm1fY2RuX2VuZHBvaW50PC90ZXh0PjwvZz48IS0tY2x1c3RlciBhenVyZXJtX3Jlc291cmNlX2dyb3VwLS0+PGcgaWQ9ImNsdXN0ZXJfYXp1cmVybV9yZXNvdXJjZV9ncm91cCI+PHBhdGggZD0iTTE1MjguNSwxNjEuNDg0NCBMMTY4NC41LDE2MS40ODQ0IEEzLjc1LDMuNzUgMCAwIDEgMTY4NywxNjMuOTg0NCBMMTY5NCwxODIuNDY4OCBMMTY5NC41LDE4Mi40Njg4IEEyLjUsMi41IDAgMCAxIDE2OTcsMTg0Ljk2ODggTDE2OTcsMjU1Ljk4NDQgQTIuNSwyLjUgMCAwIDEgMTY5NC41LDI1OC40ODQ0IEwxNTI4LjUsMjU4LjQ4NDQgQTIuNSwyLjUgMCAwIDEgMTUyNiwyNTUuOTg0NCBMMTUyNiwxNjMuOTg0NCBBMi41LDIuNSAwIDAgMSAxNTI4LjUsMTYxLjQ4NDQgIiBmaWxsPSJub25lIiBzdHlsZT0ic3Ryb2tlOiMwMDAwMDA7c3Ryb2tlLXdpZHRoOjEuNTsiLz48bGluZSBzdHlsZT0ic3Ryb2tlOiMwMDAwMDA7c3Ryb2tlLXdpZHRoOjEuNTsiIHgxPSIxNTI2IiB4Mj0iMTY5NCIgeTE9IjE4Mi40Njg4IiB5Mj0iMTgyLjQ2ODgiLz48dGV4dCBmaWxsPSIjMDAwMDAwIiBmb250LWZhbWlseT0ic2Fucy1zZXJpZiIgZm9udC1zaXplPSIxNCIgZm9udC13ZWlnaHQ9ImJvbGQiIGxlbmd0aEFkanVzdD0ic3BhY2luZyIgdGV4dExlbmd0aD0iMTU1IiB4PSIxNTMwIiB5PSIxNzYuNzE4OCI+YXp1cmVybV9yZXNvdXJjZV9ncm91cDwvdGV4dD48L2c+PCEtLWNsdXN0ZXIgYXp1cmVybV9zdG9yYWdlX2FjY291bnQtLT48ZyBpZD0iY2x1c3Rlcl9henVyZXJtX3N0b3JhZ2VfYWNjb3VudCI+PHBhdGggZD0iTTE0MTguNSwzOTAuOTg0NCBMMTU4MS41LDM5MC45ODQ0IEEzLjc1LDMuNzUgMCAwIDEgMTU4NCwzOTMuNDg0NCBMMTU5MSw0MTEuOTY4OCBMMTU5MS41LDQxMS45Njg4IEEyLjUsMi41IDAgMCAxIDE1OTQsNDE0LjQ2ODggTDE1OTQsNDg1LjQ4NDQgQTIuNSwyLjUgMCAwIDEgMTU5MS41LDQ4Ny45ODQ0IEwxNDE4LjUsNDg3Ljk4NDQgQTIuNSwyLjUgMCAwIDEgMTQxNiw0ODUuNDg0NCBMMTQxNiwzOTMuNDg0NCBBMi41LDIuNSAwIDAgMSAxNDE4LjUsMzkwLjk4NDQgIiBmaWxsPSJub25lIiBzdHlsZT0ic3Ryb2tlOiMwMDAwMDA7c3Ryb2tlLXdpZHRoOjEuNTsiLz48bGluZSBzdHlsZT0ic3Ryb2tlOiMwMDAwMDA7c3Ryb2tlLXdpZHRoOjEuNTsiIHgxPSIxNDE2IiB4Mj0iMTU5MSIgeTE9IjQxMS45Njg4IiB5Mj0iNDExLjk2ODgiLz48dGV4dCBmaWxsPSIjMDAwMDAwIiBmb250LWZhbWlseT0ic2Fucy1zZXJpZiIgZm9udC1zaXplPSIxNCIgZm9udC13ZWlnaHQ9ImJvbGQiIGxlbmd0aEFkanVzdD0ic3BhY2luZyIgdGV4dExlbmd0aD0iMTYyIiB4PSIxNDIwIiB5PSI0MDYuMjE4OCI+YXp1cmVybV9zdG9yYWdlX2FjY291bnQ8L3RleHQ+PC9nPjwhLS1jbHVzdGVyIGF6dXJlcm1fY2RuX3Byb2ZpbGUtLT48ZyBpZD0iY2x1c3Rlcl9henVyZXJtX2Nkbl9wcm9maWxlIj48cGF0aCBkPSJNMTYyMC41LDM5MC45ODQ0IEwxNzU1LjUsMzkwLjk4NDQgQTMuNzUsMy43NSAwIDAgMSAxNzU4LDM5My40ODQ0IEwxNzY1LDQxMS45Njg4IEwxNzY1LjUsNDExLjk2ODggQTIuNSwyLjUgMCAwIDEgMTc2OCw0MTQuNDY4OCBMMTc2OCw0ODUuNDg0NCBBMi41LDIuNSAwIDAgMSAxNzY1LjUsNDg3Ljk4NDQgTDE2MjAuNSw0ODcuOTg0NCBBMi41LDIuNSAwIDAgMSAxNjE4LDQ4NS40ODQ0IEwxNjE4LDM5My40ODQ0IEEyLjUsMi41IDAgMCAxIDE2MjAuNSwzOTAuOTg0NCAiIGZpbGw9Im5vbmUiIHN0eWxlPSJzdHJva2U6IzAwMDAwMDtzdHJva2Utd2lkdGg6MS41OyIvPjxsaW5lIHN0eWxlPSJzdHJva2U6IzAwMDAwMDtzdHJva2Utd2lkdGg6MS41OyIgeDE9IjE2MTgiIHgyPSIxNzY1IiB5MT0iNDExLjk2ODgiIHkyPSI0MTEuOTY4OCIvPjx0ZXh0IGZpbGw9IiMwMDAwMDAiIGZvbnQtZmFtaWx5PSJzYW5zLXNlcmlmIiBmb250LXNpemU9IjE0IiBmb250LXdlaWdodD0iYm9sZCIgbGVuZ3RoQWRqdXN0PSJzcGFjaW5nIiB0ZXh0TGVuZ3RoPSIxMzQiIHg9IjE2MjIiIHk9IjQwNi4yMTg4Ij5henVyZXJtX2Nkbl9wcm9maWxlPC90ZXh0PjwvZz48IS0tY2x1c3RlciBhenVyZXJtX2Nkbl9lbmRwb2ludC0tPjxnIGlkPSJjbHVzdGVyX2F6dXJlcm1fY2RuX2VuZHBvaW50Ij48cGF0aCBkPSJNMTQ1NC41LDUzNC45ODQ0IEwxNTk2LjUsNTM0Ljk4NDQgQTMuNzUsMy43NSAwIDAgMSAxNTk5LDUzNy40ODQ0IEwxNjA2LDU1NS45Njg4IEwxNjA2LjUsNTU1Ljk2ODggQTIuNSwyLjUgMCAwIDEgMTYwOSw1NTguNDY4OCBMMTYwOSw2MjkuNDg0NCBBMi41LDIuNSAwIDAgMSAxNjA2LjUsNjMxLjk4NDQgTDE0NTQuNSw2MzEuOTg0NCBBMi41LDIuNSAwIDAgMSAxNDUyLDYyOS40ODQ0IEwxNDUyLDUzNy40ODQ0IEEyLjUsMi41IDAgMCAxIDE0NTQuNSw1MzQuOTg0NCAiIGZpbGw9Im5vbmUiIHN0eWxlPSJzdHJva2U6IzAwMDAwMDtzdHJva2Utd2lkdGg6MS41OyIvPjxsaW5lIHN0eWxlPSJzdHJva2U6IzAwMDAwMDtzdHJva2Utd2lkdGg6MS41OyIgeDE9IjE0NTIiIHgyPSIxNjA2IiB5MT0iNTU1Ljk2ODgiIHkyPSI1NTUuOTY4OCIvPjx0ZXh0IGZpbGw9IiMwMDAwMDAiIGZvbnQtZmFtaWx5PSJzYW5zLXNlcmlmIiBmb250LXNpemU9IjE0IiBmb250LXdlaWdodD0iYm9sZCIgbGVuZ3RoQWRqdXN0PSJzcGFjaW5nIiB0ZXh0TGVuZ3RoPSIxNDEiIHg9IjE0NTYiIHk9IjU1MC4yMTg4Ij5henVyZXJtX2Nkbl9lbmRwb2ludDwvdGV4dD48L2c+PCEtLWNsYXNzIG1haW4tLT48ZyBpZD0iZWxlbV9tYWluIj48cmVjdCBjb2RlTGluZT0iNCIgZmlsbD0iI0YxRjFGMSIgaGVpZ2h0PSI3Ny45Njg4IiBpZD0ibWFpbiIgcng9IjIuNSIgcnk9IjIuNSIgc3R5bGU9InN0cm9rZTojMTgxODE4O3N0cm9rZS13aWR0aDowLjU7IiB3aWR0aD0iMjMxIiB4PSIxMjMxLjUiIHk9IjE3OS40ODQ0Ii8+PGVsbGlwc2UgY3g9IjEzMjguMjUiIGN5PSIxOTUuNDg0NCIgZmlsbD0iI0FERDFCMiIgcng9IjExIiByeT0iMTEiIHN0eWxlPSJzdHJva2U6IzE4MTgxODtzdHJva2Utd2lkdGg6MS4wOyIvPjxwYXRoIGQ9Ik0xMzMxLjg3NSwyMDEuNDg0NCBMMTMzMS44NzUsMTk5LjczNDQgTDEzMjYuNTYyNSwxOTkuNzM0NCBRMTMyNi41NjI1LDE5OS43MzQ0IDEzMjYuNTYyNSwxOTYuMTcxOSBMMTMzMC44MTI1LDE5Ni4xNzE5IEwxMzMwLjgxMjUsMTk0LjQyMTkgTDEzMjYuNTYyNSwxOTQuNDIxOSBMMTMyNi41NjI1LDE5MS45MjE5IEwxMzMxLjg3NSwxOTEuOTIxOSBMMTMzMS44NzUsMTkwLjE3MTkgTDEzMjQuODEyNSwxOTAuMTcxOSBRMTMyNC44MTI1LDE5MC4xNzE5IDEzMjQuODEyNSwyMDEuNDg0NCBMMTMzMS44NzUsMjAxLjQ4NDQgWiAiIGZpbGw9IiMwMDAwMDAiLz48dGV4dCBmaWxsPSIjMDAwMDAwIiBmb250LWZhbWlseT0ic2Fucy1zZXJpZiIgZm9udC1zaXplPSIxNCIgbGVuZ3RoQWRqdXN0PSJzcGFjaW5nIiB0ZXh0TGVuZ3RoPSIyOSIgeD0iMTM0OC43NSIgeT0iMjAxLjIyNjYiPm1haW48L3RleHQ+PGxpbmUgc3R5bGU9InN0cm9rZTojMTgxODE4O3N0cm9rZS13aWR0aDowLjU7IiB4MT0iMTIzMi41IiB4Mj0iMTQ2MS41IiB5MT0iMjExLjQ4NDQiIHkyPSIyMTEuNDg0NCIvPjxlbGxpcHNlIGN4PSIxMjQyLjUiIGN5PSIyMjQuNDc2NiIgZmlsbD0ibm9uZSIgcng9IjMiIHJ5PSIzIiBzdHlsZT0ic3Ryb2tlOiMwMzgwNDg7c3Ryb2tlLXdpZHRoOjEuMDsiLz48dGV4dCBmaWxsPSIjMDAwMDAwIiBmb250LWZhbWlseT0ic2Fucy1zZXJpZiIgZm9udC1zaXplPSIxNCIgbGVuZ3RoQWRqdXN0PSJzcGFjaW5nIiB0ZXh0TGVuZ3RoPSIyMDUiIHg9IjEyNTEuNSIgeT0iMjI4LjcxODgiPk5hbWU6IHZhci5yZXNvdXJjZV9ncm91cF9uYW1lPC90ZXh0PjxlbGxpcHNlIGN4PSIxMjQyLjUiIGN5PSIyMzkuNDYwOSIgZmlsbD0ibm9uZSIgcng9IjMiIHJ5PSIzIiBzdHlsZT0ic3Ryb2tlOiMwMzgwNDg7c3Ryb2tlLXdpZHRoOjEuMDsiLz48dGV4dCBmaWxsPSIjMDAwMDAwIiBmb250LWZhbWlseT0ic2Fucy1zZXJpZiIgZm9udC1zaXplPSIxNCIgbGVuZ3RoQWRqdXN0PSJzcGFjaW5nIiB0ZXh0TGVuZ3RoPSIxNTQiIHg9IjEyNTEuNSIgeT0iMjQzLjcwMzEiPkxvY2F0aW9uOiB2YXIubG9jYXRpb248L3RleHQ+PGxpbmUgc3R5bGU9InN0cm9rZTojMTgxODE4O3N0cm9rZS13aWR0aDowLjU7IiB4MT0iMTIzMi41IiB4Mj0iMTQ2MS41IiB5MT0iMjQ5LjQ1MzEiIHkyPSIyNDkuNDUzMSIvPjwvZz48IS0tY2xhc3MgcmVhY3RfYXBwLS0+PGcgaWQ9ImVsZW1fcmVhY3RfYXBwIj48cmVjdCBjb2RlTGluZT0iMTAiIGZpbGw9IiNGMUYxRjEiIGhlaWdodD0iMTIyLjkyMTkiIGlkPSJyZWFjdF9hcHAiIHJ4PSIyLjUiIHJ5PSIyLjUiIHN0eWxlPSJzdHJva2U6IzE4MTgxODtzdHJva2Utd2lkdGg6MC41OyIgd2lkdGg9IjIwOSIgeD0iOTQyLjUiIHk9IjE1Ni45ODQ0Ii8+PGVsbGlwc2UgY3g9IjEwMTEuMjUiIGN5PSIxNzIuOTg0NCIgZmlsbD0iI0FERDFCMiIgcng9IjExIiByeT0iMTEiIHN0eWxlPSJzdHJva2U6IzE4MTgxODtzdHJva2Utd2lkdGg6MS4wOyIvPjxwYXRoIGQ9Ik0xMDE0Ljg3NSwxNzguOTg0NCBMMTAxNC44NzUsMTc3LjIzNDQgTDEwMDkuNTYyNSwxNzcuMjM0NCBRMTAwOS41NjI1LDE3Ny4yMzQ0IDEwMDkuNTYyNSwxNzMuNjcxOSBMMTAxMy44MTI1LDE3My42NzE5IEwxMDEzLjgxMjUsMTcxLjkyMTkgTDEwMDkuNTYyNSwxNzEuOTIxOSBMMTAwOS41NjI1LDE2OS40MjE5IEwxMDE0Ljg3NSwxNjkuNDIxOSBMMTAxNC44NzUsMTY3LjY3MTkgTDEwMDcuODEyNSwxNjcuNjcxOSBRMTAwNy44MTI1LDE2Ny42NzE5IDEwMDcuODEyNSwxNzguOTg0NCBMMTAxNC44NzUsMTc4Ljk4NDQgWiAiIGZpbGw9IiMwMDAwMDAiLz48dGV4dCBmaWxsPSIjMDAwMDAwIiBmb250LWZhbWlseT0ic2Fucy1zZXJpZiIgZm9udC1zaXplPSIxNCIgbGVuZ3RoQWRqdXN0PSJzcGFjaW5nIiB0ZXh0TGVuZ3RoPSI2MyIgeD0iMTAzMS43NSIgeT0iMTc4LjcyNjYiPnJlYWN0X2FwcDwvdGV4dD48bGluZSBzdHlsZT0ic3Ryb2tlOiMxODE4MTg7c3Ryb2tlLXdpZHRoOjAuNTsiIHgxPSI5NDMuNSIgeDI9IjExNTAuNSIgeTE9IjE4OC45ODQ0IiB5Mj0iMTg4Ljk4NDQiLz48ZWxsaXBzZSBjeD0iOTUzLjUiIGN5PSIyMDEuOTc2NiIgZmlsbD0ibm9uZSIgcng9IjMiIHJ5PSIzIiBzdHlsZT0ic3Ryb2tlOiMwMzgwNDg7c3Ryb2tlLXdpZHRoOjEuMDsiLz48dGV4dCBmaWxsPSIjMDAwMDAwIiBmb250LWZhbWlseT0ic2Fucy1zZXJpZiIgZm9udC1zaXplPSIxNCIgbGVuZ3RoQWRqdXN0PSJzcGFjaW5nIiB0ZXh0TGVuZ3RoPSIxNzciIHg9Ijk2Mi41IiB5PSIyMDYuMjE4OCI+TmFtZTogdmFyLmFwcF9idWNrZXRfbmFtZTwvdGV4dD48ZWxsaXBzZSBjeD0iOTUzLjUiIGN5PSIyMTYuOTYwOSIgZmlsbD0ibm9uZSIgcng9IjMiIHJ5PSIzIiBzdHlsZT0ic3Ryb2tlOiMwMzgwNDg7c3Ryb2tlLXdpZHRoOjEuMDsiLz48dGV4dCBmaWxsPSIjMDAwMDAwIiBmb250LWZhbWlseT0ic2Fucy1zZXJpZiIgZm9udC1zaXplPSIxNCIgbGVuZ3RoQWRqdXN0PSJzcGFjaW5nIiB0ZXh0TGVuZ3RoPSIxNTQiIHg9Ijk2Mi41IiB5PSIyMjEuMjAzMSI+QWNjb3VudCBUaWVyOiBTdGFuZGFyZDwvdGV4dD48ZWxsaXBzZSBjeD0iOTUzLjUiIGN5PSIyMzEuOTQ1MyIgZmlsbD0ibm9uZSIgcng9IjMiIHJ5PSIzIiBzdHlsZT0ic3Ryb2tlOiMwMzgwNDg7c3Ryb2tlLXdpZHRoOjEuMDsiLz48dGV4dCBmaWxsPSIjMDAwMDAwIiBmb250LWZhbWlseT0ic2Fucy1zZXJpZiIgZm9udC1zaXplPSIxNCIgbGVuZ3RoQWRqdXN0PSJzcGFjaW5nIiB0ZXh0TGVuZ3RoPSIxMTIiIHg9Ijk2Mi41IiB5PSIyMzYuMTg3NSI+UmVwbGljYXRpb246IExSUzwvdGV4dD48ZWxsaXBzZSBjeD0iOTUzLjUiIGN5PSIyNDYuOTI5NyIgZmlsbD0ibm9uZSIgcng9IjMiIHJ5PSIzIiBzdHlsZT0ic3Ryb2tlOiMwMzgwNDg7c3Ryb2tlLXdpZHRoOjEuMDsiLz48dGV4dCBmaWxsPSIjMDAwMDAwIiBmb250LWZhbWlseT0ic2Fucy1zZXJpZiIgZm9udC1zaXplPSIxNCIgbGVuZ3RoQWRqdXN0PSJzcGFjaW5nIiB0ZXh0TGVuZ3RoPSIxMTIiIHg9Ijk2Mi41IiB5PSIyNTEuMTcxOSI+SFRUUFMgT25seTogdHJ1ZTwvdGV4dD48ZWxsaXBzZSBjeD0iOTUzLjUiIGN5PSIyNjEuOTE0MSIgZmlsbD0ibm9uZSIgcng9IjMiIHJ5PSIzIiBzdHlsZT0ic3Ryb2tlOiMwMzgwNDg7c3Ryb2tlLXdpZHRoOjEuMDsiLz48dGV4dCBmaWxsPSIjMDAwMDAwIiBmb250LWZhbWlseT0ic2Fucy1zZXJpZiIgZm9udC1zaXplPSIxNCIgbGVuZ3RoQWRqdXN0PSJzcGFjaW5nIiB0ZXh0TGVuZ3RoPSIxODMiIHg9Ijk2Mi41IiB5PSIyNjYuMTU2MyI+U3RhdGljIFdlYnNpdGU6IGluZGV4Lmh0bWw8L3RleHQ+PGxpbmUgc3R5bGU9InN0cm9rZTojMTgxODE4O3N0cm9rZS13aWR0aDowLjU7IiB4MT0iOTQzLjUiIHgyPSIxMTUwLjUiIHkxPSIyNzEuOTA2MyIgeTI9IjI3MS45MDYzIi8+PC9nPjwhLS1jbGFzcyByZWFjdF9hcHAtLT48ZyBpZD0iZWxlbV9yZWFjdF9hcHAiPjxyZWN0IGNvZGVMaW5lPSIxOCIgZmlsbD0iI0YxRjFGMSIgaGVpZ2h0PSI3Ny45Njg4IiBpZD0icmVhY3RfYXBwIiByeD0iMi41IiByeT0iMi41IiBzdHlsZT0ic3Ryb2tlOiMxODE4MTg7c3Ryb2tlLXdpZHRoOjAuNTsiIHdpZHRoPSIzMDQiIHg9IjU4MiIgeT0iMTc5LjQ4NDQiLz48ZWxsaXBzZSBjeD0iNjk4LjI1IiBjeT0iMTk1LjQ4NDQiIGZpbGw9IiNBREQxQjIiIHJ4PSIxMSIgcnk9IjExIiBzdHlsZT0ic3Ryb2tlOiMxODE4MTg7c3Ryb2tlLXdpZHRoOjEuMDsiLz48cGF0aCBkPSJNNzAxLjg3NSwyMDEuNDg0NCBMNzAxLjg3NSwxOTkuNzM0NCBMNjk2LjU2MjUsMTk5LjczNDQgUTY5Ni41NjI1LDE5OS43MzQ0IDY5Ni41NjI1LDE5Ni4xNzE5IEw3MDAuODEyNSwxOTYuMTcxOSBMNzAwLjgxMjUsMTk0LjQyMTkgTDY5Ni41NjI1LDE5NC40MjE5IEw2OTYuNTYyNSwxOTEuOTIxOSBMNzAxLjg3NSwxOTEuOTIxOSBMNzAxLjg3NSwxOTAuMTcxOSBMNjk0LjgxMjUsMTkwLjE3MTkgUTY5NC44MTI1LDE5MC4xNzE5IDY5NC44MTI1LDIwMS40ODQ0IEw3MDEuODc1LDIwMS40ODQ0IFogIiBmaWxsPSIjMDAwMDAwIi8+PHRleHQgZmlsbD0iIzAwMDAwMCIgZm9udC1mYW1pbHk9InNhbnMtc2VyaWYiIGZvbnQtc2l6ZT0iMTQiIGxlbmd0aEFkanVzdD0ic3BhY2luZyIgdGV4dExlbmd0aD0iNjMiIHg9IjcxOC43NSIgeT0iMjAxLjIyNjYiPnJlYWN0X2FwcDwvdGV4dD48bGluZSBzdHlsZT0ic3Ryb2tlOiMxODE4MTg7c3Ryb2tlLXdpZHRoOjAuNTsiIHgxPSI1ODMiIHgyPSI4ODUiIHkxPSIyMTEuNDg0NCIgeTI9IjIxMS40ODQ0Ii8+PGVsbGlwc2UgY3g9IjU5MyIgY3k9IjIyNC40NzY2IiBmaWxsPSJub25lIiByeD0iMyIgcnk9IjMiIHN0eWxlPSJzdHJva2U6IzAzODA0ODtzdHJva2Utd2lkdGg6MS4wOyIvPjx0ZXh0IGZpbGw9IiMwMDAwMDAiIGZvbnQtZmFtaWx5PSJzYW5zLXNlcmlmIiBmb250LXNpemU9IjE0IiBsZW5ndGhBZGp1c3Q9InNwYWNpbmciIHRleHRMZW5ndGg9IjI3OCIgeD0iNjAyIiB5PSIyMjguNzE4OCI+TmFtZTogJHt2YXIuYXBwX2J1Y2tldF9uYW1lfS1jZG5wcm9maWxlPC90ZXh0PjxlbGxpcHNlIGN4PSI1OTMiIGN5PSIyMzkuNDYwOSIgZmlsbD0ibm9uZSIgcng9IjMiIHJ5PSIzIiBzdHlsZT0ic3Ryb2tlOiMwMzgwNDg7c3Ryb2tlLXdpZHRoOjEuMDsiLz48dGV4dCBmaWxsPSIjMDAwMDAwIiBmb250LWZhbWlseT0ic2Fucy1zZXJpZiIgZm9udC1zaXplPSIxNCIgbGVuZ3RoQWRqdXN0PSJzcGFjaW5nIiB0ZXh0TGVuZ3RoPSIxNjEiIHg9IjYwMiIgeT0iMjQzLjcwMzEiPlNLVTogU3RhbmRhcmRfTWljcm9zb2Z0PC90ZXh0PjxsaW5lIHN0eWxlPSJzdHJva2U6IzE4MTgxODtzdHJva2Utd2lkdGg6MC41OyIgeDE9IjU4MyIgeDI9Ijg4NSIgeTE9IjI0OS40NTMxIiB5Mj0iMjQ5LjQ1MzEiLz48L2c+PCEtLWNsYXNzIHJlYWN0X2FwcC0tPjxnIGlkPSJlbGVtX3JlYWN0X2FwcCI+PHJlY3QgY29kZUxpbmU9IjIzIiBmaWxsPSIjRjFGMUYxIiBoZWlnaHQ9IjkyLjk1MzEiIGlkPSJyZWFjdF9hcHAiIHJ4PSIyLjUiIHJ5PSIyLjUiIHN0eWxlPSJzdHJva2U6IzE4MTgxODtzdHJva2Utd2lkdGg6MC41OyIgd2lkdGg9IjQ1NyIgeD0iNjkuNSIgeT0iMTcxLjk4NDQiLz48ZWxsaXBzZSBjeD0iMjYyLjI1IiBjeT0iMTg3Ljk4NDQiIGZpbGw9IiNBREQxQjIiIHJ4PSIxMSIgcnk9IjExIiBzdHlsZT0ic3Ryb2tlOiMxODE4MTg7c3Ryb2tlLXdpZHRoOjEuMDsiLz48cGF0aCBkPSJNMjY1Ljg3NSwxOTMuOTg0NCBMMjY1Ljg3NSwxOTIuMjM0NCBMMjYwLjU2MjUsMTkyLjIzNDQgUTI2MC41NjI1LDE5Mi4yMzQ0IDI2MC41NjI1LDE4OC42NzE5IEwyNjQuODEyNSwxODguNjcxOSBMMjY0LjgxMjUsMTg2LjkyMTkgTDI2MC41NjI1LDE4Ni45MjE5IEwyNjAuNTYyNSwxODQuNDIxOSBMMjY1Ljg3NSwxODQuNDIxOSBMMjY1Ljg3NSwxODIuNjcxOSBMMjU4LjgxMjUsMTgyLjY3MTkgUTI1OC44MTI1LDE4Mi42NzE5IDI1OC44MTI1LDE5My45ODQ0IEwyNjUuODc1LDE5My45ODQ0IFogIiBmaWxsPSIjMDAwMDAwIi8+PHRleHQgZmlsbD0iIzAwMDAwMCIgZm9udC1mYW1pbHk9InNhbnMtc2VyaWYiIGZvbnQtc2l6ZT0iMTQiIGxlbmd0aEFkanVzdD0ic3BhY2luZyIgdGV4dExlbmd0aD0iNjMiIHg9IjI4Mi43NSIgeT0iMTkzLjcyNjYiPnJlYWN0X2FwcDwvdGV4dD48bGluZSBzdHlsZT0ic3Ryb2tlOiMxODE4MTg7c3Ryb2tlLXdpZHRoOjAuNTsiIHgxPSI3MC41IiB4Mj0iNTI1LjUiIHkxPSIyMDMuOTg0NCIgeTI9IjIwMy45ODQ0Ii8+PGVsbGlwc2UgY3g9IjgwLjUiIGN5PSIyMTYuOTc2NiIgZmlsbD0ibm9uZSIgcng9IjMiIHJ5PSIzIiBzdHlsZT0ic3Ryb2tlOiMwMzgwNDg7c3Ryb2tlLXdpZHRoOjEuMDsiLz48dGV4dCBmaWxsPSIjMDAwMDAwIiBmb250LWZhbWlseT0ic2Fucy1zZXJpZiIgZm9udC1zaXplPSIxNCIgbGVuZ3RoQWRqdXN0PSJzcGFjaW5nIiB0ZXh0TGVuZ3RoPSIyODUiIHg9Ijg5LjUiIHk9IjIyMS4yMTg4Ij5OYW1lOiAke3Zhci5hcHBfYnVja2V0X25hbWV9LWNkbmVuZHBvaW50PC90ZXh0PjxlbGxpcHNlIGN4PSI4MC41IiBjeT0iMjMxLjk2MDkiIGZpbGw9Im5vbmUiIHJ4PSIzIiByeT0iMyIgc3R5bGU9InN0cm9rZTojMDM4MDQ4O3N0cm9rZS13aWR0aDoxLjA7Ii8+PHRleHQgZmlsbD0iIzAwMDAwMCIgZm9udC1mYW1pbHk9InNhbnMtc2VyaWYiIGZvbnQtc2l6ZT0iMTQiIGxlbmd0aEFkanVzdD0ic3BhY2luZyIgdGV4dExlbmd0aD0iMTY4IiB4PSI4OS41IiB5PSIyMzYuMjAzMSI+T3JpZ2luOiByZWFjdC1hcHAtb3JpZ2luPC90ZXh0PjxlbGxpcHNlIGN4PSI4MC41IiBjeT0iMjQ2Ljk0NTMiIGZpbGw9Im5vbmUiIHJ4PSIzIiByeT0iMyIgc3R5bGU9InN0cm9rZTojMDM4MDQ4O3N0cm9rZS13aWR0aDoxLjA7Ii8+PHRleHQgZmlsbD0iIzAwMDAwMCIgZm9udC1mYW1pbHk9InNhbnMtc2VyaWYiIGZvbnQtc2l6ZT0iMTQiIGxlbmd0aEFkanVzdD0ic3BhY2luZyIgdGV4dExlbmd0aD0iNDMxIiB4PSI4OS41IiB5PSIyNTEuMTg3NSI+SG9zdCBOYW1lOiBhenVyZXJtX3N0b3JhZ2VfYWNjb3VudC5yZWFjdF9hcHAucHJpbWFyeV93ZWJfaG9zdDwvdGV4dD48bGluZSBzdHlsZT0ic3Ryb2tlOiMxODE4MTg7c3Ryb2tlLXdpZHRoOjAuNTsiIHgxPSI3MC41IiB4Mj0iNTI1LjUiIHkxPSIyNTYuOTM3NSIgeTI9IjI1Ni45Mzc1Ii8+PC9nPjwhLS1jbGFzcyBtYWluLS0+PGcgaWQ9ImVsZW1fbWFpbiI+PHJlY3QgZmlsbD0iI0YxRjFGMSIgaGVpZ2h0PSI0OCIgaWQ9Im1haW4iIHJ4PSIyLjUiIHJ5PSIyLjUiIHN0eWxlPSJzdHJva2U6IzE4MTgxODtzdHJva2Utd2lkdGg6MC41OyIgd2lkdGg9IjYxIiB4PSIxNTgwLjUiIHk9IjE5NC40ODQ0Ii8+PGVsbGlwc2UgY3g9IjE1OTUuNSIgY3k9IjIxMC40ODQ0IiBmaWxsPSIjQUREMUIyIiByeD0iMTEiIHJ5PSIxMSIgc3R5bGU9InN0cm9rZTojMTgxODE4O3N0cm9rZS13aWR0aDoxLjA7Ii8+PHBhdGggZD0iTTE1OTMuMTI1LDIxNC43MzQ0IEwxNTkzLjEyNSwyMTYuNDg0NCBMMTU5OC4wNjI1LDIxNi40ODQ0IEwxNTk4LjA2MjUsMjE0LjczNDQgTDE1OTMuMTI1LDIxNC43MzQ0IFogTTE1OTMuODEyNSwyMTUuNDIxOSBRMTU5My44MTI1LDIxNS40MjE5IDE1OTMuODEyNSwyMDYuMjM0NCBMMTU5Mi4wNjI1LDIwNi4yMzQ0IFExNTkyLjA2MjUsMjA2LjIzNDQgMTU5Mi4wNjI1LDIxNS40MjE5IEwxNTkzLjgxMjUsMjE1LjQyMTkgWiBNMTU5Ny4zNzUsMjE1LjQyMTkgTDE1OTkuMTI1LDIxNS40MjE5IFExNTk5LjEyNSwyMTUuNDIxOSAxNTk5LjEyNSwyMTIuNjA5NCBMMTU5Ny4zNzUsMjEyLjYwOTQgUTE1OTcuMzc1LDIxMi42MDk0IDE1OTcuMzc1LDIxNS40MjE5IFogTTE1OTcuMzc1LDIwNi4yMzQ0IFExNTk3LjM3NSwyMDYuMjM0NCAxNTk3LjM3NSwyMDkuMDQ2OSBMMTU5OS4xMjUsMjA5LjA0NjkgUTE1OTkuMTI1LDIwOS4wNDY5IDE1OTkuMTI1LDIwNi4yMzQ0IEwxNTk3LjM3NSwyMDYuMjM0NCBaIE0xNTkzLjEyNSwyMDYuOTIxOSBMMTU5OC4wNjI1LDIwNi45MjE5IEwxNTk4LjA2MjUsMjA1LjE3MTkgTDE1OTMuMTI1LDIwNS4xNzE5IEwxNTkzLjEyNSwyMDYuOTIxOSBaICIgZmlsbD0iIzAwMDAwMCIvPjx0ZXh0IGZpbGw9IiMwMDAwMDAiIGZvbnQtZmFtaWx5PSJzYW5zLXNlcmlmIiBmb250LXNpemU9IjE0IiBsZW5ndGhBZGp1c3Q9InNwYWNpbmciIHRleHRMZW5ndGg9IjI5IiB4PSIxNjA5LjUiIHk9IjIxNi4yMjY2Ij5tYWluPC90ZXh0PjxsaW5lIHN0eWxlPSJzdHJva2U6IzE4MTgxODtzdHJva2Utd2lkdGg6MC41OyIgeDE9IjE1ODEuNSIgeDI9IjE2NDAuNSIgeTE9IjIyNi40ODQ0IiB5Mj0iMjI2LjQ4NDQiLz48bGluZSBzdHlsZT0ic3Ryb2tlOiMxODE4MTg7c3Ryb2tlLXdpZHRoOjAuNTsiIHgxPSIxNTgxLjUiIHgyPSIxNjQwLjUiIHkxPSIyMzQuNDg0NCIgeTI9IjIzNC40ODQ0Ii8+PC9nPjwhLS1jbGFzcyByZWFjdF9hcHAtLT48ZyBpZD0iZWxlbV9yZWFjdF9hcHAiPjxyZWN0IGZpbGw9IiNGMUYxRjEiIGhlaWdodD0iNDgiIGlkPSJyZWFjdF9hcHAiIHJ4PSIyLjUiIHJ5PSIyLjUiIHN0eWxlPSJzdHJva2U6IzE4MTgxODtzdHJva2Utd2lkdGg6MC41OyIgd2lkdGg9Ijk1IiB4PSIxNDgyLjUiIHk9IjQyMy45ODQ0Ii8+PGVsbGlwc2UgY3g9IjE0OTcuNSIgY3k9IjQzOS45ODQ0IiBmaWxsPSIjQUREMUIyIiByeD0iMTEiIHJ5PSIxMSIgc3R5bGU9InN0cm9rZTojMTgxODE4O3N0cm9rZS13aWR0aDoxLjA7Ii8+PHBhdGggZD0iTTE0OTUuMTI1LDQ0NC4yMzQ0IEwxNDk1LjEyNSw0NDUuOTg0NCBMMTUwMC4wNjI1LDQ0NS45ODQ0IEwxNTAwLjA2MjUsNDQ0LjIzNDQgTDE0OTUuMTI1LDQ0NC4yMzQ0IFogTTE0OTUuODEyNSw0NDQuOTIxOSBRMTQ5NS44MTI1LDQ0NC45MjE5IDE0OTUuODEyNSw0MzUuNzM0NCBMMTQ5NC4wNjI1LDQzNS43MzQ0IFExNDk0LjA2MjUsNDM1LjczNDQgMTQ5NC4wNjI1LDQ0NC45MjE5IEwxNDk1LjgxMjUsNDQ0LjkyMTkgWiBNMTQ5OS4zNzUsNDQ0LjkyMTkgTDE1MDEuMTI1LDQ0NC45MjE5IFExNTAxLjEyNSw0NDQuOTIxOSAxNTAxLjEyNSw0NDIuMTA5NCBMMTQ5OS4zNzUsNDQyLjEwOTQgUTE0OTkuMzc1LDQ0Mi4xMDk0IDE0OTkuMzc1LDQ0NC45MjE5IFogTTE0OTkuMzc1LDQzNS43MzQ0IFExNDk5LjM3NSw0MzUuNzM0NCAxNDk5LjM3NSw0MzguNTQ2OSBMMTUwMS4xMjUsNDM4LjU0NjkgUTE1MDEuMTI1LDQzOC41NDY5IDE1MDEuMTI1LDQzNS43MzQ0IEwxNDk5LjM3NSw0MzUuNzM0NCBaIE0xNDk1LjEyNSw0MzYuNDIxOSBMMTUwMC4wNjI1LDQzNi40MjE5IEwxNTAwLjA2MjUsNDM0LjY3MTkgTDE0OTUuMTI1LDQzNC42NzE5IEwxNDk1LjEyNSw0MzYuNDIxOSBaICIgZmlsbD0iIzAwMDAwMCIvPjx0ZXh0IGZpbGw9IiMwMDAwMDAiIGZvbnQtZmFtaWx5PSJzYW5zLXNlcmlmIiBmb250LXNpemU9IjE0IiBsZW5ndGhBZGp1c3Q9InNwYWNpbmciIHRleHRMZW5ndGg9IjYzIiB4PSIxNTExLjUiIHk9IjQ0NS43MjY2Ij5yZWFjdF9hcHA8L3RleHQ+PGxpbmUgc3R5bGU9InN0cm9rZTojMTgxODE4O3N0cm9rZS13aWR0aDowLjU7IiB4MT0iMTQ4My41IiB4Mj0iMTU3Ni41IiB5MT0iNDU1Ljk4NDQiIHkyPSI0NTUuOTg0NCIvPjxsaW5lIHN0eWxlPSJzdHJva2U6IzE4MTgxODtzdHJva2Utd2lkdGg6MC41OyIgeDE9IjE0ODMuNSIgeDI9IjE1NzYuNSIgeTE9IjQ2My45ODQ0IiB5Mj0iNDYzLjk4NDQiLz48L2c+PCEtLWNsYXNzIHJlYWN0X2FwcC0tPjxnIGlkPSJlbGVtX3JlYWN0X2FwcCI+PHJlY3QgZmlsbD0iI0YxRjFGMSIgaGVpZ2h0PSI0OCIgaWQ9InJlYWN0X2FwcCIgcng9IjIuNSIgcnk9IjIuNSIgc3R5bGU9InN0cm9rZTojMTgxODE4O3N0cm9rZS13aWR0aDowLjU7IiB3aWR0aD0iOTUiIHg9IjE2MzQuNSIgeT0iNDIzLjk4NDQiLz48ZWxsaXBzZSBjeD0iMTY0OS41IiBjeT0iNDM5Ljk4NDQiIGZpbGw9IiNBREQxQjIiIHJ4PSIxMSIgcnk9IjExIiBzdHlsZT0ic3Ryb2tlOiMxODE4MTg7c3Ryb2tlLXdpZHRoOjEuMDsiLz48cGF0aCBkPSJNMTY0Ny4xMjUsNDQ0LjIzNDQgTDE2NDcuMTI1LDQ0NS45ODQ0IEwxNjUyLjA2MjUsNDQ1Ljk4NDQgTDE2NTIuMDYyNSw0NDQuMjM0NCBMMTY0Ny4xMjUsNDQ0LjIzNDQgWiBNMTY0Ny44MTI1LDQ0NC45MjE5IFExNjQ3LjgxMjUsNDQ0LjkyMTkgMTY0Ny44MTI1LDQzNS43MzQ0IEwxNjQ2LjA2MjUsNDM1LjczNDQgUTE2NDYuMDYyNSw0MzUuNzM0NCAxNjQ2LjA2MjUsNDQ0LjkyMTkgTDE2NDcuODEyNSw0NDQuOTIxOSBaIE0xNjUxLjM3NSw0NDQuOTIxOSBMMTY1My4xMjUsNDQ0LjkyMTkgUTE2NTMuMTI1LDQ0NC45MjE5IDE2NTMuMTI1LDQ0Mi4xMDk0IEwxNjUxLjM3NSw0NDIuMTA5NCBRMTY1MS4zNzUsNDQyLjEwOTQgMTY1MS4zNzUsNDQ0LjkyMTkgWiBNMTY1MS4zNzUsNDM1LjczNDQgUTE2NTEuMzc1LDQzNS43MzQ0IDE2NTEuMzc1LDQzOC41NDY5IEwxNjUzLjEyNSw0MzguNTQ2OSBRMTY1My4xMjUsNDM4LjU0NjkgMTY1My4xMjUsNDM1LjczNDQgTDE2NTEuMzc1LDQzNS43MzQ0IFogTTE2NDcuMTI1LDQzNi40MjE5IEwxNjUyLjA2MjUsNDM2LjQyMTkgTDE2NTIuMDYyNSw0MzQuNjcxOSBMMTY0Ny4xMjUsNDM0LjY3MTkgTDE2NDcuMTI1LDQzNi40MjE5IFogIiBmaWxsPSIjMDAwMDAwIi8+PHRleHQgZmlsbD0iIzAwMDAwMCIgZm9udC1mYW1pbHk9InNhbnMtc2VyaWYiIGZvbnQtc2l6ZT0iMTQiIGxlbmd0aEFkanVzdD0ic3BhY2luZyIgdGV4dExlbmd0aD0iNjMiIHg9IjE2NjMuNSIgeT0iNDQ1LjcyNjYiPnJlYWN0X2FwcDwvdGV4dD48bGluZSBzdHlsZT0ic3Ryb2tlOiMxODE4MTg7c3Ryb2tlLXdpZHRoOjAuNTsiIHgxPSIxNjM1LjUiIHgyPSIxNzI4LjUiIHkxPSI0NTUuOTg0NCIgeTI9IjQ1NS45ODQ0Ii8+PGxpbmUgc3R5bGU9InN0cm9rZTojMTgxODE4O3N0cm9rZS13aWR0aDowLjU7IiB4MT0iMTYzNS41IiB4Mj0iMTcyOC41IiB5MT0iNDYzLjk4NDQiIHkyPSI0NjMuOTg0NCIvPjwvZz48IS0tY2xhc3MgcmVhY3RfYXBwLS0+PGcgaWQ9ImVsZW1fcmVhY3RfYXBwIj48cmVjdCBmaWxsPSIjRjFGMUYxIiBoZWlnaHQ9IjQ4IiBpZD0icmVhY3RfYXBwIiByeD0iMi41IiByeT0iMi41IiBzdHlsZT0ic3Ryb2tlOiMxODE4MTg7c3Ryb2tlLXdpZHRoOjAuNTsiIHdpZHRoPSI5NSIgeD0iMTQ4Mi41IiB5PSI1NjcuOTg0NCIvPjxlbGxpcHNlIGN4PSIxNDk3LjUiIGN5PSI1ODMuOTg0NCIgZmlsbD0iI0FERDFCMiIgcng9IjExIiByeT0iMTEiIHN0eWxlPSJzdHJva2U6IzE4MTgxODtzdHJva2Utd2lkdGg6MS4wOyIvPjxwYXRoIGQ9Ik0xNDk1LjEyNSw1ODguMjM0NCBMMTQ5NS4xMjUsNTg5Ljk4NDQgTDE1MDAuMDYyNSw1ODkuOTg0NCBMMTUwMC4wNjI1LDU4OC4yMzQ0IEwxNDk1LjEyNSw1ODguMjM0NCBaIE0xNDk1LjgxMjUsNTg4LjkyMTkgUTE0OTUuODEyNSw1ODguOTIxOSAxNDk1LjgxMjUsNTc5LjczNDQgTDE0OTQuMDYyNSw1NzkuNzM0NCBRMTQ5NC4wNjI1LDU3OS43MzQ0IDE0OTQuMDYyNSw1ODguOTIxOSBMMTQ5NS44MTI1LDU4OC45MjE5IFogTTE0OTkuMzc1LDU4OC45MjE5IEwxNTAxLjEyNSw1ODguOTIxOSBRMTUwMS4xMjUsNTg4LjkyMTkgMTUwMS4xMjUsNTg2LjEwOTQgTDE0OTkuMzc1LDU4Ni4xMDk0IFExNDk5LjM3NSw1ODYuMTA5NCAxNDk5LjM3NSw1ODguOTIxOSBaIE0xNDk5LjM3NSw1NzkuNzM0NCBRMTQ5OS4zNzUsNTc5LjczNDQgMTQ5OS4zNzUsNTgyLjU0NjkgTDE1MDEuMTI1LDU4Mi41NDY5IFExNTAxLjEyNSw1ODIuNTQ2OSAxNTAxLjEyNSw1NzkuNzM0NCBMMTQ5OS4zNzUsNTc5LjczNDQgWiBNMTQ5NS4xMjUsNTgwLjQyMTkgTDE1MDAuMDYyNSw1ODAuNDIxOSBMMTUwMC4wNjI1LDU3OC42NzE5IEwxNDk1LjEyNSw1NzguNjcxOSBMMTQ5NS4xMjUsNTgwLjQyMTkgWiAiIGZpbGw9IiMwMDAwMDAiLz48dGV4dCBmaWxsPSIjMDAwMDAwIiBmb250LWZhbWlseT0ic2Fucy1zZXJpZiIgZm9udC1zaXplPSIxNCIgbGVuZ3RoQWRqdXN0PSJzcGFjaW5nIiB0ZXh0TGVuZ3RoPSI2MyIgeD0iMTUxMS41IiB5PSI1ODkuNzI2NiI+cmVhY3RfYXBwPC90ZXh0PjxsaW5lIHN0eWxlPSJzdHJva2U6IzE4MTgxODtzdHJva2Utd2lkdGg6MC41OyIgeDE9IjE0ODMuNSIgeDI9IjE1NzYuNSIgeTE9IjU5OS45ODQ0IiB5Mj0iNTk5Ljk4NDQiLz48bGluZSBzdHlsZT0ic3Ryb2tlOiMxODE4MTg7c3Ryb2tlLXdpZHRoOjAuNTsiIHgxPSIxNDgzLjUiIHgyPSIxNTc2LjUiIHkxPSI2MDcuOTg0NCIgeTI9IjYwNy45ODQ0Ii8+PC9nPjwhLS1saW5rIG1haW4gdG8gcmVhY3RfYXBwLS0+PGcgaWQ9ImxpbmtfbWFpbl9yZWFjdF9hcHAiPjxwYXRoIGNvZGVMaW5lPSIzMiIgZD0iTTE2MDIuNzksMjQyLjU1NDQgQzE1ODcuMjYsMjg2LjE1NDQgMTU1NS43OTM1LDM3NC41NTIzIDE1NDAuMjQzNSw0MTguMjAyMyAiIGZpbGw9Im5vbmUiIGlkPSJtYWluLXRvLXJlYWN0X2FwcCIgc3R5bGU9InN0cm9rZTojMTgxODE4O3N0cm9rZS13aWR0aDoxLjA7Ii8+PHBvbHlnb24gZmlsbD0iIzE4MTgxOCIgcG9pbnRzPSIxNTM4LjIzLDQyMy44NTQ0LDE1NDUuMDE4Myw0MTYuNzE4NiwxNTM5LjkwNzksNDE5LjE0NDMsMTUzNy40ODIyLDQxNC4wMzM5LDE1MzguMjMsNDIzLjg1NDQiIHN0eWxlPSJzdHJva2U6IzE4MTgxODtzdHJva2Utd2lkdGg6MS4wOyIvPjx0ZXh0IGZpbGw9IiMwMDAwMDAiIGZvbnQtZmFtaWx5PSJzYW5zLXNlcmlmIiBmb250LXNpemU9IjEzIiBsZW5ndGhBZGp1c3Q9InNwYWNpbmciIHRleHRMZW5ndGg9IjY4IiB4PSIxNTYxIiB5PSIzNzMuMjczNCI+RGVwbG95cyBpbjwvdGV4dD48L2c+PCEtLWxpbmsgbWFpbiB0byByZWFjdF9hcHAtLT48ZyBpZD0ibGlua19tYWluX3JlYWN0X2FwcCI+PHBhdGggY29kZUxpbmU9IjMzIiBkPSJNMTYxOC4yLDI0Mi41NTQ0IEMxNjMxLjgxLDI4Ni4xNTQ0IDE2NTkuMzcyOCwzNzQuNDc2NyAxNjcyLjk5MjgsNDE4LjEyNjcgIiBmaWxsPSJub25lIiBpZD0ibWFpbi10by1yZWFjdF9hcHAtMSIgc3R5bGU9InN0cm9rZTojMTgxODE4O3N0cm9rZS13aWR0aDoxLjA7Ii8+PHBvbHlnb24gZmlsbD0iIzE4MTgxOCIgcG9pbnRzPSIxNjc0Ljc4LDQyMy44NTQ0LDE2NzUuOTE3Nyw0MTQuMDcxNCwxNjczLjI5MDcsNDE5LjA4MTMsMTY2OC4yODA4LDQxNi40NTQ0LDE2NzQuNzgsNDIzLjg1NDQiIHN0eWxlPSJzdHJva2U6IzE4MTgxODtzdHJva2Utd2lkdGg6MS4wOyIvPjx0ZXh0IGZpbGw9IiMwMDAwMDAiIGZvbnQtZmFtaWx5PSJzYW5zLXNlcmlmIiBmb250LXNpemU9IjEzIiBsZW5ndGhBZGp1c3Q9InNwYWNpbmciIHRleHRMZW5ndGg9IjY4IiB4PSIxNjYwIiB5PSIzNzMuMjczNCI+RGVwbG95cyBpbjwvdGV4dD48L2c+PCEtLWxpbmsgcmVhY3RfYXBwIHRvIHJlYWN0X2FwcC0tPjxnIGlkPSJsaW5rX3JlYWN0X2FwcF9yZWFjdF9hcHAiPjxwYXRoIGNvZGVMaW5lPSIzNCIgZD0iTTE1MzAsNDcyLjExNDQgQzE1MzAsNDk4LjUyNDQgMTUzMCw1MzUuNDY0NCAxNTMwLDU2MS44NjQ0ICIgZmlsbD0ibm9uZSIgaWQ9InJlYWN0X2FwcC10by1yZWFjdF9hcHAiIHN0eWxlPSJzdHJva2U6IzE4MTgxODtzdHJva2Utd2lkdGg6MS4wOyIvPjxwb2x5Z29uIGZpbGw9IiMxODE4MTgiIHBvaW50cz0iMTUzMCw1NjcuODY0NCwxNTM0LDU1OC44NjQ0LDE1MzAsNTYyLjg2NDQsMTUyNiw1NTguODY0NCwxNTMwLDU2Ny44NjQ0IiBzdHlsZT0ic3Ryb2tlOiMxODE4MTg7c3Ryb2tlLXdpZHRoOjEuMDsiLz48dGV4dCBmaWxsPSIjMDAwMDAwIiBmb250LWZhbWlseT0ic2Fucy1zZXJpZiIgZm9udC1zaXplPSIxMyIgbGVuZ3RoQWRqdXN0PSJzcGFjaW5nIiB0ZXh0TGVuZ3RoPSIxMTYiIHg9IjE1MzEiIHk9IjUxNy4yNzM0Ij5TZXJ2ZXMgY29udGVudCB0bzwvdGV4dD48L2c+PCEtLVNSQz1bYkxCQkppRDAzQnBkQXdtQVlHREFGdzA3OTBHSTg5dmdZcFlralhrdGg0Wk1Bd3kzNUNJX3V4SDk4dzBLRTJISXVmZG5zNkZuS1lCU3Vtb0VPZUpwQzZVUlg2aWRETUVNSFVpVXhHOVhDQ1A0REprNEt3T3czazBqMHkwV05mT21pQS1BdlNmbVlwNkIxWkVpaDB6aDhDMDFORGlBSF8xYVVWV1BQZThNTWltYkVJa1VtWGZOamJ6UVZDX3FqVjdJY1JzWWVZd25RXzdMSkg5WVhIbGg3REwxakFyck9jb0M3VTZwQW9zT01VcVVLTmY3M1U5ZUpPVWZIbngxSDZtZUIxVVJ5WFhad0psTmItRjlmZDBzZFR2RXUyUUtvbjdlRmRqMWJIM2xjZXFkQnpoU1htOVZYV3pJYklsOFFqSmxxeFdZY0NXcXpvTmtjY0psUlNpaXh4Y29NdDlsdS1Bazd5VFNVU1VLUTJ3X1VTMUdIRkF4cl9jcFlPd3o4VG9tTnRaVHQ0ZWpMcWZFZ3BfejZZYjlBX2poaUNGOGxoQXlEQ3l1Q216QVI4VGY3WHJmN3V1ZjE3SERMV2JjQUMtODBSZmhKRGRrRXl4cG1wX1RyV1hFejJIZWNKSk9fcVotNEYxc2tIdHpsdWJrSXFvSkh0eDIxOHcyUUNtV3owNDBdLS0+PC9nPjwvc3ZnPg==;" vertex="1" parent="1">
            <mxGeometry x="-650" y="170" width="1775" height="638" as="geometry" />
          </mxCell>
        </UserObject>
      </root>
    </mxGraphModel>
  </diagram>
  <diagram id="x8u9snWrMCs4GsPIVk5D" name="PÃ¡gina-5">
    <mxGraphModel dx="5349" dy="1560" grid="1" gridSize="10" guides="1" tooltips="1" connect="1" arrows="1" fold="1" page="1" pageScale="1" pageWidth="827" pageHeight="1169" math="0" shadow="0">
      <root>
        <mxCell id="0" />
        <mxCell id="1" parent="0" />
        <UserObject label="" plantUmlData="{&#xa;  &quot;data&quot;: &quot;@startuml\ntitle General Infrastructure Diagram\n\npackage \&quot;Resource Group\&quot; {\n  entity \&quot;azurerm_resource_group.main\&quot; {\n    + Name: var.resource_group_name\n    + Location: var.location\n  }\n\n  &#39; Mobile App Module\n  package \&quot;Mobile App Module\&quot; {\n    entity \&quot;azurerm_storage_account.flutter_app\&quot; {\n      + Name: var.app_bucket_name\n      + Account Tier: Standard\n      + Replication: LRS\n      + HTTPS Only: true\n      + Static Website: index.html\n    }\n\n    entity \&quot;azurerm_cdn_profile.flutter_app\&quot; {\n      + Name: ${var.app_bucket_name}-cdnprofile\n      + SKU: Standard_Microsoft\n    }\n\n    entity \&quot;azurerm_cdn_endpoint.flutter_app\&quot; {\n      + Name: ${var.app_bucket_name}-cdnendpoint\n      + Origin: flutter-app-origin\n      + Host Name: azurerm_storage_account.flutter_app.primary_web_host\n    }\n  }\n\n  &#39; Web App Module\n  package \&quot;Web App Module\&quot; {\n    entity \&quot;azurerm_storage_account.react_app\&quot; {\n      + Name: var.app_bucket_name\n      + Account Tier: Standard\n      + Replication: LRS\n      + HTTPS Only: true\n      + Static Website: index.html\n    }\n\n    entity \&quot;azurerm_cdn_profile.react_app\&quot; {\n      + Name: ${var.app_bucket_name}-cdnprofile\n      + SKU: Standard_Microsoft\n    }\n\n    entity \&quot;azurerm_cdn_endpoint.react_app\&quot; {\n      + Name: ${var.app_bucket_name}-cdnendpoint\n      + Origin: react-app-origin\n      + Host Name: azurerm_storage_account.react_app.primary_web_host\n    }\n  }\n\n  &#39; Backend API Module\n  package \&quot;Backend API Module\&quot; {\n    entity \&quot;azurerm_container_registry.backend\&quot; {\n      + Name: var.acr_name\n      + SKU: Standard\n      + Admin Enabled: true\n    }\n\n    entity \&quot;azurerm_kubernetes_cluster.backend\&quot; {\n      + Name: var.aks_cluster_name\n      + DNS Prefix: var.aks_cluster_name\n      + Node Pool: default\n      + Node Count: var.node_count\n      + VM Size: Standard_DS2_v2\n      + Subnet ID: var.subnet_id\n      + Identity: SystemAssigned\n    }\n\n    entity \&quot;azurerm_role_assignment.aks_acr\&quot; {\n      + Role: AcrPull\n      + Scope: azurerm_container_registry.backend.id\n      + Principal ID: azurerm_kubernetes_cluster.backend.kubelet_identity[0].object_id\n    }\n  }\n}\n\n&#39; Connections between resources\n\&quot;azurerm_resource_group.main\&quot; --&gt; \&quot;azurerm_storage_account.flutter_app\&quot; : Deploys in\n\&quot;azurerm_resource_group.main\&quot; --&gt; \&quot;azurerm_cdn_profile.flutter_app\&quot; : Deploys in\n\&quot;azurerm_storage_account.flutter_app\&quot; --&gt; \&quot;azurerm_cdn_endpoint.flutter_app\&quot; : Serves content to\n\n\&quot;azurerm_resource_group.main\&quot; --&gt; \&quot;azurerm_storage_account.react_app\&quot; : Deploys in\n\&quot;azurerm_resource_group.main\&quot; --&gt; \&quot;azurerm_cdn_profile.react_app\&quot; : Deploys in\n\&quot;azurerm_storage_account.react_app\&quot; --&gt; \&quot;azurerm_cdn_endpoint.react_app\&quot; : Serves content to\n\n\&quot;azurerm_resource_group.main\&quot; --&gt; \&quot;azurerm_container_registry.backend\&quot; : Deploys in\n\&quot;azurerm_resource_group.main\&quot; --&gt; \&quot;azurerm_kubernetes_cluster.backend\&quot; : Deploys in\n\&quot;azurerm_kubernetes_cluster.backend\&quot; --&gt; \&quot;azurerm_container_registry.backend\&quot; : Pulls from\n\&quot;azurerm_role_assignment.aks_acr\&quot; --&gt; \&quot;azurerm_container_registry.backend\&quot; : Grants AcrPull role\n\n@enduml\n&quot;,&#xa;  &quot;format&quot;: &quot;svg&quot;&#xa;}" id="P7fp3VhyKw9--q3j-6vo-1">
          <mxCell style="shape=image;noLabel=1;verticalAlign=top;aspect=fixed;imageAspect=0;image=data:image/svg+xml,PD94bWwgdmVyc2lvbj0iMS4wIiBlbmNvZGluZz0idXMtYXNjaWkiIHN0YW5kYWxvbmU9Im5vIj8+PHN2ZyB4bWxucz0iaHR0cDovL3d3dy53My5vcmcvMjAwMC9zdmciIHhtbG5zOnhsaW5rPSJodHRwOi8vd3d3LnczLm9yZy8xOTk5L3hsaW5rIiBjb250ZW50U3R5bGVUeXBlPSJ0ZXh0L2NzcyIgaGVpZ2h0PSI2NjhweCIgcHJlc2VydmVBc3BlY3RSYXRpbz0ibm9uZSIgc3R5bGU9IndpZHRoOjQ3MDhweDtoZWlnaHQ6NjY4cHg7YmFja2dyb3VuZDojRkZGRkZGOyIgdmVyc2lvbj0iMS4xIiB2aWV3Qm94PSIwIDAgNDcwOCA2NjgiIHdpZHRoPSI0NzA4cHgiIHpvb21BbmRQYW49Im1hZ25pZnkiPjxkZWZzLz48Zz48dGV4dCBmaWxsPSIjMDAwMDAwIiBmb250LWZhbWlseT0ic2Fucy1zZXJpZiIgZm9udC1zaXplPSIxNCIgZm9udC13ZWlnaHQ9ImJvbGQiIGxlbmd0aEFkanVzdD0ic3BhY2luZyIgdGV4dExlbmd0aD0iMjExIiB4PSIyMjQxLjUiIHk9IjIzLjIzNDQiPkdlbmVyYWwgSW5mcmFzdHJ1Y3R1cmUgRGlhZ3JhbTwvdGV4dD48IS0tY2x1c3RlciBSZXNvdXJjZSBHcm91cC0tPjxnIGlkPSJjbHVzdGVyX1Jlc291cmNlIEdyb3VwIj48cGF0aCBkPSJNOC41LDQxLjk4NDQgTDEwNy41LDQxLjk4NDQgQTMuNzUsMy43NSAwIDAgMSAxMTAsNDQuNDg0NCBMMTE3LDYyLjk2ODggTDM5MDguNSw2Mi45Njg4IEEyLjUsMi41IDAgMCAxIDM5MTEsNjUuNDY4OCBMMzkxMSwzNzEuNDg0NCBBMi41LDIuNSAwIDAgMSAzOTA4LjUsMzczLjk4NDQgTDguNSwzNzMuOTg0NCBBMi41LDIuNSAwIDAgMSA2LDM3MS40ODQ0IEw2LDQ0LjQ4NDQgQTIuNSwyLjUgMCAwIDEgOC41LDQxLjk4NDQgIiBmaWxsPSJub25lIiBzdHlsZT0ic3Ryb2tlOiMwMDAwMDA7c3Ryb2tlLXdpZHRoOjEuNTsiLz48bGluZSBzdHlsZT0ic3Ryb2tlOiMwMDAwMDA7c3Ryb2tlLXdpZHRoOjEuNTsiIHgxPSI2IiB4Mj0iMTE3IiB5MT0iNjIuOTY4OCIgeTI9IjYyLjk2ODgiLz48dGV4dCBmaWxsPSIjMDAwMDAwIiBmb250LWZhbWlseT0ic2Fucy1zZXJpZiIgZm9udC1zaXplPSIxNCIgZm9udC13ZWlnaHQ9ImJvbGQiIGxlbmd0aEFkanVzdD0ic3BhY2luZyIgdGV4dExlbmd0aD0iOTgiIHg9IjEwIiB5PSI1Ny4yMTg4Ij5SZXNvdXJjZSBHcm91cDwvdGV4dD48L2c+PCEtLWNsdXN0ZXIgYXp1cmVybV9yZXNvdXJjZV9ncm91cC0tPjxnIGlkPSJjbHVzdGVyX2F6dXJlcm1fcmVzb3VyY2VfZ3JvdXAiPjxwYXRoIGQ9Ik0zNjI3LjUsMTYxLjQ4NDQgTDM3ODMuNSwxNjEuNDg0NCBBMy43NSwzLjc1IDAgMCAxIDM3ODYsMTYzLjk4NDQgTDM3OTMsMTgyLjQ2ODggTDM4ODQuNSwxODIuNDY4OCBBMi41LDIuNSAwIDAgMSAzODg3LDE4NC45Njg4IEwzODg3LDI4NS45ODQ0IEEyLjUsMi41IDAgMCAxIDM4ODQuNSwyODguNDg0NCBMMzYyNy41LDI4OC40ODQ0IEEyLjUsMi41IDAgMCAxIDM2MjUsMjg1Ljk4NDQgTDM2MjUsMTYzLjk4NDQgQTIuNSwyLjUgMCAwIDEgMzYyNy41LDE2MS40ODQ0ICIgZmlsbD0ibm9uZSIgc3R5bGU9InN0cm9rZTojMDAwMDAwO3N0cm9rZS13aWR0aDoxLjU7Ii8+PGxpbmUgc3R5bGU9InN0cm9rZTojMDAwMDAwO3N0cm9rZS13aWR0aDoxLjU7IiB4MT0iMzYyNSIgeDI9IjM3OTMiIHkxPSIxODIuNDY4OCIgeTI9IjE4Mi40Njg4Ii8+PHRleHQgZmlsbD0iIzAwMDAwMCIgZm9udC1mYW1pbHk9InNhbnMtc2VyaWYiIGZvbnQtc2l6ZT0iMTQiIGZvbnQtd2VpZ2h0PSJib2xkIiBsZW5ndGhBZGp1c3Q9InNwYWNpbmciIHRleHRMZW5ndGg9IjE1NSIgeD0iMzYyOSIgeT0iMTc2LjcxODgiPmF6dXJlcm1fcmVzb3VyY2VfZ3JvdXA8L3RleHQ+PC9nPjwhLS1jbHVzdGVyIE1vYmlsZSBBcHAgTW9kdWxlLS0+PGcgaWQ9ImNsdXN0ZXJfTW9iaWxlIEFwcCBNb2R1bGUiPjxwYXRoIGQ9Ik0yNDI3LjUsOTcuOTg0NCBMMjU0Ny41LDk3Ljk4NDQgQTMuNzUsMy43NSAwIDAgMSAyNTUwLDEwMC40ODQ0IEwyNTU3LDExOC45Njg4IEwzNTk4LjUsMTE4Ljk2ODggQTIuNSwyLjUgMCAwIDEgMzYwMSwxMjEuNDY4OCBMMzYwMSwzMzIuNDg0NCBBMi41LDIuNSAwIDAgMSAzNTk4LjUsMzM0Ljk4NDQgTDI0MjcuNSwzMzQuOTg0NCBBMi41LDIuNSAwIDAgMSAyNDI1LDMzMi40ODQ0IEwyNDI1LDEwMC40ODQ0IEEyLjUsMi41IDAgMCAxIDI0MjcuNSw5Ny45ODQ0ICIgZmlsbD0ibm9uZSIgc3R5bGU9InN0cm9rZTojMDAwMDAwO3N0cm9rZS13aWR0aDoxLjU7Ii8+PGxpbmUgc3R5bGU9InN0cm9rZTojMDAwMDAwO3N0cm9rZS13aWR0aDoxLjU7IiB4MT0iMjQyNSIgeDI9IjI1NTciIHkxPSIxMTguOTY4OCIgeTI9IjExOC45Njg4Ii8+PHRleHQgZmlsbD0iIzAwMDAwMCIgZm9udC1mYW1pbHk9InNhbnMtc2VyaWYiIGZvbnQtc2l6ZT0iMTQiIGZvbnQtd2VpZ2h0PSJib2xkIiBsZW5ndGhBZGp1c3Q9InNwYWNpbmciIHRleHRMZW5ndGg9IjExOSIgeD0iMjQyOSIgeT0iMTEzLjIxODgiPk1vYmlsZSBBcHAgTW9kdWxlPC90ZXh0PjwvZz48IS0tY2x1c3RlciBhenVyZXJtX3N0b3JhZ2VfYWNjb3VudC0tPjxnIGlkPSJjbHVzdGVyX2F6dXJlcm1fc3RvcmFnZV9hY2NvdW50Ij48cGF0aCBkPSJNMzMzNy41LDEzOC45ODQ0IEwzNTAwLjUsMTM4Ljk4NDQgQTMuNzUsMy43NSAwIDAgMSAzNTAzLDE0MS40ODQ0IEwzNTEwLDE1OS45Njg4IEwzNTc0LjUsMTU5Ljk2ODggQTIuNSwyLjUgMCAwIDEgMzU3NywxNjIuNDY4OCBMMzU3NywzMDguNDg0NCBBMi41LDIuNSAwIDAgMSAzNTc0LjUsMzEwLjk4NDQgTDMzMzcuNSwzMTAuOTg0NCBBMi41LDIuNSAwIDAgMSAzMzM1LDMwOC40ODQ0IEwzMzM1LDE0MS40ODQ0IEEyLjUsMi41IDAgMCAxIDMzMzcuNSwxMzguOTg0NCAiIGZpbGw9Im5vbmUiIHN0eWxlPSJzdHJva2U6IzAwMDAwMDtzdHJva2Utd2lkdGg6MS41OyIvPjxsaW5lIHN0eWxlPSJzdHJva2U6IzAwMDAwMDtzdHJva2Utd2lkdGg6MS41OyIgeDE9IjMzMzUiIHgyPSIzNTEwIiB5MT0iMTU5Ljk2ODgiIHkyPSIxNTkuOTY4OCIvPjx0ZXh0IGZpbGw9IiMwMDAwMDAiIGZvbnQtZmFtaWx5PSJzYW5zLXNlcmlmIiBmb250LXNpemU9IjE0IiBmb250LXdlaWdodD0iYm9sZCIgbGVuZ3RoQWRqdXN0PSJzcGFjaW5nIiB0ZXh0TGVuZ3RoPSIxNjIiIHg9IjMzMzkiIHk9IjE1NC4yMTg4Ij5henVyZXJtX3N0b3JhZ2VfYWNjb3VudDwvdGV4dD48L2c+PCEtLWNsdXN0ZXIgYXp1cmVybV9jZG5fcHJvZmlsZS0tPjxnIGlkPSJjbHVzdGVyX2F6dXJlcm1fY2RuX3Byb2ZpbGUiPjxwYXRoIGQ9Ik0yOTc3LjUsMTYxLjQ4NDQgTDMxMTIuNSwxNjEuNDg0NCBBMy43NSwzLjc1IDAgMCAxIDMxMTUsMTYzLjk4NDQgTDMxMjIsMTgyLjQ2ODggTDMzMDguNSwxODIuNDY4OCBBMi41LDIuNSAwIDAgMSAzMzExLDE4NC45Njg4IEwzMzExLDI4NS45ODQ0IEEyLjUsMi41IDAgMCAxIDMzMDguNSwyODguNDg0NCBMMjk3Ny41LDI4OC40ODQ0IEEyLjUsMi41IDAgMCAxIDI5NzUsMjg1Ljk4NDQgTDI5NzUsMTYzLjk4NDQgQTIuNSwyLjUgMCAwIDEgMjk3Ny41LDE2MS40ODQ0ICIgZmlsbD0ibm9uZSIgc3R5bGU9InN0cm9rZTojMDAwMDAwO3N0cm9rZS13aWR0aDoxLjU7Ii8+PGxpbmUgc3R5bGU9InN0cm9rZTojMDAwMDAwO3N0cm9rZS13aWR0aDoxLjU7IiB4MT0iMjk3NSIgeDI9IjMxMjIiIHkxPSIxODIuNDY4OCIgeTI9IjE4Mi40Njg4Ii8+PHRleHQgZmlsbD0iIzAwMDAwMCIgZm9udC1mYW1pbHk9InNhbnMtc2VyaWYiIGZvbnQtc2l6ZT0iMTQiIGZvbnQtd2VpZ2h0PSJib2xkIiBsZW5ndGhBZGp1c3Q9InNwYWNpbmciIHRleHRMZW5ndGg9IjEzNCIgeD0iMjk3OSIgeT0iMTc2LjcxODgiPmF6dXJlcm1fY2RuX3Byb2ZpbGU8L3RleHQ+PC9nPjwhLS1jbHVzdGVyIGF6dXJlcm1fY2RuX2VuZHBvaW50LS0+PGcgaWQ9ImNsdXN0ZXJfYXp1cmVybV9jZG5fZW5kcG9pbnQiPjxwYXRoIGQ9Ik0yNDUxLjUsMTUzLjk4NDQgTDI1OTMuNSwxNTMuOTg0NCBBMy43NSwzLjc1IDAgMCAxIDI1OTYsMTU2LjQ4NDQgTDI2MDMsMTc0Ljk2ODggTDI5NDguNSwxNzQuOTY4OCBBMi41LDIuNSAwIDAgMSAyOTUxLDE3Ny40Njg4IEwyOTUxLDI5My40ODQ0IEEyLjUsMi41IDAgMCAxIDI5NDguNSwyOTUuOTg0NCBMMjQ1MS41LDI5NS45ODQ0IEEyLjUsMi41IDAgMCAxIDI0NDksMjkzLjQ4NDQgTDI0NDksMTU2LjQ4NDQgQTIuNSwyLjUgMCAwIDEgMjQ1MS41LDE1My45ODQ0ICIgZmlsbD0ibm9uZSIgc3R5bGU9InN0cm9rZTojMDAwMDAwO3N0cm9rZS13aWR0aDoxLjU7Ii8+PGxpbmUgc3R5bGU9InN0cm9rZTojMDAwMDAwO3N0cm9rZS13aWR0aDoxLjU7IiB4MT0iMjQ0OSIgeDI9IjI2MDMiIHkxPSIxNzQuOTY4OCIgeTI9IjE3NC45Njg4Ii8+PHRleHQgZmlsbD0iIzAwMDAwMCIgZm9udC1mYW1pbHk9InNhbnMtc2VyaWYiIGZvbnQtc2l6ZT0iMTQiIGZvbnQtd2VpZ2h0PSJib2xkIiBsZW5ndGhBZGp1c3Q9InNwYWNpbmciIHRleHRMZW5ndGg9IjE0MSIgeD0iMjQ1MyIgeT0iMTY5LjIxODgiPmF6dXJlcm1fY2RuX2VuZHBvaW50PC90ZXh0PjwvZz48IS0tY2x1c3RlciBXZWIgQXBwIE1vZHVsZS0tPjxnIGlkPSJjbHVzdGVyX1dlYiBBcHAgTW9kdWxlIj48cGF0aCBkPSJNMTI0MS41LDk3Ljk4NDQgTDEzNDAuNSw5Ny45ODQ0IEEzLjc1LDMuNzUgMCAwIDEgMTM0MywxMDAuNDg0NCBMMTM1MCwxMTguOTY4OCBMMjM5OC41LDExOC45Njg4IEEyLjUsMi41IDAgMCAxIDI0MDEsMTIxLjQ2ODggTDI0MDEsMzMyLjQ4NDQgQTIuNSwyLjUgMCAwIDEgMjM5OC41LDMzNC45ODQ0IEwxMjQxLjUsMzM0Ljk4NDQgQTIuNSwyLjUgMCAwIDEgMTIzOSwzMzIuNDg0NCBMMTIzOSwxMDAuNDg0NCBBMi41LDIuNSAwIDAgMSAxMjQxLjUsOTcuOTg0NCAiIGZpbGw9Im5vbmUiIHN0eWxlPSJzdHJva2U6IzAwMDAwMDtzdHJva2Utd2lkdGg6MS41OyIvPjxsaW5lIHN0eWxlPSJzdHJva2U6IzAwMDAwMDtzdHJva2Utd2lkdGg6MS41OyIgeDE9IjEyMzkiIHgyPSIxMzUwIiB5MT0iMTE4Ljk2ODgiIHkyPSIxMTguOTY4OCIvPjx0ZXh0IGZpbGw9IiMwMDAwMDAiIGZvbnQtZmFtaWx5PSJzYW5zLXNlcmlmIiBmb250LXNpemU9IjE0IiBmb250LXdlaWdodD0iYm9sZCIgbGVuZ3RoQWRqdXN0PSJzcGFjaW5nIiB0ZXh0TGVuZ3RoPSI5OCIgeD0iMTI0MyIgeT0iMTEzLjIxODgiPldlYiBBcHAgTW9kdWxlPC90ZXh0PjwvZz48IS0tY2x1c3RlciBhenVyZXJtX3N0b3JhZ2VfYWNjb3VudC0tPjxnIGlkPSJjbHVzdGVyX2F6dXJlcm1fc3RvcmFnZV9hY2NvdW50Ij48cGF0aCBkPSJNMjEzNy41LDEzOC45ODQ0IEwyMzAwLjUsMTM4Ljk4NDQgQTMuNzUsMy43NSAwIDAgMSAyMzAzLDE0MS40ODQ0IEwyMzEwLDE1OS45Njg4IEwyMzc0LjUsMTU5Ljk2ODggQTIuNSwyLjUgMCAwIDEgMjM3NywxNjIuNDY4OCBMMjM3NywzMDguNDg0NCBBMi41LDIuNSAwIDAgMSAyMzc0LjUsMzEwLjk4NDQgTDIxMzcuNSwzMTAuOTg0NCBBMi41LDIuNSAwIDAgMSAyMTM1LDMwOC40ODQ0IEwyMTM1LDE0MS40ODQ0IEEyLjUsMi41IDAgMCAxIDIxMzcuNSwxMzguOTg0NCAiIGZpbGw9Im5vbmUiIHN0eWxlPSJzdHJva2U6IzAwMDAwMDtzdHJva2Utd2lkdGg6MS41OyIvPjxsaW5lIHN0eWxlPSJzdHJva2U6IzAwMDAwMDtzdHJva2Utd2lkdGg6MS41OyIgeDE9IjIxMzUiIHgyPSIyMzEwIiB5MT0iMTU5Ljk2ODgiIHkyPSIxNTkuOTY4OCIvPjx0ZXh0IGZpbGw9IiMwMDAwMDAiIGZvbnQtZmFtaWx5PSJzYW5zLXNlcmlmIiBmb250LXNpemU9IjE0IiBmb250LXdlaWdodD0iYm9sZCIgbGVuZ3RoQWRqdXN0PSJzcGFjaW5nIiB0ZXh0TGVuZ3RoPSIxNjIiIHg9IjIxMzkiIHk9IjE1NC4yMTg4Ij5henVyZXJtX3N0b3JhZ2VfYWNjb3VudDwvdGV4dD48L2c+PCEtLWNsdXN0ZXIgYXp1cmVybV9jZG5fcHJvZmlsZS0tPjxnIGlkPSJjbHVzdGVyX2F6dXJlcm1fY2RuX3Byb2ZpbGUiPjxwYXRoIGQ9Ik0xNzc3LjUsMTYxLjQ4NDQgTDE5MTIuNSwxNjEuNDg0NCBBMy43NSwzLjc1IDAgMCAxIDE5MTUsMTYzLjk4NDQgTDE5MjIsMTgyLjQ2ODggTDIxMDguNSwxODIuNDY4OCBBMi41LDIuNSAwIDAgMSAyMTExLDE4NC45Njg4IEwyMTExLDI4NS45ODQ0IEEyLjUsMi41IDAgMCAxIDIxMDguNSwyODguNDg0NCBMMTc3Ny41LDI4OC40ODQ0IEEyLjUsMi41IDAgMCAxIDE3NzUsMjg1Ljk4NDQgTDE3NzUsMTYzLjk4NDQgQTIuNSwyLjUgMCAwIDEgMTc3Ny41LDE2MS40ODQ0ICIgZmlsbD0ibm9uZSIgc3R5bGU9InN0cm9rZTojMDAwMDAwO3N0cm9rZS13aWR0aDoxLjU7Ii8+PGxpbmUgc3R5bGU9InN0cm9rZTojMDAwMDAwO3N0cm9rZS13aWR0aDoxLjU7IiB4MT0iMTc3NSIgeDI9IjE5MjIiIHkxPSIxODIuNDY4OCIgeTI9IjE4Mi40Njg4Ii8+PHRleHQgZmlsbD0iIzAwMDAwMCIgZm9udC1mYW1pbHk9InNhbnMtc2VyaWYiIGZvbnQtc2l6ZT0iMTQiIGZvbnQtd2VpZ2h0PSJib2xkIiBsZW5ndGhBZGp1c3Q9InNwYWNpbmciIHRleHRMZW5ndGg9IjEzNCIgeD0iMTc3OSIgeT0iMTc2LjcxODgiPmF6dXJlcm1fY2RuX3Byb2ZpbGU8L3RleHQ+PC9nPjwhLS1jbHVzdGVyIGF6dXJlcm1fY2RuX2VuZHBvaW50LS0+PGcgaWQ9ImNsdXN0ZXJfYXp1cmVybV9jZG5fZW5kcG9pbnQiPjxwYXRoIGQ9Ik0xMjY1LjUsMTUzLjk4NDQgTDE0MDcuNSwxNTMuOTg0NCBBMy43NSwzLjc1IDAgMCAxIDE0MTAsMTU2LjQ4NDQgTDE0MTcsMTc0Ljk2ODggTDE3NDguNSwxNzQuOTY4OCBBMi41LDIuNSAwIDAgMSAxNzUxLDE3Ny40Njg4IEwxNzUxLDI5My40ODQ0IEEyLjUsMi41IDAgMCAxIDE3NDguNSwyOTUuOTg0NCBMMTI2NS41LDI5NS45ODQ0IEEyLjUsMi41IDAgMCAxIDEyNjMsMjkzLjQ4NDQgTDEyNjMsMTU2LjQ4NDQgQTIuNSwyLjUgMCAwIDEgMTI2NS41LDE1My45ODQ0ICIgZmlsbD0ibm9uZSIgc3R5bGU9InN0cm9rZTojMDAwMDAwO3N0cm9rZS13aWR0aDoxLjU7Ii8+PGxpbmUgc3R5bGU9InN0cm9rZTojMDAwMDAwO3N0cm9rZS13aWR0aDoxLjU7IiB4MT0iMTI2MyIgeDI9IjE0MTciIHkxPSIxNzQuOTY4OCIgeTI9IjE3NC45Njg4Ii8+PHRleHQgZmlsbD0iIzAwMDAwMCIgZm9udC1mYW1pbHk9InNhbnMtc2VyaWYiIGZvbnQtc2l6ZT0iMTQiIGZvbnQtd2VpZ2h0PSJib2xkIiBsZW5ndGhBZGp1c3Q9InNwYWNpbmciIHRleHRMZW5ndGg9IjE0MSIgeD0iMTI2NyIgeT0iMTY5LjIxODgiPmF6dXJlcm1fY2RuX2VuZHBvaW50PC90ZXh0PjwvZz48IS0tY2x1c3RlciBCYWNrZW5kIEFQSSBNb2R1bGUtLT48ZyBpZD0iY2x1c3Rlcl9CYWNrZW5kIEFQSSBNb2R1bGUiPjxwYXRoIGQ9Ik0zMi41LDgyLjk4NDQgTDE1OS41LDgyLjk4NDQgQTMuNzUsMy43NSAwIDAgMSAxNjIsODUuNDg0NCBMMTY5LDEwMy45Njg4IEwxMjEyLjUsMTAzLjk2ODggQTIuNSwyLjUgMCAwIDEgMTIxNSwxMDYuNDY4OCBMMTIxNSwzNDcuNDg0NCBBMi41LDIuNSAwIDAgMSAxMjEyLjUsMzQ5Ljk4NDQgTDMyLjUsMzQ5Ljk4NDQgQTIuNSwyLjUgMCAwIDEgMzAsMzQ3LjQ4NDQgTDMwLDg1LjQ4NDQgQTIuNSwyLjUgMCAwIDEgMzIuNSw4Mi45ODQ0ICIgZmlsbD0ibm9uZSIgc3R5bGU9InN0cm9rZTojMDAwMDAwO3N0cm9rZS13aWR0aDoxLjU7Ii8+PGxpbmUgc3R5bGU9InN0cm9rZTojMDAwMDAwO3N0cm9rZS13aWR0aDoxLjU7IiB4MT0iMzAiIHgyPSIxNjkiIHkxPSIxMDMuOTY4OCIgeTI9IjEwMy45Njg4Ii8+PHRleHQgZmlsbD0iIzAwMDAwMCIgZm9udC1mYW1pbHk9InNhbnMtc2VyaWYiIGZvbnQtc2l6ZT0iMTQiIGZvbnQtd2VpZ2h0PSJib2xkIiBsZW5ndGhBZGp1c3Q9InNwYWNpbmciIHRleHRMZW5ndGg9IjEyNiIgeD0iMzQiIHk9Ijk4LjIxODgiPkJhY2tlbmQgQVBJIE1vZHVsZTwvdGV4dD48L2c+PCEtLWNsdXN0ZXIgYXp1cmVybV9jb250YWluZXJfcmVnaXN0cnktLT48ZyBpZD0iY2x1c3Rlcl9henVyZXJtX2NvbnRhaW5lcl9yZWdpc3RyeSI+PHBhdGggZD0iTTk5NC41LDE1My45ODQ0IEwxMTc4LjUsMTUzLjk4NDQgQTMuNzUsMy43NSAwIDAgMSAxMTgxLDE1Ni40ODQ0IEwxMTg4LDE3NC45Njg4IEwxMTg4LjUsMTc0Ljk2ODggQTIuNSwyLjUgMCAwIDEgMTE5MSwxNzcuNDY4OCBMMTE5MSwyOTMuNDg0NCBBMi41LDIuNSAwIDAgMSAxMTg4LjUsMjk1Ljk4NDQgTDk5NC41LDI5NS45ODQ0IEEyLjUsMi41IDAgMCAxIDk5MiwyOTMuNDg0NCBMOTkyLDE1Ni40ODQ0IEEyLjUsMi41IDAgMCAxIDk5NC41LDE1My45ODQ0ICIgZmlsbD0ibm9uZSIgc3R5bGU9InN0cm9rZTojMDAwMDAwO3N0cm9rZS13aWR0aDoxLjU7Ii8+PGxpbmUgc3R5bGU9InN0cm9rZTojMDAwMDAwO3N0cm9rZS13aWR0aDoxLjU7IiB4MT0iOTkyIiB4Mj0iMTE4OCIgeTE9IjE3NC45Njg4IiB5Mj0iMTc0Ljk2ODgiLz48dGV4dCBmaWxsPSIjMDAwMDAwIiBmb250LWZhbWlseT0ic2Fucy1zZXJpZiIgZm9udC1zaXplPSIxNCIgZm9udC13ZWlnaHQ9ImJvbGQiIGxlbmd0aEFkanVzdD0ic3BhY2luZyIgdGV4dExlbmd0aD0iMTgzIiB4PSI5OTYiIHk9IjE2OS4yMTg4Ij5henVyZXJtX2NvbnRhaW5lcl9yZWdpc3RyeTwvdGV4dD48L2c+PCEtLWNsdXN0ZXIgYXp1cmVybV9rdWJlcm5ldGVzX2NsdXN0ZXItLT48ZyBpZD0iY2x1c3Rlcl9henVyZXJtX2t1YmVybmV0ZXNfY2x1c3RlciI+PHBhdGggZD0iTTY4Ni41LDEyMy45ODQ0IEw4NzAuNSwxMjMuOTg0NCBBMy43NSwzLjc1IDAgMCAxIDg3MywxMjYuNDg0NCBMODgwLDE0NC45Njg4IEw5NjUuNSwxNDQuOTY4OCBBMi41LDIuNSAwIDAgMSA5NjgsMTQ3LjQ2ODggTDk2OCwzMjMuNDg0NCBBMi41LDIuNSAwIDAgMSA5NjUuNSwzMjUuOTg0NCBMNjg2LjUsMzI1Ljk4NDQgQTIuNSwyLjUgMCAwIDEgNjg0LDMyMy40ODQ0IEw2ODQsMTI2LjQ4NDQgQTIuNSwyLjUgMCAwIDEgNjg2LjUsMTIzLjk4NDQgIiBmaWxsPSJub25lIiBzdHlsZT0ic3Ryb2tlOiMwMDAwMDA7c3Ryb2tlLXdpZHRoOjEuNTsiLz48bGluZSBzdHlsZT0ic3Ryb2tlOiMwMDAwMDA7c3Ryb2tlLXdpZHRoOjEuNTsiIHgxPSI2ODQiIHgyPSI4ODAiIHkxPSIxNDQuOTY4OCIgeTI9IjE0NC45Njg4Ii8+PHRleHQgZmlsbD0iIzAwMDAwMCIgZm9udC1mYW1pbHk9InNhbnMtc2VyaWYiIGZvbnQtc2l6ZT0iMTQiIGZvbnQtd2VpZ2h0PSJib2xkIiBsZW5ndGhBZGp1c3Q9InNwYWNpbmciIHRleHRMZW5ndGg9IjE4MyIgeD0iNjg4IiB5PSIxMzkuMjE4OCI+YXp1cmVybV9rdWJlcm5ldGVzX2NsdXN0ZXI8L3RleHQ+PC9nPjwhLS1jbHVzdGVyIGF6dXJlcm1fcm9sZV9hc3NpZ25tZW50LS0+PGcgaWQ9ImNsdXN0ZXJfYXp1cmVybV9yb2xlX2Fzc2lnbm1lbnQiPjxwYXRoIGQ9Ik01Ni41LDE1My45ODQ0IEwyMjAuNSwxNTMuOTg0NCBBMy43NSwzLjc1IDAgMCAxIDIyMywxNTYuNDg0NCBMMjMwLDE3NC45Njg4IEw2NTcuNSwxNzQuOTY4OCBBMi41LDIuNSAwIDAgMSA2NjAsMTc3LjQ2ODggTDY2MCwyOTMuNDg0NCBBMi41LDIuNSAwIDAgMSA2NTcuNSwyOTUuOTg0NCBMNTYuNSwyOTUuOTg0NCBBMi41LDIuNSAwIDAgMSA1NCwyOTMuNDg0NCBMNTQsMTU2LjQ4NDQgQTIuNSwyLjUgMCAwIDEgNTYuNSwxNTMuOTg0NCAiIGZpbGw9Im5vbmUiIHN0eWxlPSJzdHJva2U6IzAwMDAwMDtzdHJva2Utd2lkdGg6MS41OyIvPjxsaW5lIHN0eWxlPSJzdHJva2U6IzAwMDAwMDtzdHJva2Utd2lkdGg6MS41OyIgeDE9IjU0IiB4Mj0iMjMwIiB5MT0iMTc0Ljk2ODgiIHkyPSIxNzQuOTY4OCIvPjx0ZXh0IGZpbGw9IiMwMDAwMDAiIGZvbnQtZmFtaWx5PSJzYW5zLXNlcmlmIiBmb250LXNpemU9IjE0IiBmb250LXdlaWdodD0iYm9sZCIgbGVuZ3RoQWRqdXN0PSJzcGFjaW5nIiB0ZXh0TGVuZ3RoPSIxNjMiIHg9IjU4IiB5PSIxNjkuMjE4OCI+YXp1cmVybV9yb2xlX2Fzc2lnbm1lbnQ8L3RleHQ+PC9nPjwhLS1jbHVzdGVyIGF6dXJlcm1fcmVzb3VyY2VfZ3JvdXAtLT48ZyBpZD0iY2x1c3Rlcl9henVyZXJtX3Jlc291cmNlX2dyb3VwIj48cGF0aCBkPSJNMzkzNy41LDE3Ni40ODQ0IEw0MDkzLjUsMTc2LjQ4NDQgQTMuNzUsMy43NSAwIDAgMSA0MDk2LDE3OC45ODQ0IEw0MTAzLDE5Ny40Njg4IEw0MTAzLjUsMTk3LjQ2ODggQTIuNSwyLjUgMCAwIDEgNDEwNiwxOTkuOTY4OCBMNDEwNiwyNzAuOTg0NCBBMi41LDIuNSAwIDAgMSA0MTAzLjUsMjczLjQ4NDQgTDM5MzcuNSwyNzMuNDg0NCBBMi41LDIuNSAwIDAgMSAzOTM1LDI3MC45ODQ0IEwzOTM1LDE3OC45ODQ0IEEyLjUsMi41IDAgMCAxIDM5MzcuNSwxNzYuNDg0NCAiIGZpbGw9Im5vbmUiIHN0eWxlPSJzdHJva2U6IzAwMDAwMDtzdHJva2Utd2lkdGg6MS41OyIvPjxsaW5lIHN0eWxlPSJzdHJva2U6IzAwMDAwMDtzdHJva2Utd2lkdGg6MS41OyIgeDE9IjM5MzUiIHgyPSI0MTAzIiB5MT0iMTk3LjQ2ODgiIHkyPSIxOTcuNDY4OCIvPjx0ZXh0IGZpbGw9IiMwMDAwMDAiIGZvbnQtZmFtaWx5PSJzYW5zLXNlcmlmIiBmb250LXNpemU9IjE0IiBmb250LXdlaWdodD0iYm9sZCIgbGVuZ3RoQWRqdXN0PSJzcGFjaW5nIiB0ZXh0TGVuZ3RoPSIxNTUiIHg9IjM5MzkiIHk9IjE5MS43MTg4Ij5henVyZXJtX3Jlc291cmNlX2dyb3VwPC90ZXh0PjwvZz48IS0tY2x1c3RlciBhenVyZXJtX3N0b3JhZ2VfYWNjb3VudC0tPjxnIGlkPSJjbHVzdGVyX2F6dXJlcm1fc3RvcmFnZV9hY2NvdW50Ij48cGF0aCBkPSJNMzU5My41LDQyMC45ODQ0IEwzNzU2LjUsNDIwLjk4NDQgQTMuNzUsMy43NSAwIDAgMSAzNzU5LDQyMy40ODQ0IEwzNzY2LDQ0MS45Njg4IEwzODYwLjUsNDQxLjk2ODggQTIuNSwyLjUgMCAwIDEgMzg2Myw0NDQuNDY4OCBMMzg2Myw1MTUuNDg0NCBBMi41LDIuNSAwIDAgMSAzODYwLjUsNTE3Ljk4NDQgTDM1OTMuNSw1MTcuOTg0NCBBMi41LDIuNSAwIDAgMSAzNTkxLDUxNS40ODQ0IEwzNTkxLDQyMy40ODQ0IEEyLjUsMi41IDAgMCAxIDM1OTMuNSw0MjAuOTg0NCAiIGZpbGw9Im5vbmUiIHN0eWxlPSJzdHJva2U6IzAwMDAwMDtzdHJva2Utd2lkdGg6MS41OyIvPjxsaW5lIHN0eWxlPSJzdHJva2U6IzAwMDAwMDtzdHJva2Utd2lkdGg6MS41OyIgeDE9IjM1OTEiIHgyPSIzNzY2IiB5MT0iNDQxLjk2ODgiIHkyPSI0NDEuOTY4OCIvPjx0ZXh0IGZpbGw9IiMwMDAwMDAiIGZvbnQtZmFtaWx5PSJzYW5zLXNlcmlmIiBmb250LXNpemU9IjE0IiBmb250LXdlaWdodD0iYm9sZCIgbGVuZ3RoQWRqdXN0PSJzcGFjaW5nIiB0ZXh0TGVuZ3RoPSIxNjIiIHg9IjM1OTUiIHk9IjQzNi4yMTg4Ij5henVyZXJtX3N0b3JhZ2VfYWNjb3VudDwvdGV4dD48L2c+PCEtLWNsdXN0ZXIgYXp1cmVybV9jZG5fcHJvZmlsZS0tPjxnIGlkPSJjbHVzdGVyX2F6dXJlcm1fY2RuX3Byb2ZpbGUiPjxwYXRoIGQ9Ik0zODg5LjUsNDIwLjk4NDQgTDQwMjQuNSw0MjAuOTg0NCBBMy43NSwzLjc1IDAgMCAxIDQwMjcsNDIzLjQ4NDQgTDQwMzQsNDQxLjk2ODggTDQxNTYuNSw0NDEuOTY4OCBBMi41LDIuNSAwIDAgMSA0MTU5LDQ0NC40Njg4IEw0MTU5LDUxNS40ODQ0IEEyLjUsMi41IDAgMCAxIDQxNTYuNSw1MTcuOTg0NCBMMzg4OS41LDUxNy45ODQ0IEEyLjUsMi41IDAgMCAxIDM4ODcsNTE1LjQ4NDQgTDM4ODcsNDIzLjQ4NDQgQTIuNSwyLjUgMCAwIDEgMzg4OS41LDQyMC45ODQ0ICIgZmlsbD0ibm9uZSIgc3R5bGU9InN0cm9rZTojMDAwMDAwO3N0cm9rZS13aWR0aDoxLjU7Ii8+PGxpbmUgc3R5bGU9InN0cm9rZTojMDAwMDAwO3N0cm9rZS13aWR0aDoxLjU7IiB4MT0iMzg4NyIgeDI9IjQwMzQiIHkxPSI0NDEuOTY4OCIgeTI9IjQ0MS45Njg4Ii8+PHRleHQgZmlsbD0iIzAwMDAwMCIgZm9udC1mYW1pbHk9InNhbnMtc2VyaWYiIGZvbnQtc2l6ZT0iMTQiIGZvbnQtd2VpZ2h0PSJib2xkIiBsZW5ndGhBZGp1c3Q9InNwYWNpbmciIHRleHRMZW5ndGg9IjEzNCIgeD0iMzg5MSIgeT0iNDM2LjIxODgiPmF6dXJlcm1fY2RuX3Byb2ZpbGU8L3RleHQ+PC9nPjwhLS1jbHVzdGVyIGF6dXJlcm1fY2RuX2VuZHBvaW50LS0+PGcgaWQ9ImNsdXN0ZXJfYXp1cmVybV9jZG5fZW5kcG9pbnQiPjxwYXRoIGQ9Ik0zNTk0LjUsNTY0Ljk4NDQgTDM3MzYuNSw1NjQuOTg0NCBBMy43NSwzLjc1IDAgMCAxIDM3MzksNTY3LjQ4NDQgTDM3NDYsNTg1Ljk2ODggTDM4NjEuNSw1ODUuOTY4OCBBMi41LDIuNSAwIDAgMSAzODY0LDU4OC40Njg4IEwzODY0LDY1OS40ODQ0IEEyLjUsMi41IDAgMCAxIDM4NjEuNSw2NjEuOTg0NCBMMzU5NC41LDY2MS45ODQ0IEEyLjUsMi41IDAgMCAxIDM1OTIsNjU5LjQ4NDQgTDM1OTIsNTY3LjQ4NDQgQTIuNSwyLjUgMCAwIDEgMzU5NC41LDU2NC45ODQ0ICIgZmlsbD0ibm9uZSIgc3R5bGU9InN0cm9rZTojMDAwMDAwO3N0cm9rZS13aWR0aDoxLjU7Ii8+PGxpbmUgc3R5bGU9InN0cm9rZTojMDAwMDAwO3N0cm9rZS13aWR0aDoxLjU7IiB4MT0iMzU5MiIgeDI9IjM3NDYiIHkxPSI1ODUuOTY4OCIgeTI9IjU4NS45Njg4Ii8+PHRleHQgZmlsbD0iIzAwMDAwMCIgZm9udC1mYW1pbHk9InNhbnMtc2VyaWYiIGZvbnQtc2l6ZT0iMTQiIGZvbnQtd2VpZ2h0PSJib2xkIiBsZW5ndGhBZGp1c3Q9InNwYWNpbmciIHRleHRMZW5ndGg9IjE0MSIgeD0iMzU5NiIgeT0iNTgwLjIxODgiPmF6dXJlcm1fY2RuX2VuZHBvaW50PC90ZXh0PjwvZz48IS0tY2x1c3RlciBhenVyZXJtX2NvbnRhaW5lcl9yZWdpc3RyeS0tPjxnIGlkPSJjbHVzdGVyX2F6dXJlcm1fY29udGFpbmVyX3JlZ2lzdHJ5Ij48cGF0aCBkPSJNNDI2Mi41LDU2NC45ODQ0IEw0NDQ2LjUsNTY0Ljk4NDQgQTMuNzUsMy43NSAwIDAgMSA0NDQ5LDU2Ny40ODQ0IEw0NDU2LDU4NS45Njg4IEw0NDU2LjUsNTg1Ljk2ODggQTIuNSwyLjUgMCAwIDEgNDQ1OSw1ODguNDY4OCBMNDQ1OSw2NTkuNDg0NCBBMi41LDIuNSAwIDAgMSA0NDU2LjUsNjYxLjk4NDQgTDQyNjIuNSw2NjEuOTg0NCBBMi41LDIuNSAwIDAgMSA0MjYwLDY1OS40ODQ0IEw0MjYwLDU2Ny40ODQ0IEEyLjUsMi41IDAgMCAxIDQyNjIuNSw1NjQuOTg0NCAiIGZpbGw9Im5vbmUiIHN0eWxlPSJzdHJva2U6IzAwMDAwMDtzdHJva2Utd2lkdGg6MS41OyIvPjxsaW5lIHN0eWxlPSJzdHJva2U6IzAwMDAwMDtzdHJva2Utd2lkdGg6MS41OyIgeDE9IjQyNjAiIHgyPSI0NDU2IiB5MT0iNTg1Ljk2ODgiIHkyPSI1ODUuOTY4OCIvPjx0ZXh0IGZpbGw9IiMwMDAwMDAiIGZvbnQtZmFtaWx5PSJzYW5zLXNlcmlmIiBmb250LXNpemU9IjE0IiBmb250LXdlaWdodD0iYm9sZCIgbGVuZ3RoQWRqdXN0PSJzcGFjaW5nIiB0ZXh0TGVuZ3RoPSIxODMiIHg9IjQyNjQiIHk9IjU4MC4yMTg4Ij5henVyZXJtX2NvbnRhaW5lcl9yZWdpc3RyeTwvdGV4dD48L2c+PCEtLWNsdXN0ZXIgYXp1cmVybV9rdWJlcm5ldGVzX2NsdXN0ZXItLT48ZyBpZD0iY2x1c3Rlcl9henVyZXJtX2t1YmVybmV0ZXNfY2x1c3RlciI+PHBhdGggZD0iTTQzMDEuNSw0MjAuOTg0NCBMNDQ4NS41LDQyMC45ODQ0IEEzLjc1LDMuNzUgMCAwIDEgNDQ4OCw0MjMuNDg0NCBMNDQ5NSw0NDEuOTY4OCBMNDQ5NS41LDQ0MS45Njg4IEEyLjUsMi41IDAgMCAxIDQ0OTgsNDQ0LjQ2ODggTDQ0OTgsNTE1LjQ4NDQgQTIuNSwyLjUgMCAwIDEgNDQ5NS41LDUxNy45ODQ0IEw0MzAxLjUsNTE3Ljk4NDQgQTIuNSwyLjUgMCAwIDEgNDI5OSw1MTUuNDg0NCBMNDI5OSw0MjMuNDg0NCBBMi41LDIuNSAwIDAgMSA0MzAxLjUsNDIwLjk4NDQgIiBmaWxsPSJub25lIiBzdHlsZT0ic3Ryb2tlOiMwMDAwMDA7c3Ryb2tlLXdpZHRoOjEuNTsiLz48bGluZSBzdHlsZT0ic3Ryb2tlOiMwMDAwMDA7c3Ryb2tlLXdpZHRoOjEuNTsiIHgxPSI0Mjk5IiB4Mj0iNDQ5NSIgeTE9IjQ0MS45Njg4IiB5Mj0iNDQxLjk2ODgiLz48dGV4dCBmaWxsPSIjMDAwMDAwIiBmb250LWZhbWlseT0ic2Fucy1zZXJpZiIgZm9udC1zaXplPSIxNCIgZm9udC13ZWlnaHQ9ImJvbGQiIGxlbmd0aEFkanVzdD0ic3BhY2luZyIgdGV4dExlbmd0aD0iMTgzIiB4PSI0MzAzIiB5PSI0MzYuMjE4OCI+YXp1cmVybV9rdWJlcm5ldGVzX2NsdXN0ZXI8L3RleHQ+PC9nPjwhLS1jbHVzdGVyIGF6dXJlcm1fcm9sZV9hc3NpZ25tZW50LS0+PGcgaWQ9ImNsdXN0ZXJfYXp1cmVybV9yb2xlX2Fzc2lnbm1lbnQiPjxwYXRoIGQ9Ik00NTI0LjUsNDIwLjk4NDQgTDQ2ODguNSw0MjAuOTg0NCBBMy43NSwzLjc1IDAgMCAxIDQ2OTEsNDIzLjQ4NDQgTDQ2OTgsNDQxLjk2ODggTDQ2OTguNSw0NDEuOTY4OCBBMi41LDIuNSAwIDAgMSA0NzAxLDQ0NC40Njg4IEw0NzAxLDUxNS40ODQ0IEEyLjUsMi41IDAgMCAxIDQ2OTguNSw1MTcuOTg0NCBMNDUyNC41LDUxNy45ODQ0IEEyLjUsMi41IDAgMCAxIDQ1MjIsNTE1LjQ4NDQgTDQ1MjIsNDIzLjQ4NDQgQTIuNSwyLjUgMCAwIDEgNDUyNC41LDQyMC45ODQ0ICIgZmlsbD0ibm9uZSIgc3R5bGU9InN0cm9rZTojMDAwMDAwO3N0cm9rZS13aWR0aDoxLjU7Ii8+PGxpbmUgc3R5bGU9InN0cm9rZTojMDAwMDAwO3N0cm9rZS13aWR0aDoxLjU7IiB4MT0iNDUyMiIgeDI9IjQ2OTgiIHkxPSI0NDEuOTY4OCIgeTI9IjQ0MS45Njg4Ii8+PHRleHQgZmlsbD0iIzAwMDAwMCIgZm9udC1mYW1pbHk9InNhbnMtc2VyaWYiIGZvbnQtc2l6ZT0iMTQiIGZvbnQtd2VpZ2h0PSJib2xkIiBsZW5ndGhBZGp1c3Q9InNwYWNpbmciIHRleHRMZW5ndGg9IjE2MyIgeD0iNDUyNiIgeT0iNDM2LjIxODgiPmF6dXJlcm1fcm9sZV9hc3NpZ25tZW50PC90ZXh0PjwvZz48IS0tY2xhc3MgbWFpbi0tPjxnIGlkPSJlbGVtX21haW4iPjxyZWN0IGNvZGVMaW5lPSI0IiBmaWxsPSIjRjFGMUYxIiBoZWlnaHQ9Ijc3Ljk2ODgiIGlkPSJtYWluIiByeD0iMi41IiByeT0iMi41IiBzdHlsZT0ic3Ryb2tlOiMxODE4MTg7c3Ryb2tlLXdpZHRoOjAuNTsiIHdpZHRoPSIyMzEiIHg9IjM2NDAuNSIgeT0iMTk0LjQ4NDQiLz48ZWxsaXBzZSBjeD0iMzczNy4yNSIgY3k9IjIxMC40ODQ0IiBmaWxsPSIjQUREMUIyIiByeD0iMTEiIHJ5PSIxMSIgc3R5bGU9InN0cm9rZTojMTgxODE4O3N0cm9rZS13aWR0aDoxLjA7Ii8+PHBhdGggZD0iTTM3NDAuODc1LDIxNi40ODQ0IEwzNzQwLjg3NSwyMTQuNzM0NCBMMzczNS41NjI1LDIxNC43MzQ0IFEzNzM1LjU2MjUsMjE0LjczNDQgMzczNS41NjI1LDIxMS4xNzE5IEwzNzM5LjgxMjUsMjExLjE3MTkgTDM3MzkuODEyNSwyMDkuNDIxOSBMMzczNS41NjI1LDIwOS40MjE5IEwzNzM1LjU2MjUsMjA2LjkyMTkgTDM3NDAuODc1LDIwNi45MjE5IEwzNzQwLjg3NSwyMDUuMTcxOSBMMzczMy44MTI1LDIwNS4xNzE5IFEzNzMzLjgxMjUsMjA1LjE3MTkgMzczMy44MTI1LDIxNi40ODQ0IEwzNzQwLjg3NSwyMTYuNDg0NCBaICIgZmlsbD0iIzAwMDAwMCIvPjx0ZXh0IGZpbGw9IiMwMDAwMDAiIGZvbnQtZmFtaWx5PSJzYW5zLXNlcmlmIiBmb250LXNpemU9IjE0IiBsZW5ndGhBZGp1c3Q9InNwYWNpbmciIHRleHRMZW5ndGg9IjI5IiB4PSIzNzU3Ljc1IiB5PSIyMTYuMjI2NiI+bWFpbjwvdGV4dD48bGluZSBzdHlsZT0ic3Ryb2tlOiMxODE4MTg7c3Ryb2tlLXdpZHRoOjAuNTsiIHgxPSIzNjQxLjUiIHgyPSIzODcwLjUiIHkxPSIyMjYuNDg0NCIgeTI9IjIyNi40ODQ0Ii8+PGVsbGlwc2UgY3g9IjM2NTEuNSIgY3k9IjIzOS40NzY2IiBmaWxsPSJub25lIiByeD0iMyIgcnk9IjMiIHN0eWxlPSJzdHJva2U6IzAzODA0ODtzdHJva2Utd2lkdGg6MS4wOyIvPjx0ZXh0IGZpbGw9IiMwMDAwMDAiIGZvbnQtZmFtaWx5PSJzYW5zLXNlcmlmIiBmb250LXNpemU9IjE0IiBsZW5ndGhBZGp1c3Q9InNwYWNpbmciIHRleHRMZW5ndGg9IjIwNSIgeD0iMzY2MC41IiB5PSIyNDMuNzE4OCI+TmFtZTogdmFyLnJlc291cmNlX2dyb3VwX25hbWU8L3RleHQ+PGVsbGlwc2UgY3g9IjM2NTEuNSIgY3k9IjI1NC40NjA5IiBmaWxsPSJub25lIiByeD0iMyIgcnk9IjMiIHN0eWxlPSJzdHJva2U6IzAzODA0ODtzdHJva2Utd2lkdGg6MS4wOyIvPjx0ZXh0IGZpbGw9IiMwMDAwMDAiIGZvbnQtZmFtaWx5PSJzYW5zLXNlcmlmIiBmb250LXNpemU9IjE0IiBsZW5ndGhBZGp1c3Q9InNwYWNpbmciIHRleHRMZW5ndGg9IjE1NCIgeD0iMzY2MC41IiB5PSIyNTguNzAzMSI+TG9jYXRpb246IHZhci5sb2NhdGlvbjwvdGV4dD48bGluZSBzdHlsZT0ic3Ryb2tlOiMxODE4MTg7c3Ryb2tlLXdpZHRoOjAuNTsiIHgxPSIzNjQxLjUiIHgyPSIzODcwLjUiIHkxPSIyNjQuNDUzMSIgeTI9IjI2NC40NTMxIi8+PC9nPjwhLS1jbGFzcyBmbHV0dGVyX2FwcC0tPjxnIGlkPSJlbGVtX2ZsdXR0ZXJfYXBwIj48cmVjdCBjb2RlTGluZT0iMTEiIGZpbGw9IiNGMUYxRjEiIGhlaWdodD0iMTIyLjkyMTkiIGlkPSJmbHV0dGVyX2FwcCIgcng9IjIuNSIgcnk9IjIuNSIgc3R5bGU9InN0cm9rZTojMTgxODE4O3N0cm9rZS13aWR0aDowLjU7IiB3aWR0aD0iMjA5IiB4PSIzMzUxLjUiIHk9IjE3MS45ODQ0Ii8+PGVsbGlwc2UgY3g9IjM0MTMuMjUiIGN5PSIxODcuOTg0NCIgZmlsbD0iI0FERDFCMiIgcng9IjExIiByeT0iMTEiIHN0eWxlPSJzdHJva2U6IzE4MTgxODtzdHJva2Utd2lkdGg6MS4wOyIvPjxwYXRoIGQ9Ik0zNDE2Ljg3NSwxOTMuOTg0NCBMMzQxNi44NzUsMTkyLjIzNDQgTDM0MTEuNTYyNSwxOTIuMjM0NCBRMzQxMS41NjI1LDE5Mi4yMzQ0IDM0MTEuNTYyNSwxODguNjcxOSBMMzQxNS44MTI1LDE4OC42NzE5IEwzNDE1LjgxMjUsMTg2LjkyMTkgTDM0MTEuNTYyNSwxODYuOTIxOSBMMzQxMS41NjI1LDE4NC40MjE5IEwzNDE2Ljg3NSwxODQuNDIxOSBMMzQxNi44NzUsMTgyLjY3MTkgTDM0MDkuODEyNSwxODIuNjcxOSBRMzQwOS44MTI1LDE4Mi42NzE5IDM0MDkuODEyNSwxOTMuOTg0NCBMMzQxNi44NzUsMTkzLjk4NDQgWiAiIGZpbGw9IiMwMDAwMDAiLz48dGV4dCBmaWxsPSIjMDAwMDAwIiBmb250LWZhbWlseT0ic2Fucy1zZXJpZiIgZm9udC1zaXplPSIxNCIgbGVuZ3RoQWRqdXN0PSJzcGFjaW5nIiB0ZXh0TGVuZ3RoPSI3NyIgeD0iMzQzMy43NSIgeT0iMTkzLjcyNjYiPmZsdXR0ZXJfYXBwPC90ZXh0PjxsaW5lIHN0eWxlPSJzdHJva2U6IzE4MTgxODtzdHJva2Utd2lkdGg6MC41OyIgeDE9IjMzNTIuNSIgeDI9IjM1NTkuNSIgeTE9IjIwMy45ODQ0IiB5Mj0iMjAzLjk4NDQiLz48ZWxsaXBzZSBjeD0iMzM2Mi41IiBjeT0iMjE2Ljk3NjYiIGZpbGw9Im5vbmUiIHJ4PSIzIiByeT0iMyIgc3R5bGU9InN0cm9rZTojMDM4MDQ4O3N0cm9rZS13aWR0aDoxLjA7Ii8+PHRleHQgZmlsbD0iIzAwMDAwMCIgZm9udC1mYW1pbHk9InNhbnMtc2VyaWYiIGZvbnQtc2l6ZT0iMTQiIGxlbmd0aEFkanVzdD0ic3BhY2luZyIgdGV4dExlbmd0aD0iMTc3IiB4PSIzMzcxLjUiIHk9IjIyMS4yMTg4Ij5OYW1lOiB2YXIuYXBwX2J1Y2tldF9uYW1lPC90ZXh0PjxlbGxpcHNlIGN4PSIzMzYyLjUiIGN5PSIyMzEuOTYwOSIgZmlsbD0ibm9uZSIgcng9IjMiIHJ5PSIzIiBzdHlsZT0ic3Ryb2tlOiMwMzgwNDg7c3Ryb2tlLXdpZHRoOjEuMDsiLz48dGV4dCBmaWxsPSIjMDAwMDAwIiBmb250LWZhbWlseT0ic2Fucy1zZXJpZiIgZm9udC1zaXplPSIxNCIgbGVuZ3RoQWRqdXN0PSJzcGFjaW5nIiB0ZXh0TGVuZ3RoPSIxNTQiIHg9IjMzNzEuNSIgeT0iMjM2LjIwMzEiPkFjY291bnQgVGllcjogU3RhbmRhcmQ8L3RleHQ+PGVsbGlwc2UgY3g9IjMzNjIuNSIgY3k9IjI0Ni45NDUzIiBmaWxsPSJub25lIiByeD0iMyIgcnk9IjMiIHN0eWxlPSJzdHJva2U6IzAzODA0ODtzdHJva2Utd2lkdGg6MS4wOyIvPjx0ZXh0IGZpbGw9IiMwMDAwMDAiIGZvbnQtZmFtaWx5PSJzYW5zLXNlcmlmIiBmb250LXNpemU9IjE0IiBsZW5ndGhBZGp1c3Q9InNwYWNpbmciIHRleHRMZW5ndGg9IjExMiIgeD0iMzM3MS41IiB5PSIyNTEuMTg3NSI+UmVwbGljYXRpb246IExSUzwvdGV4dD48ZWxsaXBzZSBjeD0iMzM2Mi41IiBjeT0iMjYxLjkyOTciIGZpbGw9Im5vbmUiIHJ4PSIzIiByeT0iMyIgc3R5bGU9InN0cm9rZTojMDM4MDQ4O3N0cm9rZS13aWR0aDoxLjA7Ii8+PHRleHQgZmlsbD0iIzAwMDAwMCIgZm9udC1mYW1pbHk9InNhbnMtc2VyaWYiIGZvbnQtc2l6ZT0iMTQiIGxlbmd0aEFkanVzdD0ic3BhY2luZyIgdGV4dExlbmd0aD0iMTEyIiB4PSIzMzcxLjUiIHk9IjI2Ni4xNzE5Ij5IVFRQUyBPbmx5OiB0cnVlPC90ZXh0PjxlbGxpcHNlIGN4PSIzMzYyLjUiIGN5PSIyNzYuOTE0MSIgZmlsbD0ibm9uZSIgcng9IjMiIHJ5PSIzIiBzdHlsZT0ic3Ryb2tlOiMwMzgwNDg7c3Ryb2tlLXdpZHRoOjEuMDsiLz48dGV4dCBmaWxsPSIjMDAwMDAwIiBmb250LWZhbWlseT0ic2Fucy1zZXJpZiIgZm9udC1zaXplPSIxNCIgbGVuZ3RoQWRqdXN0PSJzcGFjaW5nIiB0ZXh0TGVuZ3RoPSIxODMiIHg9IjMzNzEuNSIgeT0iMjgxLjE1NjMiPlN0YXRpYyBXZWJzaXRlOiBpbmRleC5odG1sPC90ZXh0PjxsaW5lIHN0eWxlPSJzdHJva2U6IzE4MTgxODtzdHJva2Utd2lkdGg6MC41OyIgeDE9IjMzNTIuNSIgeDI9IjM1NTkuNSIgeTE9IjI4Ni45MDYzIiB5Mj0iMjg2LjkwNjMiLz48L2c+PCEtLWNsYXNzIGZsdXR0ZXJfYXBwLS0+PGcgaWQ9ImVsZW1fZmx1dHRlcl9hcHAiPjxyZWN0IGNvZGVMaW5lPSIxOSIgZmlsbD0iI0YxRjFGMSIgaGVpZ2h0PSI3Ny45Njg4IiBpZD0iZmx1dHRlcl9hcHAiIHJ4PSIyLjUiIHJ5PSIyLjUiIHN0eWxlPSJzdHJva2U6IzE4MTgxODtzdHJva2Utd2lkdGg6MC41OyIgd2lkdGg9IjMwNCIgeD0iMjk5MSIgeT0iMTk0LjQ4NDQiLz48ZWxsaXBzZSBjeD0iMzEwMC4yNSIgY3k9IjIxMC40ODQ0IiBmaWxsPSIjQUREMUIyIiByeD0iMTEiIHJ5PSIxMSIgc3R5bGU9InN0cm9rZTojMTgxODE4O3N0cm9rZS13aWR0aDoxLjA7Ii8+PHBhdGggZD0iTTMxMDMuODc1LDIxNi40ODQ0IEwzMTAzLjg3NSwyMTQuNzM0NCBMMzA5OC41NjI1LDIxNC43MzQ0IFEzMDk4LjU2MjUsMjE0LjczNDQgMzA5OC41NjI1LDIxMS4xNzE5IEwzMTAyLjgxMjUsMjExLjE3MTkgTDMxMDIuODEyNSwyMDkuNDIxOSBMMzA5OC41NjI1LDIwOS40MjE5IEwzMDk4LjU2MjUsMjA2LjkyMTkgTDMxMDMuODc1LDIwNi45MjE5IEwzMTAzLjg3NSwyMDUuMTcxOSBMMzA5Ni44MTI1LDIwNS4xNzE5IFEzMDk2LjgxMjUsMjA1LjE3MTkgMzA5Ni44MTI1LDIxNi40ODQ0IEwzMTAzLjg3NSwyMTYuNDg0NCBaICIgZmlsbD0iIzAwMDAwMCIvPjx0ZXh0IGZpbGw9IiMwMDAwMDAiIGZvbnQtZmFtaWx5PSJzYW5zLXNlcmlmIiBmb250LXNpemU9IjE0IiBsZW5ndGhBZGp1c3Q9InNwYWNpbmciIHRleHRMZW5ndGg9Ijc3IiB4PSIzMTIwLjc1IiB5PSIyMTYuMjI2NiI+Zmx1dHRlcl9hcHA8L3RleHQ+PGxpbmUgc3R5bGU9InN0cm9rZTojMTgxODE4O3N0cm9rZS13aWR0aDowLjU7IiB4MT0iMjk5MiIgeDI9IjMyOTQiIHkxPSIyMjYuNDg0NCIgeTI9IjIyNi40ODQ0Ii8+PGVsbGlwc2UgY3g9IjMwMDIiIGN5PSIyMzkuNDc2NiIgZmlsbD0ibm9uZSIgcng9IjMiIHJ5PSIzIiBzdHlsZT0ic3Ryb2tlOiMwMzgwNDg7c3Ryb2tlLXdpZHRoOjEuMDsiLz48dGV4dCBmaWxsPSIjMDAwMDAwIiBmb250LWZhbWlseT0ic2Fucy1zZXJpZiIgZm9udC1zaXplPSIxNCIgbGVuZ3RoQWRqdXN0PSJzcGFjaW5nIiB0ZXh0TGVuZ3RoPSIyNzgiIHg9IjMwMTEiIHk9IjI0My43MTg4Ij5OYW1lOiAke3Zhci5hcHBfYnVja2V0X25hbWV9LWNkbnByb2ZpbGU8L3RleHQ+PGVsbGlwc2UgY3g9IjMwMDIiIGN5PSIyNTQuNDYwOSIgZmlsbD0ibm9uZSIgcng9IjMiIHJ5PSIzIiBzdHlsZT0ic3Ryb2tlOiMwMzgwNDg7c3Ryb2tlLXdpZHRoOjEuMDsiLz48dGV4dCBmaWxsPSIjMDAwMDAwIiBmb250LWZhbWlseT0ic2Fucy1zZXJpZiIgZm9udC1zaXplPSIxNCIgbGVuZ3RoQWRqdXN0PSJzcGFjaW5nIiB0ZXh0TGVuZ3RoPSIxNjEiIHg9IjMwMTEiIHk9IjI1OC43MDMxIj5TS1U6IFN0YW5kYXJkX01pY3Jvc29mdDwvdGV4dD48bGluZSBzdHlsZT0ic3Ryb2tlOiMxODE4MTg7c3Ryb2tlLXdpZHRoOjAuNTsiIHgxPSIyOTkyIiB4Mj0iMzI5NCIgeTE9IjI2NC40NTMxIiB5Mj0iMjY0LjQ1MzEiLz48L2c+PCEtLWNsYXNzIGZsdXR0ZXJfYXBwLS0+PGcgaWQ9ImVsZW1fZmx1dHRlcl9hcHAiPjxyZWN0IGNvZGVMaW5lPSIyNCIgZmlsbD0iI0YxRjFGMSIgaGVpZ2h0PSI5Mi45NTMxIiBpZD0iZmx1dHRlcl9hcHAiIHJ4PSIyLjUiIHJ5PSIyLjUiIHN0eWxlPSJzdHJva2U6IzE4MTgxODtzdHJva2Utd2lkdGg6MC41OyIgd2lkdGg9IjQ3MSIgeD0iMjQ2NC41IiB5PSIxODYuOTg0NCIvPjxlbGxpcHNlIGN4PSIyNjU3LjI1IiBjeT0iMjAyLjk4NDQiIGZpbGw9IiNBREQxQjIiIHJ4PSIxMSIgcnk9IjExIiBzdHlsZT0ic3Ryb2tlOiMxODE4MTg7c3Ryb2tlLXdpZHRoOjEuMDsiLz48cGF0aCBkPSJNMjY2MC44NzUsMjA4Ljk4NDQgTDI2NjAuODc1LDIwNy4yMzQ0IEwyNjU1LjU2MjUsMjA3LjIzNDQgUTI2NTUuNTYyNSwyMDcuMjM0NCAyNjU1LjU2MjUsMjAzLjY3MTkgTDI2NTkuODEyNSwyMDMuNjcxOSBMMjY1OS44MTI1LDIwMS45MjE5IEwyNjU1LjU2MjUsMjAxLjkyMTkgTDI2NTUuNTYyNSwxOTkuNDIxOSBMMjY2MC44NzUsMTk5LjQyMTkgTDI2NjAuODc1LDE5Ny42NzE5IEwyNjUzLjgxMjUsMTk3LjY3MTkgUTI2NTMuODEyNSwxOTcuNjcxOSAyNjUzLjgxMjUsMjA4Ljk4NDQgTDI2NjAuODc1LDIwOC45ODQ0IFogIiBmaWxsPSIjMDAwMDAwIi8+PHRleHQgZmlsbD0iIzAwMDAwMCIgZm9udC1mYW1pbHk9InNhbnMtc2VyaWYiIGZvbnQtc2l6ZT0iMTQiIGxlbmd0aEFkanVzdD0ic3BhY2luZyIgdGV4dExlbmd0aD0iNzciIHg9IjI2NzcuNzUiIHk9IjIwOC43MjY2Ij5mbHV0dGVyX2FwcDwvdGV4dD48bGluZSBzdHlsZT0ic3Ryb2tlOiMxODE4MTg7c3Ryb2tlLXdpZHRoOjAuNTsiIHgxPSIyNDY1LjUiIHgyPSIyOTM0LjUiIHkxPSIyMTguOTg0NCIgeTI9IjIxOC45ODQ0Ii8+PGVsbGlwc2UgY3g9IjI0NzUuNSIgY3k9IjIzMS45NzY2IiBmaWxsPSJub25lIiByeD0iMyIgcnk9IjMiIHN0eWxlPSJzdHJva2U6IzAzODA0ODtzdHJva2Utd2lkdGg6MS4wOyIvPjx0ZXh0IGZpbGw9IiMwMDAwMDAiIGZvbnQtZmFtaWx5PSJzYW5zLXNlcmlmIiBmb250LXNpemU9IjE0IiBsZW5ndGhBZGp1c3Q9InNwYWNpbmciIHRleHRMZW5ndGg9IjI4NSIgeD0iMjQ4NC41IiB5PSIyMzYuMjE4OCI+TmFtZTogJHt2YXIuYXBwX2J1Y2tldF9uYW1lfS1jZG5lbmRwb2ludDwvdGV4dD48ZWxsaXBzZSBjeD0iMjQ3NS41IiBjeT0iMjQ2Ljk2MDkiIGZpbGw9Im5vbmUiIHJ4PSIzIiByeT0iMyIgc3R5bGU9InN0cm9rZTojMDM4MDQ4O3N0cm9rZS13aWR0aDoxLjA7Ii8+PHRleHQgZmlsbD0iIzAwMDAwMCIgZm9udC1mYW1pbHk9InNhbnMtc2VyaWYiIGZvbnQtc2l6ZT0iMTQiIGxlbmd0aEFkanVzdD0ic3BhY2luZyIgdGV4dExlbmd0aD0iMTgyIiB4PSIyNDg0LjUiIHk9IjI1MS4yMDMxIj5PcmlnaW46IGZsdXR0ZXItYXBwLW9yaWdpbjwvdGV4dD48ZWxsaXBzZSBjeD0iMjQ3NS41IiBjeT0iMjYxLjk0NTMiIGZpbGw9Im5vbmUiIHJ4PSIzIiByeT0iMyIgc3R5bGU9InN0cm9rZTojMDM4MDQ4O3N0cm9rZS13aWR0aDoxLjA7Ii8+PHRleHQgZmlsbD0iIzAwMDAwMCIgZm9udC1mYW1pbHk9InNhbnMtc2VyaWYiIGZvbnQtc2l6ZT0iMTQiIGxlbmd0aEFkanVzdD0ic3BhY2luZyIgdGV4dExlbmd0aD0iNDQ1IiB4PSIyNDg0LjUiIHk9IjI2Ni4xODc1Ij5Ib3N0IE5hbWU6IGF6dXJlcm1fc3RvcmFnZV9hY2NvdW50LmZsdXR0ZXJfYXBwLnByaW1hcnlfd2ViX2hvc3Q8L3RleHQ+PGxpbmUgc3R5bGU9InN0cm9rZTojMTgxODE4O3N0cm9rZS13aWR0aDowLjU7IiB4MT0iMjQ2NS41IiB4Mj0iMjkzNC41IiB5MT0iMjcxLjkzNzUiIHkyPSIyNzEuOTM3NSIvPjwvZz48IS0tY2xhc3MgcmVhY3RfYXBwLS0+PGcgaWQ9ImVsZW1fcmVhY3RfYXBwIj48cmVjdCBjb2RlTGluZT0iMzMiIGZpbGw9IiNGMUYxRjEiIGhlaWdodD0iMTIyLjkyMTkiIGlkPSJyZWFjdF9hcHAiIHJ4PSIyLjUiIHJ5PSIyLjUiIHN0eWxlPSJzdHJva2U6IzE4MTgxODtzdHJva2Utd2lkdGg6MC41OyIgd2lkdGg9IjIwOSIgeD0iMjE1MS41IiB5PSIxNzEuOTg0NCIvPjxlbGxpcHNlIGN4PSIyMjIwLjI1IiBjeT0iMTg3Ljk4NDQiIGZpbGw9IiNBREQxQjIiIHJ4PSIxMSIgcnk9IjExIiBzdHlsZT0ic3Ryb2tlOiMxODE4MTg7c3Ryb2tlLXdpZHRoOjEuMDsiLz48cGF0aCBkPSJNMjIyMy44NzUsMTkzLjk4NDQgTDIyMjMuODc1LDE5Mi4yMzQ0IEwyMjE4LjU2MjUsMTkyLjIzNDQgUTIyMTguNTYyNSwxOTIuMjM0NCAyMjE4LjU2MjUsMTg4LjY3MTkgTDIyMjIuODEyNSwxODguNjcxOSBMMjIyMi44MTI1LDE4Ni45MjE5IEwyMjE4LjU2MjUsMTg2LjkyMTkgTDIyMTguNTYyNSwxODQuNDIxOSBMMjIyMy44NzUsMTg0LjQyMTkgTDIyMjMuODc1LDE4Mi42NzE5IEwyMjE2LjgxMjUsMTgyLjY3MTkgUTIyMTYuODEyNSwxODIuNjcxOSAyMjE2LjgxMjUsMTkzLjk4NDQgTDIyMjMuODc1LDE5My45ODQ0IFogIiBmaWxsPSIjMDAwMDAwIi8+PHRleHQgZmlsbD0iIzAwMDAwMCIgZm9udC1mYW1pbHk9InNhbnMtc2VyaWYiIGZvbnQtc2l6ZT0iMTQiIGxlbmd0aEFkanVzdD0ic3BhY2luZyIgdGV4dExlbmd0aD0iNjMiIHg9IjIyNDAuNzUiIHk9IjE5My43MjY2Ij5yZWFjdF9hcHA8L3RleHQ+PGxpbmUgc3R5bGU9InN0cm9rZTojMTgxODE4O3N0cm9rZS13aWR0aDowLjU7IiB4MT0iMjE1Mi41IiB4Mj0iMjM1OS41IiB5MT0iMjAzLjk4NDQiIHkyPSIyMDMuOTg0NCIvPjxlbGxpcHNlIGN4PSIyMTYyLjUiIGN5PSIyMTYuOTc2NiIgZmlsbD0ibm9uZSIgcng9IjMiIHJ5PSIzIiBzdHlsZT0ic3Ryb2tlOiMwMzgwNDg7c3Ryb2tlLXdpZHRoOjEuMDsiLz48dGV4dCBmaWxsPSIjMDAwMDAwIiBmb250LWZhbWlseT0ic2Fucy1zZXJpZiIgZm9udC1zaXplPSIxNCIgbGVuZ3RoQWRqdXN0PSJzcGFjaW5nIiB0ZXh0TGVuZ3RoPSIxNzciIHg9IjIxNzEuNSIgeT0iMjIxLjIxODgiPk5hbWU6IHZhci5hcHBfYnVja2V0X25hbWU8L3RleHQ+PGVsbGlwc2UgY3g9IjIxNjIuNSIgY3k9IjIzMS45NjA5IiBmaWxsPSJub25lIiByeD0iMyIgcnk9IjMiIHN0eWxlPSJzdHJva2U6IzAzODA0ODtzdHJva2Utd2lkdGg6MS4wOyIvPjx0ZXh0IGZpbGw9IiMwMDAwMDAiIGZvbnQtZmFtaWx5PSJzYW5zLXNlcmlmIiBmb250LXNpemU9IjE0IiBsZW5ndGhBZGp1c3Q9InNwYWNpbmciIHRleHRMZW5ndGg9IjE1NCIgeD0iMjE3MS41IiB5PSIyMzYuMjAzMSI+QWNjb3VudCBUaWVyOiBTdGFuZGFyZDwvdGV4dD48ZWxsaXBzZSBjeD0iMjE2Mi41IiBjeT0iMjQ2Ljk0NTMiIGZpbGw9Im5vbmUiIHJ4PSIzIiByeT0iMyIgc3R5bGU9InN0cm9rZTojMDM4MDQ4O3N0cm9rZS13aWR0aDoxLjA7Ii8+PHRleHQgZmlsbD0iIzAwMDAwMCIgZm9udC1mYW1pbHk9InNhbnMtc2VyaWYiIGZvbnQtc2l6ZT0iMTQiIGxlbmd0aEFkanVzdD0ic3BhY2luZyIgdGV4dExlbmd0aD0iMTEyIiB4PSIyMTcxLjUiIHk9IjI1MS4xODc1Ij5SZXBsaWNhdGlvbjogTFJTPC90ZXh0PjxlbGxpcHNlIGN4PSIyMTYyLjUiIGN5PSIyNjEuOTI5NyIgZmlsbD0ibm9uZSIgcng9IjMiIHJ5PSIzIiBzdHlsZT0ic3Ryb2tlOiMwMzgwNDg7c3Ryb2tlLXdpZHRoOjEuMDsiLz48dGV4dCBmaWxsPSIjMDAwMDAwIiBmb250LWZhbWlseT0ic2Fucy1zZXJpZiIgZm9udC1zaXplPSIxNCIgbGVuZ3RoQWRqdXN0PSJzcGFjaW5nIiB0ZXh0TGVuZ3RoPSIxMTIiIHg9IjIxNzEuNSIgeT0iMjY2LjE3MTkiPkhUVFBTIE9ubHk6IHRydWU8L3RleHQ+PGVsbGlwc2UgY3g9IjIxNjIuNSIgY3k9IjI3Ni45MTQxIiBmaWxsPSJub25lIiByeD0iMyIgcnk9IjMiIHN0eWxlPSJzdHJva2U6IzAzODA0ODtzdHJva2Utd2lkdGg6MS4wOyIvPjx0ZXh0IGZpbGw9IiMwMDAwMDAiIGZvbnQtZmFtaWx5PSJzYW5zLXNlcmlmIiBmb250LXNpemU9IjE0IiBsZW5ndGhBZGp1c3Q9InNwYWNpbmciIHRleHRMZW5ndGg9IjE4MyIgeD0iMjE3MS41IiB5PSIyODEuMTU2MyI+U3RhdGljIFdlYnNpdGU6IGluZGV4Lmh0bWw8L3RleHQ+PGxpbmUgc3R5bGU9InN0cm9rZTojMTgxODE4O3N0cm9rZS13aWR0aDowLjU7IiB4MT0iMjE1Mi41IiB4Mj0iMjM1OS41IiB5MT0iMjg2LjkwNjMiIHkyPSIyODYuOTA2MyIvPjwvZz48IS0tY2xhc3MgcmVhY3RfYXBwLS0+PGcgaWQ9ImVsZW1fcmVhY3RfYXBwIj48cmVjdCBjb2RlTGluZT0iNDEiIGZpbGw9IiNGMUYxRjEiIGhlaWdodD0iNzcuOTY4OCIgaWQ9InJlYWN0X2FwcCIgcng9IjIuNSIgcnk9IjIuNSIgc3R5bGU9InN0cm9rZTojMTgxODE4O3N0cm9rZS13aWR0aDowLjU7IiB3aWR0aD0iMzA0IiB4PSIxNzkxIiB5PSIxOTQuNDg0NCIvPjxlbGxpcHNlIGN4PSIxOTA3LjI1IiBjeT0iMjEwLjQ4NDQiIGZpbGw9IiNBREQxQjIiIHJ4PSIxMSIgcnk9IjExIiBzdHlsZT0ic3Ryb2tlOiMxODE4MTg7c3Ryb2tlLXdpZHRoOjEuMDsiLz48cGF0aCBkPSJNMTkxMC44NzUsMjE2LjQ4NDQgTDE5MTAuODc1LDIxNC43MzQ0IEwxOTA1LjU2MjUsMjE0LjczNDQgUTE5MDUuNTYyNSwyMTQuNzM0NCAxOTA1LjU2MjUsMjExLjE3MTkgTDE5MDkuODEyNSwyMTEuMTcxOSBMMTkwOS44MTI1LDIwOS40MjE5IEwxOTA1LjU2MjUsMjA5LjQyMTkgTDE5MDUuNTYyNSwyMDYuOTIxOSBMMTkxMC44NzUsMjA2LjkyMTkgTDE5MTAuODc1LDIwNS4xNzE5IEwxOTAzLjgxMjUsMjA1LjE3MTkgUTE5MDMuODEyNSwyMDUuMTcxOSAxOTAzLjgxMjUsMjE2LjQ4NDQgTDE5MTAuODc1LDIxNi40ODQ0IFogIiBmaWxsPSIjMDAwMDAwIi8+PHRleHQgZmlsbD0iIzAwMDAwMCIgZm9udC1mYW1pbHk9InNhbnMtc2VyaWYiIGZvbnQtc2l6ZT0iMTQiIGxlbmd0aEFkanVzdD0ic3BhY2luZyIgdGV4dExlbmd0aD0iNjMiIHg9IjE5MjcuNzUiIHk9IjIxNi4yMjY2Ij5yZWFjdF9hcHA8L3RleHQ+PGxpbmUgc3R5bGU9InN0cm9rZTojMTgxODE4O3N0cm9rZS13aWR0aDowLjU7IiB4MT0iMTc5MiIgeDI9IjIwOTQiIHkxPSIyMjYuNDg0NCIgeTI9IjIyNi40ODQ0Ii8+PGVsbGlwc2UgY3g9IjE4MDIiIGN5PSIyMzkuNDc2NiIgZmlsbD0ibm9uZSIgcng9IjMiIHJ5PSIzIiBzdHlsZT0ic3Ryb2tlOiMwMzgwNDg7c3Ryb2tlLXdpZHRoOjEuMDsiLz48dGV4dCBmaWxsPSIjMDAwMDAwIiBmb250LWZhbWlseT0ic2Fucy1zZXJpZiIgZm9udC1zaXplPSIxNCIgbGVuZ3RoQWRqdXN0PSJzcGFjaW5nIiB0ZXh0TGVuZ3RoPSIyNzgiIHg9IjE4MTEiIHk9IjI0My43MTg4Ij5OYW1lOiAke3Zhci5hcHBfYnVja2V0X25hbWV9LWNkbnByb2ZpbGU8L3RleHQ+PGVsbGlwc2UgY3g9IjE4MDIiIGN5PSIyNTQuNDYwOSIgZmlsbD0ibm9uZSIgcng9IjMiIHJ5PSIzIiBzdHlsZT0ic3Ryb2tlOiMwMzgwNDg7c3Ryb2tlLXdpZHRoOjEuMDsiLz48dGV4dCBmaWxsPSIjMDAwMDAwIiBmb250LWZhbWlseT0ic2Fucy1zZXJpZiIgZm9udC1zaXplPSIxNCIgbGVuZ3RoQWRqdXN0PSJzcGFjaW5nIiB0ZXh0TGVuZ3RoPSIxNjEiIHg9IjE4MTEiIHk9IjI1OC43MDMxIj5TS1U6IFN0YW5kYXJkX01pY3Jvc29mdDwvdGV4dD48bGluZSBzdHlsZT0ic3Ryb2tlOiMxODE4MTg7c3Ryb2tlLXdpZHRoOjAuNTsiIHgxPSIxNzkyIiB4Mj0iMjA5NCIgeTE9IjI2NC40NTMxIiB5Mj0iMjY0LjQ1MzEiLz48L2c+PCEtLWNsYXNzIHJlYWN0X2FwcC0tPjxnIGlkPSJlbGVtX3JlYWN0X2FwcCI+PHJlY3QgY29kZUxpbmU9IjQ2IiBmaWxsPSIjRjFGMUYxIiBoZWlnaHQ9IjkyLjk1MzEiIGlkPSJyZWFjdF9hcHAiIHJ4PSIyLjUiIHJ5PSIyLjUiIHN0eWxlPSJzdHJva2U6IzE4MTgxODtzdHJva2Utd2lkdGg6MC41OyIgd2lkdGg9IjQ1NyIgeD0iMTI3OC41IiB5PSIxODYuOTg0NCIvPjxlbGxpcHNlIGN4PSIxNDcxLjI1IiBjeT0iMjAyLjk4NDQiIGZpbGw9IiNBREQxQjIiIHJ4PSIxMSIgcnk9IjExIiBzdHlsZT0ic3Ryb2tlOiMxODE4MTg7c3Ryb2tlLXdpZHRoOjEuMDsiLz48cGF0aCBkPSJNMTQ3NC44NzUsMjA4Ljk4NDQgTDE0NzQuODc1LDIwNy4yMzQ0IEwxNDY5LjU2MjUsMjA3LjIzNDQgUTE0NjkuNTYyNSwyMDcuMjM0NCAxNDY5LjU2MjUsMjAzLjY3MTkgTDE0NzMuODEyNSwyMDMuNjcxOSBMMTQ3My44MTI1LDIwMS45MjE5IEwxNDY5LjU2MjUsMjAxLjkyMTkgTDE0NjkuNTYyNSwxOTkuNDIxOSBMMTQ3NC44NzUsMTk5LjQyMTkgTDE0NzQuODc1LDE5Ny42NzE5IEwxNDY3LjgxMjUsMTk3LjY3MTkgUTE0NjcuODEyNSwxOTcuNjcxOSAxNDY3LjgxMjUsMjA4Ljk4NDQgTDE0NzQuODc1LDIwOC45ODQ0IFogIiBmaWxsPSIjMDAwMDAwIi8+PHRleHQgZmlsbD0iIzAwMDAwMCIgZm9udC1mYW1pbHk9InNhbnMtc2VyaWYiIGZvbnQtc2l6ZT0iMTQiIGxlbmd0aEFkanVzdD0ic3BhY2luZyIgdGV4dExlbmd0aD0iNjMiIHg9IjE0OTEuNzUiIHk9IjIwOC43MjY2Ij5yZWFjdF9hcHA8L3RleHQ+PGxpbmUgc3R5bGU9InN0cm9rZTojMTgxODE4O3N0cm9rZS13aWR0aDowLjU7IiB4MT0iMTI3OS41IiB4Mj0iMTczNC41IiB5MT0iMjE4Ljk4NDQiIHkyPSIyMTguOTg0NCIvPjxlbGxpcHNlIGN4PSIxMjg5LjUiIGN5PSIyMzEuOTc2NiIgZmlsbD0ibm9uZSIgcng9IjMiIHJ5PSIzIiBzdHlsZT0ic3Ryb2tlOiMwMzgwNDg7c3Ryb2tlLXdpZHRoOjEuMDsiLz48dGV4dCBmaWxsPSIjMDAwMDAwIiBmb250LWZhbWlseT0ic2Fucy1zZXJpZiIgZm9udC1zaXplPSIxNCIgbGVuZ3RoQWRqdXN0PSJzcGFjaW5nIiB0ZXh0TGVuZ3RoPSIyODUiIHg9IjEyOTguNSIgeT0iMjM2LjIxODgiPk5hbWU6ICR7dmFyLmFwcF9idWNrZXRfbmFtZX0tY2RuZW5kcG9pbnQ8L3RleHQ+PGVsbGlwc2UgY3g9IjEyODkuNSIgY3k9IjI0Ni45NjA5IiBmaWxsPSJub25lIiByeD0iMyIgcnk9IjMiIHN0eWxlPSJzdHJva2U6IzAzODA0ODtzdHJva2Utd2lkdGg6MS4wOyIvPjx0ZXh0IGZpbGw9IiMwMDAwMDAiIGZvbnQtZmFtaWx5PSJzYW5zLXNlcmlmIiBmb250LXNpemU9IjE0IiBsZW5ndGhBZGp1c3Q9InNwYWNpbmciIHRleHRMZW5ndGg9IjE2OCIgeD0iMTI5OC41IiB5PSIyNTEuMjAzMSI+T3JpZ2luOiByZWFjdC1hcHAtb3JpZ2luPC90ZXh0PjxlbGxpcHNlIGN4PSIxMjg5LjUiIGN5PSIyNjEuOTQ1MyIgZmlsbD0ibm9uZSIgcng9IjMiIHJ5PSIzIiBzdHlsZT0ic3Ryb2tlOiMwMzgwNDg7c3Ryb2tlLXdpZHRoOjEuMDsiLz48dGV4dCBmaWxsPSIjMDAwMDAwIiBmb250LWZhbWlseT0ic2Fucy1zZXJpZiIgZm9udC1zaXplPSIxNCIgbGVuZ3RoQWRqdXN0PSJzcGFjaW5nIiB0ZXh0TGVuZ3RoPSI0MzEiIHg9IjEyOTguNSIgeT0iMjY2LjE4NzUiPkhvc3QgTmFtZTogYXp1cmVybV9zdG9yYWdlX2FjY291bnQucmVhY3RfYXBwLnByaW1hcnlfd2ViX2hvc3Q8L3RleHQ+PGxpbmUgc3R5bGU9InN0cm9rZTojMTgxODE4O3N0cm9rZS13aWR0aDowLjU7IiB4MT0iMTI3OS41IiB4Mj0iMTczNC41IiB5MT0iMjcxLjkzNzUiIHkyPSIyNzEuOTM3NSIvPjwvZz48IS0tY2xhc3MgYmFja2VuZC0tPjxnIGlkPSJlbGVtX2JhY2tlbmQiPjxyZWN0IGNvZGVMaW5lPSI1NSIgZmlsbD0iI0YxRjFGMSIgaGVpZ2h0PSI5Mi45NTMxIiBpZD0iYmFja2VuZCIgcng9IjIuNSIgcnk9IjIuNSIgc3R5bGU9InN0cm9rZTojMTgxODE4O3N0cm9rZS13aWR0aDowLjU7IiB3aWR0aD0iMTYwIiB4PSIxMDExIiB5PSIxODYuOTg0NCIvPjxlbGxpcHNlIGN4PSIxMDYyLjI1IiBjeT0iMjAyLjk4NDQiIGZpbGw9IiNBREQxQjIiIHJ4PSIxMSIgcnk9IjExIiBzdHlsZT0ic3Ryb2tlOiMxODE4MTg7c3Ryb2tlLXdpZHRoOjEuMDsiLz48cGF0aCBkPSJNMTA2NS44NzUsMjA4Ljk4NDQgTDEwNjUuODc1LDIwNy4yMzQ0IEwxMDYwLjU2MjUsMjA3LjIzNDQgUTEwNjAuNTYyNSwyMDcuMjM0NCAxMDYwLjU2MjUsMjAzLjY3MTkgTDEwNjQuODEyNSwyMDMuNjcxOSBMMTA2NC44MTI1LDIwMS45MjE5IEwxMDYwLjU2MjUsMjAxLjkyMTkgTDEwNjAuNTYyNSwxOTkuNDIxOSBMMTA2NS44NzUsMTk5LjQyMTkgTDEwNjUuODc1LDE5Ny42NzE5IEwxMDU4LjgxMjUsMTk3LjY3MTkgUTEwNTguODEyNSwxOTcuNjcxOSAxMDU4LjgxMjUsMjA4Ljk4NDQgTDEwNjUuODc1LDIwOC45ODQ0IFogIiBmaWxsPSIjMDAwMDAwIi8+PHRleHQgZmlsbD0iIzAwMDAwMCIgZm9udC1mYW1pbHk9InNhbnMtc2VyaWYiIGZvbnQtc2l6ZT0iMTQiIGxlbmd0aEFkanVzdD0ic3BhY2luZyIgdGV4dExlbmd0aD0iNDkiIHg9IjEwODIuNzUiIHk9IjIwOC43MjY2Ij5iYWNrZW5kPC90ZXh0PjxsaW5lIHN0eWxlPSJzdHJva2U6IzE4MTgxODtzdHJva2Utd2lkdGg6MC41OyIgeDE9IjEwMTIiIHgyPSIxMTcwIiB5MT0iMjE4Ljk4NDQiIHkyPSIyMTguOTg0NCIvPjxlbGxpcHNlIGN4PSIxMDIyIiBjeT0iMjMxLjk3NjYiIGZpbGw9Im5vbmUiIHJ4PSIzIiByeT0iMyIgc3R5bGU9InN0cm9rZTojMDM4MDQ4O3N0cm9rZS13aWR0aDoxLjA7Ii8+PHRleHQgZmlsbD0iIzAwMDAwMCIgZm9udC1mYW1pbHk9InNhbnMtc2VyaWYiIGZvbnQtc2l6ZT0iMTQiIGxlbmd0aEFkanVzdD0ic3BhY2luZyIgdGV4dExlbmd0aD0iMTI4IiB4PSIxMDMxIiB5PSIyMzYuMjE4OCI+TmFtZTogdmFyLmFjcl9uYW1lPC90ZXh0PjxlbGxpcHNlIGN4PSIxMDIyIiBjeT0iMjQ2Ljk2MDkiIGZpbGw9Im5vbmUiIHJ4PSIzIiByeT0iMyIgc3R5bGU9InN0cm9rZTojMDM4MDQ4O3N0cm9rZS13aWR0aDoxLjA7Ii8+PHRleHQgZmlsbD0iIzAwMDAwMCIgZm9udC1mYW1pbHk9InNhbnMtc2VyaWYiIGZvbnQtc2l6ZT0iMTQiIGxlbmd0aEFkanVzdD0ic3BhY2luZyIgdGV4dExlbmd0aD0iOTEiIHg9IjEwMzEiIHk9IjI1MS4yMDMxIj5TS1U6IFN0YW5kYXJkPC90ZXh0PjxlbGxpcHNlIGN4PSIxMDIyIiBjeT0iMjYxLjk0NTMiIGZpbGw9Im5vbmUiIHJ4PSIzIiByeT0iMyIgc3R5bGU9InN0cm9rZTojMDM4MDQ4O3N0cm9rZS13aWR0aDoxLjA7Ii8+PHRleHQgZmlsbD0iIzAwMDAwMCIgZm9udC1mYW1pbHk9InNhbnMtc2VyaWYiIGZvbnQtc2l6ZT0iMTQiIGxlbmd0aEFkanVzdD0ic3BhY2luZyIgdGV4dExlbmd0aD0iMTM0IiB4PSIxMDMxIiB5PSIyNjYuMTg3NSI+QWRtaW4gRW5hYmxlZDogdHJ1ZTwvdGV4dD48bGluZSBzdHlsZT0ic3Ryb2tlOiMxODE4MTg7c3Ryb2tlLXdpZHRoOjAuNTsiIHgxPSIxMDEyIiB4Mj0iMTE3MCIgeTE9IjI3MS45Mzc1IiB5Mj0iMjcxLjkzNzUiLz48L2c+PCEtLWNsYXNzIGJhY2tlbmQtLT48ZyBpZD0iZWxlbV9iYWNrZW5kIj48cmVjdCBjb2RlTGluZT0iNjEiIGZpbGw9IiNGMUYxRjEiIGhlaWdodD0iMTUyLjg5MDYiIGlkPSJiYWNrZW5kIiByeD0iMi41IiByeT0iMi41IiBzdHlsZT0ic3Ryb2tlOiMxODE4MTg7c3Ryb2tlLXdpZHRoOjAuNTsiIHdpZHRoPSIyNTEiIHg9IjcwMC41IiB5PSIxNTYuOTg0NCIvPjxlbGxpcHNlIGN4PSI3OTcuMjUiIGN5PSIxNzIuOTg0NCIgZmlsbD0iI0FERDFCMiIgcng9IjExIiByeT0iMTEiIHN0eWxlPSJzdHJva2U6IzE4MTgxODtzdHJva2Utd2lkdGg6MS4wOyIvPjxwYXRoIGQ9Ik04MDAuODc1LDE3OC45ODQ0IEw4MDAuODc1LDE3Ny4yMzQ0IEw3OTUuNTYyNSwxNzcuMjM0NCBRNzk1LjU2MjUsMTc3LjIzNDQgNzk1LjU2MjUsMTczLjY3MTkgTDc5OS44MTI1LDE3My42NzE5IEw3OTkuODEyNSwxNzEuOTIxOSBMNzk1LjU2MjUsMTcxLjkyMTkgTDc5NS41NjI1LDE2OS40MjE5IEw4MDAuODc1LDE2OS40MjE5IEw4MDAuODc1LDE2Ny42NzE5IEw3OTMuODEyNSwxNjcuNjcxOSBRNzkzLjgxMjUsMTY3LjY3MTkgNzkzLjgxMjUsMTc4Ljk4NDQgTDgwMC44NzUsMTc4Ljk4NDQgWiAiIGZpbGw9IiMwMDAwMDAiLz48dGV4dCBmaWxsPSIjMDAwMDAwIiBmb250LWZhbWlseT0ic2Fucy1zZXJpZiIgZm9udC1zaXplPSIxNCIgbGVuZ3RoQWRqdXN0PSJzcGFjaW5nIiB0ZXh0TGVuZ3RoPSI0OSIgeD0iODE3Ljc1IiB5PSIxNzguNzI2NiI+YmFja2VuZDwvdGV4dD48bGluZSBzdHlsZT0ic3Ryb2tlOiMxODE4MTg7c3Ryb2tlLXdpZHRoOjAuNTsiIHgxPSI3MDEuNSIgeDI9Ijk1MC41IiB5MT0iMTg4Ljk4NDQiIHkyPSIxODguOTg0NCIvPjxlbGxpcHNlIGN4PSI3MTEuNSIgY3k9IjIwMS45NzY2IiBmaWxsPSJub25lIiByeD0iMyIgcnk9IjMiIHN0eWxlPSJzdHJva2U6IzAzODA0ODtzdHJva2Utd2lkdGg6MS4wOyIvPjx0ZXh0IGZpbGw9IiMwMDAwMDAiIGZvbnQtZmFtaWx5PSJzYW5zLXNlcmlmIiBmb250LXNpemU9IjE0IiBsZW5ndGhBZGp1c3Q9InNwYWNpbmciIHRleHRMZW5ndGg9IjE4NCIgeD0iNzIwLjUiIHk9IjIwNi4yMTg4Ij5OYW1lOiB2YXIuYWtzX2NsdXN0ZXJfbmFtZTwvdGV4dD48ZWxsaXBzZSBjeD0iNzExLjUiIGN5PSIyMTYuOTYwOSIgZmlsbD0ibm9uZSIgcng9IjMiIHJ5PSIzIiBzdHlsZT0ic3Ryb2tlOiMwMzgwNDg7c3Ryb2tlLXdpZHRoOjEuMDsiLz48dGV4dCBmaWxsPSIjMDAwMDAwIiBmb250LWZhbWlseT0ic2Fucy1zZXJpZiIgZm9udC1zaXplPSIxNCIgbGVuZ3RoQWRqdXN0PSJzcGFjaW5nIiB0ZXh0TGVuZ3RoPSIyMjUiIHg9IjcyMC41IiB5PSIyMjEuMjAzMSI+RE5TIFByZWZpeDogdmFyLmFrc19jbHVzdGVyX25hbWU8L3RleHQ+PGVsbGlwc2UgY3g9IjcxMS41IiBjeT0iMjMxLjk0NTMiIGZpbGw9Im5vbmUiIHJ4PSIzIiByeT0iMyIgc3R5bGU9InN0cm9rZTojMDM4MDQ4O3N0cm9rZS13aWR0aDoxLjA7Ii8+PHRleHQgZmlsbD0iIzAwMDAwMCIgZm9udC1mYW1pbHk9InNhbnMtc2VyaWYiIGZvbnQtc2l6ZT0iMTQiIGxlbmd0aEFkanVzdD0ic3BhY2luZyIgdGV4dExlbmd0aD0iMTI2IiB4PSI3MjAuNSIgeT0iMjM2LjE4NzUiPk5vZGUgUG9vbDogZGVmYXVsdDwvdGV4dD48ZWxsaXBzZSBjeD0iNzExLjUiIGN5PSIyNDYuOTI5NyIgZmlsbD0ibm9uZSIgcng9IjMiIHJ5PSIzIiBzdHlsZT0ic3Ryb2tlOiMwMzgwNDg7c3Ryb2tlLXdpZHRoOjEuMDsiLz48dGV4dCBmaWxsPSIjMDAwMDAwIiBmb250LWZhbWlseT0ic2Fucy1zZXJpZiIgZm9udC1zaXplPSIxNCIgbGVuZ3RoQWRqdXN0PSJzcGFjaW5nIiB0ZXh0TGVuZ3RoPSIxODIiIHg9IjcyMC41IiB5PSIyNTEuMTcxOSI+Tm9kZSBDb3VudDogdmFyLm5vZGVfY291bnQ8L3RleHQ+PGVsbGlwc2UgY3g9IjcxMS41IiBjeT0iMjYxLjkxNDEiIGZpbGw9Im5vbmUiIHJ4PSIzIiByeT0iMyIgc3R5bGU9InN0cm9rZTojMDM4MDQ4O3N0cm9rZS13aWR0aDoxLjA7Ii8+PHRleHQgZmlsbD0iIzAwMDAwMCIgZm9udC1mYW1pbHk9InNhbnMtc2VyaWYiIGZvbnQtc2l6ZT0iMTQiIGxlbmd0aEFkanVzdD0ic3BhY2luZyIgdGV4dExlbmd0aD0iMTY4IiB4PSI3MjAuNSIgeT0iMjY2LjE1NjMiPlZNIFNpemU6IFN0YW5kYXJkX0RTMl92MjwvdGV4dD48ZWxsaXBzZSBjeD0iNzExLjUiIGN5PSIyNzYuODk4NCIgZmlsbD0ibm9uZSIgcng9IjMiIHJ5PSIzIiBzdHlsZT0ic3Ryb2tlOiMwMzgwNDg7c3Ryb2tlLXdpZHRoOjEuMDsiLz48dGV4dCBmaWxsPSIjMDAwMDAwIiBmb250LWZhbWlseT0ic2Fucy1zZXJpZiIgZm9udC1zaXplPSIxNCIgbGVuZ3RoQWRqdXN0PSJzcGFjaW5nIiB0ZXh0TGVuZ3RoPSIxNjgiIHg9IjcyMC41IiB5PSIyODEuMTQwNiI+U3VibmV0IElEOiB2YXIuc3VibmV0X2lkPC90ZXh0PjxlbGxpcHNlIGN4PSI3MTEuNSIgY3k9IjI5MS44ODI4IiBmaWxsPSJub25lIiByeD0iMyIgcnk9IjMiIHN0eWxlPSJzdHJva2U6IzAzODA0ODtzdHJva2Utd2lkdGg6MS4wOyIvPjx0ZXh0IGZpbGw9IiMwMDAwMDAiIGZvbnQtZmFtaWx5PSJzYW5zLXNlcmlmIiBmb250LXNpemU9IjE0IiBsZW5ndGhBZGp1c3Q9InNwYWNpbmciIHRleHRMZW5ndGg9IjE2OSIgeD0iNzIwLjUiIHk9IjI5Ni4xMjUiPklkZW50aXR5OiBTeXN0ZW1Bc3NpZ25lZDwvdGV4dD48bGluZSBzdHlsZT0ic3Ryb2tlOiMxODE4MTg7c3Ryb2tlLXdpZHRoOjAuNTsiIHgxPSI3MDEuNSIgeDI9Ijk1MC41IiB5MT0iMzAxLjg3NSIgeTI9IjMwMS44NzUiLz48L2c+PCEtLWNsYXNzIGFrc19hY3ItLT48ZyBpZD0iZWxlbV9ha3NfYWNyIj48cmVjdCBjb2RlTGluZT0iNzEiIGZpbGw9IiNGMUYxRjEiIGhlaWdodD0iOTIuOTUzMSIgaWQ9ImFrc19hY3IiIHJ4PSIyLjUiIHJ5PSIyLjUiIHN0eWxlPSJzdHJva2U6IzE4MTgxODtzdHJva2Utd2lkdGg6MC41OyIgd2lkdGg9IjU3MyIgeD0iNzAuNSIgeT0iMTg2Ljk4NDQiLz48ZWxsaXBzZSBjeD0iMzI4LjI1IiBjeT0iMjAyLjk4NDQiIGZpbGw9IiNBREQxQjIiIHJ4PSIxMSIgcnk9IjExIiBzdHlsZT0ic3Ryb2tlOiMxODE4MTg7c3Ryb2tlLXdpZHRoOjEuMDsiLz48cGF0aCBkPSJNMzMxLjg3NSwyMDguOTg0NCBMMzMxLjg3NSwyMDcuMjM0NCBMMzI2LjU2MjUsMjA3LjIzNDQgUTMyNi41NjI1LDIwNy4yMzQ0IDMyNi41NjI1LDIwMy42NzE5IEwzMzAuODEyNSwyMDMuNjcxOSBMMzMwLjgxMjUsMjAxLjkyMTkgTDMyNi41NjI1LDIwMS45MjE5IEwzMjYuNTYyNSwxOTkuNDIxOSBMMzMxLjg3NSwxOTkuNDIxOSBMMzMxLjg3NSwxOTcuNjcxOSBMMzI0LjgxMjUsMTk3LjY3MTkgUTMyNC44MTI1LDE5Ny42NzE5IDMyNC44MTI1LDIwOC45ODQ0IEwzMzEuODc1LDIwOC45ODQ0IFogIiBmaWxsPSIjMDAwMDAwIi8+PHRleHQgZmlsbD0iIzAwMDAwMCIgZm9udC1mYW1pbHk9InNhbnMtc2VyaWYiIGZvbnQtc2l6ZT0iMTQiIGxlbmd0aEFkanVzdD0ic3BhY2luZyIgdGV4dExlbmd0aD0iNDkiIHg9IjM0OC43NSIgeT0iMjA4LjcyNjYiPmFrc19hY3I8L3RleHQ+PGxpbmUgc3R5bGU9InN0cm9rZTojMTgxODE4O3N0cm9rZS13aWR0aDowLjU7IiB4MT0iNzEuNSIgeDI9IjY0Mi41IiB5MT0iMjE4Ljk4NDQiIHkyPSIyMTguOTg0NCIvPjxlbGxpcHNlIGN4PSI4MS41IiBjeT0iMjMxLjk3NjYiIGZpbGw9Im5vbmUiIHJ4PSIzIiByeT0iMyIgc3R5bGU9InN0cm9rZTojMDM4MDQ4O3N0cm9rZS13aWR0aDoxLjA7Ii8+PHRleHQgZmlsbD0iIzAwMDAwMCIgZm9udC1mYW1pbHk9InNhbnMtc2VyaWYiIGZvbnQtc2l6ZT0iMTQiIGxlbmd0aEFkanVzdD0ic3BhY2luZyIgdGV4dExlbmd0aD0iOTEiIHg9IjkwLjUiIHk9IjIzNi4yMTg4Ij5Sb2xlOiBBY3JQdWxsPC90ZXh0PjxlbGxpcHNlIGN4PSI4MS41IiBjeT0iMjQ2Ljk2MDkiIGZpbGw9Im5vbmUiIHJ4PSIzIiByeT0iMyIgc3R5bGU9InN0cm9rZTojMDM4MDQ4O3N0cm9rZS13aWR0aDoxLjA7Ii8+PHRleHQgZmlsbD0iIzAwMDAwMCIgZm9udC1mYW1pbHk9InNhbnMtc2VyaWYiIGZvbnQtc2l6ZT0iMTQiIGxlbmd0aEFkanVzdD0ic3BhY2luZyIgdGV4dExlbmd0aD0iMzA5IiB4PSI5MC41IiB5PSIyNTEuMjAzMSI+U2NvcGU6IGF6dXJlcm1fY29udGFpbmVyX3JlZ2lzdHJ5LmJhY2tlbmQuaWQ8L3RleHQ+PGVsbGlwc2UgY3g9IjgxLjUiIGN5PSIyNjEuOTQ1MyIgZmlsbD0ibm9uZSIgcng9IjMiIHJ5PSIzIiBzdHlsZT0ic3Ryb2tlOiMwMzgwNDg7c3Ryb2tlLXdpZHRoOjEuMDsiLz48dGV4dCBmaWxsPSIjMDAwMDAwIiBmb250LWZhbWlseT0ic2Fucy1zZXJpZiIgZm9udC1zaXplPSIxNCIgbGVuZ3RoQWRqdXN0PSJzcGFjaW5nIiB0ZXh0TGVuZ3RoPSI1NDciIHg9IjkwLjUiIHk9IjI2Ni4xODc1Ij5QcmluY2lwYWwgSUQ6IGF6dXJlcm1fa3ViZXJuZXRlc19jbHVzdGVyLmJhY2tlbmQua3ViZWxldF9pZGVudGl0eVswXS5vYmplY3RfaWQ8L3RleHQ+PGxpbmUgc3R5bGU9InN0cm9rZTojMTgxODE4O3N0cm9rZS13aWR0aDowLjU7IiB4MT0iNzEuNSIgeDI9IjY0Mi41IiB5MT0iMjcxLjkzNzUiIHkyPSIyNzEuOTM3NSIvPjwvZz48IS0tY2xhc3MgbWFpbi0tPjxnIGlkPSJlbGVtX21haW4iPjxyZWN0IGZpbGw9IiNGMUYxRjEiIGhlaWdodD0iNDgiIGlkPSJtYWluIiByeD0iMi41IiByeT0iMi41IiBzdHlsZT0ic3Ryb2tlOiMxODE4MTg7c3Ryb2tlLXdpZHRoOjAuNTsiIHdpZHRoPSI2MSIgeD0iMzk4OS41IiB5PSIyMDkuNDg0NCIvPjxlbGxpcHNlIGN4PSI0MDA0LjUiIGN5PSIyMjUuNDg0NCIgZmlsbD0iI0FERDFCMiIgcng9IjExIiByeT0iMTEiIHN0eWxlPSJzdHJva2U6IzE4MTgxODtzdHJva2Utd2lkdGg6MS4wOyIvPjxwYXRoIGQ9Ik00MDAyLjEyNSwyMjkuNzM0NCBMNDAwMi4xMjUsMjMxLjQ4NDQgTDQwMDcuMDYyNSwyMzEuNDg0NCBMNDAwNy4wNjI1LDIyOS43MzQ0IEw0MDAyLjEyNSwyMjkuNzM0NCBaIE00MDAyLjgxMjUsMjMwLjQyMTkgUTQwMDIuODEyNSwyMzAuNDIxOSA0MDAyLjgxMjUsMjIxLjIzNDQgTDQwMDEuMDYyNSwyMjEuMjM0NCBRNDAwMS4wNjI1LDIyMS4yMzQ0IDQwMDEuMDYyNSwyMzAuNDIxOSBMNDAwMi44MTI1LDIzMC40MjE5IFogTTQwMDYuMzc1LDIzMC40MjE5IEw0MDA4LjEyNSwyMzAuNDIxOSBRNDAwOC4xMjUsMjMwLjQyMTkgNDAwOC4xMjUsMjI3LjYwOTQgTDQwMDYuMzc1LDIyNy42MDk0IFE0MDA2LjM3NSwyMjcuNjA5NCA0MDA2LjM3NSwyMzAuNDIxOSBaIE00MDA2LjM3NSwyMjEuMjM0NCBRNDAwNi4zNzUsMjIxLjIzNDQgNDAwNi4zNzUsMjI0LjA0NjkgTDQwMDguMTI1LDIyNC4wNDY5IFE0MDA4LjEyNSwyMjQuMDQ2OSA0MDA4LjEyNSwyMjEuMjM0NCBMNDAwNi4zNzUsMjIxLjIzNDQgWiBNNDAwMi4xMjUsMjIxLjkyMTkgTDQwMDcuMDYyNSwyMjEuOTIxOSBMNDAwNy4wNjI1LDIyMC4xNzE5IEw0MDAyLjEyNSwyMjAuMTcxOSBMNDAwMi4xMjUsMjIxLjkyMTkgWiAiIGZpbGw9IiMwMDAwMDAiLz48dGV4dCBmaWxsPSIjMDAwMDAwIiBmb250LWZhbWlseT0ic2Fucy1zZXJpZiIgZm9udC1zaXplPSIxNCIgbGVuZ3RoQWRqdXN0PSJzcGFjaW5nIiB0ZXh0TGVuZ3RoPSIyOSIgeD0iNDAxOC41IiB5PSIyMzEuMjI2NiI+bWFpbjwvdGV4dD48bGluZSBzdHlsZT0ic3Ryb2tlOiMxODE4MTg7c3Ryb2tlLXdpZHRoOjAuNTsiIHgxPSIzOTkwLjUiIHgyPSI0MDQ5LjUiIHkxPSIyNDEuNDg0NCIgeTI9IjI0MS40ODQ0Ii8+PGxpbmUgc3R5bGU9InN0cm9rZTojMTgxODE4O3N0cm9rZS13aWR0aDowLjU7IiB4MT0iMzk5MC41IiB4Mj0iNDA0OS41IiB5MT0iMjQ5LjQ4NDQiIHkyPSIyNDkuNDg0NCIvPjwvZz48IS0tY2xhc3MgZmx1dHRlcl9hcHAtLT48ZyBpZD0iZWxlbV9mbHV0dGVyX2FwcCI+PHJlY3QgZmlsbD0iI0YxRjFGMSIgaGVpZ2h0PSI0OCIgaWQ9ImZsdXR0ZXJfYXBwIiByeD0iMi41IiByeT0iMi41IiBzdHlsZT0ic3Ryb2tlOiMxODE4MTg7c3Ryb2tlLXdpZHRoOjAuNTsiIHdpZHRoPSIxMDkiIHg9IjM2MDcuNSIgeT0iNDUzLjk4NDQiLz48ZWxsaXBzZSBjeD0iMzYyMi41IiBjeT0iNDY5Ljk4NDQiIGZpbGw9IiNBREQxQjIiIHJ4PSIxMSIgcnk9IjExIiBzdHlsZT0ic3Ryb2tlOiMxODE4MTg7c3Ryb2tlLXdpZHRoOjEuMDsiLz48cGF0aCBkPSJNMzYyMC4xMjUsNDc0LjIzNDQgTDM2MjAuMTI1LDQ3NS45ODQ0IEwzNjI1LjA2MjUsNDc1Ljk4NDQgTDM2MjUuMDYyNSw0NzQuMjM0NCBMMzYyMC4xMjUsNDc0LjIzNDQgWiBNMzYyMC44MTI1LDQ3NC45MjE5IFEzNjIwLjgxMjUsNDc0LjkyMTkgMzYyMC44MTI1LDQ2NS43MzQ0IEwzNjE5LjA2MjUsNDY1LjczNDQgUTM2MTkuMDYyNSw0NjUuNzM0NCAzNjE5LjA2MjUsNDc0LjkyMTkgTDM2MjAuODEyNSw0NzQuOTIxOSBaIE0zNjI0LjM3NSw0NzQuOTIxOSBMMzYyNi4xMjUsNDc0LjkyMTkgUTM2MjYuMTI1LDQ3NC45MjE5IDM2MjYuMTI1LDQ3Mi4xMDk0IEwzNjI0LjM3NSw0NzIuMTA5NCBRMzYyNC4zNzUsNDcyLjEwOTQgMzYyNC4zNzUsNDc0LjkyMTkgWiBNMzYyNC4zNzUsNDY1LjczNDQgUTM2MjQuMzc1LDQ2NS43MzQ0IDM2MjQuMzc1LDQ2OC41NDY5IEwzNjI2LjEyNSw0NjguNTQ2OSBRMzYyNi4xMjUsNDY4LjU0NjkgMzYyNi4xMjUsNDY1LjczNDQgTDM2MjQuMzc1LDQ2NS43MzQ0IFogTTM2MjAuMTI1LDQ2Ni40MjE5IEwzNjI1LjA2MjUsNDY2LjQyMTkgTDM2MjUuMDYyNSw0NjQuNjcxOSBMMzYyMC4xMjUsNDY0LjY3MTkgTDM2MjAuMTI1LDQ2Ni40MjE5IFogIiBmaWxsPSIjMDAwMDAwIi8+PHRleHQgZmlsbD0iIzAwMDAwMCIgZm9udC1mYW1pbHk9InNhbnMtc2VyaWYiIGZvbnQtc2l6ZT0iMTQiIGxlbmd0aEFkanVzdD0ic3BhY2luZyIgdGV4dExlbmd0aD0iNzciIHg9IjM2MzYuNSIgeT0iNDc1LjcyNjYiPmZsdXR0ZXJfYXBwPC90ZXh0PjxsaW5lIHN0eWxlPSJzdHJva2U6IzE4MTgxODtzdHJva2Utd2lkdGg6MC41OyIgeDE9IjM2MDguNSIgeDI9IjM3MTUuNSIgeTE9IjQ4NS45ODQ0IiB5Mj0iNDg1Ljk4NDQiLz48bGluZSBzdHlsZT0ic3Ryb2tlOiMxODE4MTg7c3Ryb2tlLXdpZHRoOjAuNTsiIHgxPSIzNjA4LjUiIHgyPSIzNzE1LjUiIHkxPSI0OTMuOTg0NCIgeTI9IjQ5My45ODQ0Ii8+PC9nPjwhLS1jbGFzcyByZWFjdF9hcHAtLT48ZyBpZD0iZWxlbV9yZWFjdF9hcHAiPjxyZWN0IGZpbGw9IiNGMUYxRjEiIGhlaWdodD0iNDgiIGlkPSJyZWFjdF9hcHAiIHJ4PSIyLjUiIHJ5PSIyLjUiIHN0eWxlPSJzdHJva2U6IzE4MTgxODtzdHJva2Utd2lkdGg6MC41OyIgd2lkdGg9Ijk1IiB4PSIzNzUxLjUiIHk9IjQ1My45ODQ0Ii8+PGVsbGlwc2UgY3g9IjM3NjYuNSIgY3k9IjQ2OS45ODQ0IiBmaWxsPSIjQUREMUIyIiByeD0iMTEiIHJ5PSIxMSIgc3R5bGU9InN0cm9rZTojMTgxODE4O3N0cm9rZS13aWR0aDoxLjA7Ii8+PHBhdGggZD0iTTM3NjQuMTI1LDQ3NC4yMzQ0IEwzNzY0LjEyNSw0NzUuOTg0NCBMMzc2OS4wNjI1LDQ3NS45ODQ0IEwzNzY5LjA2MjUsNDc0LjIzNDQgTDM3NjQuMTI1LDQ3NC4yMzQ0IFogTTM3NjQuODEyNSw0NzQuOTIxOSBRMzc2NC44MTI1LDQ3NC45MjE5IDM3NjQuODEyNSw0NjUuNzM0NCBMMzc2My4wNjI1LDQ2NS43MzQ0IFEzNzYzLjA2MjUsNDY1LjczNDQgMzc2My4wNjI1LDQ3NC45MjE5IEwzNzY0LjgxMjUsNDc0LjkyMTkgWiBNMzc2OC4zNzUsNDc0LjkyMTkgTDM3NzAuMTI1LDQ3NC45MjE5IFEzNzcwLjEyNSw0NzQuOTIxOSAzNzcwLjEyNSw0NzIuMTA5NCBMMzc2OC4zNzUsNDcyLjEwOTQgUTM3NjguMzc1LDQ3Mi4xMDk0IDM3NjguMzc1LDQ3NC45MjE5IFogTTM3NjguMzc1LDQ2NS43MzQ0IFEzNzY4LjM3NSw0NjUuNzM0NCAzNzY4LjM3NSw0NjguNTQ2OSBMMzc3MC4xMjUsNDY4LjU0NjkgUTM3NzAuMTI1LDQ2OC41NDY5IDM3NzAuMTI1LDQ2NS43MzQ0IEwzNzY4LjM3NSw0NjUuNzM0NCBaIE0zNzY0LjEyNSw0NjYuNDIxOSBMMzc2OS4wNjI1LDQ2Ni40MjE5IEwzNzY5LjA2MjUsNDY0LjY3MTkgTDM3NjQuMTI1LDQ2NC42NzE5IEwzNzY0LjEyNSw0NjYuNDIxOSBaICIgZmlsbD0iIzAwMDAwMCIvPjx0ZXh0IGZpbGw9IiMwMDAwMDAiIGZvbnQtZmFtaWx5PSJzYW5zLXNlcmlmIiBmb250LXNpemU9IjE0IiBsZW5ndGhBZGp1c3Q9InNwYWNpbmciIHRleHRMZW5ndGg9IjYzIiB4PSIzNzgwLjUiIHk9IjQ3NS43MjY2Ij5yZWFjdF9hcHA8L3RleHQ+PGxpbmUgc3R5bGU9InN0cm9rZTojMTgxODE4O3N0cm9rZS13aWR0aDowLjU7IiB4MT0iMzc1Mi41IiB4Mj0iMzg0NS41IiB5MT0iNDg1Ljk4NDQiIHkyPSI0ODUuOTg0NCIvPjxsaW5lIHN0eWxlPSJzdHJva2U6IzE4MTgxODtzdHJva2Utd2lkdGg6MC41OyIgeDE9IjM3NTIuNSIgeDI9IjM4NDUuNSIgeTE9IjQ5My45ODQ0IiB5Mj0iNDkzLjk4NDQiLz48L2c+PCEtLWNsYXNzIGZsdXR0ZXJfYXBwLS0+PGcgaWQ9ImVsZW1fZmx1dHRlcl9hcHAiPjxyZWN0IGZpbGw9IiNGMUYxRjEiIGhlaWdodD0iNDgiIGlkPSJmbHV0dGVyX2FwcCIgcng9IjIuNSIgcnk9IjIuNSIgc3R5bGU9InN0cm9rZTojMTgxODE4O3N0cm9rZS13aWR0aDowLjU7IiB3aWR0aD0iMTA5IiB4PSIzOTAzLjUiIHk9IjQ1My45ODQ0Ii8+PGVsbGlwc2UgY3g9IjM5MTguNSIgY3k9IjQ2OS45ODQ0IiBmaWxsPSIjQUREMUIyIiByeD0iMTEiIHJ5PSIxMSIgc3R5bGU9InN0cm9rZTojMTgxODE4O3N0cm9rZS13aWR0aDoxLjA7Ii8+PHBhdGggZD0iTTM5MTYuMTI1LDQ3NC4yMzQ0IEwzOTE2LjEyNSw0NzUuOTg0NCBMMzkyMS4wNjI1LDQ3NS45ODQ0IEwzOTIxLjA2MjUsNDc0LjIzNDQgTDM5MTYuMTI1LDQ3NC4yMzQ0IFogTTM5MTYuODEyNSw0NzQuOTIxOSBRMzkxNi44MTI1LDQ3NC45MjE5IDM5MTYuODEyNSw0NjUuNzM0NCBMMzkxNS4wNjI1LDQ2NS43MzQ0IFEzOTE1LjA2MjUsNDY1LjczNDQgMzkxNS4wNjI1LDQ3NC45MjE5IEwzOTE2LjgxMjUsNDc0LjkyMTkgWiBNMzkyMC4zNzUsNDc0LjkyMTkgTDM5MjIuMTI1LDQ3NC45MjE5IFEzOTIyLjEyNSw0NzQuOTIxOSAzOTIyLjEyNSw0NzIuMTA5NCBMMzkyMC4zNzUsNDcyLjEwOTQgUTM5MjAuMzc1LDQ3Mi4xMDk0IDM5MjAuMzc1LDQ3NC45MjE5IFogTTM5MjAuMzc1LDQ2NS43MzQ0IFEzOTIwLjM3NSw0NjUuNzM0NCAzOTIwLjM3NSw0NjguNTQ2OSBMMzkyMi4xMjUsNDY4LjU0NjkgUTM5MjIuMTI1LDQ2OC41NDY5IDM5MjIuMTI1LDQ2NS43MzQ0IEwzOTIwLjM3NSw0NjUuNzM0NCBaIE0zOTE2LjEyNSw0NjYuNDIxOSBMMzkyMS4wNjI1LDQ2Ni40MjE5IEwzOTIxLjA2MjUsNDY0LjY3MTkgTDM5MTYuMTI1LDQ2NC42NzE5IEwzOTE2LjEyNSw0NjYuNDIxOSBaICIgZmlsbD0iIzAwMDAwMCIvPjx0ZXh0IGZpbGw9IiMwMDAwMDAiIGZvbnQtZmFtaWx5PSJzYW5zLXNlcmlmIiBmb250LXNpemU9IjE0IiBsZW5ndGhBZGp1c3Q9InNwYWNpbmciIHRleHRMZW5ndGg9Ijc3IiB4PSIzOTMyLjUiIHk9IjQ3NS43MjY2Ij5mbHV0dGVyX2FwcDwvdGV4dD48bGluZSBzdHlsZT0ic3Ryb2tlOiMxODE4MTg7c3Ryb2tlLXdpZHRoOjAuNTsiIHgxPSIzOTA0LjUiIHgyPSI0MDExLjUiIHkxPSI0ODUuOTg0NCIgeTI9IjQ4NS45ODQ0Ii8+PGxpbmUgc3R5bGU9InN0cm9rZTojMTgxODE4O3N0cm9rZS13aWR0aDowLjU7IiB4MT0iMzkwNC41IiB4Mj0iNDAxMS41IiB5MT0iNDkzLjk4NDQiIHkyPSI0OTMuOTg0NCIvPjwvZz48IS0tY2xhc3MgcmVhY3RfYXBwLS0+PGcgaWQ9ImVsZW1fcmVhY3RfYXBwIj48cmVjdCBmaWxsPSIjRjFGMUYxIiBoZWlnaHQ9IjQ4IiBpZD0icmVhY3RfYXBwIiByeD0iMi41IiByeT0iMi41IiBzdHlsZT0ic3Ryb2tlOiMxODE4MTg7c3Ryb2tlLXdpZHRoOjAuNTsiIHdpZHRoPSI5NSIgeD0iNDA0Ny41IiB5PSI0NTMuOTg0NCIvPjxlbGxpcHNlIGN4PSI0MDYyLjUiIGN5PSI0NjkuOTg0NCIgZmlsbD0iI0FERDFCMiIgcng9IjExIiByeT0iMTEiIHN0eWxlPSJzdHJva2U6IzE4MTgxODtzdHJva2Utd2lkdGg6MS4wOyIvPjxwYXRoIGQ9Ik00MDYwLjEyNSw0NzQuMjM0NCBMNDA2MC4xMjUsNDc1Ljk4NDQgTDQwNjUuMDYyNSw0NzUuOTg0NCBMNDA2NS4wNjI1LDQ3NC4yMzQ0IEw0MDYwLjEyNSw0NzQuMjM0NCBaIE00MDYwLjgxMjUsNDc0LjkyMTkgUTQwNjAuODEyNSw0NzQuOTIxOSA0MDYwLjgxMjUsNDY1LjczNDQgTDQwNTkuMDYyNSw0NjUuNzM0NCBRNDA1OS4wNjI1LDQ2NS43MzQ0IDQwNTkuMDYyNSw0NzQuOTIxOSBMNDA2MC44MTI1LDQ3NC45MjE5IFogTTQwNjQuMzc1LDQ3NC45MjE5IEw0MDY2LjEyNSw0NzQuOTIxOSBRNDA2Ni4xMjUsNDc0LjkyMTkgNDA2Ni4xMjUsNDcyLjEwOTQgTDQwNjQuMzc1LDQ3Mi4xMDk0IFE0MDY0LjM3NSw0NzIuMTA5NCA0MDY0LjM3NSw0NzQuOTIxOSBaIE00MDY0LjM3NSw0NjUuNzM0NCBRNDA2NC4zNzUsNDY1LjczNDQgNDA2NC4zNzUsNDY4LjU0NjkgTDQwNjYuMTI1LDQ2OC41NDY5IFE0MDY2LjEyNSw0NjguNTQ2OSA0MDY2LjEyNSw0NjUuNzM0NCBMNDA2NC4zNzUsNDY1LjczNDQgWiBNNDA2MC4xMjUsNDY2LjQyMTkgTDQwNjUuMDYyNSw0NjYuNDIxOSBMNDA2NS4wNjI1LDQ2NC42NzE5IEw0MDYwLjEyNSw0NjQuNjcxOSBMNDA2MC4xMjUsNDY2LjQyMTkgWiAiIGZpbGw9IiMwMDAwMDAiLz48dGV4dCBmaWxsPSIjMDAwMDAwIiBmb250LWZhbWlseT0ic2Fucy1zZXJpZiIgZm9udC1zaXplPSIxNCIgbGVuZ3RoQWRqdXN0PSJzcGFjaW5nIiB0ZXh0TGVuZ3RoPSI2MyIgeD0iNDA3Ni41IiB5PSI0NzUuNzI2NiI+cmVhY3RfYXBwPC90ZXh0PjxsaW5lIHN0eWxlPSJzdHJva2U6IzE4MTgxODtzdHJva2Utd2lkdGg6MC41OyIgeDE9IjQwNDguNSIgeDI9IjQxNDEuNSIgeTE9IjQ4NS45ODQ0IiB5Mj0iNDg1Ljk4NDQiLz48bGluZSBzdHlsZT0ic3Ryb2tlOiMxODE4MTg7c3Ryb2tlLXdpZHRoOjAuNTsiIHgxPSI0MDQ4LjUiIHgyPSI0MTQxLjUiIHkxPSI0OTMuOTg0NCIgeTI9IjQ5My45ODQ0Ii8+PC9nPjwhLS1jbGFzcyBmbHV0dGVyX2FwcC0tPjxnIGlkPSJlbGVtX2ZsdXR0ZXJfYXBwIj48cmVjdCBmaWxsPSIjRjFGMUYxIiBoZWlnaHQ9IjQ4IiBpZD0iZmx1dHRlcl9hcHAiIHJ4PSIyLjUiIHJ5PSIyLjUiIHN0eWxlPSJzdHJva2U6IzE4MTgxODtzdHJva2Utd2lkdGg6MC41OyIgd2lkdGg9IjEwOSIgeD0iMzYwOC41IiB5PSI1OTcuOTg0NCIvPjxlbGxpcHNlIGN4PSIzNjIzLjUiIGN5PSI2MTMuOTg0NCIgZmlsbD0iI0FERDFCMiIgcng9IjExIiByeT0iMTEiIHN0eWxlPSJzdHJva2U6IzE4MTgxODtzdHJva2Utd2lkdGg6MS4wOyIvPjxwYXRoIGQ9Ik0zNjIxLjEyNSw2MTguMjM0NCBMMzYyMS4xMjUsNjE5Ljk4NDQgTDM2MjYuMDYyNSw2MTkuOTg0NCBMMzYyNi4wNjI1LDYxOC4yMzQ0IEwzNjIxLjEyNSw2MTguMjM0NCBaIE0zNjIxLjgxMjUsNjE4LjkyMTkgUTM2MjEuODEyNSw2MTguOTIxOSAzNjIxLjgxMjUsNjA5LjczNDQgTDM2MjAuMDYyNSw2MDkuNzM0NCBRMzYyMC4wNjI1LDYwOS43MzQ0IDM2MjAuMDYyNSw2MTguOTIxOSBMMzYyMS44MTI1LDYxOC45MjE5IFogTTM2MjUuMzc1LDYxOC45MjE5IEwzNjI3LjEyNSw2MTguOTIxOSBRMzYyNy4xMjUsNjE4LjkyMTkgMzYyNy4xMjUsNjE2LjEwOTQgTDM2MjUuMzc1LDYxNi4xMDk0IFEzNjI1LjM3NSw2MTYuMTA5NCAzNjI1LjM3NSw2MTguOTIxOSBaIE0zNjI1LjM3NSw2MDkuNzM0NCBRMzYyNS4zNzUsNjA5LjczNDQgMzYyNS4zNzUsNjEyLjU0NjkgTDM2MjcuMTI1LDYxMi41NDY5IFEzNjI3LjEyNSw2MTIuNTQ2OSAzNjI3LjEyNSw2MDkuNzM0NCBMMzYyNS4zNzUsNjA5LjczNDQgWiBNMzYyMS4xMjUsNjEwLjQyMTkgTDM2MjYuMDYyNSw2MTAuNDIxOSBMMzYyNi4wNjI1LDYwOC42NzE5IEwzNjIxLjEyNSw2MDguNjcxOSBMMzYyMS4xMjUsNjEwLjQyMTkgWiAiIGZpbGw9IiMwMDAwMDAiLz48dGV4dCBmaWxsPSIjMDAwMDAwIiBmb250LWZhbWlseT0ic2Fucy1zZXJpZiIgZm9udC1zaXplPSIxNCIgbGVuZ3RoQWRqdXN0PSJzcGFjaW5nIiB0ZXh0TGVuZ3RoPSI3NyIgeD0iMzYzNy41IiB5PSI2MTkuNzI2NiI+Zmx1dHRlcl9hcHA8L3RleHQ+PGxpbmUgc3R5bGU9InN0cm9rZTojMTgxODE4O3N0cm9rZS13aWR0aDowLjU7IiB4MT0iMzYwOS41IiB4Mj0iMzcxNi41IiB5MT0iNjI5Ljk4NDQiIHkyPSI2MjkuOTg0NCIvPjxsaW5lIHN0eWxlPSJzdHJva2U6IzE4MTgxODtzdHJva2Utd2lkdGg6MC41OyIgeDE9IjM2MDkuNSIgeDI9IjM3MTYuNSIgeTE9IjYzNy45ODQ0IiB5Mj0iNjM3Ljk4NDQiLz48L2c+PCEtLWNsYXNzIHJlYWN0X2FwcC0tPjxnIGlkPSJlbGVtX3JlYWN0X2FwcCI+PHJlY3QgZmlsbD0iI0YxRjFGMSIgaGVpZ2h0PSI0OCIgaWQ9InJlYWN0X2FwcCIgcng9IjIuNSIgcnk9IjIuNSIgc3R5bGU9InN0cm9rZTojMTgxODE4O3N0cm9rZS13aWR0aDowLjU7IiB3aWR0aD0iOTUiIHg9IjM3NTIuNSIgeT0iNTk3Ljk4NDQiLz48ZWxsaXBzZSBjeD0iMzc2Ny41IiBjeT0iNjEzLjk4NDQiIGZpbGw9IiNBREQxQjIiIHJ4PSIxMSIgcnk9IjExIiBzdHlsZT0ic3Ryb2tlOiMxODE4MTg7c3Ryb2tlLXdpZHRoOjEuMDsiLz48cGF0aCBkPSJNMzc2NS4xMjUsNjE4LjIzNDQgTDM3NjUuMTI1LDYxOS45ODQ0IEwzNzcwLjA2MjUsNjE5Ljk4NDQgTDM3NzAuMDYyNSw2MTguMjM0NCBMMzc2NS4xMjUsNjE4LjIzNDQgWiBNMzc2NS44MTI1LDYxOC45MjE5IFEzNzY1LjgxMjUsNjE4LjkyMTkgMzc2NS44MTI1LDYwOS43MzQ0IEwzNzY0LjA2MjUsNjA5LjczNDQgUTM3NjQuMDYyNSw2MDkuNzM0NCAzNzY0LjA2MjUsNjE4LjkyMTkgTDM3NjUuODEyNSw2MTguOTIxOSBaIE0zNzY5LjM3NSw2MTguOTIxOSBMMzc3MS4xMjUsNjE4LjkyMTkgUTM3NzEuMTI1LDYxOC45MjE5IDM3NzEuMTI1LDYxNi4xMDk0IEwzNzY5LjM3NSw2MTYuMTA5NCBRMzc2OS4zNzUsNjE2LjEwOTQgMzc2OS4zNzUsNjE4LjkyMTkgWiBNMzc2OS4zNzUsNjA5LjczNDQgUTM3NjkuMzc1LDYwOS43MzQ0IDM3NjkuMzc1LDYxMi41NDY5IEwzNzcxLjEyNSw2MTIuNTQ2OSBRMzc3MS4xMjUsNjEyLjU0NjkgMzc3MS4xMjUsNjA5LjczNDQgTDM3NjkuMzc1LDYwOS43MzQ0IFogTTM3NjUuMTI1LDYxMC40MjE5IEwzNzcwLjA2MjUsNjEwLjQyMTkgTDM3NzAuMDYyNSw2MDguNjcxOSBMMzc2NS4xMjUsNjA4LjY3MTkgTDM3NjUuMTI1LDYxMC40MjE5IFogIiBmaWxsPSIjMDAwMDAwIi8+PHRleHQgZmlsbD0iIzAwMDAwMCIgZm9udC1mYW1pbHk9InNhbnMtc2VyaWYiIGZvbnQtc2l6ZT0iMTQiIGxlbmd0aEFkanVzdD0ic3BhY2luZyIgdGV4dExlbmd0aD0iNjMiIHg9IjM3ODEuNSIgeT0iNjE5LjcyNjYiPnJlYWN0X2FwcDwvdGV4dD48bGluZSBzdHlsZT0ic3Ryb2tlOiMxODE4MTg7c3Ryb2tlLXdpZHRoOjAuNTsiIHgxPSIzNzUzLjUiIHgyPSIzODQ2LjUiIHkxPSI2MjkuOTg0NCIgeTI9IjYyOS45ODQ0Ii8+PGxpbmUgc3R5bGU9InN0cm9rZTojMTgxODE4O3N0cm9rZS13aWR0aDowLjU7IiB4MT0iMzc1My41IiB4Mj0iMzg0Ni41IiB5MT0iNjM3Ljk4NDQiIHkyPSI2MzcuOTg0NCIvPjwvZz48IS0tY2xhc3MgYmFja2VuZC0tPjxnIGlkPSJlbGVtX2JhY2tlbmQiPjxyZWN0IGZpbGw9IiNGMUYxRjEiIGhlaWdodD0iNDgiIGlkPSJiYWNrZW5kIiByeD0iMi41IiByeT0iMi41IiBzdHlsZT0ic3Ryb2tlOiMxODE4MTg7c3Ryb2tlLXdpZHRoOjAuNTsiIHdpZHRoPSI4MSIgeD0iNDMxOC41IiB5PSI1OTcuOTg0NCIvPjxlbGxpcHNlIGN4PSI0MzMzLjUiIGN5PSI2MTMuOTg0NCIgZmlsbD0iI0FERDFCMiIgcng9IjExIiByeT0iMTEiIHN0eWxlPSJzdHJva2U6IzE4MTgxODtzdHJva2Utd2lkdGg6MS4wOyIvPjxwYXRoIGQ9Ik00MzMxLjEyNSw2MTguMjM0NCBMNDMzMS4xMjUsNjE5Ljk4NDQgTDQzMzYuMDYyNSw2MTkuOTg0NCBMNDMzNi4wNjI1LDYxOC4yMzQ0IEw0MzMxLjEyNSw2MTguMjM0NCBaIE00MzMxLjgxMjUsNjE4LjkyMTkgUTQzMzEuODEyNSw2MTguOTIxOSA0MzMxLjgxMjUsNjA5LjczNDQgTDQzMzAuMDYyNSw2MDkuNzM0NCBRNDMzMC4wNjI1LDYwOS43MzQ0IDQzMzAuMDYyNSw2MTguOTIxOSBMNDMzMS44MTI1LDYxOC45MjE5IFogTTQzMzUuMzc1LDYxOC45MjE5IEw0MzM3LjEyNSw2MTguOTIxOSBRNDMzNy4xMjUsNjE4LjkyMTkgNDMzNy4xMjUsNjE2LjEwOTQgTDQzMzUuMzc1LDYxNi4xMDk0IFE0MzM1LjM3NSw2MTYuMTA5NCA0MzM1LjM3NSw2MTguOTIxOSBaIE00MzM1LjM3NSw2MDkuNzM0NCBRNDMzNS4zNzUsNjA5LjczNDQgNDMzNS4zNzUsNjEyLjU0NjkgTDQzMzcuMTI1LDYxMi41NDY5IFE0MzM3LjEyNSw2MTIuNTQ2OSA0MzM3LjEyNSw2MDkuNzM0NCBMNDMzNS4zNzUsNjA5LjczNDQgWiBNNDMzMS4xMjUsNjEwLjQyMTkgTDQzMzYuMDYyNSw2MTAuNDIxOSBMNDMzNi4wNjI1LDYwOC42NzE5IEw0MzMxLjEyNSw2MDguNjcxOSBMNDMzMS4xMjUsNjEwLjQyMTkgWiAiIGZpbGw9IiMwMDAwMDAiLz48dGV4dCBmaWxsPSIjMDAwMDAwIiBmb250LWZhbWlseT0ic2Fucy1zZXJpZiIgZm9udC1zaXplPSIxNCIgbGVuZ3RoQWRqdXN0PSJzcGFjaW5nIiB0ZXh0TGVuZ3RoPSI0OSIgeD0iNDM0Ny41IiB5PSI2MTkuNzI2NiI+YmFja2VuZDwvdGV4dD48bGluZSBzdHlsZT0ic3Ryb2tlOiMxODE4MTg7c3Ryb2tlLXdpZHRoOjAuNTsiIHgxPSI0MzE5LjUiIHgyPSI0Mzk4LjUiIHkxPSI2MjkuOTg0NCIgeTI9IjYyOS45ODQ0Ii8+PGxpbmUgc3R5bGU9InN0cm9rZTojMTgxODE4O3N0cm9rZS13aWR0aDowLjU7IiB4MT0iNDMxOS41IiB4Mj0iNDM5OC41IiB5MT0iNjM3Ljk4NDQiIHkyPSI2MzcuOTg0NCIvPjwvZz48IS0tY2xhc3MgYmFja2VuZC0tPjxnIGlkPSJlbGVtX2JhY2tlbmQiPjxyZWN0IGZpbGw9IiNGMUYxRjEiIGhlaWdodD0iNDgiIGlkPSJiYWNrZW5kIiByeD0iMi41IiByeT0iMi41IiBzdHlsZT0ic3Ryb2tlOiMxODE4MTg7c3Ryb2tlLXdpZHRoOjAuNTsiIHdpZHRoPSI4MSIgeD0iNDMxOC41IiB5PSI0NTMuOTg0NCIvPjxlbGxpcHNlIGN4PSI0MzMzLjUiIGN5PSI0NjkuOTg0NCIgZmlsbD0iI0FERDFCMiIgcng9IjExIiByeT0iMTEiIHN0eWxlPSJzdHJva2U6IzE4MTgxODtzdHJva2Utd2lkdGg6MS4wOyIvPjxwYXRoIGQ9Ik00MzMxLjEyNSw0NzQuMjM0NCBMNDMzMS4xMjUsNDc1Ljk4NDQgTDQzMzYuMDYyNSw0NzUuOTg0NCBMNDMzNi4wNjI1LDQ3NC4yMzQ0IEw0MzMxLjEyNSw0NzQuMjM0NCBaIE00MzMxLjgxMjUsNDc0LjkyMTkgUTQzMzEuODEyNSw0NzQuOTIxOSA0MzMxLjgxMjUsNDY1LjczNDQgTDQzMzAuMDYyNSw0NjUuNzM0NCBRNDMzMC4wNjI1LDQ2NS43MzQ0IDQzMzAuMDYyNSw0NzQuOTIxOSBMNDMzMS44MTI1LDQ3NC45MjE5IFogTTQzMzUuMzc1LDQ3NC45MjE5IEw0MzM3LjEyNSw0NzQuOTIxOSBRNDMzNy4xMjUsNDc0LjkyMTkgNDMzNy4xMjUsNDcyLjEwOTQgTDQzMzUuMzc1LDQ3Mi4xMDk0IFE0MzM1LjM3NSw0NzIuMTA5NCA0MzM1LjM3NSw0NzQuOTIxOSBaIE00MzM1LjM3NSw0NjUuNzM0NCBRNDMzNS4zNzUsNDY1LjczNDQgNDMzNS4zNzUsNDY4LjU0NjkgTDQzMzcuMTI1LDQ2OC41NDY5IFE0MzM3LjEyNSw0NjguNTQ2OSA0MzM3LjEyNSw0NjUuNzM0NCBMNDMzNS4zNzUsNDY1LjczNDQgWiBNNDMzMS4xMjUsNDY2LjQyMTkgTDQzMzYuMDYyNSw0NjYuNDIxOSBMNDMzNi4wNjI1LDQ2NC42NzE5IEw0MzMxLjEyNSw0NjQuNjcxOSBMNDMzMS4xMjUsNDY2LjQyMTkgWiAiIGZpbGw9IiMwMDAwMDAiLz48dGV4dCBmaWxsPSIjMDAwMDAwIiBmb250LWZhbWlseT0ic2Fucy1zZXJpZiIgZm9udC1zaXplPSIxNCIgbGVuZ3RoQWRqdXN0PSJzcGFjaW5nIiB0ZXh0TGVuZ3RoPSI0OSIgeD0iNDM0Ny41IiB5PSI0NzUuNzI2NiI+YmFja2VuZDwvdGV4dD48bGluZSBzdHlsZT0ic3Ryb2tlOiMxODE4MTg7c3Ryb2tlLXdpZHRoOjAuNTsiIHgxPSI0MzE5LjUiIHgyPSI0Mzk4LjUiIHkxPSI0ODUuOTg0NCIgeTI9IjQ4NS45ODQ0Ii8+PGxpbmUgc3R5bGU9InN0cm9rZTojMTgxODE4O3N0cm9rZS13aWR0aDowLjU7IiB4MT0iNDMxOS41IiB4Mj0iNDM5OC41IiB5MT0iNDkzLjk4NDQiIHkyPSI0OTMuOTg0NCIvPjwvZz48IS0tY2xhc3MgYWtzX2Fjci0tPjxnIGlkPSJlbGVtX2Frc19hY3IiPjxyZWN0IGZpbGw9IiNGMUYxRjEiIGhlaWdodD0iNDgiIGlkPSJha3NfYWNyIiByeD0iMi41IiByeT0iMi41IiBzdHlsZT0ic3Ryb2tlOiMxODE4MTg7c3Ryb2tlLXdpZHRoOjAuNTsiIHdpZHRoPSI4MSIgeD0iNDUzOC41IiB5PSI0NTMuOTg0NCIvPjxlbGxpcHNlIGN4PSI0NTUzLjUiIGN5PSI0NjkuOTg0NCIgZmlsbD0iI0FERDFCMiIgcng9IjExIiByeT0iMTEiIHN0eWxlPSJzdHJva2U6IzE4MTgxODtzdHJva2Utd2lkdGg6MS4wOyIvPjxwYXRoIGQ9Ik00NTUxLjEyNSw0NzQuMjM0NCBMNDU1MS4xMjUsNDc1Ljk4NDQgTDQ1NTYuMDYyNSw0NzUuOTg0NCBMNDU1Ni4wNjI1LDQ3NC4yMzQ0IEw0NTUxLjEyNSw0NzQuMjM0NCBaIE00NTUxLjgxMjUsNDc0LjkyMTkgUTQ1NTEuODEyNSw0NzQuOTIxOSA0NTUxLjgxMjUsNDY1LjczNDQgTDQ1NTAuMDYyNSw0NjUuNzM0NCBRNDU1MC4wNjI1LDQ2NS43MzQ0IDQ1NTAuMDYyNSw0NzQuOTIxOSBMNDU1MS44MTI1LDQ3NC45MjE5IFogTTQ1NTUuMzc1LDQ3NC45MjE5IEw0NTU3LjEyNSw0NzQuOTIxOSBRNDU1Ny4xMjUsNDc0LjkyMTkgNDU1Ny4xMjUsNDcyLjEwOTQgTDQ1NTUuMzc1LDQ3Mi4xMDk0IFE0NTU1LjM3NSw0NzIuMTA5NCA0NTU1LjM3NSw0NzQuOTIxOSBaIE00NTU1LjM3NSw0NjUuNzM0NCBRNDU1NS4zNzUsNDY1LjczNDQgNDU1NS4zNzUsNDY4LjU0NjkgTDQ1NTcuMTI1LDQ2OC41NDY5IFE0NTU3LjEyNSw0NjguNTQ2OSA0NTU3LjEyNSw0NjUuNzM0NCBMNDU1NS4zNzUsNDY1LjczNDQgWiBNNDU1MS4xMjUsNDY2LjQyMTkgTDQ1NTYuMDYyNSw0NjYuNDIxOSBMNDU1Ni4wNjI1LDQ2NC42NzE5IEw0NTUxLjEyNSw0NjQuNjcxOSBMNDU1MS4xMjUsNDY2LjQyMTkgWiAiIGZpbGw9IiMwMDAwMDAiLz48dGV4dCBmaWxsPSIjMDAwMDAwIiBmb250LWZhbWlseT0ic2Fucy1zZXJpZiIgZm9udC1zaXplPSIxNCIgbGVuZ3RoQWRqdXN0PSJzcGFjaW5nIiB0ZXh0TGVuZ3RoPSI0OSIgeD0iNDU2Ny41IiB5PSI0NzUuNzI2NiI+YWtzX2FjcjwvdGV4dD48bGluZSBzdHlsZT0ic3Ryb2tlOiMxODE4MTg7c3Ryb2tlLXdpZHRoOjAuNTsiIHgxPSI0NTM5LjUiIHgyPSI0NjE4LjUiIHkxPSI0ODUuOTg0NCIgeTI9IjQ4NS45ODQ0Ii8+PGxpbmUgc3R5bGU9InN0cm9rZTojMTgxODE4O3N0cm9rZS13aWR0aDowLjU7IiB4MT0iNDUzOS41IiB4Mj0iNDYxOC41IiB5MT0iNDkzLjk4NDQiIHkyPSI0OTMuOTg0NCIvPjwvZz48IS0tbGluayBtYWluIHRvIGZsdXR0ZXJfYXBwLS0+PGcgaWQ9ImxpbmtfbWFpbl9mbHV0dGVyX2FwcCI+PHBhdGggY29kZUxpbmU9IjgwIiBkPSJNNDAwNy4wMiwyNTcuNjQ0NCBDMzk4Ni41LDI5MS42OTQ0IDM5NDMuMSwzNTQuMjQ0NCAzODg3LDM4MS45ODQ0IEMzODY3LjQxLDM5MS42NzQ0IDM4MTAuMjMsMzg0LjgxNDQgMzc4OSwzODkuOTg0NCBDMzc2My4yNiwzOTYuMjU0NCAzNzU2LjQzLDM5OC44ODQ0IDM3MzQsNDEyLjk4NDQgQzM3MTUuNzQsNDI0LjQ2NDQgMzcwMS44OTE2LDQzNi40NDEzIDM2ODguMzgxNiw0NDkuNjQxMyAiIGZpbGw9Im5vbmUiIGlkPSJtYWluLXRvLWZsdXR0ZXJfYXBwIiBzdHlsZT0ic3Ryb2tlOiMxODE4MTg7c3Ryb2tlLXdpZHRoOjEuMDsiLz48cG9seWdvbiBmaWxsPSIjMTgxODE4IiBwb2ludHM9IjM2ODQuMDksNDUzLjgzNDQsMzY5My4zMjI4LDQ1MC40MDU4LDM2ODcuNjY2Myw0NTAuMzQwMSwzNjg3LjczMiw0NDQuNjgzNiwzNjg0LjA5LDQ1My44MzQ0IiBzdHlsZT0ic3Ryb2tlOiMxODE4MTg7c3Ryb2tlLXdpZHRoOjEuMDsiLz48dGV4dCBmaWxsPSIjMDAwMDAwIiBmb250LWZhbWlseT0ic2Fucy1zZXJpZiIgZm9udC1zaXplPSIxMyIgbGVuZ3RoQWRqdXN0PSJzcGFjaW5nIiB0ZXh0TGVuZ3RoPSI2OCIgeD0iMzc5MCIgeT0iNDAzLjI3MzQiPkRlcGxveXMgaW48L3RleHQ+PC9nPjwhLS1saW5rIG1haW4gdG8gZmx1dHRlcl9hcHAtLT48ZyBpZD0ibGlua19tYWluX2ZsdXR0ZXJfYXBwIj48cGF0aCBjb2RlTGluZT0iODEiIGQ9Ik00MDEwLjksMjU3LjU0NDQgQzM5OTkuNCwyODcuNTY0NCAzOTc5LjgyLDM0MS44OTQ0IDM5NjksMzg5Ljk4NDQgQzM5NjQuMTksNDExLjM3NDQgMzk2MS44NTE0LDQzMC4yNDg4IDM5NjAuMjUxNCw0NDcuOTA4OCAiIGZpbGw9Im5vbmUiIGlkPSJtYWluLXRvLWZsdXR0ZXJfYXBwLTEiIHN0eWxlPSJzdHJva2U6IzE4MTgxODtzdHJva2Utd2lkdGg6MS4wOyIvPjxwb2x5Z29uIGZpbGw9IiMxODE4MTgiIHBvaW50cz0iMzk1OS43MSw0NTMuODg0NCwzOTY0LjUwNTgsNDQ1LjI4MiwzOTYwLjE2MTIsNDQ4LjkwNDgsMzk1Ni41Mzg0LDQ0NC41NjAyLDM5NTkuNzEsNDUzLjg4NDQiIHN0eWxlPSJzdHJva2U6IzE4MTgxODtzdHJva2Utd2lkdGg6MS4wOyIvPjx0ZXh0IGZpbGw9IiMwMDAwMDAiIGZvbnQtZmFtaWx5PSJzYW5zLXNlcmlmIiBmb250LXNpemU9IjEzIiBsZW5ndGhBZGp1c3Q9InNwYWNpbmciIHRleHRMZW5ndGg9IjY4IiB4PSIzOTcwIiB5PSI0MDMuMjczNCI+RGVwbG95cyBpbjwvdGV4dD48L2c+PCEtLWxpbmsgZmx1dHRlcl9hcHAgdG8gZmx1dHRlcl9hcHAtLT48ZyBpZD0ibGlua19mbHV0dGVyX2FwcF9mbHV0dGVyX2FwcCI+PHBhdGggY29kZUxpbmU9IjgyIiBkPSJNMzY1NS4yOSw1MDIuMDU0NCBDMzY1Mi43OCw1MTEuODE0NCAzNjUwLjI0LDUyMy4zNjQ0IDM2NDksNTMzLjk4NDQgQzM2NDYuNDcsNTU1LjcxNDQgMzY0OS41OTk5LDU3NC41MTI3IDM2NTQuMjA5OSw1OTEuOTkyNyAiIGZpbGw9Im5vbmUiIGlkPSJmbHV0dGVyX2FwcC10by1mbHV0dGVyX2FwcCIgc3R5bGU9InN0cm9rZTojMTgxODE4O3N0cm9rZS13aWR0aDoxLjA7Ii8+PHBvbHlnb24gZmlsbD0iIzE4MTgxOCIgcG9pbnRzPSIzNjU1Ljc0LDU5Ny43OTQ0LDM2NTcuMzEyNyw1ODguMDcxOSwzNjU0LjQ2NDksNTkyLjk1OTcsMzY0OS41NzcyLDU5MC4xMTIsMzY1NS43NCw1OTcuNzk0NCIgc3R5bGU9InN0cm9rZTojMTgxODE4O3N0cm9rZS13aWR0aDoxLjA7Ii8+PHRleHQgZmlsbD0iIzAwMDAwMCIgZm9udC1mYW1pbHk9InNhbnMtc2VyaWYiIGZvbnQtc2l6ZT0iMTMiIGxlbmd0aEFkanVzdD0ic3BhY2luZyIgdGV4dExlbmd0aD0iMTE2IiB4PSIzNjUwIiB5PSI1NDcuMjczNCI+U2VydmVzIGNvbnRlbnQgdG88L3RleHQ+PC9nPjwhLS1saW5rIG1haW4gdG8gcmVhY3RfYXBwLS0+PGcgaWQ9ImxpbmtfbWFpbl9yZWFjdF9hcHAiPjxwYXRoIGNvZGVMaW5lPSI4NCIgZD0iTTM5OTkuMzYsMjU3LjU2NDQgQzM5NzMuMjksMjg2LjY3NDQgMzkyNy4wMSwzMzguMjA0NCAzODg3LDM4MS45ODQ0IEMzODY0LjU1LDQwNi41NDQ0IDM4NDIuNzM3Nyw0MzAuMDYyMyAzODI0Ljg3NzcsNDQ5LjI1MjMgIiBmaWxsPSJub25lIiBpZD0ibWFpbi10by1yZWFjdF9hcHAiIHN0eWxlPSJzdHJva2U6IzE4MTgxODtzdHJva2Utd2lkdGg6MS4wOyIvPjxwb2x5Z29uIGZpbGw9IiMxODE4MTgiIHBvaW50cz0iMzgyMC43OSw0NTMuNjQ0NCwzODI5Ljg0OTYsNDQ5Ljc4MTMsMzgyNC4xOTY0LDQ0OS45ODQzLDM4MjMuOTkzNSw0NDQuMzMxMSwzODIwLjc5LDQ1My42NDQ0IiBzdHlsZT0ic3Ryb2tlOiMxODE4MTg7c3Ryb2tlLXdpZHRoOjEuMDsiLz48dGV4dCBmaWxsPSIjMDAwMDAwIiBmb250LWZhbWlseT0ic2Fucy1zZXJpZiIgZm9udC1zaXplPSIxMyIgbGVuZ3RoQWRqdXN0PSJzcGFjaW5nIiB0ZXh0TGVuZ3RoPSI2OCIgeD0iMzg3OCIgeT0iNDAzLjI3MzQiPkRlcGxveXMgaW48L3RleHQ+PC9nPjwhLS1saW5rIG1haW4gdG8gcmVhY3RfYXBwLS0+PGcgaWQ9ImxpbmtfbWFpbl9yZWFjdF9hcHAiPjxwYXRoIGNvZGVMaW5lPSI4NSIgZD0iTTQwMjcuMTksMjU3LjczNDQgQzQwNDEuNTMsMzA0LjA4NDQgNDA3MS43MzcxLDQwMS43NzIzIDQwODYuMDU3MSw0NDguMDcyMyAiIGZpbGw9Im5vbmUiIGlkPSJtYWluLXRvLXJlYWN0X2FwcC0xIiBzdHlsZT0ic3Ryb2tlOiMxODE4MTg7c3Ryb2tlLXdpZHRoOjEuMDsiLz48cG9seWdvbiBmaWxsPSIjMTgxODE4IiBwb2ludHM9IjQwODcuODMsNDUzLjgwNDQsNDA4OC45OTIxLDQ0NC4wMjQzLDQwODYuMzUyNiw0NDkuMDI3Niw0MDgxLjM0OTMsNDQ2LjM4ODEsNDA4Ny44Myw0NTMuODA0NCIgc3R5bGU9InN0cm9rZTojMTgxODE4O3N0cm9rZS13aWR0aDoxLjA7Ii8+PHRleHQgZmlsbD0iIzAwMDAwMCIgZm9udC1mYW1pbHk9InNhbnMtc2VyaWYiIGZvbnQtc2l6ZT0iMTMiIGxlbmd0aEFkanVzdD0ic3BhY2luZyIgdGV4dExlbmd0aD0iNjgiIHg9IjQwNzEiIHk9IjQwMy4yNzM0Ij5EZXBsb3lzIGluPC90ZXh0PjwvZz48IS0tbGluayByZWFjdF9hcHAgdG8gcmVhY3RfYXBwLS0+PGcgaWQ9ImxpbmtfcmVhY3RfYXBwX3JlYWN0X2FwcCI+PHBhdGggY29kZUxpbmU9Ijg2IiBkPSJNMzc5OS4xNiw1MDIuMTE0NCBDMzc5OS4zNSw1MjguNTI0NCAzNzk5LjYwNjgsNTY1LjQ2NDUgMzc5OS43OTY4LDU5MS44NjQ1ICIgZmlsbD0ibm9uZSIgaWQ9InJlYWN0X2FwcC10by1yZWFjdF9hcHAiIHN0eWxlPSJzdHJva2U6IzE4MTgxODtzdHJva2Utd2lkdGg6MS4wOyIvPjxwb2x5Z29uIGZpbGw9IiMxODE4MTgiIHBvaW50cz0iMzc5OS44NCw1OTcuODY0NCwzODAzLjc3NTEsNTg4LjgzNTgsMzc5OS44MDQsNTkyLjg2NDUsMzc5NS43NzUzLDU4OC44OTM0LDM3OTkuODQsNTk3Ljg2NDQiIHN0eWxlPSJzdHJva2U6IzE4MTgxODtzdHJva2Utd2lkdGg6MS4wOyIvPjx0ZXh0IGZpbGw9IiMwMDAwMDAiIGZvbnQtZmFtaWx5PSJzYW5zLXNlcmlmIiBmb250LXNpemU9IjEzIiBsZW5ndGhBZGp1c3Q9InNwYWNpbmciIHRleHRMZW5ndGg9IjExNiIgeD0iMzgwMCIgeT0iNTQ3LjI3MzQiPlNlcnZlcyBjb250ZW50IHRvPC90ZXh0PjwvZz48IS0tbGluayBtYWluIHRvIGJhY2tlbmQtLT48ZyBpZD0ibGlua19tYWluX2JhY2tlbmQiPjxwYXRoIGNvZGVMaW5lPSI4OCIgZD0iTTQwNDAuNzcsMjU3LjY2NDQgQzQwNjYuOTksMjg3LjM3NDQgNDExMi45LDM0MC45MjQ0IDQxNDgsMzg5Ljk4NDQgQzQxODkuMzQsNDQ3Ljc2NDQgNDE4NC4wNSw0NzMuNTY0NCA0MjMyLDUyNS45ODQ0IEM0MjU4LjExLDU1NC41MjQ0IDQyODguNzkwNiw1NzcuMDgyNSA0MzE1LjY5MDYsNTk0LjU4MjUgIiBmaWxsPSJub25lIiBpZD0ibWFpbi10by1iYWNrZW5kIiBzdHlsZT0ic3Ryb2tlOiMxODE4MTg7c3Ryb2tlLXdpZHRoOjEuMDsiLz48cG9seWdvbiBmaWxsPSIjMTgxODE4IiBwb2ludHM9IjQzMjAuNzIsNTk3Ljg1NDQsNDMxNS4zNTcyLDU4OS41OTM2LDQzMTYuNTI4OSw1OTUuMTI3OCw0MzEwLjk5NDcsNTk2LjI5OTQsNDMyMC43Miw1OTcuODU0NCIgc3R5bGU9InN0cm9rZTojMTgxODE4O3N0cm9rZS13aWR0aDoxLjA7Ii8+PHRleHQgZmlsbD0iIzAwMDAwMCIgZm9udC1mYW1pbHk9InNhbnMtc2VyaWYiIGZvbnQtc2l6ZT0iMTMiIGxlbmd0aEFkanVzdD0ic3BhY2luZyIgdGV4dExlbmd0aD0iNjgiIHg9IjQyMzMiIHk9IjQ4My43NzM0Ij5EZXBsb3lzIGluPC90ZXh0PjwvZz48IS0tbGluayBtYWluIHRvIGJhY2tlbmQtLT48ZyBpZD0ibGlua19tYWluX2JhY2tlbmQiPjxwYXRoIGNvZGVMaW5lPSI4OSIgZD0iTTQwNTAuODUsMjUyLjQwNDQgQzQxMDIuNDEsMjgyLjg3NDQgNDIwOC41NiwzNDcuODM0NCA0MjkxLDQxMi45ODQ0IEM0MzA2LjksNDI1LjU0NDQgNDMxOS4yMDU4LDQzNi44OTM1IDQzMzIuMDI1OCw0NDkuNTIzNSAiIGZpbGw9Im5vbmUiIGlkPSJtYWluLXRvLWJhY2tlbmQtMSIgc3R5bGU9InN0cm9rZTojMTgxODE4O3N0cm9rZS13aWR0aDoxLjA7Ii8+PHBvbHlnb24gZmlsbD0iIzE4MTgxOCIgcG9pbnRzPSI0MzM2LjMsNDUzLjczNDQsNDMzMi42OTU5LDQ0NC41Njg2LDQzMzIuNzM4Miw0NTAuMjI1Myw0MzI3LjA4MTUsNDUwLjI2NzYsNDMzNi4zLDQ1My43MzQ0IiBzdHlsZT0ic3Ryb2tlOiMxODE4MTg7c3Ryb2tlLXdpZHRoOjEuMDsiLz48dGV4dCBmaWxsPSIjMDAwMDAwIiBmb250LWZhbWlseT0ic2Fucy1zZXJpZiIgZm9udC1zaXplPSIxMyIgbGVuZ3RoQWRqdXN0PSJzcGFjaW5nIiB0ZXh0TGVuZ3RoPSI2OCIgeD0iNDI3OCIgeT0iNDAzLjI3MzQiPkRlcGxveXMgaW48L3RleHQ+PC9nPjwhLS1saW5rIGJhY2tlbmQgdG8gYmFja2VuZC0tPjxnIGlkPSJsaW5rX2JhY2tlbmRfYmFja2VuZCI+PHBhdGggY29kZUxpbmU9IjkwIiBkPSJNNDM1OSw1MDIuMTE0NCBDNDM1OSw1MjguNTI0NCA0MzU5LDU2NS40NjQ0IDQzNTksNTkxLjg2NDQgIiBmaWxsPSJub25lIiBpZD0iYmFja2VuZC10by1iYWNrZW5kIiBzdHlsZT0ic3Ryb2tlOiMxODE4MTg7c3Ryb2tlLXdpZHRoOjEuMDsiLz48cG9seWdvbiBmaWxsPSIjMTgxODE4IiBwb2ludHM9IjQzNTksNTk3Ljg2NDQsNDM2Myw1ODguODY0NCw0MzU5LDU5Mi44NjQ0LDQzNTUsNTg4Ljg2NDQsNDM1OSw1OTcuODY0NCIgc3R5bGU9InN0cm9rZTojMTgxODE4O3N0cm9rZS13aWR0aDoxLjA7Ii8+PHRleHQgZmlsbD0iIzAwMDAwMCIgZm9udC1mYW1pbHk9InNhbnMtc2VyaWYiIGZvbnQtc2l6ZT0iMTMiIGxlbmd0aEFkanVzdD0ic3BhY2luZyIgdGV4dExlbmd0aD0iNjYiIHg9IjQzNjAiIHk9IjU0Ny4yNzM0Ij5QdWxscyBmcm9tPC90ZXh0PjwvZz48IS0tbGluayBha3NfYWNyIHRvIGJhY2tlbmQtLT48ZyBpZD0ibGlua19ha3NfYWNyX2JhY2tlbmQiPjxwYXRoIGNvZGVMaW5lPSI5MSIgZD0iTTQ1NDMuMTYsNTAyLjExNDQgQzQ1MDIuMjUsNTI4LjUyNDQgNDQ0MC43NzE0LDU2OC4yMTExIDQzOTkuODYxNCw1OTQuNjExMSAiIGZpbGw9Im5vbmUiIGlkPSJha3NfYWNyLXRvLWJhY2tlbmQiIHN0eWxlPSJzdHJva2U6IzE4MTgxODtzdHJva2Utd2lkdGg6MS4wOyIvPjxwb2x5Z29uIGZpbGw9IiMxODE4MTgiIHBvaW50cz0iNDM5NC44Miw1OTcuODY0NCw0NDA0LjU1MSw1OTYuMzQ1Myw0Mzk5LjAyMTIsNTk1LjE1MzMsNDQwMC4yMTMyLDU4OS42MjM0LDQzOTQuODIsNTk3Ljg2NDQiIHN0eWxlPSJzdHJva2U6IzE4MTgxODtzdHJva2Utd2lkdGg6MS4wOyIvPjx0ZXh0IGZpbGw9IiMwMDAwMDAiIGZvbnQtZmFtaWx5PSJzYW5zLXNlcmlmIiBmb250LXNpemU9IjEzIiBsZW5ndGhBZGp1c3Q9InNwYWNpbmciIHRleHRMZW5ndGg9IjEyOSIgeD0iNDQ4OSIgeT0iNTQ3LjI3MzQiPkdyYW50cyBBY3JQdWxsIHJvbGU8L3RleHQ+PC9nPjwhLS1TUkM9W3RMTERSemYwNEJ0cEFxUEhmSG1naDJmNzNmTGVnTEJLVjIxOHNxRExNVWxyR0JRaVR3dFBUSDhJdlJ6dFI4RUQycFJ2ZzdoZTFNN0ZwRkVSRHN6ZGxWOFF1SEdEYWowbURkQ0lwYkNjVktPODhvS005OTlVQm5Mb0FITzhIckRxRFlGOTVNSXB6MFdVVVcxZWxGOGhFMUJ0TjREOUlFa1NTOTdkMThiR2ZhbTRVMGlOOGk0MXQwV0FjY2NYdVMwd3Z5bkF1UEtyUFB2VUZ0N21pU1NfbnQxazh5TWFYc2RBVi1EQ3Z0S0xtdnRXdmpqX3FkSlU0YlU0R2FnUjZIX0NUVU96S1laSVQ1Rkk5Q28xQ0NoYTRkckREaXlPYlcxbWZQMDZDRkYybjhCWUFacDVMQWpER3NWSk1ITnVWN0tyY1M2YnFRaTFpRUdyODREdTlVNHhIYXZ2X2hXb0NUdTVycHhISEtnWG1jdV9DWlBYSWRSRXROVnR5a1BYSnBVRlZRdlZielQ0bGRvajZtaEZiSUpoeERtVk9lNGNKZ3F3OTZheFpLcnpMTjE5UWc1T2xKTFVkdWx3amRYTllzY1RObUNfT1MxMUlZZUhqMGZsQ0dnbGtOSlRLY0tucmh4NU55dDhLeXI1QUFKX0J3cExxU2NfQ3pRQklCSlFnYTF4ZVFhZzlXU2p6TzRUbjFIV0UxZGxpVExrakNyUXFYaEZBdk1ESkJYR2xBbk5HTEdNanRYQktqREszVjVoZ3lNOUNsMzlZNFhabEVNUWJkNGlpbVo5ZTRTTklmcXZGYlM3TTJvaG4yUVJxU0tDOWVIcFROU1d5U0I2MjFEaHpHMVlkOGpDLXNSZU9wd0Y0aUZtU3JaQ2ZxaHZUV3VwVE96UmhYbERKaUFSYXJnTEJFOXNPM21nOExwbjZBZlFlNzVTUWkwR0FzUU4zOXJKMnVEbmJxZmFETGtiSTRtdUxaSjd5ellNUUNlZjBweGVEQ2NxaGpiOGNzd3ZoZHRjbUhSMzJJYVpMUGhWdXdFd2pkcklHSHhJSFBTYnlIX2xWV09zLWVNb1FocHFCdFR0cEZlUW1uN1VER3VZekJVODFaUHRrRWpydF94el9saWROaG0zNkY1SWlvbDdnLWF2ZUFzdHR0eDBKV3V4bUZpbEQzTzJxV3F3b0FWMzBlQXRsVFZlaUJOS19lT0ExLTR3bGota0cwRnJUVnJ0QlJBTjJqMnJibFBaVGJLeVdzdi1VWHRDb0lRem13Vl82UllkOThudGNfcTBFVUhsXS0tPjwvZz48L3N2Zz4=;" vertex="1" parent="1">
            <mxGeometry x="-2360" y="130" width="4708" height="668" as="geometry" />
          </mxCell>
        </UserObject>
      </root>
    </mxGraphModel>
  </diagram>
</mxfile>
